<svg width="248" height="213" viewBox="0 0 248 213" fill="none" xmlns="http://www.w3.org/2000/svg">
<path d="M159.534 10.1121C150.135 6.50595 140.604 15.5244 141.362 32.2676C141.932 44.7672 129.944 43.4048 136.211 54.5357C142.477 65.6666 137.834 73.1976 131.198 71.1726C136.211 77.4724 151.018 72.6101 151.062 62.3354C151.106 52.0608 176.454 67.054 176.454 67.054C176.454 67.054 171.303 76.0537 185.64 73.9851C199.978 71.9164 212.467 43.086 212.517 30.2927C212.561 21.8117 203.475 17.8931 198.9 18.7493C198.737 7.8934 155.148 -12.2435 159.534 10.1121Z" fill="#263238"/>
<path d="M134.356 70.6727C133.042 70.6606 131.746 70.3642 130.558 69.804L130.847 69.2477C130.878 69.2477 133.729 70.6852 136.486 69.6915C138.153 69.0665 139.45 67.7165 140.346 65.6104L140.923 65.8541C139.958 68.129 138.535 69.604 136.693 70.2852C135.942 70.548 135.151 70.6791 134.356 70.6727Z" fill="#263238"/>
<path d="M137.038 46.3421L136.549 45.9547C140.015 41.6485 139.639 37.7237 139.2 33.1801C138.805 29.0427 138.354 24.3553 140.892 18.6305C143.743 12.2057 147.597 8.38085 152.04 7.58087C155.75 6.90589 159.685 8.46834 163.125 11.9557L162.68 12.3932C159.422 9.06207 155.662 7.56212 152.153 8.19335C147.923 8.95583 144.226 12.6557 141.468 18.8805C138.993 24.4553 139.438 29.0552 139.827 33.1176C140.253 37.6049 140.66 41.8735 137.038 46.3421Z" fill="#263238"/>
<path d="M85.5841 115.184L83.2655 108.034C82.6512 106.141 81.505 104.465 79.9631 103.203L77.2685 100.99C76.3702 100.563 75.3626 100.418 74.3797 100.575C73.3969 100.733 72.4854 101.185 71.7666 101.872L67.5117 105.947C66.6198 106.801 66.0832 107.959 66.0089 109.19C65.9346 110.421 66.3279 111.635 67.1106 112.59L68.9342 114.809C68.9342 114.809 74.4236 123.283 81.4294 125.971L82.8331 124.427C83.9545 123.189 84.7836 121.716 85.2597 120.117C85.7357 118.517 85.8465 116.832 85.5841 115.184Z" fill="#FFBDB4"/>
<path d="M150.705 110.259L150.354 111.29L150.035 112.203L149.408 113.984C148.976 115.165 148.506 116.309 148.042 117.452C147.108 119.746 146.093 121.984 145.04 124.208C143.988 126.433 142.872 128.627 141.7 130.802C140.528 132.977 139.325 135.127 138.022 137.239C135.43 141.514 132.586 145.631 129.506 149.57C126.364 153.605 122.906 157.385 119.166 160.876C118.684 161.314 118.22 161.757 117.731 162.189L116.246 163.47L115.876 163.788L115.688 163.951L115.231 164.332C114.388 165.009 113.467 165.582 112.486 166.038C111.391 166.545 110.228 166.891 109.033 167.063C107.908 167.226 106.765 167.237 105.637 167.095C103.946 166.877 102.308 166.354 100.805 165.551C99.7787 165 98.8108 164.347 97.9166 163.601C96.594 162.501 95.3829 161.275 94.3009 159.939C92.5647 157.794 91.0035 155.514 89.6324 153.12C88.3791 150.889 87.2136 148.676 86.142 146.47C84.0365 142.039 82.2192 137.614 80.5962 133.139C78.9732 128.665 77.5194 124.196 76.2912 119.515C75.9676 118.28 76.1004 116.971 76.6652 115.826C77.23 114.681 78.1892 113.777 79.3673 113.28C80.5454 112.782 81.8637 112.724 83.0812 113.116C84.2987 113.508 85.3341 114.324 85.9979 115.415L86.0605 115.528C90.7541 123.246 95.4038 131.196 100.348 138.383C101.601 140.183 102.855 141.927 104.108 143.539C105.246 145.034 106.49 146.446 107.83 147.764C108.252 148.187 108.728 148.553 109.246 148.851C109.384 148.92 109.434 148.883 109.246 148.77C108.774 148.494 108.249 148.322 107.705 148.264C107.152 148.189 106.591 148.189 106.038 148.264C105.415 148.348 104.807 148.521 104.233 148.776C103.775 148.983 103.342 149.241 102.942 149.545L102.83 149.639L102.779 149.676V149.645L102.911 149.508L103.18 149.239L104.233 148.164L105.267 147.052C108.04 143.988 110.61 140.748 112.962 137.352C115.325 133.883 117.6 130.302 119.661 126.552C121.723 122.802 123.697 118.977 125.527 115.078C126.441 113.121 127.306 111.153 128.152 109.184L129.406 106.234L129.995 104.778L130.496 103.472L130.659 103.053C131.614 100.401 133.586 98.2357 136.141 97.0337C137.406 96.4386 138.777 96.0978 140.174 96.0309C141.572 95.964 142.968 96.1722 144.285 96.6438C145.602 97.1153 146.812 97.8408 147.848 98.779C148.884 99.7171 149.724 100.85 150.32 102.111C150.917 103.373 151.259 104.74 151.326 106.134C151.393 107.528 151.184 108.921 150.711 110.234L150.705 110.259Z" fill="#FFBDB4"/>
<path d="M127.926 112.821C128.196 118.984 118.445 133.227 130.483 141.483C131.899 153.926 133.673 166.176 137 186.581H199.815C197.233 168.932 197.797 148.82 206.081 109.084C206.537 106.911 206.53 104.666 206.059 102.496C205.589 100.326 204.666 98.2787 203.35 96.4876C202.035 94.6964 200.356 93.2012 198.424 92.0992C196.491 90.9971 194.347 90.3128 192.132 90.0908C189.626 89.8408 186.969 89.6283 184.249 89.4971C173.678 88.9908 165.018 88.6533 155.724 89.4971C152.648 89.7783 149.458 90.1658 146.425 90.5908C141.125 91.3445 136.295 94.0379 132.876 98.1469C129.457 102.256 127.692 107.487 127.926 112.821Z" fill="#1C3255"/>
<path opacity="0.2" d="M127.713 104.534C130.627 107.571 134.97 108.715 137.113 107.771C139.256 106.828 136.662 105.84 134.349 105.722C132.037 105.603 135.697 104.728 139.601 105.153C143.505 105.578 143.166 102.828 138.974 102.109C134.782 101.39 139.037 101.065 142.514 101.315C145.992 101.565 146.381 99.0842 142.182 98.1905C137.984 97.2968 149.909 97.928 145.942 93.8156C141.976 89.7033 139.908 99.3342 139.889 95.8156C139.87 92.2969 136.818 91.9907 136.261 94.7969C135.703 97.603 134.274 100.859 134.443 97.3843C134.613 93.9094 131.417 93.0094 130.959 96.1343C130.502 99.2592 128.572 101.984 128.992 100.128C129.411 98.2718 128.885 96.0031 127.231 97.453C125.576 98.903 124.806 101.497 127.713 104.534Z" fill="white"/>
<path opacity="0.2" d="M160.938 108.365C157.993 105.359 153.638 104.259 151.538 105.24C149.439 106.222 152.002 107.159 154.321 107.259C156.639 107.359 152.98 108.265 149.076 107.884C145.172 107.503 145.529 110.246 149.702 110.915C153.876 111.584 149.658 111.965 146.174 111.753C142.69 111.54 142.333 114.021 146.538 114.878C150.743 115.734 138.818 115.221 142.822 119.315C146.826 123.409 148.8 113.728 148.85 117.246C148.9 120.765 151.983 121.04 152.491 118.227C152.998 115.415 154.415 112.146 154.283 115.621C154.151 119.096 157.354 119.996 157.773 116.815C158.193 113.634 160.105 110.946 159.704 112.796C159.303 114.646 159.854 116.927 161.496 115.459C163.138 113.99 163.877 111.371 160.938 108.365Z" fill="white"/>
<path opacity="0.2" d="M119.122 124.258C122.036 127.29 126.378 128.44 128.522 127.49C130.665 126.54 128.077 125.565 125.758 125.446C123.439 125.327 127.105 124.452 131.009 124.877C134.913 125.302 134.581 122.546 130.383 121.834C126.184 121.121 130.439 120.784 133.923 121.034C137.407 121.284 137.783 118.802 133.591 117.909C129.399 117.015 141.311 117.652 137.351 113.534C133.391 109.415 131.316 119.059 131.298 115.54C131.279 112.021 128.227 111.715 127.669 114.515C127.112 117.315 125.683 120.577 125.852 117.109C126.021 113.64 122.825 112.696 122.374 115.859C121.923 119.021 119.98 121.702 120.407 119.852C120.833 118.002 120.294 115.721 118.639 117.177C116.985 118.634 116.214 121.246 119.122 124.258Z" fill="white"/>
<path opacity="0.2" d="M152.347 128.083C149.402 125.077 145.046 123.977 142.916 124.958C140.785 125.94 143.386 126.877 145.698 126.971C148.011 127.065 144.363 127.977 140.453 127.596C136.543 127.215 136.913 129.958 141.08 130.633C145.247 131.308 141.03 131.677 137.546 131.464C134.061 131.252 133.71 133.739 137.909 134.589C142.108 135.439 130.189 134.927 134.199 139.02C138.21 143.114 140.171 133.439 140.228 136.952C140.284 140.464 143.361 140.745 143.862 137.939C144.363 135.133 145.792 131.858 145.654 135.327C145.516 138.795 148.731 139.702 149.151 136.521C149.571 133.339 151.476 130.652 151.075 132.508C150.674 134.364 151.225 136.633 152.867 135.164C154.509 133.696 155.292 131.089 152.347 128.083Z" fill="white"/>
<path opacity="0.2" d="M171.328 110.228C174.236 113.265 178.584 114.409 180.728 113.465C182.871 112.521 180.283 111.54 177.97 111.415C175.658 111.29 179.318 110.421 183.215 110.846C187.113 111.271 186.787 108.521 182.589 107.803C178.39 107.084 182.645 106.759 186.129 107.009C189.613 107.259 189.989 104.778 185.797 103.884C181.605 102.99 193.517 103.622 189.557 99.5092C185.597 95.3968 183.522 105.028 183.51 101.509C183.497 97.9905 180.433 97.6842 179.882 100.49C179.33 103.297 177.889 106.553 178.058 103.078C178.227 99.6029 175.031 98.6717 174.58 101.828C174.129 104.984 172.186 107.678 172.613 105.821C173.039 103.965 172.506 101.697 170.845 103.147C169.185 104.597 168.389 107.19 171.328 110.228Z" fill="white"/>
<path opacity="0.2" d="M204.54 114.059C201.601 111.053 197.239 109.953 195.109 110.934C192.978 111.915 195.579 112.853 197.891 112.953C200.203 113.053 196.556 113.959 192.646 113.577C188.736 113.196 189.106 115.94 193.273 116.615C197.44 117.29 193.223 117.659 189.738 117.446C186.254 117.234 185.903 119.715 190.108 120.571C194.313 121.427 182.388 120.908 186.392 125.002C190.396 129.096 192.364 119.415 192.421 122.933C192.477 126.452 195.554 126.727 196.061 123.915C196.569 121.102 197.985 117.834 197.847 121.308C197.709 124.783 200.924 125.683 201.344 122.502C201.764 119.321 203.675 116.634 203.268 118.49C202.86 120.346 203.424 122.615 205.06 121.146C206.695 119.677 207.466 117.065 204.54 114.059Z" fill="white"/>
<path opacity="0.2" d="M162.711 129.952C165.619 132.989 169.968 134.133 172.111 133.183C174.254 132.233 171.66 131.258 169.348 131.139C167.035 131.021 170.695 130.146 174.599 130.571C178.503 130.996 178.164 128.246 173.972 127.527C169.78 126.808 174.035 126.477 177.513 126.727C180.991 126.977 181.379 124.502 177.181 123.602C172.982 122.702 184.907 123.346 180.94 119.227C176.974 115.109 174.906 124.752 174.887 121.234C174.868 117.715 171.817 117.409 171.259 120.209C170.701 123.008 169.266 126.271 169.442 122.802C169.617 119.334 166.415 118.39 165.957 121.552C165.5 124.715 163.57 127.396 163.99 125.546C164.41 123.696 163.883 121.415 162.229 122.871C160.575 124.327 159.797 126.915 162.711 129.952Z" fill="white"/>
<path opacity="0.2" d="M143.286 149.301C140.34 146.295 135.985 145.195 133.855 146.176C131.724 147.158 134.318 148.095 136.637 148.195C138.955 148.295 135.302 149.201 131.392 148.82C127.482 148.439 127.851 151.183 132.018 151.851C136.186 152.52 131.968 152.901 128.484 152.689C125 152.476 124.649 154.957 128.848 155.814C133.046 156.67 121.127 156.157 125.138 160.251C129.148 164.345 131.11 154.664 131.166 158.182C131.223 161.701 134.299 161.976 134.801 159.164C135.302 156.351 136.731 153.083 136.593 156.557C136.455 160.032 139.67 160.932 140.09 157.751C140.51 154.57 142.415 151.883 142.013 153.733C141.612 155.582 142.164 157.864 143.806 156.395C145.447 154.926 146.225 152.308 143.286 149.301Z" fill="white"/>
<path opacity="0.2" d="M134.694 169.02C131.755 166.013 127.394 164.913 125.294 165.895C123.195 166.876 125.764 167.813 128.077 167.907C130.389 168.001 126.742 168.913 122.832 168.532C118.922 168.151 119.291 170.894 123.458 171.569C127.626 172.244 123.415 172.613 119.93 172.401C116.446 172.188 116.089 174.676 120.294 175.526C124.499 176.376 112.574 175.863 116.578 179.957C120.582 184.05 122.55 174.376 122.606 177.888C122.663 181.4 125.739 181.682 126.247 178.875C126.755 176.069 128.171 172.794 128.039 176.263C127.908 179.732 131.11 180.638 131.53 177.457C131.949 174.276 133.861 171.588 133.453 173.444C133.046 175.301 133.61 177.569 135.246 176.101C136.881 174.632 137.639 172.026 134.694 169.02Z" fill="white"/>
<path opacity="0.2" d="M153.65 151.164C156.558 154.201 160.907 155.345 163.05 154.401C165.193 153.457 162.605 152.476 160.292 152.351C157.98 152.226 161.64 151.358 165.544 151.782C169.448 152.207 169.109 149.458 164.917 148.739C160.725 148.02 164.98 147.695 168.458 147.945C171.936 148.195 172.324 145.714 168.126 144.82C163.927 143.926 175.852 144.558 171.885 140.445C167.919 136.333 165.851 145.964 165.832 142.445C165.813 138.927 162.761 138.62 162.204 141.427C161.646 144.233 160.211 147.489 160.386 144.014C160.562 140.539 157.36 139.608 156.902 142.764C156.445 145.92 154.515 148.614 154.935 146.758C155.355 144.901 154.828 142.633 153.174 144.083C151.519 145.533 150.736 148.12 153.65 151.164Z" fill="white"/>
<path opacity="0.2" d="M145.059 170.888C147.973 173.926 152.315 175.069 154.458 174.119C156.602 173.169 154.014 172.194 151.695 172.076C149.376 171.957 153.042 171.082 156.946 171.507C160.85 171.932 160.512 169.182 156.32 168.463C152.127 167.745 156.376 167.413 159.86 167.663C163.344 167.913 163.72 165.438 159.528 164.538C155.336 163.638 167.248 164.282 163.288 160.164C159.327 156.045 157.253 165.688 157.234 162.17C157.216 158.651 154.164 158.345 153.606 161.145C153.049 163.945 151.62 167.207 151.789 163.738C151.958 160.27 148.762 159.326 148.311 162.488C147.86 165.651 145.917 168.332 146.343 166.482C146.77 164.632 146.231 162.351 144.576 163.807C142.922 165.263 142.151 167.851 145.059 170.888Z" fill="white"/>
<path opacity="0.2" d="M186.994 155.757C184.055 152.751 179.693 151.651 177.563 152.632C175.432 153.614 178.033 154.557 180.345 154.651C182.657 154.745 179.01 155.657 175.1 155.276C171.19 154.895 171.56 157.639 175.727 158.314C179.894 158.989 175.683 159.357 172.199 159.145C168.715 158.932 168.357 161.42 172.562 162.27C176.767 163.12 164.842 162.607 168.846 166.701C172.85 170.794 174.818 161.113 174.875 164.632C174.931 168.151 178.008 168.426 178.515 165.62C179.023 162.813 180.439 159.532 180.308 163.007C180.176 166.482 183.378 167.382 183.798 164.201C184.218 161.02 186.129 158.332 185.722 160.189C185.314 162.045 185.878 164.313 187.514 162.845C189.149 161.376 189.92 158.745 186.994 155.757Z" fill="white"/>
<path opacity="0.2" d="M178.39 175.482C175.445 172.476 171.09 171.376 168.959 172.357C166.829 173.338 169.423 174.276 171.741 174.376C174.06 174.476 170.4 175.382 166.496 175.001C162.592 174.619 162.95 177.363 167.123 178.032C171.297 178.7 167.079 179.082 163.595 178.869C160.111 178.657 159.754 181.138 163.959 181.994C168.163 182.85 156.238 182.338 160.243 186.425C164.247 190.513 166.221 180.844 166.277 184.363C166.334 187.881 169.41 188.156 169.912 185.344C170.413 182.532 171.835 179.263 171.704 182.732C171.572 186.2 174.781 187.106 175.194 183.932C175.608 180.757 177.525 178.057 177.124 179.913C176.723 181.769 177.275 184.044 178.917 182.575C180.558 181.107 181.354 178.488 178.39 175.482Z" fill="white"/>
<path opacity="0.2" d="M197.34 157.62C200.254 160.657 204.596 161.807 206.74 160.857C208.883 159.907 206.295 158.932 203.976 158.814C201.657 158.695 205.323 157.82 209.227 158.239C213.131 158.657 212.793 155.914 208.601 155.201C204.408 154.489 208.657 154.151 212.135 154.401C215.613 154.651 216.001 152.17 211.809 151.276C207.617 150.383 219.529 151.02 215.569 146.901C211.609 142.783 209.534 152.42 209.516 148.908C209.497 145.395 206.445 145.083 205.887 147.883C205.33 150.683 203.901 153.945 204.07 150.476C204.239 147.008 201.043 146.064 200.592 149.226C200.141 152.389 198.198 155.07 198.624 153.22C199.051 151.37 198.512 149.089 196.857 150.545C195.203 152.001 194.432 154.589 197.34 157.62Z" fill="white"/>
<path opacity="0.2" d="M134.575 190.688C137.483 193.725 141.832 194.869 143.975 193.919C146.118 192.969 143.53 191.994 141.217 191.875C138.905 191.756 142.565 190.881 146.462 191.306C150.36 191.731 150.034 188.981 145.836 188.263C141.637 187.544 145.892 187.219 149.376 187.469C152.86 187.719 153.236 185.238 149.044 184.344C144.852 183.45 156.764 184.088 152.804 179.969C148.844 175.85 146.769 185.488 146.757 181.969C146.744 178.45 143.68 178.144 143.129 180.95C142.577 183.756 141.136 187.013 141.305 183.538C141.474 180.063 138.278 179.132 137.827 182.288C137.376 185.444 135.433 188.131 135.86 186.281C136.286 184.431 135.753 182.157 134.092 183.607C132.432 185.056 131.661 187.65 134.575 190.688Z" fill="white"/>
<path opacity="0.2" d="M188.755 177.344C191.662 180.382 196.011 181.525 198.154 180.582C200.297 179.638 197.709 178.65 195.397 178.532C193.085 178.413 196.744 177.538 200.642 177.963C204.54 178.388 204.214 175.638 200.015 174.919C195.817 174.201 200.072 173.876 203.556 174.126C207.04 174.376 207.416 171.894 203.224 171.001C199.032 170.107 210.95 170.738 206.984 166.626C203.017 162.513 200.955 172.144 200.937 168.626C200.918 165.107 197.86 164.801 197.308 167.607C196.757 170.413 195.316 173.669 195.485 170.194C195.654 166.72 192.458 165.788 192.007 168.945C191.556 172.101 189.613 174.794 190.039 172.938C190.465 171.082 189.933 168.813 188.272 170.263C186.611 171.713 185.841 174.307 188.755 177.344Z" fill="white"/>
<path opacity="0.2" d="M195.93 133.777C192.991 130.771 188.63 129.671 186.53 130.652C184.431 131.633 186.994 132.571 189.313 132.664C191.631 132.758 187.972 133.671 184.068 133.289C180.164 132.908 180.521 135.652 184.694 136.327C188.868 137.002 184.65 137.377 181.166 137.158C177.682 136.939 177.325 139.433 181.53 140.283C185.734 141.133 173.809 140.627 177.814 144.714C181.818 148.801 183.792 139.133 183.842 142.652C183.892 146.17 186.975 146.439 187.483 143.633C187.99 140.827 189.407 137.552 189.275 141.02C189.143 144.489 192.346 145.395 192.765 142.22C193.185 139.045 195.096 136.346 194.689 138.202C194.282 140.058 194.846 142.333 196.488 140.858C198.129 139.383 198.9 136.783 195.93 133.777Z" fill="white"/>
<path opacity="0.2" d="M197.709 80.9223C194.764 77.9162 190.409 76.8162 188.278 77.7974C186.148 78.7786 188.742 79.7161 191.061 79.8161C193.379 79.9161 189.726 80.8223 185.816 80.4411C181.905 80.0598 182.275 82.8035 186.442 83.4785C190.609 84.1535 186.392 84.5222 182.908 84.3097C179.424 84.0972 179.073 86.5784 183.271 87.4346C187.47 88.2908 175.551 87.7721 179.562 91.8657C183.572 95.9593 185.534 86.2784 185.59 89.797C185.646 93.3157 188.723 93.5907 189.225 90.7782C189.726 87.9658 191.155 84.6972 191.017 88.1721C190.879 91.647 194.094 92.5469 194.513 89.3658C194.933 86.1846 196.838 83.4972 196.437 85.3534C196.036 87.2096 196.588 89.4783 198.229 88.0096C199.871 86.5409 200.648 83.9285 197.709 80.9223Z" fill="white"/>
<path opacity="0.2" d="M191.763 106.003C190.641 115.259 194.595 131.789 200.053 144.127C201.006 136.396 202.428 127.633 204.402 117.484L191.763 106.003Z" fill="black"/>
<path d="M187.176 89.6908C186.223 89.6283 185.252 89.5721 184.274 89.5221C173.709 89.0096 165.042 88.6783 155.749 89.5221L153.318 89.7658C151.204 93.1169 150.031 96.9724 149.92 100.93C149.81 104.888 150.767 108.802 152.691 112.265L153.945 114.602L155.731 112.634C168.502 98.5655 184.5 91.0783 184.663 90.997L187.169 89.7033L187.176 89.6908Z" fill="white"/>
<path d="M181.448 57.4981C179.65 66.6478 177.857 83.4223 184.274 89.5283C184.274 89.5283 167.549 96.8156 154.339 111.371C147.885 99.428 155.749 89.5283 155.749 89.5283C165.989 87.0909 165.719 79.5287 163.94 72.4039L181.448 57.4981Z" fill="#FFBDB4"/>
<path opacity="0.2" d="M174.31 63.5729L163.946 72.3914C164.386 74.046 164.682 75.7357 164.829 77.4412C168.74 76.8788 174.11 72.5976 174.524 68.5165C174.753 66.8694 174.681 65.1944 174.31 63.5729Z" fill="black"/>
<path d="M191.13 40.6986C187.552 55.5857 186.348 61.9479 177.5 68.3665C164.197 77.9974 147.014 70.3977 146.168 54.7544C145.391 40.6736 151.375 18.6931 166.923 15.2619C182.219 11.8745 194.714 25.8116 191.13 40.6986Z" fill="#FFBDB4"/>
<path d="M192.427 21.9804C177.525 34.6925 163.006 13.6932 154.34 24.0366C149.326 19.5868 163.451 8.13088 171.948 7.71214C180.446 7.29341 198.863 13.1245 192.427 21.9804Z" fill="#263238"/>
<path d="M156.915 21.9117C156.915 21.9117 155.323 17.5368 156.226 14.7494C153.857 15.7306 153.036 23.6804 154.346 24.0366C156.169 24.5366 156.915 21.9117 156.915 21.9117Z" fill="#31922C"/>
<path d="M190.127 20.768C174.53 26.4616 181.442 56.3919 194.858 54.5732C208.275 52.7545 206.069 23.5429 190.127 20.768Z" fill="#263238"/>
<path d="M169.003 40.861C168.79 42.111 167.963 42.9672 167.16 42.8235C166.358 42.6797 165.907 41.5735 166.095 40.3236C166.283 39.0736 167.142 38.2174 167.944 38.3611C168.746 38.5049 169.222 39.6361 169.003 40.861Z" fill="#263238"/>
<path d="M153.857 38.4111C153.644 39.6611 152.817 40.5111 152.015 40.3673C151.213 40.2236 150.762 39.1174 150.95 37.8674C151.138 36.6174 151.996 35.7675 152.829 35.9112C153.663 36.055 154.076 37.1862 153.857 38.4111Z" fill="#263238"/>
<path d="M153.155 36.0613L150.354 34.6926C150.354 34.6926 151.451 37.2612 153.155 36.0613Z" fill="#263238"/>
<path d="M157.717 41.1611C157.717 41.1611 154.69 46.0672 151.946 48.2108C153.299 50.0045 156.182 49.8045 156.182 49.8045L157.717 41.1611Z" fill="#F28F8F"/>
<path d="M162.442 55.5794C161.74 55.5786 161.04 55.5159 160.349 55.392C160.259 55.374 160.18 55.3241 160.124 55.2516C160.069 55.1792 160.042 55.0891 160.048 54.9982C160.056 54.9509 160.074 54.9056 160.1 54.8651C160.126 54.8246 160.16 54.7897 160.2 54.7624C160.239 54.735 160.284 54.7158 160.331 54.7059C160.378 54.6959 160.427 54.6955 160.474 54.7045C161.997 55.0073 163.57 54.9484 165.066 54.5325C166.562 54.1167 167.938 53.3556 169.084 52.3108C169.154 52.2425 169.247 52.2042 169.344 52.2042C169.442 52.2042 169.535 52.2425 169.604 52.3108C169.673 52.3798 169.711 52.473 169.711 52.5702C169.711 52.6673 169.673 52.7605 169.604 52.8295C167.665 54.6377 165.097 55.6236 162.442 55.5794Z" fill="#263238"/>
<path d="M192.17 55.1731C191.195 56.2328 190.007 57.0746 188.683 57.6434C187.359 58.2121 185.929 58.4949 184.487 58.473C180.828 58.2793 180.408 54.0607 182.607 50.667C184.581 47.6109 188.874 44.0297 191.969 45.8859C195.065 47.7421 194.821 52.4107 192.17 55.1731Z" fill="#FFBDB4"/>
<path d="M169.918 54.4795C169.813 53.2283 169.974 51.9692 170.391 50.7845C170.808 49.5998 171.471 48.5162 172.337 47.6047C171.749 47.6695 171.203 47.9395 170.795 48.3672C170.04 49.1518 169.46 50.0872 169.094 51.1117C168.728 52.1362 168.584 53.2265 168.671 54.3107C168.809 56.5231 170.331 58.5231 172.205 58.9731C171.537 58.4194 170.989 57.7351 170.595 56.9623C170.202 56.1894 169.971 55.3445 169.918 54.4795Z" fill="#FF8B7B"/>
<path opacity="0.2" d="M169.918 54.4795C169.813 53.2283 169.974 51.9692 170.391 50.7845C170.808 49.5998 171.471 48.5162 172.337 47.6047C171.749 47.6695 171.203 47.9395 170.795 48.3672C170.04 49.1518 169.46 50.0872 169.094 51.1117C168.728 52.1362 168.584 53.2265 168.671 54.3107C168.809 56.5231 170.331 58.5231 172.205 58.9731C171.537 58.4194 170.989 57.7351 170.595 56.9623C170.202 56.1894 169.971 55.3445 169.918 54.4795Z" fill="black"/>
<path d="M174.016 35.9175C173.922 35.8848 173.835 35.8337 173.761 35.7672C173.686 35.7006 173.626 35.62 173.584 35.5301C173.227 34.6854 172.675 33.937 171.972 33.346C171.27 32.7551 170.437 32.3385 169.542 32.1302C169.446 32.1158 169.355 32.0828 169.272 32.0331C169.189 31.9834 169.117 31.918 169.06 31.8405C168.944 31.684 168.895 31.4881 168.924 31.2958C168.954 31.1035 169.058 30.9307 169.215 30.8152C169.372 30.6998 169.568 30.6512 169.761 30.6802C170.898 30.9248 171.96 31.4378 172.857 32.1762C173.755 32.9145 174.461 33.8568 174.918 34.9238C174.977 35.0536 174.996 35.1976 174.974 35.3382C174.952 35.4788 174.889 35.6099 174.793 35.7154C174.698 35.821 174.573 35.8963 174.435 35.9322C174.297 35.9681 174.151 35.963 174.016 35.9175Z" fill="#263238"/>
<path d="M148.9 31.5989C148.807 31.6066 148.712 31.5956 148.623 31.5667C148.534 31.5377 148.451 31.4913 148.38 31.4302C148.232 31.3062 148.139 31.1289 148.122 30.937C148.104 30.7451 148.163 30.554 148.286 30.4052C149.011 29.4927 149.947 28.7681 151.012 28.2926C152.078 27.8172 153.243 27.605 154.408 27.6741C154.508 27.6795 154.606 27.7054 154.696 27.7499C154.785 27.7945 154.865 27.8568 154.929 27.9331C154.993 28.0094 155.042 28.0981 155.07 28.1936C155.099 28.2892 155.108 28.3896 155.096 28.4887C155.085 28.5878 155.053 28.6835 155.003 28.7699C154.953 28.8563 154.886 28.9316 154.806 28.9911C154.725 29.0506 154.634 29.0931 154.536 29.116C154.439 29.1388 154.338 29.1416 154.239 29.124C153.313 29.0796 152.39 29.2573 151.547 29.6423C150.704 30.0273 149.966 30.6082 149.395 31.3365C149.335 31.4112 149.26 31.4731 149.175 31.5182C149.09 31.5633 148.996 31.5908 148.9 31.5989Z" fill="#263238"/>
<path d="M168.288 38.5175L165.487 37.1487C165.487 37.1487 166.596 39.7112 168.288 38.5175Z" fill="#263238"/>
<path d="M181.411 184.325C181.02 182.7 180.269 181.182 179.213 179.884C178.156 178.586 176.822 177.541 175.307 176.825L168.414 173.551C167.404 173.076 166.293 172.853 165.178 172.9C164.062 172.948 162.975 173.266 162.01 173.826L158.876 175.638C158.017 176.14 157.33 176.89 156.907 177.789C156.484 178.689 156.345 179.695 156.508 180.675L157.473 186.481C157.676 187.697 158.33 188.791 159.306 189.547C160.281 190.303 161.506 190.666 162.737 190.563L165.607 190.319C165.607 190.319 175.714 190.594 181.899 186.35L181.411 184.325Z" fill="#FFBDB4"/>
<path d="M203.763 97.2218L204.39 98.078L204.96 98.8467L206.05 100.353C206.771 101.353 207.441 102.365 208.118 103.378C209.465 105.397 210.725 107.453 211.953 109.54C213.181 111.628 214.341 113.734 215.456 115.884C216.571 118.034 217.649 120.202 218.646 122.421C222.832 131.418 225.782 140.937 227.419 150.72C227.582 151.97 227.795 153.22 227.907 154.514L228.095 156.426L228.127 156.782L228.164 157.407C228.189 157.824 228.189 158.241 228.164 158.657C228.164 159.07 228.114 159.495 228.064 159.907C228.014 160.32 227.933 160.688 227.857 161.076C227.57 162.437 227.104 163.754 226.472 164.995C225.955 165.984 225.347 166.924 224.655 167.801C223.55 169.178 222.302 170.434 220.933 171.551C218.737 173.314 216.376 174.863 213.883 176.176C211.577 177.388 209.302 178.413 207.034 179.357C204.766 180.3 202.497 181.094 200.235 181.857C197.973 182.619 195.698 183.294 193.43 183.913C191.161 184.531 188.874 185.106 186.58 185.619C185.434 185.869 184.281 186.1 183.134 186.331C181.987 186.563 180.84 186.738 179.612 186.956C178.345 187.187 177.038 186.951 175.932 186.293C174.826 185.636 173.997 184.6 173.599 183.379C173.2 182.158 173.259 180.835 173.764 179.654C174.27 178.472 175.187 177.514 176.347 176.957L176.548 176.863C184.412 172.963 192.527 169.026 199.671 164.663C201.457 163.582 203.168 162.457 204.684 161.307C206.101 160.324 207.417 159.204 208.613 157.964C208.968 157.607 209.262 157.196 209.484 156.745C209.609 156.501 209.359 156.576 209.133 157.37C209.1 157.478 209.075 157.589 209.058 157.701C209.058 157.826 209.014 157.964 209.008 158.095C209.002 158.226 209.008 158.37 209.008 158.514C209.008 158.657 209.008 158.657 209.008 158.726V158.782V158.689L208.738 157.245C208.575 156.282 208.325 155.314 208.112 154.351C206.126 146.427 203.246 138.754 199.527 131.477C197.684 127.727 195.616 124.052 193.48 120.427C192.402 118.621 191.286 116.834 190.165 115.065L188.448 112.459L187.595 111.209L186.818 110.09L186.555 109.715C184.893 107.436 184.207 104.592 184.648 101.808C185.089 99.0244 186.62 96.5294 188.905 94.8719C191.19 93.2143 194.042 92.53 196.833 92.9696C199.624 93.4091 202.126 94.9364 203.788 97.2155L203.763 97.2218Z" fill="#FFBDB4"/>
<path d="M83.1024 79.6536C82.927 79.6466 82.7558 79.7079 82.6248 79.8245C82.4939 79.9412 82.4135 80.104 82.4006 80.2786L82.0622 88.0658C82.0599 88.1874 82.028 88.3067 81.9693 88.4133C81.9105 88.5198 81.8266 88.6106 81.7249 88.6776C81.6231 88.7447 81.5065 88.786 81.3851 88.7981C81.2638 88.8102 81.1413 88.7927 81.0282 88.7471L79.775 88.2283C79.633 88.1688 79.5126 88.0675 79.4297 87.938C79.3469 87.8085 79.3056 87.6569 79.3112 87.5033L79.6559 79.5098C79.6681 79.4172 79.6609 79.3231 79.6348 79.2333C79.6086 79.1436 79.5641 79.0603 79.5039 78.9887C79.4438 78.917 79.3694 78.8586 79.2855 78.8171C79.2016 78.7756 79.1099 78.7519 79.0163 78.7476C78.9228 78.7432 78.8293 78.7583 78.7419 78.7918C78.6544 78.8254 78.5749 78.8767 78.5084 78.9425C78.4419 79.0083 78.3898 79.0871 78.3554 79.174C78.321 79.2609 78.3051 79.354 78.3086 79.4473L77.9577 87.4471C77.9497 87.6005 77.8951 87.7479 77.8011 87.8696C77.707 87.9913 77.5781 88.0815 77.4313 88.1283L76.1342 88.5346C76.0192 88.5707 75.8972 88.5788 75.7785 88.5581C75.6598 88.5374 75.5478 88.4885 75.4519 88.4156C75.3561 88.3427 75.2793 88.2479 75.2279 88.1391C75.1765 88.0304 75.152 87.911 75.1566 87.7908L75.495 79.9973C75.5025 79.8183 75.4383 79.6437 75.3167 79.5118C75.1951 79.38 75.0259 79.3017 74.8464 79.2942C74.6669 79.2868 74.4918 79.3507 74.3596 79.472C74.2274 79.5933 74.1489 79.7621 74.1414 79.9411L73.7592 88.7908C73.7221 89.6725 73.9294 90.5473 74.3583 91.3191C74.7873 92.0909 75.4212 92.7298 76.1906 93.1657C76.5765 93.3863 76.8898 93.714 77.0923 94.1091C77.2948 94.5041 77.3778 94.9494 77.331 95.3906C76.8297 100.328 75.6203 112.14 74.6678 120.115C73.4145 130.408 75.0062 132.264 76.6919 132.339C78.3775 132.414 80.1133 130.696 79.7687 120.334C79.5055 112.309 79.3175 100.434 79.2423 95.4718C79.2351 95.0293 79.3568 94.5942 79.5926 94.2192C79.8284 93.8443 80.1682 93.5456 80.5708 93.3594C81.3747 92.9908 82.0613 92.4086 82.5554 91.6766C83.0495 90.9446 83.332 90.0911 83.3719 89.2095L83.7541 80.3598C83.7609 80.1802 83.6963 80.0051 83.5742 79.8728C83.4521 79.7405 83.2825 79.6617 83.1024 79.6536Z" fill="#263238"/>
<path d="M71.8855 70.8663C69.5669 78.1223 80.3327 88.4783 89.1746 82.6972C82.645 77.4536 71.8855 70.8663 71.8855 70.8663Z" fill="#31922C"/>
<path opacity="0.5" d="M73.8908 72.1163C72.6313 77.6037 80.4643 84.9972 87.1068 81.0973C82.526 77.6474 76.8486 73.985 73.8908 72.1163Z" fill="white"/>
<path d="M248 184.988H5V192.906H248V184.988Z" fill="#31922C"/>
<path opacity="0.2" d="M248 188.5H5V189.394H248V188.5Z" fill="black"/>
<path d="M238.25 196H14.7508L8.48431 192.906H244.516L238.25 196Z" fill="#31922C"/>
<path opacity="0.5" d="M238.25 196H14.7508L8.48431 192.906H244.516L238.25 196Z" fill="white"/>
<path d="M48.8389 163.17C46.6645 161.164 40.2163 164.42 40.6048 160.339C40.9933 156.257 36.6444 159.207 36.0428 155.207C35.4413 151.208 41.2753 152.37 38.8063 149.27C36.3374 146.17 38.305 142.12 42.09 142.077C45.8749 142.033 44.8033 146.87 48.0681 144.683C51.6525 142.264 54.6103 144.408 54.6228 147.626C54.6354 150.845 57.6245 149.033 58.8339 152.414C60.4256 156.864 53.1252 157.345 54.5664 159.989C56.0077 162.632 52.4171 166.47 48.8389 163.17Z" fill="#31922C"/>
<path opacity="0.4" d="M48.8389 163.17C46.6645 161.164 40.2163 164.42 40.6048 160.339C40.9933 156.257 36.6444 159.207 36.0428 155.207C35.4413 151.208 41.2753 152.37 38.8063 149.27C36.3374 146.17 38.305 142.12 42.09 142.077C45.8749 142.033 44.8033 146.87 48.0681 144.683C51.6525 142.264 54.6103 144.408 54.6228 147.626C54.6354 150.845 57.6245 149.033 58.8339 152.414C60.4256 156.864 53.1252 157.345 54.5664 159.989C56.0077 162.632 52.4171 166.47 48.8389 163.17Z" fill="white"/>
<path d="M48.4508 161.551C46.0256 158.47 41.2444 163.032 41.5577 159.576C41.871 156.12 37.1712 158.201 37.591 154.801C38.0109 151.401 43.1368 151.27 40.3044 149.445C37.472 147.62 39.1138 143.364 42.3285 143.327C45.5431 143.289 45.0105 147.745 47.774 145.883C50.8132 143.833 53.3198 145.645 53.3323 148.383C53.3448 151.12 56.1459 149.633 57.6499 152.308C60.2567 156.895 51.4837 156.164 53.7459 159.301C55.2561 161.364 51.5777 165.52 48.4508 161.551Z" fill="#31922C"/>
<path opacity="0.4" d="M48.2185 160.62C46.2383 157.926 42.0335 161.682 42.4158 158.745C42.798 155.807 38.7248 157.451 39.1698 154.564C39.6147 151.676 43.9887 151.708 41.6262 150.076C39.2638 148.445 40.7865 144.858 43.5061 144.914C46.2258 144.97 45.6681 148.758 48.0806 147.245C50.7251 145.583 52.8118 147.201 52.7429 149.526C52.6739 151.851 55.1053 150.695 56.3147 152.989C58.4077 156.976 50.9507 156.114 52.793 158.845C54.0275 160.62 50.7752 164.088 48.2185 160.62Z" fill="white"/>
<path d="M37.0889 157.714C37.3897 163.339 42.6347 174.419 55.6814 170.576C54.9608 162.895 48.3622 157.857 37.0889 157.714Z" fill="#31922C"/>
<path opacity="0.3" d="M37.0889 157.714C37.3897 163.339 42.6347 174.419 55.6814 170.576C54.9608 162.895 48.3622 157.857 37.0889 157.714Z" fill="black"/>
<path d="M38.8628 159.157C40.2702 160.415 41.7816 161.553 43.3809 162.557C44.9726 163.601 46.6018 164.601 48.2248 165.595C49.8478 166.588 51.5147 167.538 53.1565 168.501L58.0945 171.432C58.1231 171.449 58.148 171.471 58.1677 171.497C58.1874 171.524 58.2015 171.554 58.2091 171.586C58.2167 171.618 58.2177 171.652 58.212 171.684C58.2063 171.717 58.194 171.748 58.1759 171.776C58.1486 171.823 58.1058 171.86 58.0546 171.881C58.0034 171.901 57.9468 171.904 57.894 171.888C56.0407 171.307 54.2534 170.534 52.5612 169.582C50.8693 168.657 49.2275 167.651 47.5982 166.626C45.9689 165.601 44.3835 164.501 42.8357 163.351C42.0587 162.776 41.2942 162.188 40.561 161.545C39.8042 160.921 39.1115 160.224 38.4931 159.464C38.4587 159.414 38.4438 159.353 38.451 159.293C38.4582 159.232 38.4872 159.177 38.5324 159.136C38.5776 159.096 38.636 159.073 38.6968 159.072C38.7576 159.072 38.8166 159.093 38.8628 159.132V159.157Z" fill="#31922C"/>
<path d="M43.0553 163.201C43.023 163.196 42.992 163.185 42.964 163.169C42.9361 163.152 42.9117 163.13 42.8925 163.104C42.8732 163.078 42.8594 163.048 42.8518 163.016C42.8443 162.985 42.8431 162.952 42.8485 162.92C43.0616 161.859 42.9502 160.76 42.5289 159.764C42.4976 159.705 42.4906 159.637 42.5094 159.574C42.5281 159.511 42.5712 159.458 42.6291 159.426C42.6578 159.41 42.6894 159.399 42.7222 159.396C42.7549 159.392 42.7881 159.395 42.8197 159.404C42.8513 159.413 42.8807 159.429 42.9061 159.45C42.9315 159.471 42.9524 159.497 42.9675 159.526C43.4533 160.615 43.5848 161.828 43.3435 162.995C43.3313 163.059 43.2945 163.117 43.2408 163.155C43.1871 163.194 43.1207 163.21 43.0553 163.201Z" fill="#31922C"/>
<path d="M42.654 167.538C42.5875 167.538 42.5237 167.512 42.4767 167.465C42.4297 167.418 42.4033 167.355 42.4033 167.288C42.4033 167.222 42.4297 167.158 42.4767 167.112C42.5237 167.065 42.5875 167.038 42.654 167.038C42.654 167.038 45.6744 166.763 46.5329 165.251C46.568 165.195 46.623 165.154 46.6869 165.137C46.7507 165.119 46.8188 165.127 46.8776 165.157C46.9349 165.191 46.9767 165.246 46.9943 165.31C47.0118 165.374 47.0037 165.443 46.9716 165.501C45.9752 167.238 42.8294 167.526 42.6978 167.538H42.654Z" fill="#31922C"/>
<path d="M50.073 167.688C50.0335 167.687 49.9949 167.676 49.9602 167.657C49.931 167.642 49.9051 167.621 49.8839 167.596C49.8627 167.571 49.8467 167.542 49.8368 167.51C49.8269 167.479 49.8233 167.446 49.8262 167.413C49.8291 167.381 49.8385 167.349 49.8537 167.32C50.8751 165.413 49.2271 162.826 49.2271 162.795C49.2087 162.767 49.196 162.737 49.1899 162.704C49.1837 162.672 49.1841 162.639 49.1912 162.607C49.1982 162.575 49.2117 162.544 49.2307 162.518C49.2498 162.491 49.2742 162.468 49.3023 162.451C49.358 162.416 49.4255 162.404 49.4901 162.418C49.5546 162.432 49.611 162.471 49.6469 162.526C49.7221 162.645 51.4767 165.388 50.3174 167.526C50.299 167.575 50.2655 167.617 50.2216 167.647C50.1777 167.676 50.1257 167.69 50.073 167.688Z" fill="#31922C"/>
<path d="M50.575 170.288C50.5106 170.288 50.4487 170.264 50.402 170.219C50.3554 170.175 50.3275 170.115 50.3243 170.051C50.3225 169.985 50.3463 169.921 50.3906 169.872C50.435 169.823 50.4965 169.793 50.5624 169.788C51.3655 169.679 52.126 169.362 52.7682 168.87C52.8222 168.831 52.8896 168.815 52.9554 168.825C53.0212 168.836 53.0801 168.872 53.1191 168.926C53.1582 168.98 53.1742 169.047 53.1636 169.112C53.1531 169.178 53.1168 169.237 53.0628 169.276C52.3333 169.831 51.4676 170.181 50.5562 170.288H50.575Z" fill="#31922C"/>
<path d="M74.7065 148.445C66.9863 148.814 51.7212 155.914 56.9098 173.769C67.4938 172.801 74.4308 163.845 74.7065 148.445Z" fill="#31922C"/>
<path opacity="0.3" d="M74.7065 148.445C66.9863 148.814 51.7212 155.914 56.9098 173.769C67.4938 172.801 74.4308 163.845 74.7065 148.445Z" fill="black"/>
<path d="M72.7145 150.858C70.9698 152.767 69.3991 154.827 68.021 157.014C66.5734 159.182 65.176 161.389 63.8037 163.613C62.4313 165.838 61.1154 168.088 59.7806 170.332L55.7199 177.013C55.6772 177.086 55.6091 177.14 55.5288 177.166C55.4484 177.192 55.3613 177.187 55.284 177.154C55.2067 177.12 55.1445 177.059 55.1094 176.982C55.0742 176.905 55.0685 176.819 55.0933 176.738C55.9039 174.21 56.9793 171.773 58.3017 169.47C59.555 167.163 60.9712 164.926 62.3874 162.707C63.8037 160.489 65.3139 158.332 66.9118 156.214C67.7076 155.157 68.5285 154.12 69.4184 153.126C70.2851 152.1 71.2483 151.158 72.2947 150.314C72.3642 150.267 72.4484 150.247 72.5316 150.258C72.6148 150.268 72.6913 150.309 72.7466 150.372C72.802 150.435 72.8324 150.516 72.8323 150.599C72.8322 150.683 72.8014 150.764 72.7459 150.826L72.7145 150.858Z" fill="#31922C"/>
<path d="M69.0668 157.076C68.5123 157.074 67.959 157.026 67.4125 156.932C67.3236 156.917 67.2442 156.868 67.1919 156.795C67.1396 156.721 67.1187 156.63 67.1336 156.542C67.1486 156.453 67.1982 156.374 67.2717 156.322C67.3451 156.27 67.4364 156.249 67.5253 156.264C68.9796 156.562 70.4901 156.418 71.8616 155.851C71.901 155.829 71.9444 155.816 71.9892 155.811C72.034 155.806 72.0793 155.81 72.1225 155.823C72.1657 155.835 72.2059 155.857 72.2407 155.885C72.2756 155.914 72.3043 155.949 72.3254 155.989C72.3679 156.068 72.3773 156.162 72.3515 156.248C72.3257 156.335 72.2668 156.408 72.1875 156.451C71.2083 156.893 70.1411 157.107 69.0668 157.076Z" fill="#31922C"/>
<path d="M64.1162 161.907C64.0552 161.905 63.9954 161.891 63.9407 161.864C61.5657 160.495 61.1897 156.189 61.1709 156.008C61.164 155.917 61.193 155.828 61.2516 155.759C61.3103 155.69 61.3939 155.647 61.4843 155.639C61.5747 155.632 61.6643 155.661 61.7335 155.719C61.8027 155.778 61.846 155.861 61.854 155.951C61.854 155.995 62.2174 160.082 64.2854 161.27C64.3242 161.292 64.3582 161.321 64.3855 161.357C64.4129 161.392 64.4329 161.432 64.4446 161.475C64.4562 161.518 64.4592 161.563 64.4534 161.607C64.4476 161.651 64.4331 161.694 64.4107 161.732C64.3822 161.785 64.3397 161.83 64.2878 161.861C64.2359 161.891 64.1766 161.908 64.1162 161.907Z" fill="#31922C"/>
<path d="M63.4081 166.976C62.6054 166.988 61.8124 166.799 61.1021 166.426C61.0217 166.383 60.9615 166.311 60.9345 166.224C60.9075 166.138 60.9159 166.044 60.9579 165.963C61.0029 165.884 61.0771 165.825 61.1649 165.799C61.2527 165.774 61.3471 165.783 61.4279 165.826C64.041 167.232 67.6066 164.995 67.638 164.97C67.6762 164.945 67.7189 164.929 67.7635 164.921C67.8082 164.913 67.854 164.914 67.8982 164.924C67.9424 164.934 67.9843 164.953 68.0214 164.979C68.0584 165.005 68.09 165.038 68.1142 165.076C68.1384 165.114 68.1548 165.156 68.1626 165.2C68.1703 165.244 68.1692 165.289 68.1593 165.333C68.1493 165.376 68.1308 165.417 68.1048 165.454C68.0788 165.49 68.0458 165.521 68.0077 165.545C66.6202 166.401 65.0378 166.894 63.4081 166.976Z" fill="#31922C"/>
<path d="M58.9967 170.313C58.9424 170.314 58.889 170.301 58.8409 170.276C58.7928 170.25 58.7516 170.214 58.7209 170.169C57.9673 169.183 57.4914 168.013 57.3423 166.782C57.3398 166.737 57.3463 166.692 57.3614 166.65C57.3764 166.608 57.3998 166.569 57.4302 166.536C57.4605 166.502 57.4972 166.476 57.5381 166.457C57.579 166.438 57.6232 166.427 57.6682 166.426C57.7128 166.422 57.7577 166.428 57.8001 166.442C57.8425 166.457 57.8815 166.479 57.9149 166.509C57.9483 166.539 57.9753 166.575 57.9942 166.616C58.0132 166.656 58.0238 166.7 58.0254 166.745C58.1695 167.845 58.6018 168.888 59.2787 169.769C59.3053 169.805 59.3245 169.846 59.3352 169.89C59.3459 169.933 59.3478 169.978 59.3408 170.023C59.3338 170.067 59.318 170.109 59.2944 170.147C59.2709 170.185 59.2399 170.218 59.2035 170.244C59.1436 170.289 59.0712 170.313 58.9967 170.313Z" fill="#31922C"/>
<path d="M48.6133 158.864C54.8797 164.801 70.809 158.995 69.2925 147.133C60.6762 151.176 48.6133 158.864 48.6133 158.864Z" fill="#31922C"/>
<path opacity="0.2" d="M50.8818 157.445C55.895 161.445 67.3375 157.145 66.6106 148.445C60.8141 151.395 54.2532 155.364 50.8818 157.445Z" fill="white"/>
<path d="M65.0569 181.244C59.1602 187.494 42.8988 182.607 43.751 170.676C52.5804 174.213 65.0569 181.244 65.0569 181.244Z" fill="#31922C"/>
<path opacity="0.2" d="M62.7129 179.925C57.9504 184.2 46.2635 180.55 46.5016 171.801C52.4548 174.438 59.2225 178.032 62.7129 179.925Z" fill="white"/>
<path d="M81.0113 156.739C79.169 158.157 81.3246 162.989 77.9783 162.445C74.6321 161.901 76.7251 165.207 73.3412 165.345C69.9573 165.482 71.4612 161.389 68.6476 162.932C65.834 164.476 62.6757 162.776 62.9514 160.057C63.2272 157.339 67.1687 158.464 65.6147 155.964C63.9102 153.214 65.928 151.251 68.5975 151.47C71.267 151.689 70.02 149.42 72.9213 148.802C76.7439 147.983 76.5371 153.251 78.8494 152.408C81.1617 151.564 84.0505 154.414 81.0113 156.739Z" fill="#31922C"/>
<path opacity="0.4" d="M81.0113 156.739C79.169 158.157 81.3246 162.989 77.9783 162.445C74.6321 161.901 76.7251 165.207 73.3412 165.345C69.9573 165.482 71.4612 161.389 68.6476 162.932C65.834 164.476 62.6757 162.776 62.9514 160.057C63.2272 157.339 67.1687 158.464 65.6147 155.964C63.9102 153.214 65.928 151.251 68.5975 151.47C71.267 151.689 70.02 149.42 72.9213 148.802C76.7439 147.983 76.5371 153.251 78.8494 152.408C81.1617 151.564 84.0505 154.414 81.0113 156.739Z" fill="white"/>
<path d="M79.6388 156.907C76.8816 158.42 80.2655 162.182 77.4268 161.695C74.5881 161.207 75.9228 164.732 73.1343 164.195C70.3457 163.657 70.6653 159.964 68.917 161.864C67.1686 163.763 63.7785 162.276 64.0103 159.989C64.2422 157.701 67.9018 158.382 66.5858 156.239C65.1446 153.908 66.8553 152.245 69.0924 152.433C71.3295 152.62 70.3833 150.508 72.7081 149.62C76.7312 148.083 75.3965 154.326 78.185 152.926C80.0273 152.008 83.1919 154.951 79.6388 156.907Z" fill="#31922C"/>
<path opacity="0.4" d="M78.8366 157.001C76.4428 158.251 79.2063 161.513 76.8 161.032C74.3937 160.551 75.4214 163.582 73.0401 163.057C70.6589 162.532 71.0725 159.395 69.5184 160.964C67.9643 162.532 65.1319 161.195 65.3951 159.232C65.6583 157.27 68.7664 157.982 67.7136 156.107C66.5544 154.089 68.0708 152.714 69.9884 152.926C71.9059 153.139 71.1539 151.32 73.1654 150.62C76.6433 149.37 75.3023 154.689 77.7274 153.57C79.3504 152.839 81.9071 155.42 78.8366 157.001Z" fill="white"/>
<path d="M57.5993 174.451C59.9179 172.663 58.0254 166.982 61.8417 167.482C65.6579 167.982 63.6589 164.113 67.588 163.732C71.5171 163.351 69.3175 168.345 72.739 166.345C76.1605 164.345 79.6321 166.195 79.0054 169.47C78.3788 172.744 73.9108 171.607 75.4022 174.501C77.0378 177.682 74.4497 180.125 71.3729 180.025C68.2961 179.925 69.493 182.525 66.0151 183.457C61.4782 184.65 62.3806 178.35 59.592 179.488C56.8035 180.625 53.783 177.401 57.5993 174.451Z" fill="#31922C"/>
<path opacity="0.4" d="M57.5993 174.451C59.9179 172.663 58.0254 166.982 61.8417 167.482C65.6579 167.982 63.6589 164.113 67.588 163.732C71.5171 163.351 69.3175 168.345 72.739 166.345C76.1605 164.345 79.6321 166.195 79.0054 169.47C78.3788 172.744 73.9108 171.607 75.4022 174.501C77.0378 177.682 74.4497 180.125 71.3729 180.025C68.2961 179.925 69.493 182.525 66.0151 183.457C61.4782 184.65 62.3806 178.35 59.592 179.488C56.8035 180.625 53.783 177.401 57.5993 174.451Z" fill="white"/>
<path d="M59.2225 174.182C62.6127 172.213 59.1536 167.932 62.3558 168.345C65.5579 168.757 64.4801 164.638 67.6509 165.12C70.8217 165.601 69.9883 170.026 72.2567 167.663C74.5252 165.301 78.2788 166.882 77.7148 169.645C77.1508 172.407 72.9962 171.782 74.2557 174.232C75.6469 176.926 73.4474 179.007 70.8468 178.913C68.2462 178.819 69.0984 181.282 66.2974 182.469C61.4283 184.532 63.7908 177.013 60.3505 178.838C58.1259 180.044 54.8486 176.713 59.2225 174.182Z" fill="#31922C"/>
<path opacity="0.4" d="M60.1559 174.019C63.0949 172.426 60.3 168.657 63.0322 169.101C65.7644 169.544 64.9497 165.976 67.6255 166.47C70.3013 166.963 69.449 170.732 71.448 168.769C73.447 166.807 76.5802 168.245 76.0163 170.601C75.4523 172.957 71.9431 172.313 72.9394 174.444C74.0298 176.788 72.0997 178.513 69.894 178.369C67.6882 178.225 68.3399 180.35 65.921 181.3C61.7288 182.944 63.9471 176.563 60.9893 178.038C59.0405 179.013 56.3647 176.082 60.1559 174.019Z" fill="white"/>
<path opacity="0.3" d="M35.999 156.32V160.751C36.0156 167.174 38.581 173.33 43.1346 177.873C47.6882 182.416 53.8597 184.976 60.3003 184.994C66.7398 184.976 72.9103 182.417 77.4638 177.875C82.0172 173.334 84.5833 167.18 84.6015 160.757V156.326L35.999 156.32Z" fill="#31922C"/>
<path opacity="0.5" d="M85.1968 156.32H35.4037C35.0319 156.318 34.6758 156.17 34.413 155.908C34.1501 155.646 34.0016 155.291 34 154.92C34.0016 154.549 34.1501 154.194 34.413 153.932C34.6758 153.67 35.0319 153.522 35.4037 153.52H85.1968C85.5686 153.522 85.9247 153.67 86.1875 153.932C86.4504 154.194 86.5988 154.549 86.6005 154.92C86.5988 155.291 86.4504 155.646 86.1875 155.908C85.9247 156.17 85.5686 156.318 85.1968 156.32Z" fill="#31922C"/>
<path opacity="0.3" d="M60.9799 180.047C63.6393 176.992 61.2662 170.594 55.6793 165.755C50.0924 160.916 43.4074 159.47 40.748 162.525C38.0885 165.579 40.4617 171.978 46.0485 176.816C51.6354 181.655 58.3204 183.101 60.9799 180.047Z" fill="white"/>
<path opacity="0.3" d="M66.9181 171.676C65.0382 172.494 62.6883 171.263 61.6606 168.92C60.6329 166.576 61.316 164.02 63.1959 163.201C65.0758 162.382 67.4257 163.614 68.4534 165.951C69.4811 168.288 68.7918 170.851 66.9181 171.676Z" fill="white"/>
<path d="M47.9919 189C47.9919 175.745 37.2488 165 23.996 165C10.7435 165 0 175.745 0 189C0 202.255 10.7435 213 23.996 213C37.2488 213 47.9919 202.255 47.9919 189Z" fill="#F36986"/>
<path d="M28.0174 188.307L34.0511 182.273C34.4195 181.904 34.4195 181.306 34.0511 180.937L32.0571 178.943C31.6887 178.575 31.0907 178.575 30.7219 178.943L24.6886 184.978C24.3062 185.361 23.6863 185.361 23.3039 184.978L17.2948 178.968C16.9124 178.586 16.2928 178.586 15.9105 178.968L13.9655 180.913C13.5836 181.296 13.5836 181.915 13.9655 182.298L19.9747 188.307C20.357 188.69 20.357 189.31 19.9747 189.692L13.9414 195.727C13.5726 196.096 13.5726 196.694 13.9414 197.062L15.935 199.056C16.3038 199.425 16.9015 199.425 17.2702 199.056L23.3039 193.022C23.6863 192.64 24.3062 192.64 24.6886 193.022L30.6974 199.032C31.0797 199.415 31.6993 199.415 32.0816 199.032L34.0266 197.087C34.4089 196.705 34.4089 196.085 34.0266 195.703L28.0174 189.692C27.6351 189.31 27.6351 188.69 28.0174 188.307Z" fill="#FFD2E3"/>
</svg>
