<svg width="248" height="213" viewBox="0 0 248 213" fill="none" xmlns="http://www.w3.org/2000/svg">
<path d="M95.0879 170.066C89.7917 184 90.7187 192.5 90.7187 192.5C97.2062 192.5 144.935 193.5 144.935 193.5L171.238 168.095L95.0879 170.066Z" fill="#1C3255"/>
<path d="M98.1313 179.671C98.0713 179.606 104.157 188 104.157 188H175.055C175.055 175.5 174.657 176.369 171.177 168.03L98.0707 179.606" fill="#1C3255"/>
<path d="M88.4682 129.464C84.9941 130.29 81.3991 130.334 77.9083 129.595C72.7678 128.29 69.6884 123.787 66.6574 119.546C64.0144 115.826 63.578 109.562 64.3539 105.111C65.2632 99.8912 71.0462 96.9808 71.7494 91.6561C72.392 86.6968 71.1311 81.6591 72.9618 76.8564C75.0714 71.3359 79.6542 68.543 84.8795 67.4598C87.7771 66.8595 90.9414 67.4598 93.6935 66.2461C97.3307 64.7322 97.2458 61.1823 97.2579 57.5673C97.2579 48.7449 105.163 46.2 111.807 44.412C115.662 43.381 119.154 42.0889 121.069 38.0171C122.766 34.3628 121.857 29.9647 122.766 26.1147C124.488 18.9237 129.422 14.0949 135.448 10.7278C140.831 7.71301 140.952 2.67538 147.002 3.14521C151.548 -0.443769 161.053 1.10928 167.77 8.28725C172.365 13.2074 172.559 22.0037 172.341 27.8635C172.117 33.4563 170.319 38.8438 167.186 43.3118C164.053 47.7798 159.733 51.1173 154.798 52.882C151.557 53.8294 148.541 55.5065 145.947 57.8022C143.84 59.6332 142.197 62.0081 141.17 64.7061C139.473 69.7437 140.019 75.6035 140.31 80.8369C140.928 91.6561 139.849 103.219 129.629 108.453C124.779 110.971 119.202 110.671 114.037 112.25C109.709 113.555 104.932 114.639 102.435 119.011C99.4645 124.231 96.1789 127.494 90.5535 129.021C89.8745 129.203 89.1835 129.321 88.4682 129.464Z" fill="#151F24"/>
<path d="M146.238 2.87118C147.431 2.4793 148.688 2.37087 149.923 2.55339C151.158 2.73592 152.341 3.20503 153.391 3.92829C154.447 4.55117 155.312 5.49101 155.88 6.63337C156.448 7.77573 156.696 9.07132 156.592 10.3624C156.592 10.3624 151.658 4.67219 146.238 2.87118Z" fill="#3AAA35"/>
<path d="M119.239 73.698C102.266 73.3196 96.3856 78.2397 86.0925 83.3557C81.8006 85.483 73.0715 90.8208 64.3423 96.3413C65.8336 83.3948 68.2826 72.6279 70.089 68.5169L71.3984 53.5084C71.0905 53.2067 70.8499 52.834 70.6946 52.4182C70.5392 52.0024 70.4731 51.5542 70.5012 51.107C70.6104 49.8019 70.5012 48.3663 70.574 46.996C70.5808 43.9389 70.7467 40.8845 71.0711 37.8474C71.4231 35.1047 71.9702 32.3952 72.7078 29.7428C73.3018 27.4719 73.4352 24.0657 70.4164 24.157C69.6769 24.2946 68.9533 24.5178 68.2583 24.8226C66.8398 25.175 65.5668 24.2484 64.2211 24.0526C62.8754 23.8569 61.7115 25.2272 60.584 25.9841C59.5431 26.4692 58.4524 26.8197 57.3348 27.0282C56.3072 27.6163 55.3772 28.3837 54.5827 29.2991C53.1213 30.6855 51.9798 32.4192 51.2486 34.3628C50.7453 35.6053 50.32 36.8828 49.9756 38.1867C49.3078 40.6805 48.8612 43.2368 48.642 45.8214C48.3076 49.6779 48.2307 53.5553 48.4116 57.4236C48.5329 60.0338 49.1027 62.644 49.1027 65.2541C49.1027 67.8643 48.836 69.6262 47.3569 74.1287C46.2536 77.5089 43.2226 87.284 39.6097 98.0248C37.185 105.242 31.5717 121.19 35.4149 129.856C39.2582 138.522 48.3389 136.225 59.214 131.161C74.5991 124.635 111.928 106.443 111.928 106.443L119.239 73.698Z" fill="#FFBDB4"/>
<path opacity="0.2" d="M64.3418 96.3412C63.4083 103.95 63.287 112.002 59.4316 119.363C59.4316 119.363 67.6152 111.532 69.7126 92.9741L64.3418 96.3412Z" fill="black"/>
<path d="M143.159 73.3718L158.083 74.8857C165.648 76.8694 168.57 80.8499 169.346 88.054C169.71 91.4211 169.589 111.245 167.055 122.469C164.412 134.215 162.981 143.872 162.981 143.872C166.545 151.599 169.313 159.721 171.237 168.095C144.359 186.966 106.229 181.472 95.0877 170.065C97.7428 159.625 99.5492 155.37 101.792 148.01C101.792 148.01 98.3368 136.264 98.7733 128.303C88.5408 117.17 90.6746 105.894 95.2574 98.4294C103.514 84.974 115.868 73.6328 119.238 73.6328L143.159 73.3718Z" fill="#FFBDB4"/>
<path d="M158.083 74.8857L143.159 73.3718L119.238 73.698C115.807 73.698 103.477 84.974 95.2574 98.4946C90.6746 105.96 88.5408 117.236 98.7733 128.368C98.688 131.369 98.9034 134.37 99.4159 137.321C99.4159 137.321 126.258 153.661 164.254 136.342C164.933 132.583 165.866 127.768 167.055 122.534C169.589 111.311 169.71 91.4863 169.346 88.1192C168.57 80.9151 165.636 76.8694 158.083 74.8857Z" fill="#1C3255"/>
<path d="M146.239 62.7092C146.069 60.9604 150.943 57.2409 153.222 55.0484C158.362 50.1021 161.709 46.5653 163.018 36.5292C164.558 24.8878 162.775 13.0377 150.142 4.90699C139.425 -1.9969 116.438 -3.66741 109.807 13.7163L146.239 62.7092Z" fill="#263238"/>
<path d="M118.414 5.79446C112.171 8.19581 106.678 14.2253 104.181 35.1589C102.059 52.895 106.775 58.1284 109.261 59.825C111.746 61.5216 116.887 62.5656 122.027 62.4351L123.324 75.2772C123.324 75.2772 114.195 85.3002 116.438 94.4097C139.073 91.1861 147.548 76.5301 147.548 76.5301L145.123 50.6372C145.977 51.5584 147.082 52.1626 148.276 52.3621C149.471 52.5616 150.694 52.3459 151.767 51.7465C157.926 48.8623 158.908 40.9143 156.192 36.8816C155.631 35.9762 154.868 35.2363 153.974 34.7292C153.079 34.222 152.081 33.9639 151.07 33.9781C150.059 33.9924 149.067 34.2787 148.185 34.8108C147.303 35.343 146.559 36.1042 146.02 37.0251C146.02 37.0251 150.348 20.4245 142.383 12.2285C132.987 2.72751 125.737 2.96242 118.414 5.79446Z" fill="#FFBDB4"/>
<path d="M120.548 24.5876L117.105 41.5799L109.261 37.7299L120.548 24.5876Z" fill="#F28F8F"/>
<path opacity="0.2" d="M121.99 62.4873C126.67 62.2524 136.248 60.9604 141.582 53.0776C140.715 56.1503 139.099 58.9171 136.903 61.0909C131.932 65.4629 122.463 67.2378 122.463 67.2378L121.99 62.4873Z" fill="black"/>
<path d="M128.938 22.7605L133.29 27.4066C133.866 26.7582 134.187 25.8958 134.187 24.9988C134.187 24.1017 133.866 23.2393 133.29 22.5909C132.998 22.2862 132.651 22.0482 132.272 21.8912C131.892 21.7342 131.487 21.6615 131.08 21.6773C130.674 21.6931 130.274 21.7973 129.906 21.9834C129.538 22.1696 129.208 22.4339 128.938 22.7605Z" fill="#263238"/>
<path d="M108.909 21.7557L114.898 20.046C114.814 19.6255 114.652 19.2275 114.422 18.8759C114.192 18.5243 113.899 18.2262 113.559 17.9996C113.219 17.773 112.841 17.6224 112.446 17.5569C112.051 17.4914 111.648 17.5124 111.261 17.6185C110.448 17.847 109.749 18.4056 109.31 19.1769C108.872 19.9483 108.728 20.8725 108.909 21.7557Z" fill="#263238"/>
<path d="M130.137 33.0838C130.137 33.0838 130.283 31.1653 127.604 30.0168C125.955 29.3251 124.524 29.5339 123.736 30.7085C126.011 30.9591 128.202 31.772 130.137 33.0838Z" fill="#263238"/>
<path d="M107.902 28.007C107.902 28.007 108.448 26.1799 111.321 26.2321C113.091 26.2321 114.328 27.0543 114.631 28.4507C112.449 27.75 110.147 27.5982 107.902 28.007Z" fill="#263238"/>
<path d="M123.203 13.2073C125.725 14.0295 129.265 9.8271 134.236 12.4764C139.534 15.3346 137 21.8078 140.552 26.0232C143.232 29.2076 139.34 36.4639 142.407 38.5129C143.777 39.4003 146.045 37.0773 146.045 37.0773C146.045 37.0773 149.342 32.9662 149.851 22.5647C150.361 12.1632 138.358 3.57574 129.265 1.94438C125.277 1.28293 121.198 2.08081 117.681 4.21033C114.164 6.33985 111.413 9.67788 109.867 13.6901C109.867 13.6901 113.359 9.1354 117.784 8.97879C122.209 8.82218 120.9 12.4634 123.203 13.2073Z" fill="#263238"/>
<path d="M167.37 186.549C167.37 186.549 170.809 184.915 172.098 183.443C173.285 182.073 174.344 180.582 175.263 178.992C178.033 174.109 180.425 168.989 182.416 163.684C184.525 158.463 186.465 153.099 188.672 147.892C182.695 139.461 163.369 110.828 163.369 110.828C154.022 98.0901 153.234 84.4389 156.459 74.7291C169.383 74.2462 173.965 74.3506 183.01 87.1535C191.436 99.0819 200.686 116.061 209.682 133.105C214.629 142.515 217.381 145.83 212.265 155.383C206.676 165.824 194.224 184.545 188.672 192.284L167.37 186.549Z" fill="#FFBDB4"/>
<path d="M105.477 51.4071C105.102 50.0726 105.046 48.6684 105.313 47.3081C105.58 45.9478 106.162 44.6695 107.012 43.5766C107.302 43.1657 107.696 42.84 108.154 42.6334C108.611 42.4269 109.116 42.347 109.615 42.4021L110.512 42.5848C110.99 42.7225 111.422 42.9865 111.763 43.3493C112.104 43.7121 112.342 44.1603 112.451 44.6468C112.82 45.9827 112.872 47.3866 112.603 48.7462C112.334 50.1059 111.752 51.3836 110.903 52.4773C110.614 52.889 110.22 53.2145 109.762 53.419C109.303 53.6236 108.798 53.6996 108.3 53.6388L107.403 53.5083C106.923 53.3641 106.491 53.0929 106.152 52.7231C105.813 52.3533 105.58 51.8987 105.477 51.4071Z" fill="#3AAA35"/>
<path opacity="0.5" d="M105.477 51.4071C105.102 50.0726 105.046 48.6684 105.313 47.3081C105.58 45.9478 106.162 44.6695 107.012 43.5766C107.302 43.1657 107.696 42.84 108.154 42.6334C108.611 42.4269 109.116 42.347 109.615 42.4021L110.512 42.5848C110.99 42.7225 111.422 42.9865 111.763 43.3493C112.104 43.7121 112.342 44.1603 112.451 44.6468C112.82 45.9827 112.872 47.3866 112.603 48.7462C112.334 50.1059 111.752 51.3836 110.903 52.4773C110.614 52.889 110.22 53.2145 109.762 53.419C109.303 53.6236 108.798 53.6996 108.3 53.6388L107.403 53.5083C106.923 53.3641 106.491 53.0929 106.152 52.7231C105.813 52.3533 105.58 51.8987 105.477 51.4071Z" fill="white"/>
<path d="M111.527 44.464C110.708 42.0627 108.691 41.6581 107.012 43.5766C106.162 44.6694 105.58 45.9477 105.313 47.308C105.046 48.6684 105.102 50.0725 105.477 51.4071C106.297 53.8084 108.313 54.213 109.979 52.2945C110.832 51.2028 111.416 49.925 111.685 48.5647C111.954 47.2043 111.9 45.7995 111.527 44.464Z" fill="#3AAA35"/>
<path opacity="0.5" d="M111.527 44.464C110.708 42.0627 108.691 41.6581 107.012 43.5766C106.162 44.6694 105.58 45.9477 105.313 47.308C105.046 48.6684 105.102 50.0725 105.477 51.4071C106.297 53.8084 108.313 54.213 109.979 52.2945C110.832 51.2028 111.416 49.925 111.685 48.5647C111.954 47.2043 111.9 45.7995 111.527 44.464Z" fill="white"/>
<path opacity="0.1" d="M111.527 44.464C110.708 42.0627 108.691 41.6581 107.012 43.5766C106.162 44.6694 105.58 45.9477 105.313 47.308C105.046 48.6684 105.102 50.0725 105.477 51.4071C106.297 53.8084 108.313 54.213 109.979 52.2945C110.832 51.2028 111.416 49.925 111.685 48.5647C111.954 47.2043 111.9 45.7995 111.527 44.464Z" fill="black"/>
<path d="M104.279 51.1722C103.91 49.8364 103.857 48.4323 104.126 47.0725C104.395 45.7126 104.978 44.4349 105.827 43.3417C106.116 42.9297 106.51 42.6032 106.968 42.3966C107.426 42.1899 107.931 42.1106 108.43 42.1671L109.328 42.3498C109.791 42.491 110.21 42.7523 110.541 43.1074C110.873 43.4625 111.105 43.899 111.214 44.3727C111.585 45.7092 111.637 47.1146 111.366 48.475C111.095 49.8354 110.508 51.1126 109.653 52.2032C109.364 52.6149 108.97 52.9404 108.512 53.145C108.054 53.3495 107.548 53.4255 107.051 53.3647L106.166 53.1951C105.704 53.0504 105.287 52.788 104.956 52.4334C104.626 52.0789 104.392 51.6443 104.279 51.1722Z" fill="#3AAA35"/>
<path opacity="0.5" d="M104.279 51.1722C103.91 49.8364 103.857 48.4323 104.126 47.0725C104.395 45.7126 104.978 44.4349 105.827 43.3417C106.116 42.9297 106.51 42.6032 106.968 42.3966C107.426 42.1899 107.931 42.1106 108.43 42.1671L109.328 42.3498C109.791 42.491 110.21 42.7523 110.541 43.1074C110.873 43.4625 111.105 43.899 111.214 44.3727C111.585 45.7092 111.637 47.1146 111.366 48.475C111.095 49.8354 110.508 51.1126 109.653 52.2032C109.364 52.6149 108.97 52.9404 108.512 53.145C108.054 53.3495 107.548 53.4255 107.051 53.3647L106.166 53.1951C105.704 53.0504 105.287 52.788 104.956 52.4334C104.626 52.0789 104.392 51.6443 104.279 51.1722Z" fill="white"/>
<path d="M110.329 44.2292C109.51 41.8278 107.493 41.4232 105.827 43.3417C104.978 44.4349 104.395 45.7126 104.126 47.0725C103.857 48.4323 103.91 49.8364 104.279 51.1722C105.099 53.5736 107.116 53.9781 108.794 52.0597C109.645 50.9668 110.227 49.6885 110.493 48.3282C110.76 46.9679 110.704 45.5637 110.329 44.2292Z" fill="#3AAA35"/>
<path opacity="0.5" d="M110.329 44.2292C109.51 41.8278 107.493 41.4232 105.827 43.3417C104.978 44.4349 104.395 45.7126 104.126 47.0725C103.857 48.4323 103.91 49.8364 104.279 51.1722C105.099 53.5736 107.116 53.9781 108.794 52.0597C109.645 50.9668 110.227 49.6885 110.493 48.3282C110.76 46.9679 110.704 45.5637 110.329 44.2292Z" fill="white"/>
<path opacity="0.1" d="M110.329 44.2292C109.51 41.8278 107.493 41.4232 105.827 43.3417C104.978 44.4349 104.395 45.7126 104.126 47.0725C103.857 48.4323 103.91 49.8364 104.279 51.1722C105.099 53.5736 107.116 53.9781 108.794 52.0597C109.645 50.9668 110.227 49.6885 110.493 48.3282C110.76 46.9679 110.704 45.5637 110.329 44.2292Z" fill="black"/>
<path d="M103.148 50.8982C102.772 49.5629 102.716 48.1575 102.985 46.7966C103.254 45.4357 103.841 44.1579 104.696 43.0676C104.985 42.6556 105.379 42.3292 105.837 42.1225C106.294 41.9158 106.799 41.8366 107.298 41.8931L108.183 42.0758C108.661 42.2135 109.093 42.4776 109.434 42.8403C109.775 43.2031 110.013 43.6513 110.122 44.1378C110.497 45.4731 110.552 46.8784 110.283 48.2391C110.014 49.5998 109.428 50.8776 108.573 51.9683C108.285 52.38 107.891 52.7055 107.432 52.9101C106.974 53.1146 106.469 53.1906 105.971 53.1299L105.086 52.9602C104.61 52.8188 104.18 52.5535 103.84 52.1913C103.499 51.8291 103.26 51.383 103.148 50.8982Z" fill="#3AAA35"/>
<path opacity="0.5" d="M103.148 50.8982C102.772 49.5629 102.716 48.1575 102.985 46.7966C103.254 45.4357 103.841 44.1579 104.696 43.0676C104.985 42.6556 105.379 42.3292 105.837 42.1225C106.294 41.9158 106.799 41.8366 107.298 41.8931L108.183 42.0758C108.661 42.2135 109.093 42.4776 109.434 42.8403C109.775 43.2031 110.013 43.6513 110.122 44.1378C110.497 45.4731 110.552 46.8784 110.283 48.2391C110.014 49.5998 109.428 50.8776 108.573 51.9683C108.285 52.38 107.891 52.7055 107.432 52.9101C106.974 53.1146 106.469 53.1906 105.971 53.1299L105.086 52.9602C104.61 52.8188 104.18 52.5535 103.84 52.1913C103.499 51.8291 103.26 51.383 103.148 50.8982Z" fill="white"/>
<path d="M109.146 43.9943C108.327 41.5929 106.31 41.1884 104.644 43.1068C103.804 44.1971 103.231 45.4703 102.971 46.8237C102.711 48.177 102.772 49.5727 103.148 50.8982C103.968 53.2995 105.985 53.7041 107.663 51.7856C108.499 50.6928 109.068 49.4191 109.325 48.0663C109.583 46.7135 109.522 45.3191 109.146 43.9943Z" fill="#3AAA35"/>
<path opacity="0.1" d="M109.146 43.9943C108.327 41.5929 106.31 41.1884 104.644 43.1068C103.804 44.1971 103.231 45.4703 102.971 46.8237C102.711 48.177 102.772 49.5727 103.148 50.8982C103.968 53.2995 105.985 53.7041 107.663 51.7856C108.499 50.6928 109.068 49.4191 109.325 48.0663C109.583 46.7135 109.522 45.3191 109.146 43.9943Z" fill="black"/>
<path opacity="0.7" d="M108.613 44.6076C107.936 42.6239 106.271 42.2976 104.904 43.8768C104.196 44.7722 103.708 45.8231 103.482 46.9437C103.256 48.0642 103.297 49.2225 103.603 50.3239C104.28 52.3076 105.945 52.6339 107.311 51.0548C108.02 50.1594 108.508 49.1084 108.734 47.9879C108.96 46.8673 108.918 45.709 108.613 44.6076Z" fill="#3AAA35"/>
<path opacity="0.3" d="M108.613 44.6076C107.936 42.6239 106.271 42.2976 104.904 43.8768C104.196 44.7722 103.708 45.8231 103.482 46.9437C103.256 48.0642 103.297 49.2225 103.603 50.3239C104.28 52.3076 105.945 52.6339 107.311 51.0548C108.02 50.1594 108.508 49.1084 108.734 47.9879C108.96 46.8673 108.918 45.709 108.613 44.6076Z" fill="white"/>
<path opacity="0.1" d="M107.714 44.438C107.885 44.2392 108.077 44.0598 108.287 43.903C108.421 44.1251 108.53 44.3614 108.612 44.6077C108.918 45.7091 108.959 46.8674 108.733 47.988C108.507 49.1085 108.02 50.1594 107.311 51.0548C107.141 51.2499 106.954 51.429 106.751 51.5899C106.615 51.3645 106.506 51.1235 106.426 50.8721C106.122 49.7736 106.08 48.6185 106.304 47.5007C106.527 46.3828 107.011 45.3336 107.714 44.438Z" fill="black"/>
<path d="M101.846 50.6894C101.474 49.3546 101.419 47.9509 101.685 46.5909C101.952 45.231 102.533 43.9527 103.381 42.8589C103.67 42.4472 104.064 42.1217 104.522 41.9171C104.981 41.7126 105.486 41.6366 105.984 41.6973L106.881 41.867C107.358 42.0072 107.789 42.272 108.129 42.6344C108.47 42.9968 108.709 43.4436 108.82 43.929C109.194 45.2644 109.249 46.6694 108.98 48.03C108.71 49.3905 108.125 50.6683 107.272 51.7595C106.981 52.1695 106.587 52.4944 106.13 52.7008C105.672 52.9073 105.168 52.9878 104.67 52.9341L103.785 52.7514C103.308 52.6125 102.876 52.348 102.535 51.9854C102.194 51.6228 101.956 51.1753 101.846 50.6894Z" fill="#3AAA35"/>
<path opacity="0.3" d="M101.846 50.6894C101.474 49.3546 101.419 47.9509 101.685 46.5909C101.952 45.231 102.533 43.9527 103.381 42.8589C103.67 42.4472 104.064 42.1217 104.522 41.9171C104.981 41.7126 105.486 41.6366 105.984 41.6973L106.881 41.867C107.358 42.0072 107.789 42.272 108.129 42.6344C108.47 42.9968 108.709 43.4436 108.82 43.929C109.194 45.2644 109.249 46.6694 108.98 48.03C108.71 49.3905 108.125 50.6683 107.272 51.7595C106.981 52.1695 106.587 52.4944 106.13 52.7008C105.672 52.9073 105.168 52.9878 104.67 52.9341L103.785 52.7514C103.308 52.6125 102.876 52.348 102.535 51.9854C102.194 51.6228 101.956 51.1753 101.846 50.6894Z" fill="black"/>
<path d="M107.896 43.7463C107.077 41.3319 105.06 40.9273 103.381 42.8458C102.533 43.9397 101.952 45.2179 101.685 46.5779C101.419 47.9379 101.474 49.3416 101.846 50.6763C102.666 53.0907 104.683 53.4823 106.348 51.5638C107.202 50.4755 107.788 49.2 108.057 47.8414C108.326 46.4827 108.271 45.0795 107.896 43.7463Z" fill="#3AAA35"/>
<path opacity="0.5" d="M107.896 43.7463C107.077 41.3319 105.06 40.9273 103.381 42.8458C102.533 43.9397 101.952 45.2179 101.685 46.5779C101.419 47.9379 101.474 49.3416 101.846 50.6763C102.666 53.0907 104.683 53.4823 106.348 51.5638C107.202 50.4755 107.788 49.2 108.057 47.8414C108.326 46.4827 108.271 45.0795 107.896 43.7463Z" fill="black"/>
<path d="M100.442 50.5331C100.06 49.1579 100.005 47.7119 100.28 46.3112C100.556 44.9105 101.155 43.5942 102.03 42.4677C102.322 42.0574 102.716 41.73 103.172 41.5173C103.628 41.3046 104.131 41.2139 104.632 41.254L105.556 41.4367C106.045 41.583 106.488 41.8569 106.838 42.2307C107.187 42.6044 107.432 43.0645 107.546 43.564C107.929 44.9393 107.984 46.3853 107.708 47.7859C107.433 49.1866 106.834 50.503 105.959 51.6294C105.67 52.0422 105.276 52.3707 104.819 52.5816C104.362 52.7924 103.858 52.8782 103.357 52.8301L102.446 52.6604C101.954 52.5149 101.51 52.2414 101.158 51.8678C100.806 51.4941 100.559 51.0336 100.442 50.5331Z" fill="#3AAA35"/>
<path opacity="0.5" d="M100.442 50.5331C100.06 49.1579 100.005 47.7119 100.28 46.3112C100.556 44.9105 101.155 43.5942 102.03 42.4677C102.322 42.0574 102.716 41.73 103.172 41.5173C103.628 41.3046 104.131 41.2139 104.632 41.254L105.556 41.4367C106.045 41.583 106.488 41.8569 106.838 42.2307C107.187 42.6044 107.432 43.0645 107.546 43.564C107.929 44.9393 107.984 46.3853 107.708 47.7859C107.433 49.1866 106.834 50.503 105.959 51.6294C105.67 52.0422 105.276 52.3707 104.819 52.5816C104.362 52.7924 103.858 52.8782 103.357 52.8301L102.446 52.6604C101.954 52.5149 101.51 52.2414 101.158 51.8678C100.806 51.4941 100.559 51.0336 100.442 50.5331Z" fill="white"/>
<path d="M106.675 43.3809C105.829 40.9012 103.76 40.4966 102.03 42.4673C101.155 43.5938 100.556 44.9101 100.28 46.3108C100.005 47.7115 100.06 49.1575 100.442 50.5327C101.288 53.0124 103.37 53.417 105.087 51.4463C105.962 50.3198 106.561 49.0035 106.837 47.6028C107.112 46.2021 107.057 44.7562 106.675 43.3809Z" fill="#3AAA35"/>
<path opacity="0.5" d="M106.675 43.3809C105.829 40.9012 103.76 40.4966 102.03 42.4673C101.155 43.5938 100.556 44.9101 100.28 46.3108C100.005 47.7115 100.06 49.1575 100.442 50.5327C101.288 53.0124 103.37 53.417 105.087 51.4463C105.962 50.3198 106.561 49.0035 106.837 47.6028C107.112 46.2021 107.057 44.7562 106.675 43.3809Z" fill="white"/>
<path opacity="0.1" d="M106.675 43.3809C105.829 40.9012 103.76 40.4966 102.03 42.4673C101.155 43.5938 100.556 44.9101 100.28 46.3108C100.005 47.7115 100.06 49.1575 100.442 50.5327C101.288 53.0124 103.37 53.417 105.087 51.4463C105.962 50.3198 106.561 49.0035 106.837 47.6028C107.112 46.2021 107.057 44.7562 106.675 43.3809Z" fill="black"/>
<path d="M105.659 43.8508C105.567 43.4165 105.354 43.0173 105.046 42.6987C104.737 42.3802 104.346 42.1552 103.916 42.0497C103.069 41.9764 102.246 41.7322 101.496 41.3319C100.754 40.5614 100.135 39.681 99.661 38.7218C98.0606 36.1116 93.923 30.2126 88.5493 29.1424C88.0531 29.0702 87.5492 29.0702 87.053 29.1424C86.6089 28.9117 86.1364 28.7405 85.6478 28.6335L83.3318 28.1767C82.8693 28.0849 82.3963 28.0585 81.9266 28.0984C81.4517 27.8566 80.9427 27.6893 80.4173 27.6024L77.5288 27.0282C76.5661 26.8389 75.569 26.9435 74.6663 27.3284L73.6384 27.7721C72.828 28.1184 71.9392 28.2381 71.0664 28.1186C70.1936 27.9992 69.3693 27.6449 68.6811 27.0935L66.6123 25.423C65.9999 24.937 65.2824 24.6017 64.5175 24.4441L27.5003 16.966C25.3925 16.5484 22.9984 17.5272 20.8516 20.0069C18.6398 22.8327 17.1252 26.1427 16.431 29.6672C15.7368 33.1916 15.8828 36.8308 16.8571 40.2879C17.924 43.394 19.7586 45.208 21.8534 45.6779L58.9096 52.9603C59.6786 53.1152 60.4736 53.0794 61.2256 52.8558L63.8279 52.1119C64.5799 51.8884 65.3749 51.8526 66.1439 52.0075C67.0986 52.1733 67.9796 52.6289 68.6681 53.3126L69.4618 54.1087C70.1154 54.8288 70.9739 55.3299 71.9209 55.5443L74.7834 56.1186C75.3018 56.2493 75.8388 56.289 76.3707 56.236C76.7809 56.4517 77.2187 56.6098 77.6719 56.7058L79.9879 57.1626C80.4801 57.263 80.9851 57.285 81.4842 57.2279C81.9223 57.4721 82.3968 57.6439 82.8894 57.7369C88.2631 58.807 94.3523 54.8787 96.7985 53.1299C97.5981 52.4142 98.5075 51.8325 99.4918 51.4072C100.333 51.3085 101.185 51.3931 101.99 51.6552C102.426 51.7199 102.871 51.6614 103.276 51.4862C103.68 51.3109 104.028 51.026 104.28 50.6633C105.028 49.7168 105.543 48.6064 105.783 47.4227C106.022 46.2389 105.98 45.015 105.659 43.8508Z" fill="#3AAA35"/>
<path opacity="0.5" d="M104.32 50.6373C104.067 50.999 103.719 51.284 103.316 51.4613C102.912 51.6385 102.467 51.701 102.03 51.6422C101.219 51.3865 100.364 51.302 99.5192 51.3942C98.5349 51.8195 97.6255 52.4012 96.8259 53.1169C94.9977 54.4391 93.035 55.5634 90.9708 56.471C88.4734 57.6939 85.671 58.148 82.9168 57.7761C82.4242 57.6832 81.9497 57.5113 81.5116 57.2671C81.0127 57.3308 80.5067 57.3088 80.0153 57.2019L77.6993 56.7451C77.2483 56.6478 76.8112 56.4944 76.3981 56.2883C75.8549 56.3138 75.3109 56.2566 74.7847 56.1186L71.9223 55.5444C70.9356 55.3651 70.0274 54.8869 69.32 54.1741L68.5393 53.378C67.8571 52.6709 66.9769 52.1885 66.0151 51.9946C65.2447 51.8505 64.4512 51.8907 63.6991 52.112L61.0969 52.869C60.3428 53.0816 59.5493 53.1129 58.7809 52.9603L21.8548 45.678C19.76 45.2603 17.9514 43.4463 16.8715 40.3402C15.9009 36.892 15.7557 33.2627 16.4475 29.7476C17.1393 26.2325 18.6488 22.9309 20.8529 20.1113C22.9998 17.6317 25.3939 16.6529 27.4887 17.0705L64.5058 24.3529C65.2747 24.5104 65.9964 24.8455 66.6137 25.3317L68.6824 27.0022C69.366 27.5628 70.1908 27.9229 71.0657 28.0426C71.9406 28.1624 72.8314 28.0372 73.6398 27.6808L74.6676 27.2371C75.5704 26.8522 76.5675 26.7477 77.5301 26.9369L80.4186 27.5112C80.9441 27.5981 81.4531 27.7653 81.9279 28.0071C82.3977 27.9673 82.8707 27.9936 83.3332 28.0854L85.6492 28.5422C86.1384 28.6472 86.6112 28.8184 87.0544 29.0512C87.5506 28.9789 88.0545 28.9789 88.5507 29.0512C93.9244 30.1213 98.0619 36.0725 99.6623 38.6305C100.137 39.5898 100.756 40.4701 101.497 41.2407C102.247 41.6409 103.07 41.8851 103.917 41.9585C104.346 42.0668 104.736 42.2926 105.044 42.6107C105.352 42.9288 105.565 43.3265 105.661 43.7595C106.004 44.9296 106.062 46.1655 105.829 47.3627C105.595 48.5598 105.078 49.683 104.32 50.6373Z" fill="white"/>
<path d="M63.7367 52.112C65.273 51.6269 66.6313 50.6959 67.6401 49.4366C69.6509 46.8644 71.0287 43.8529 71.6617 40.6466C72.2947 37.4402 72.165 34.1294 71.2833 30.9827C70.8348 29.4612 69.9584 28.1018 68.7591 27.0674L66.6903 25.3969C66.0731 24.9107 65.3514 24.5756 64.5825 24.4181L27.4873 16.9661H27.4092C29.478 17.4098 31.3126 19.2108 32.3275 22.2778C33.3018 25.7349 33.4478 29.374 32.7536 32.8985C32.0594 36.4229 30.5447 39.733 28.333 42.5588C26.2772 44.921 24.0133 45.9259 21.9835 45.6779H21.8534L58.9095 52.9603C59.678 53.1129 60.4714 53.0816 61.2256 52.8689L63.7367 52.112ZM93.5456 34.4673C94.5162 37.9154 94.6614 41.5447 93.9696 45.0598C93.2777 48.5749 91.7683 51.8766 89.5641 54.6961C87.5344 57.0191 85.3095 58.024 83.2927 57.7761C84.7952 57.9867 86.3242 57.9025 87.7946 57.5281L88.289 57.4106C88.7835 57.2801 89.2649 57.1235 89.7463 56.9539L90.2407 56.7711L91.1385 56.3927L91.5939 56.1969L92.4657 55.7662L92.882 55.5574L93.2854 55.3356C94.5064 54.6644 95.688 53.9237 96.8244 53.1169C97.624 52.4012 98.5335 51.8195 99.5178 51.3942C100.363 51.302 101.218 51.3864 102.029 51.6422C102.466 51.701 102.91 51.6384 103.314 51.4612C103.718 51.284 104.066 50.999 104.319 50.6372C105.055 49.6899 105.557 48.5808 105.784 47.4011C106.01 46.2213 105.954 45.0046 105.62 43.8508C105.525 43.4179 105.311 43.0201 105.003 42.702C104.695 42.3839 104.305 42.1581 103.877 42.0498C103.03 41.9764 102.207 41.7323 101.456 41.332C100.715 40.5615 100.096 39.6811 99.6219 38.7218L99.4657 38.4739L99.1404 37.8474L98.9453 37.5473L98.5029 36.8947L98.2557 36.5684L97.7352 35.8637L97.2538 35.2503L96.6423 34.5978C96.5382 34.4803 96.4341 34.3498 96.317 34.2323L96.0177 33.9322L95.6795 33.5798C95.5734 33.456 95.4605 33.3384 95.3412 33.2274C94.9899 32.875 94.6125 32.5357 94.2352 32.2095L93.8449 31.8701L93.4545 31.5569C92.1379 30.5085 90.6247 29.7363 89.0047 29.2861C90.9173 29.8211 92.5698 31.583 93.5456 34.4673ZM86.6626 54.1218C88.8551 51.3038 90.3576 48.009 91.0491 44.5023C91.7406 40.9957 91.6019 37.3752 90.6441 33.9322C89.5902 30.8522 87.7946 29.0381 85.7128 28.5944L83.3447 28.1245C85.4396 28.5552 87.2481 30.3693 88.3281 33.4623C89.2927 36.914 89.4338 40.545 88.7398 44.0615C88.0459 47.5781 86.5364 50.8814 84.3336 53.7042C82.1867 56.1708 79.8057 57.1496 77.6978 56.732L80.0139 57.1888C82.1217 57.5672 84.5028 56.5884 86.6626 54.1218ZM81.6142 53.1169C83.8184 50.2974 85.3278 46.9958 86.0197 43.4807C86.7115 39.9656 86.5663 36.3363 85.5957 32.8881C84.5418 29.782 82.7072 27.9679 80.5994 27.5503L77.4116 26.9108C79.5455 27.3023 81.4061 29.1295 82.473 32.2747C83.4362 35.7236 83.5778 39.3513 82.8862 42.8651C82.1946 46.379 80.6892 49.6806 78.4915 52.5035C76.3317 54.9701 73.9506 55.9489 71.8428 55.5313L74.9655 56.1578C77.1254 56.5754 79.4544 55.5966 81.6142 53.1169Z" fill="#3AAA35"/>
<path opacity="0.7" d="M63.7367 52.112C65.273 51.6269 66.6313 50.6959 67.6401 49.4366C69.6509 46.8644 71.0287 43.8529 71.6617 40.6466C72.2947 37.4402 72.165 34.1294 71.2833 30.9827C70.8348 29.4612 69.9584 28.1018 68.7591 27.0674L66.6903 25.3969C66.0731 24.9107 65.3514 24.5756 64.5825 24.4181L27.4873 16.9661H27.4092C29.478 17.4098 31.3126 19.2108 32.3275 22.2778C33.3018 25.7349 33.4478 29.374 32.7536 32.8985C32.0594 36.4229 30.5447 39.733 28.333 42.5588C26.2772 44.921 24.0133 45.9259 21.9835 45.6779H21.8534L58.9095 52.9603C59.678 53.1129 60.4714 53.0816 61.2256 52.8689L63.7367 52.112ZM93.5456 34.4673C94.5162 37.9154 94.6614 41.5447 93.9696 45.0598C93.2777 48.5749 91.7683 51.8766 89.5641 54.6961C87.5344 57.0191 85.3095 58.024 83.2927 57.7761C84.7952 57.9867 86.3242 57.9025 87.7946 57.5281L88.289 57.4106C88.7835 57.2801 89.2649 57.1235 89.7463 56.9539L90.2407 56.7711L91.1385 56.3927L91.5939 56.1969L92.4657 55.7662L92.882 55.5574L93.2854 55.3356C94.5064 54.6644 95.688 53.9237 96.8244 53.1169C97.624 52.4012 98.5335 51.8195 99.5178 51.3942C100.363 51.302 101.218 51.3864 102.029 51.6422C102.466 51.701 102.91 51.6384 103.314 51.4612C103.718 51.284 104.066 50.999 104.319 50.6372C105.055 49.6899 105.557 48.5808 105.784 47.4011C106.01 46.2213 105.954 45.0046 105.62 43.8508C105.525 43.4179 105.311 43.0201 105.003 42.702C104.695 42.3839 104.305 42.1581 103.877 42.0498C103.03 41.9764 102.207 41.7323 101.456 41.332C100.715 40.5615 100.096 39.6811 99.6219 38.7218L99.4657 38.4739L99.1404 37.8474L98.9453 37.5473L98.5029 36.8947L98.2557 36.5684L97.7352 35.8637L97.2538 35.2503L96.6423 34.5978C96.5382 34.4803 96.4341 34.3498 96.317 34.2323L96.0177 33.9322L95.6795 33.5798C95.5734 33.456 95.4605 33.3384 95.3412 33.2274C94.9899 32.875 94.6125 32.5357 94.2352 32.2095L93.8449 31.8701L93.4545 31.5569C92.1379 30.5085 90.6247 29.7363 89.0047 29.2861C90.9173 29.8211 92.5698 31.583 93.5456 34.4673ZM86.6626 54.1218C88.8551 51.3038 90.3576 48.009 91.0491 44.5023C91.7406 40.9957 91.6019 37.3752 90.6441 33.9322C89.5902 30.8522 87.7946 29.0381 85.7128 28.5944L83.3447 28.1245C85.4396 28.5552 87.2481 30.3693 88.3281 33.4623C89.2927 36.914 89.4338 40.545 88.7398 44.0615C88.0459 47.5781 86.5364 50.8814 84.3336 53.7042C82.1867 56.1708 79.8057 57.1496 77.6978 56.732L80.0139 57.1888C82.1217 57.5672 84.5028 56.5884 86.6626 54.1218ZM81.6142 53.1169C83.8184 50.2974 85.3278 46.9958 86.0197 43.4807C86.7115 39.9656 86.5663 36.3363 85.5957 32.8881C84.5418 29.782 82.7072 27.9679 80.5994 27.5503L77.4116 26.9108C79.5455 27.3023 81.4061 29.1295 82.473 32.2747C83.4362 35.7236 83.5778 39.3513 82.8862 42.8651C82.1946 46.379 80.6892 49.6806 78.4915 52.5035C76.3317 54.9701 73.9506 55.9489 71.8428 55.5313L74.9655 56.1578C77.1254 56.5754 79.4544 55.5966 81.6142 53.1169Z" fill="white"/>
<path d="M83.2148 56.1839C82.8792 56.1182 82.5548 56.0039 82.252 55.8446L81.8226 55.6096H81.3412C81.0005 55.6616 80.654 55.6616 80.3133 55.6096L77.9973 55.1529C77.6931 55.0786 77.4 54.9646 77.1256 54.8135L76.7352 54.6178H76.2928C75.9779 54.6637 75.658 54.6637 75.343 54.6178H75.2129L73.6255 54.2263V54.3046L72.3244 54.0305C71.6715 53.9035 71.0725 53.5803 70.6069 53.1039L69.8262 52.3078C68.9212 51.3739 67.7554 50.7369 66.4823 50.4807C65.466 50.2864 64.4184 50.3356 63.4247 50.6242L60.8224 51.3812C60.3093 51.5048 59.7742 51.5048 59.2611 51.3812L22.1659 44.0857C20.5395 43.7725 19.1733 42.2325 18.3405 39.779C17.9195 38.8926 17.819 37.8869 18.0564 36.9344C18.2938 35.9819 18.8543 35.1419 19.6417 34.5586C21.5023 33.0056 24.0265 33.371 26.2384 33.6712C27.199 33.7678 28.1686 33.6268 29.0623 33.2605C29.956 32.8942 30.7466 32.3137 31.3648 31.57C32.3149 30.4982 33.4876 29.6483 34.8004 29.0801C36.1132 28.5119 37.5342 28.2392 38.9634 28.2812C41.7739 28.4378 44.3241 29.5863 46.9784 30.3824C48.2791 30.8637 49.68 31.0074 51.0509 30.8C52.4918 30.3676 53.8352 29.6584 55.0064 28.7118C57.6673 26.8793 60.9225 26.1283 64.1143 26.6107C65.4456 26.7884 66.6996 27.3404 67.7314 28.2029C68.5344 28.8595 69.4862 29.3077 70.5028 29.5079C71.7753 29.7647 73.0956 29.6282 74.2891 29.1164L75.317 28.6727C75.9274 28.4083 76.6032 28.3355 77.2557 28.4639L78.5568 28.7379L80.1702 28.9859H80.3133C80.6207 29.0509 80.9182 29.1562 81.1981 29.2991L81.6014 29.5079H82.0438C82.3631 29.4621 82.6873 29.4621 83.0067 29.5079L85.3227 29.9647C85.6653 30.0268 85.9951 30.1459 86.2985 30.3171L86.7149 30.552H87.1963C87.5413 30.4996 87.8922 30.4996 88.2372 30.552C92.7391 31.4525 96.4864 36.4901 98.321 39.4266L98.8154 40.2488C99.2311 41.1317 99.8196 41.9217 100.546 42.5718C100.998 42.9013 101.511 43.1366 102.055 43.2635L103.643 43.5898C103.747 43.5898 103.981 43.8378 104.15 44.3598C104.389 45.2513 104.423 46.1856 104.25 47.0922C104.076 47.9987 103.699 48.8539 103.148 49.5932C102.784 49.9978 102.485 50.1152 102.393 50.1022L100.793 49.802C100.248 49.6913 99.6859 49.6913 99.1407 49.802C98.2182 50.1153 97.3684 50.6125 96.6425 51.2637L95.8748 51.838C94.1401 53.0967 92.2779 54.1685 90.319 55.0354C88.1164 56.1149 85.644 56.5146 83.2148 56.1839Z" fill="#3AAA35"/>
<path opacity="0.85" d="M83.2148 56.1839C82.8792 56.1182 82.5548 56.0039 82.252 55.8446L81.8226 55.6096H81.3412C81.0005 55.6616 80.654 55.6616 80.3133 55.6096L77.9973 55.1529C77.6931 55.0786 77.4 54.9646 77.1256 54.8135L76.7352 54.6178H76.2928C75.9779 54.6637 75.658 54.6637 75.343 54.6178H75.2129L73.6255 54.2263V54.3046L72.3244 54.0305C71.6715 53.9035 71.0725 53.5803 70.6069 53.1039L69.8262 52.3078C68.9212 51.3739 67.7554 50.7369 66.4823 50.4807C65.466 50.2864 64.4184 50.3356 63.4247 50.6242L60.8224 51.3812C60.3093 51.5048 59.7742 51.5048 59.2611 51.3812L22.1659 44.0857C20.5395 43.7725 19.1733 42.2325 18.3405 39.779C17.9195 38.8926 17.819 37.8869 18.0564 36.9344C18.2938 35.9819 18.8543 35.1419 19.6417 34.5586C21.5023 33.0056 24.0265 33.371 26.2384 33.6712C27.199 33.7678 28.1686 33.6268 29.0623 33.2605C29.956 32.8942 30.7466 32.3137 31.3648 31.57C32.3149 30.4982 33.4876 29.6483 34.8004 29.0801C36.1132 28.5119 37.5342 28.2392 38.9634 28.2812C41.7739 28.4378 44.3241 29.5863 46.9784 30.3824C48.2791 30.8637 49.68 31.0074 51.0509 30.8C52.4918 30.3676 53.8352 29.6584 55.0064 28.7118C57.6673 26.8793 60.9225 26.1283 64.1143 26.6107C65.4456 26.7884 66.6996 27.3404 67.7314 28.2029C68.5344 28.8595 69.4862 29.3077 70.5028 29.5079C71.7753 29.7647 73.0956 29.6282 74.2891 29.1164L75.317 28.6727C75.9274 28.4083 76.6032 28.3355 77.2557 28.4639L78.5568 28.7379L80.1702 28.9859H80.3133C80.6207 29.0509 80.9182 29.1562 81.1981 29.2991L81.6014 29.5079H82.0438C82.3631 29.4621 82.6873 29.4621 83.0067 29.5079L85.3227 29.9647C85.6653 30.0268 85.9951 30.1459 86.2985 30.3171L86.7149 30.552H87.1963C87.5413 30.4996 87.8922 30.4996 88.2372 30.552C92.7391 31.4525 96.4864 36.4901 98.321 39.4266L98.8154 40.2488C99.2311 41.1317 99.8196 41.9217 100.546 42.5718C100.998 42.9013 101.511 43.1366 102.055 43.2635L103.643 43.5898C103.747 43.5898 103.981 43.8378 104.15 44.3598C104.389 45.2513 104.423 46.1856 104.25 47.0922C104.076 47.9987 103.699 48.8539 103.148 49.5932C102.784 49.9978 102.485 50.1152 102.393 50.1022L100.793 49.802C100.248 49.6913 99.6859 49.6913 99.1407 49.802C98.2182 50.1153 97.3684 50.6125 96.6425 51.2637L95.8748 51.838C94.1401 53.0967 92.2779 54.1685 90.319 55.0354C88.1164 56.1149 85.644 56.5146 83.2148 56.1839Z" fill="white"/>
<path d="M93.5468 34.4672C93.4003 34.0218 93.2265 33.5859 93.0263 33.1621C91.8872 32.1543 90.5606 31.3826 89.1229 30.8912C89.7904 31.816 90.3044 32.8428 90.6453 33.9321C91.6158 37.3803 91.7611 41.0095 91.0692 44.5247C90.3774 48.0398 88.868 51.3414 86.6638 54.1609C85.9424 55.0128 85.0903 55.7441 84.1396 56.3273C85.6527 56.4112 87.1677 56.203 88.6025 55.7139C88.9427 55.4073 89.2642 55.0805 89.5653 54.7351C91.7756 51.9112 93.2885 48.6028 93.9805 45.0803C94.6725 41.5578 94.5238 37.9211 93.5468 34.4672ZM82.4742 32.2746C82.1436 31.2241 81.6567 30.2297 81.0299 29.3251C80.7673 29.2135 80.492 29.1346 80.2102 29.0902L78.5838 28.8292V28.7117L77.2827 28.4377C76.6302 28.3101 75.9546 28.3829 75.344 28.6465L74.3161 29.0902C73.1852 29.577 71.9384 29.7266 70.725 29.5209C70.9559 29.9705 71.1517 30.4374 71.3105 30.9173C72.1922 34.064 72.3219 37.3749 71.6889 40.5813C71.0559 43.7876 69.6781 46.7991 67.6673 49.3712C67.3392 49.7502 66.9871 50.1076 66.6134 50.4414C67.8122 50.7148 68.906 51.3314 69.7621 52.2163L70.5428 53.0124C71.0084 53.4889 71.6074 53.812 72.2603 53.939L73.5614 54.2L75.1748 54.5655C75.448 54.6281 75.7274 54.6587 76.0076 54.6568C76.9161 54.0631 77.7316 53.3374 78.4277 52.5034C80.6392 49.6876 82.1581 46.3887 82.8611 42.8741C83.5641 39.3595 83.4316 35.7282 82.4742 32.2746ZM88.3292 33.4231C88.0188 32.4475 87.5813 31.5172 87.0281 30.6563H86.7939L86.3776 30.4214C86.0718 30.2583 85.7425 30.1438 85.4017 30.0821L84.1006 29.8211C84.7869 30.7419 85.3187 31.7691 85.6749 32.8619C86.6406 36.3114 86.7821 39.9406 86.0881 43.4552C85.3941 46.9698 83.8841 50.2709 81.6805 53.0907C80.9399 53.9681 80.0608 54.7176 79.0782 55.3094L80.3793 55.5704C80.72 55.6227 81.0666 55.6227 81.4072 55.5704H81.8887L82.0968 55.6878C82.9548 55.1144 83.7336 54.4299 84.4128 53.6519C86.5985 50.8228 88.0915 47.5186 88.7718 44.0051C89.452 40.4917 89.3004 36.8671 88.3292 33.4231Z" fill="#3AAA35"/>
<path opacity="0.7" d="M93.5468 34.4672C93.4003 34.0218 93.2265 33.5859 93.0263 33.1621C91.8872 32.1543 90.5606 31.3826 89.1229 30.8912C89.7904 31.816 90.3044 32.8428 90.6453 33.9321C91.6158 37.3803 91.7611 41.0095 91.0692 44.5247C90.3774 48.0398 88.868 51.3414 86.6638 54.1609C85.9424 55.0128 85.0903 55.7441 84.1396 56.3273C85.6527 56.4112 87.1677 56.203 88.6025 55.7139C88.9427 55.4073 89.2642 55.0805 89.5653 54.7351C91.7756 51.9112 93.2885 48.6028 93.9805 45.0803C94.6725 41.5578 94.5238 37.9211 93.5468 34.4672ZM82.4742 32.2746C82.1436 31.2241 81.6567 30.2297 81.0299 29.3251C80.7673 29.2135 80.492 29.1346 80.2102 29.0902L78.5838 28.8292V28.7117L77.2827 28.4377C76.6302 28.3101 75.9546 28.3829 75.344 28.6465L74.3161 29.0902C73.1852 29.577 71.9384 29.7266 70.725 29.5209C70.9559 29.9705 71.1517 30.4374 71.3105 30.9173C72.1922 34.064 72.3219 37.3749 71.6889 40.5813C71.0559 43.7876 69.6781 46.7991 67.6673 49.3712C67.3392 49.7502 66.9871 50.1076 66.6134 50.4414C67.8122 50.7148 68.906 51.3314 69.7621 52.2163L70.5428 53.0124C71.0084 53.4889 71.6074 53.812 72.2603 53.939L73.5614 54.2L75.1748 54.5655C75.448 54.6281 75.7274 54.6587 76.0076 54.6568C76.9161 54.0631 77.7316 53.3374 78.4277 52.5034C80.6392 49.6876 82.1581 46.3887 82.8611 42.8741C83.5641 39.3595 83.4316 35.7282 82.4742 32.2746ZM88.3292 33.4231C88.0188 32.4475 87.5813 31.5172 87.0281 30.6563H86.7939L86.3776 30.4214C86.0718 30.2583 85.7425 30.1438 85.4017 30.0821L84.1006 29.8211C84.7869 30.7419 85.3187 31.7691 85.6749 32.8619C86.6406 36.3114 86.7821 39.9406 86.0881 43.4552C85.3941 46.9698 83.8841 50.2709 81.6805 53.0907C80.9399 53.9681 80.0608 54.7176 79.0782 55.3094L80.3793 55.5704C80.72 55.6227 81.0666 55.6227 81.4072 55.5704H81.8887L82.0968 55.6878C82.9548 55.1144 83.7336 54.4299 84.4128 53.6519C86.5985 50.8228 88.0915 47.5186 88.7718 44.0051C89.452 40.4917 89.3004 36.8671 88.3292 33.4231Z" fill="white"/>
<g opacity="0.05">
<path opacity="0.05" d="M104.321 50.6375C104.067 50.9993 103.72 51.2843 103.316 51.4615C102.912 51.6387 102.467 51.7013 102.031 51.6424C101.22 51.3867 100.365 51.3023 99.5193 51.3945C98.5351 51.8197 97.6256 52.4014 96.826 53.1172C94.9978 54.4394 93.0352 55.5636 90.9709 56.4713C88.4735 57.6941 85.6712 58.1482 82.917 57.7763C82.6603 57.7267 82.408 57.6569 82.1623 57.5675C81.9373 57.4863 81.7197 57.3859 81.5117 57.2674C81.2606 57.2867 81.0083 57.2867 80.7571 57.2674C80.5077 57.2578 80.2597 57.2273 80.0154 57.176L77.6994 56.7192C77.369 56.6529 77.0463 56.5523 76.7366 56.4191L76.3723 56.2624C75.839 56.2938 75.304 56.2454 74.7849 56.1189L71.9224 55.5447C70.9384 55.3576 70.0324 54.8805 69.3202 54.1743L68.5395 53.3782C68.1952 53.0166 67.7955 52.7126 67.3555 52.4777C66.9447 52.2603 66.5072 52.098 66.0543 51.9948C65.2839 51.8507 64.4904 51.891 63.7383 52.1123L61.1361 52.8692L60.6026 52.9867H60.1992C60.0608 52.9999 59.9214 52.9999 59.7829 52.9867C59.6357 53.0001 59.4877 53.0001 59.3405 52.9867L58.9111 52.9606L21.855 45.6782H21.7769L21.3996 45.5738C20.6584 45.3202 19.9797 44.9108 19.4088 44.3731H19.3438C19.1607 44.2045 18.9869 44.0258 18.8233 43.838L18.7323 43.7467C18.5761 43.564 18.42 43.3552 18.2639 43.1463C18.2366 43.1007 18.2062 43.0571 18.1728 43.0158C18.0297 42.794 17.8865 42.5721 17.7434 42.3241L17.6653 42.1806C17.5352 41.9326 17.4051 41.6716 17.288 41.3975L17.275 41.2018C17.1709 40.9408 17.0668 40.6667 16.9627 40.3796C16.9585 40.3493 16.9585 40.3185 16.9627 40.2882C16.8326 39.9228 16.7285 39.5574 16.6244 39.1789V38.9831C16.434 38.202 16.2992 37.4082 16.2211 36.6079C16.2141 36.5472 16.2141 36.4859 16.2211 36.4252C16.2211 36.0336 16.2211 35.6291 16.13 35.2245C16.13 34.8069 16.13 34.3762 16.13 33.9194V33.7236C16.13 33.3452 16.13 32.9536 16.13 32.5752V32.4316C16.13 32.0009 16.2081 31.5833 16.2731 31.1265C16.2669 31.0483 16.2669 30.9698 16.2731 30.8916C16.2731 30.5392 16.3772 30.1738 16.4423 29.8214C16.4376 29.7432 16.4376 29.6647 16.4423 29.5865C16.5203 29.195 16.6114 28.7904 16.7155 28.3858C16.7294 28.3013 16.7512 28.2183 16.7806 28.1379C16.8586 27.7985 16.9627 27.4723 17.0538 27.146C17.0538 27.0546 17.1189 26.9633 17.1449 26.8589C17.262 26.4935 17.3791 26.1411 17.5222 25.7887C17.563 25.654 17.6152 25.523 17.6783 25.3972C17.7694 25.1492 17.8735 24.9013 17.9776 24.6533C18.0817 24.4053 18.0817 24.4053 18.1468 24.2879C18.2899 23.9616 18.459 23.6353 18.6152 23.3221L18.7713 23.035C18.9274 22.7348 19.0966 22.4477 19.2657 22.1606L19.3438 22.0301L19.9944 21.0774L20.1115 20.9338C20.3457 20.6206 20.5799 20.3204 20.8271 20.0333C22.9479 17.5928 25.303 16.614 27.3327 16.9924C29.3625 17.3709 31.2361 19.2372 32.251 22.3041C33.7114 27.5284 33.2875 33.1019 31.054 38.0435C30.9369 38.2914 30.8328 38.5263 30.7157 38.7613L30.4424 39.2963L30.0911 39.9358L60.3033 45.887C61.0723 46.042 61.8673 46.0061 62.6193 45.7826L65.2216 45.0257C65.9692 44.8022 66.76 44.7663 67.5246 44.9213C68.3672 45.0926 69.1515 45.4792 69.8016 46.0436L70.0618 46.2916L70.8425 47.0877C71.5252 47.7941 72.4052 48.2764 73.3667 48.4711L76.2682 49.0453C76.7875 49.17 77.3236 49.2096 77.8556 49.1628C78.2644 49.3815 78.7026 49.5398 79.1567 49.6326L81.4727 50.0894C81.9732 50.1615 82.4815 50.1615 82.982 50.0894C83.4182 50.3277 83.8875 50.4993 84.3742 50.5984C89.7349 51.6685 95.5769 48.9931 98.0231 47.2443C98.8298 46.5381 99.7377 45.9574 100.716 45.5216C102.468 45.6656 104.207 45.9316 105.921 46.3177C105.853 47.8905 105.293 49.402 104.321 50.6375Z" fill="black"/>
<path opacity="0.05" d="M39.1198 23.6741C40.0904 27.1223 40.2356 30.7516 39.5438 34.2667C38.8519 37.7818 37.3425 41.0834 35.1383 43.9029C32.9785 46.3826 32.7963 47.8182 30.6885 47.3744L49.5809 51.12C51.6887 51.5377 54.0698 50.5588 56.2296 48.0922C60.5364 43.1329 62.3319 34.0756 60.2111 27.8634C59.1572 24.7443 57.3226 22.9302 55.2148 22.5126L34.1885 18.3363C36.2313 18.7539 38.0919 20.568 39.1198 23.6741Z" fill="black"/>
</g>
<path d="M40.9411 24.0396C41.9117 27.4877 42.057 31.117 41.3651 34.6321C40.6733 38.1473 39.1639 41.4489 36.9597 44.2684C34.7998 46.7481 32.4187 47.7269 30.3109 47.3092L51.4022 51.4855C53.51 51.9031 55.8911 50.9243 58.051 48.4447C60.2552 45.6252 61.7646 42.3235 62.4564 38.8084C63.1483 35.2933 63.003 31.664 62.0324 28.2159C60.9785 25.1097 59.1439 23.2957 57.0361 22.8781L35.9448 18.7018C38.0917 19.1194 39.8872 20.8813 40.9411 24.0396Z" fill="#3AAA35"/>
<path d="M44.9353 50.2066C45.3824 48.8312 46.1241 47.5706 47.1082 46.5132C48.006 45.5343 49.0339 44.5686 50.1268 43.5376C52.0451 41.8614 53.7889 39.9942 55.3313 37.9649C57.2203 35.1993 58.0687 31.8507 57.7254 28.516C57.6088 26.3967 56.9109 24.3508 55.7087 22.604L54.941 22.4604C56.2637 24.2246 57.0418 26.3391 57.1789 28.5421C57.514 31.7667 56.6929 35.0054 54.8629 37.6777C53.3663 39.6651 51.6703 41.4931 49.8015 43.133C48.7086 44.164 47.6677 45.1428 46.7569 46.1347C45.7213 47.259 44.9401 48.5946 44.4669 50.0499L44.9353 50.2066Z" fill="#FAFAFA"/>
<path d="M41.9949 24.2483C42.9605 27.6978 43.1021 31.327 42.4081 34.8416C41.7141 38.3562 40.2041 41.6573 38.0005 44.4771C35.8536 46.9568 33.4595 47.9356 31.3517 47.518L41.3053 49.4887C41.7575 48.0663 42.5223 46.764 43.5433 45.6778C46.0154 42.9893 49.5805 40.2487 51.7144 37.1556C53.5755 34.4424 54.4106 31.1521 54.0694 27.8765C53.9455 25.7179 53.2097 23.6396 51.9486 21.8861L36.9986 18.9105C39.0934 19.3281 40.928 21.1422 41.9949 24.2483Z" fill="#FAFAFA"/>
<path opacity="0.1" d="M38.2086 42.624C37.8112 43.2001 37.3765 43.7494 36.9074 44.2684C34.7476 46.7481 32.3665 47.7269 30.2587 47.3093L51.35 51.4855C53.4578 51.9032 55.8389 50.9244 57.9987 48.4447C58.4678 47.9257 58.9025 47.3764 59.2999 46.8003L38.2086 42.624Z" fill="black"/>
<path d="M83.3516 51.0027C81.2099 50.9441 79.1003 51.5709 77.2897 52.8037C76.1001 53.829 74.6187 54.3821 73.0948 54.3698C72.4616 54.2724 69.973 54.9639 69.5002 54.5L70.0881 68.5169C72.2825 65.5152 76.4774 63.9491 78.4293 61.0518C80.3813 58.1545 84.8671 54.7091 85.5945 53.8086C87.1706 51.8379 84.6125 51.0288 83.3516 51.0027Z" fill="#FFBDB4"/>
<path d="M248 185H5V192.91H248V185Z" fill="#31922C"/>
<path opacity="0.2" d="M248 188.509H5V189.402H248V188.509Z" fill="black"/>
<path d="M238.25 196H14.7508L8.48438 192.91H244.516L238.25 196Z" fill="#31922C"/>
<path opacity="0.5" d="M238.25 196H14.7508L8.48438 192.91H244.516L238.25 196Z" fill="white"/>
<path d="M47.9923 189C47.9923 175.745 37.2488 165 23.9963 165C10.7435 165 0 175.745 0 189C0 202.255 10.7435 213 23.9963 213C37.2488 213 47.9923 202.255 47.9923 189Z" fill="#0B7DCF"/>
<path d="M35.0059 188.169C35.0059 186.862 33.9468 185.803 32.6401 185.803H29.2867C30.2554 183.38 30.326 181.393 30.3198 180.756C30.3191 180.686 30.3348 180.438 30.3348 180.383V180.273C30.2645 177.972 29.5599 177.267 28.655 176.932C27.727 176.932 26.9749 177.683 26.9749 178.611V178.779C26.9657 179.355 26.1575 180.542 26.1575 180.542L19.9927 186.777L19.8887 186.905L18.0137 191.919L19.8887 199.694C19.8887 199.93 20.0798 200.121 20.3153 200.121H31.9216C32.7112 200.121 33.3824 199.545 33.5018 198.764C33.9581 195.78 35.0059 188.854 35.0059 188.169Z" fill="#E3F3FF"/>
<path d="M18.5498 201.069H14.3256C13.5862 201.069 12.9867 200.469 12.9867 199.73V187.047C12.9867 186.307 13.5862 185.708 14.3256 185.708H18.5498C19.2892 185.708 19.8887 186.307 19.8887 187.047V199.73C19.8887 200.469 19.2892 201.069 18.5498 201.069Z" fill="#0D3064"/>
</svg>
