<svg width="444" height="392" viewBox="0 0 444 392" fill="none" xmlns="http://www.w3.org/2000/svg">
<g clip-path="url(#clip0_1813_445)">
<path d="M297.456 303.591C298.886 302.421 300.705 301.381 302.525 301.901C304.085 302.291 305.255 303.851 305.905 305.28C307.725 309.05 308.375 314.769 307.855 318.928L289.267 313.079C291.346 309.44 294.206 306.19 297.456 303.591Z" fill="#F5F5F5"/>
<path d="M268.859 298.132C270.029 296.702 271.589 295.402 273.539 295.402C275.229 295.532 276.529 296.832 277.568 298.132C280.168 301.511 281.728 306.97 282.118 311.26L262.75 309.05C263.92 305.021 266.13 301.381 268.859 298.132Z" fill="#F5F5F5"/>
<path d="M239.092 301.771C239.872 300.081 240.912 298.262 242.732 297.872C244.291 297.482 245.981 298.392 247.411 299.302C250.791 301.771 254.041 306.58 255.47 310.48L236.362 313.989C236.492 309.83 237.402 305.67 239.092 301.771Z" fill="#F5F5F5"/>
<path d="M212.444 318.148C212.314 316.329 212.574 314.249 213.874 313.079C215.174 312.039 216.994 312.039 218.683 312.299C222.843 312.949 227.912 315.809 231.032 318.668L215.564 330.496C213.744 326.597 212.704 322.438 212.444 318.148Z" fill="#F5F5F5"/>
<path d="M193.857 339.205C193.207 337.515 192.687 335.436 193.727 333.876C194.637 332.446 196.326 331.926 198.016 331.666C202.176 331.016 207.765 332.186 211.665 334.006L200.486 349.863C197.626 346.744 195.287 343.104 193.857 339.205Z" fill="#F5F5F5"/>
<path d="M180.728 367.02C179.558 365.591 178.648 363.771 179.038 361.951C179.428 360.392 180.987 359.352 182.547 358.572C186.317 356.752 192.036 356.362 196.326 356.882L190.087 375.339C186.577 373.259 183.327 370.4 180.728 367.02Z" fill="#F5F5F5"/>
<path d="M168.769 388.597C168.25 386.777 167.99 384.697 169.159 383.268C170.199 381.968 172.019 381.578 173.709 381.448C177.999 381.188 183.458 382.878 187.098 384.957L174.489 399.775C171.889 396.526 169.939 392.756 168.769 388.597Z" fill="#F5F5F5"/>
<path d="M365.96 58.711C366.739 57.0213 367.909 55.3316 369.729 54.9416C371.419 54.5517 372.979 55.4616 374.279 56.5014C377.658 59.101 380.648 63.9102 382.078 67.9395L362.84 70.929C363.1 66.6397 364.14 62.4804 365.96 58.711Z" fill="#F5F5F5"/>
<path d="M339.572 78.9877C338.922 77.298 338.532 75.2183 339.442 73.6586C340.352 72.2288 342.172 71.7089 343.731 71.449C347.891 70.7991 353.48 72.0988 357.38 73.9185L346.071 89.7759C343.341 86.5265 341.132 82.8871 339.572 78.9877Z" fill="#F5F5F5"/>
<path d="M331.382 105.893C330.082 104.594 328.782 102.904 329.042 101.084C329.302 99.3943 330.602 98.2245 332.032 97.3147C335.542 94.9751 341.131 93.6753 345.421 93.6753L341.911 112.782C338.011 111.222 334.372 108.883 331.382 105.893Z" fill="#F5F5F5"/>
<path d="M340.351 134.229C338.531 134.229 336.452 133.969 335.282 132.409C334.242 131.109 334.372 129.289 334.762 127.6C335.672 123.44 338.791 118.631 341.781 115.642L352.7 131.759C348.8 133.319 344.511 134.229 340.351 134.229Z" fill="#F5F5F5"/>
<path d="M337.232 153.595C335.932 152.296 334.632 150.736 334.762 148.786C334.892 147.097 336.322 145.797 337.622 144.887C341.131 142.547 346.721 141.118 350.88 140.988L347.761 160.094C343.991 158.795 340.351 156.455 337.232 153.595Z" fill="#F5F5F5"/>
<path d="M335.282 181.541C333.983 180.241 332.683 178.681 332.813 176.732C332.943 175.042 334.373 173.742 335.672 172.832C339.182 170.493 344.771 169.063 348.931 168.933L345.811 188.04C342.042 186.74 338.402 184.4 335.282 181.541Z" fill="#F5F5F5"/>
<path d="M333.462 209.486C332.162 208.186 330.862 206.627 330.992 204.677C331.122 202.987 332.552 201.688 333.852 200.778C337.362 198.438 342.951 197.008 347.111 196.878L343.991 215.985C340.091 214.685 336.452 212.476 333.462 209.486Z" fill="#F5F5F5"/>
<path d="M331.513 237.432C330.213 236.132 328.913 234.572 329.043 232.622C329.173 230.933 330.603 229.633 331.903 228.723C335.413 226.383 341.002 224.954 345.162 224.824L342.042 243.931C338.142 242.761 334.503 240.421 331.513 237.432Z" fill="#F5F5F5"/>
<path d="M329.564 265.507C328.264 264.207 326.964 262.648 327.094 260.698C327.224 259.008 328.654 257.708 329.954 256.799C333.463 254.459 339.053 253.029 343.212 252.899L340.093 272.006C336.193 270.706 332.553 268.367 329.564 265.507Z" fill="#F5F5F5"/>
<path d="M327.613 293.452C326.313 292.153 325.013 290.593 325.143 288.643C325.273 286.953 326.703 285.654 328.003 284.744C331.512 282.404 337.102 280.974 341.261 280.844L338.142 299.951C334.372 298.652 330.732 296.312 327.613 293.452Z" fill="#F5F5F5"/>
<path d="M325.663 321.398C324.363 320.098 323.064 318.538 323.194 316.589C323.324 314.899 324.753 313.599 326.053 312.689C329.563 310.35 335.152 308.92 339.312 308.79L336.192 327.897C332.423 326.597 328.783 324.387 325.663 321.398Z" fill="#F5F5F5"/>
<path d="M407.685 87.4363C408.595 91.4656 411.975 94.4551 416.134 95.235C425.623 97.0547 440.052 102.644 438.492 120.841C436.152 147.746 399.106 143.457 393.256 142.807C387.407 142.157 352.571 130.979 352.571 130.979C352.571 130.979 334.762 120.321 343.342 94.7151C351.921 69.2393 371.549 65.2099 386.887 68.3294C397.026 70.4091 405.475 78.0778 407.685 87.4363Z" fill="#EBEBEB"/>
<path d="M393.256 142.937L389.226 362.991L328.393 369.23L350.75 120.841L393.256 142.937Z" fill="#EBEBEB"/>
<path d="M276.528 418.362L291.737 469.184C291.737 469.184 260.8 484.261 247.931 480.102L216.994 419.662C216.994 419.662 258.59 383.528 276.528 418.362Z" fill="#E0E0E0"/>
<path d="M389.226 362.991C388.317 365.331 395.986 458.785 294.726 442.668C193.466 426.551 184.107 402.505 184.107 402.505C184.107 402.505 188.527 311.39 263.659 308.27C263.659 308.27 323.193 306.97 332.812 343.104L389.226 362.991Z" fill="#EBEBEB"/>
<path d="M138.222 421.351C154.991 419.012 168.769 406.664 178.518 392.886C188.267 379.108 195.286 363.511 205.165 349.733L218.684 414.592C200.486 434.999 173.059 446.697 145.761 445.787C118.464 444.878 91.9469 431.1 75.3086 409.393C96.7564 410.823 116.904 424.341 138.222 421.351Z" fill="#EBEBEB"/>
<path d="M338.792 421.351L354 472.173C354 472.173 323.063 487.251 310.195 483.091L279.258 422.781C279.258 422.651 320.854 386.647 338.792 421.351Z" fill="#EBEBEB"/>
<path d="M265.739 421.351C265.219 423.041 254.69 477.762 208.805 478.542L200.746 434.869L227.393 400.165C227.393 400.165 277.698 382.098 265.739 421.351Z" fill="#EBEBEB"/>
<path d="M393.174 109.841C396.717 101.989 393.223 92.7521 385.37 89.2099C377.518 85.6677 368.281 89.1614 364.738 97.0133C361.196 104.865 364.69 114.102 372.542 117.644C380.395 121.186 389.632 117.692 393.174 109.841Z" fill="white"/>
<path d="M354.919 213.727L354.905 214.507L366.082 214.706L366.096 213.926L354.919 213.727Z" fill="white"/>
<path d="M354.77 217.544L354.756 218.323L359.175 218.402L359.188 217.622L354.77 217.544Z" fill="white"/>
<path d="M354.635 220.937L354.621 221.717L359.04 221.796L359.054 221.016L354.635 220.937Z" fill="white"/>
<path d="M354.631 224.204L354.617 224.984L359.036 225.062L359.049 224.282L354.631 224.204Z" fill="white"/>
<path d="M354.495 227.597L354.481 228.377L358.9 228.456L358.914 227.676L354.495 227.597Z" fill="white"/>
<path d="M354.428 230.821L354.414 231.601L361.562 231.728L361.576 230.949L354.428 230.821Z" fill="white"/>
<path d="M354.358 234.257L354.344 235.037L358.762 235.116L358.776 234.336L354.358 234.257Z" fill="white"/>
<path d="M354.354 237.524L354.34 238.304L358.759 238.382L358.772 237.602L354.354 237.524Z" fill="white"/>
<path d="M354.348 240.92L354.334 241.7L358.753 241.778L358.767 240.999L354.348 240.92Z" fill="white"/>
<path d="M354.216 244.184L354.202 244.963L358.621 245.042L358.635 244.262L354.216 244.184Z" fill="white"/>
<path d="M354.229 247.535L354.216 248.315L366.042 248.525L366.056 247.746L354.229 247.535Z" fill="white"/>
<path d="M354.101 250.821L354.087 251.6L358.506 251.679L358.52 250.899L354.101 250.821Z" fill="white"/>
<path d="M354.098 254.087L354.084 254.867L358.503 254.945L358.517 254.166L354.098 254.087Z" fill="white"/>
<path d="M353.963 257.481L353.949 258.261L358.368 258.339L358.382 257.559L353.963 257.481Z" fill="white"/>
<path d="M353.96 260.747L353.947 261.526L358.365 261.605L358.379 260.825L353.96 260.747Z" fill="white"/>
<path d="M353.89 264.101L353.876 264.88L361.024 265.008L361.038 264.228L353.89 264.101Z" fill="white"/>
<path d="M353.822 267.407L353.808 268.186L358.227 268.265L358.24 267.485L353.822 267.407Z" fill="white"/>
<path d="M353.816 270.803L353.802 271.583L358.22 271.662L358.234 270.882L353.816 270.803Z" fill="white"/>
<path d="M353.682 274.067L353.668 274.847L358.087 274.926L358.1 274.146L353.682 274.067Z" fill="white"/>
<path d="M353.677 277.463L353.663 278.243L358.082 278.321L358.096 277.542L353.677 277.463Z" fill="white"/>
<path d="M353.565 280.682L353.551 281.462L365.377 281.672L365.391 280.892L353.565 280.682Z" fill="white"/>
<path d="M353.574 284.086L353.561 284.866L357.979 284.945L357.993 284.165L353.574 284.086Z" fill="white"/>
<path d="M353.44 287.48L353.426 288.26L357.844 288.339L357.858 287.559L353.44 287.48Z" fill="white"/>
<path d="M353.437 290.746L353.423 291.526L357.842 291.605L357.855 290.825L353.437 290.746Z" fill="white"/>
<path d="M353.302 294.14L353.288 294.92L357.707 294.998L357.721 294.219L353.302 294.14Z" fill="white"/>
<path d="M353.232 297.495L353.218 298.275L360.366 298.402L360.379 297.622L353.232 297.495Z" fill="white"/>
<path d="M353.163 300.8L353.149 301.58L357.568 301.659L357.582 300.879L353.163 300.8Z" fill="white"/>
<path d="M353.161 304.066L353.147 304.846L357.566 304.924L357.58 304.145L353.161 304.066Z" fill="white"/>
<path d="M353.154 307.463L353.141 308.243L357.559 308.321L357.573 307.542L353.154 307.463Z" fill="white"/>
<path d="M353.022 310.727L353.008 311.506L357.427 311.585L357.44 310.805L353.022 310.727Z" fill="white"/>
<path d="M353.036 314.079L353.022 314.858L364.849 315.069L364.863 314.289L353.036 314.079Z" fill="white"/>
<path d="M352.907 317.363L352.894 318.143L357.312 318.222L357.326 317.442L352.907 317.363Z" fill="white"/>
<path d="M352.904 320.63L352.89 321.41L357.308 321.488L357.322 320.708L352.904 320.63Z" fill="white"/>
<path d="M352.77 324.023L352.756 324.803L357.175 324.882L357.188 324.102L352.77 324.023Z" fill="white"/>
<path d="M352.766 327.29L352.752 328.07L357.171 328.148L357.184 327.369L352.766 327.29Z" fill="white"/>
<path d="M352.696 330.644L352.683 331.424L359.83 331.551L359.844 330.771L352.696 330.644Z" fill="white"/>
<path d="M352.627 333.95L352.614 334.729L357.032 334.808L357.046 334.028L352.627 333.95Z" fill="white"/>
<path d="M352.622 337.346L352.608 338.126L357.027 338.204L357.041 337.425L352.622 337.346Z" fill="white"/>
<path d="M352.488 340.61L352.475 341.39L356.893 341.468L356.907 340.688L352.488 340.61Z" fill="white"/>
<path d="M352.484 344.007L352.47 344.786L356.888 344.865L356.902 344.085L352.484 344.007Z" fill="white"/>
<path d="M352.37 347.225L352.356 348.005L364.183 348.215L364.197 347.436L352.37 347.225Z" fill="white"/>
<path d="M356.095 145.944L356.081 146.724L367.258 146.923L367.272 146.143L356.095 145.944Z" fill="white"/>
<path d="M355.944 149.891L355.93 150.671L360.348 150.749L360.362 149.969L355.944 149.891Z" fill="white"/>
<path d="M355.809 153.284L355.795 154.064L360.214 154.142L360.227 153.363L355.809 153.284Z" fill="white"/>
<path d="M355.805 156.551L355.791 157.33L360.21 157.409L360.224 156.629L355.805 156.551Z" fill="white"/>
<path d="M355.802 159.817L355.788 160.597L360.207 160.675L360.221 159.895L355.802 159.817Z" fill="white"/>
<path d="M355.732 163.171L355.718 163.951L362.866 164.078L362.88 163.298L355.732 163.171Z" fill="white"/>
<path d="M355.663 166.477L355.649 167.257L360.068 167.335L360.082 166.556L355.663 166.477Z" fill="white"/>
<path d="M355.529 169.871L355.515 170.651L359.933 170.729L359.947 169.949L355.529 169.871Z" fill="white"/>
<path d="M355.524 173.137L355.51 173.916L359.929 173.995L359.943 173.215L355.524 173.137Z" fill="white"/>
<path d="M355.39 176.531L355.376 177.311L359.795 177.389L359.808 176.61L355.39 176.531Z" fill="white"/>
<path d="M355.404 179.882L355.39 180.662L367.216 180.872L367.23 180.093L355.404 179.882Z" fill="white"/>
<path d="M355.277 183.168L355.263 183.948L359.681 184.026L359.695 183.246L355.277 183.168Z" fill="white"/>
<path d="M355.273 186.434L355.259 187.213L359.677 187.292L359.691 186.512L355.273 186.434Z" fill="white"/>
<path d="M355.268 189.83L355.254 190.61L359.672 190.688L359.686 189.909L355.268 189.83Z" fill="white"/>
<path d="M355.134 193.094L355.12 193.874L359.539 193.952L359.552 193.173L355.134 193.094Z" fill="white"/>
<path d="M355.064 196.449L355.05 197.228L362.198 197.355L362.211 196.576L355.064 196.449Z" fill="white"/>
<path d="M354.995 199.754L354.981 200.534L359.4 200.612L359.414 199.833L354.995 199.754Z" fill="white"/>
<path d="M354.992 203.02L354.979 203.8L359.397 203.878L359.411 203.099L354.992 203.02Z" fill="white"/>
<path d="M354.857 206.414L354.844 207.194L359.262 207.272L359.276 206.493L354.857 206.414Z" fill="white"/>
<path d="M354.854 209.681L354.84 210.46L359.259 210.539L359.272 209.759L354.854 209.681Z" fill="white"/>
<path d="M384.678 117.981C380.388 116.162 377.008 112.132 376.229 107.193C374.929 99.3943 379.998 91.9856 387.667 90.5558C391.047 92.8954 393.647 96.4048 394.427 100.824C395.597 108.233 391.437 115.382 384.678 117.981Z" fill="#F5F5F5"/>
<path d="M200.745 434.869C200.745 434.869 200.875 434.739 201.005 434.609C201.135 434.479 201.395 434.219 201.525 433.959C202.045 433.309 202.825 432.4 203.735 431.36C205.555 429.02 208.285 425.771 211.404 421.871L211.534 421.741L211.404 421.611C208.415 416.672 205.295 410.173 203.345 402.764C202.045 397.825 201.265 392.886 201.135 388.467C200.875 384.047 201.135 380.018 201.525 376.639C202.045 373.259 202.565 370.66 203.085 368.84C203.345 367.93 203.475 367.28 203.605 366.76C203.735 366.24 203.735 365.98 203.735 365.98C203.735 365.98 203.605 366.24 203.475 366.63C203.345 367.15 203.085 367.8 202.825 368.71C202.305 370.53 201.655 373.259 201.135 376.509C200.745 379.888 200.355 383.918 200.615 388.467C200.875 393.016 201.525 397.825 202.825 402.894C204.775 410.303 207.895 416.802 211.014 421.741V421.481C207.895 425.511 205.295 428.76 203.475 431.1C202.565 432.27 201.915 433.179 201.395 433.829C201.135 434.089 201.005 434.349 200.875 434.609C200.875 434.869 200.745 434.869 200.745 434.869Z" fill="#E0E0E0"/>
<path d="M346.721 445.787C346.721 445.787 346.721 445.657 346.591 445.398C346.461 445.138 346.461 444.748 346.331 444.358C346.071 443.448 345.551 442.148 345.031 440.458C343.861 437.209 341.781 432.53 338.921 427.59V427.85C340.871 425.381 342.951 422.651 344.771 419.662C346.981 416.152 348.67 412.513 349.45 409.003C350.23 405.494 350.1 402.115 349.58 399.515C348.93 396.786 347.891 394.836 346.981 393.666C346.461 393.016 346.201 392.626 345.811 392.366C345.551 392.106 345.421 391.976 345.421 391.976C345.421 391.976 345.551 392.106 345.811 392.496C346.071 392.756 346.461 393.276 346.851 393.926C347.631 395.226 348.67 397.175 349.19 399.775C349.71 402.375 349.71 405.624 348.93 409.133C348.15 412.643 346.461 416.152 344.251 419.662C342.301 422.651 340.351 425.381 338.401 427.85L338.271 427.98L338.401 428.11C341.261 433.18 343.341 437.599 344.641 440.848C345.291 442.538 345.811 443.838 346.071 444.618C346.461 445.398 346.721 445.787 346.721 445.787Z" fill="#E0E0E0"/>
<path d="M420.943 109.013C420.943 108.883 420.943 108.883 420.943 108.753C420.943 108.363 421.073 108.103 421.203 107.843C421.333 107.583 421.463 107.323 421.723 107.063C421.983 106.803 422.243 106.673 422.503 106.543C422.763 106.413 423.153 106.283 423.413 106.413C423.673 106.413 423.803 106.543 424.063 106.543C424.453 106.673 424.843 106.933 425.103 107.193C425.233 107.323 425.363 107.583 425.493 107.713C425.753 108.103 425.753 108.493 425.753 109.013C425.753 109.143 425.753 109.143 425.753 109.273C425.753 109.663 425.623 109.923 425.493 110.183C425.363 110.443 425.233 110.703 424.973 110.962C424.713 111.222 424.453 111.352 424.193 111.482C423.933 111.612 423.543 111.742 423.283 111.612C423.023 111.612 422.893 111.482 422.633 111.482C422.243 111.352 421.853 111.092 421.593 110.832C421.463 110.702 421.333 110.443 421.203 110.313C420.943 109.923 420.943 109.533 420.943 109.013Z" fill="#F5F5F5"/>
<path d="M431.732 112.522C428.482 112.392 428.742 107.323 431.992 107.583C435.242 107.583 434.982 112.652 431.732 112.522Z" fill="#F5F5F5"/>
<path d="M422.633 124.61C417.434 120.581 411.584 117.331 405.345 114.862C403.525 118.241 403.265 122.401 404.825 125.78C406.385 129.159 410.024 130.459 413.794 130.719C417.694 130.979 421.333 128.12 422.633 124.61Z" fill="#F5F5F5"/>
<g opacity="0.3">
<path d="M245.331 322.308C248.451 318.408 255.86 315.809 261.449 315.029C266.129 313.859 271.068 314.509 275.358 316.589C277.828 317.889 280.297 319.968 280.557 322.698C280.817 324.777 279.777 326.857 278.218 328.287C276.658 329.717 274.708 330.626 272.758 331.406C265.219 334.266 256.9 334.786 249.101 332.836C246.761 332.316 244.291 331.276 243.381 329.067C242.601 326.857 243.771 324.257 245.331 322.308Z" fill="white"/>
</g>
<g opacity="0.3">
<path d="M233.502 337.775C234.802 336.215 237.662 335.176 239.872 334.916C241.692 334.526 243.771 334.656 245.461 335.566C246.501 336.085 247.411 336.865 247.541 338.035C247.671 338.815 247.281 339.725 246.631 340.245C245.981 340.765 245.201 341.155 244.421 341.545C241.432 342.714 238.052 342.844 235.062 342.064C234.152 341.805 233.112 341.415 232.722 340.505C232.462 339.595 232.982 338.555 233.502 337.775Z" fill="white"/>
</g>
<g opacity="0.3">
<path d="M225.053 325.947C226.223 324.517 230.123 323.218 232.072 323.088C233.762 323.088 235.322 324.517 235.712 326.337C236.102 328.027 235.322 329.847 234.022 331.016C232.722 332.186 231.032 332.706 229.213 332.836C227.653 332.966 225.833 332.446 224.793 331.276C223.493 329.847 223.753 327.507 225.053 325.947Z" fill="white"/>
</g>
<g opacity="0.3">
<path d="M275.618 336.475C276.528 335.436 279.388 334.526 280.688 334.396C281.988 334.396 283.027 335.436 283.287 336.735C283.547 338.035 283.027 339.335 281.988 340.115C281.078 341.025 279.778 341.415 278.478 341.415C277.308 341.415 276.008 341.155 275.228 340.245C274.578 339.205 274.708 337.515 275.618 336.475Z" fill="white"/>
</g>
<path d="M375.968 79.5075C376.228 80.9373 377.398 82.1071 378.827 82.887C380.257 83.6669 382.077 84.3167 384.027 84.5767C385.977 84.8367 387.927 84.8367 389.486 84.4467C391.176 84.0568 392.606 83.4069 393.256 82.1071C393.906 80.8073 393.516 79.1176 392.216 77.5579C390.916 75.9981 388.446 74.6983 385.587 74.1784C382.727 73.7885 379.997 74.3084 378.307 75.3482C376.618 76.648 375.708 78.0778 375.968 79.5075Z" fill="#F5F5F5"/>
<path d="M372.979 348.304C372.979 349.344 372.199 350.383 370.379 350.253C369.469 350.253 368.689 349.993 368.039 349.604L368.559 348.564C369.079 348.954 369.599 349.084 370.249 349.214C370.899 349.214 371.419 348.954 371.419 348.434C371.419 347.914 371.159 347.654 369.989 347.654H368.429L368.819 344.144L372.589 344.274V345.444H369.989L369.859 346.614H370.379C372.329 346.354 373.109 347.264 372.979 348.304Z" fill="white"/>
<path d="M373.629 347.134C373.629 345.054 374.799 344.014 376.359 344.014C377.918 344.014 378.958 345.184 378.958 347.264C378.958 349.343 377.788 350.383 376.229 350.383C374.669 350.383 373.629 349.213 373.629 347.134ZM377.529 347.264C377.529 345.834 377.009 345.314 376.359 345.314C375.709 345.314 375.189 345.834 375.189 347.264C375.189 348.693 375.709 349.213 376.359 349.213C377.009 349.213 377.399 348.693 377.529 347.264Z" fill="white"/>
<path d="M374.019 315.289C374.019 316.589 372.979 317.368 371.679 317.238C369.989 317.238 368.949 316.069 368.949 314.119C368.949 312.039 370.249 310.87 372.199 310.87C372.849 310.87 373.499 311 373.889 311.259L373.369 312.299C372.979 312.039 372.589 312.039 372.199 311.909C371.159 311.909 370.509 312.429 370.379 313.729C370.769 313.339 371.289 313.209 371.939 313.209C373.109 313.339 374.019 314.119 374.019 315.289ZM372.719 315.289C372.719 314.769 372.329 314.379 371.679 314.379C371.029 314.379 370.639 314.769 370.639 315.289C370.639 315.809 371.029 316.199 371.679 316.199C372.199 316.199 372.719 315.809 372.719 315.289Z" fill="white"/>
<path d="M374.539 314.119C374.539 312.039 375.709 311 377.269 311C378.829 311 379.868 312.169 379.868 314.249C379.868 316.329 378.699 317.368 377.139 317.368C375.709 317.368 374.539 316.199 374.539 314.119ZM378.439 314.249C378.439 312.819 377.919 312.299 377.269 312.299C376.619 312.299 376.099 312.819 376.099 314.249C376.099 315.679 376.619 316.199 377.269 316.199C377.919 316.199 378.439 315.549 378.439 314.249Z" fill="white"/>
<path d="M374.408 277.595V278.505L372.068 283.704H370.509L372.848 278.765H370.769V279.805H369.469V277.595H374.408Z" fill="white"/>
<path d="M374.798 280.715C374.798 278.635 375.968 277.595 377.528 277.595C379.087 277.595 380.127 278.765 380.127 280.845C380.127 282.924 378.957 283.964 377.398 283.964C375.968 283.834 374.798 282.664 374.798 280.715ZM378.697 280.715C378.697 279.285 378.178 278.765 377.528 278.765C376.878 278.765 376.358 279.285 376.358 280.715C376.358 282.144 376.878 282.664 377.528 282.664C378.178 282.664 378.697 282.144 378.697 280.715Z" fill="white"/>
<path d="M375.319 247.96C375.319 249.13 374.279 249.78 372.719 249.78C371.159 249.78 370.119 249 370.119 247.83C370.119 247.18 370.509 246.66 371.029 246.4C370.639 246.14 370.379 245.62 370.379 245.1C370.379 244.061 371.419 243.411 372.719 243.411C374.149 243.411 375.059 244.191 375.059 245.23C375.059 245.75 374.799 246.27 374.279 246.53C374.929 246.79 375.319 247.31 375.319 247.96ZM373.889 247.96C373.889 247.44 373.499 247.05 372.719 247.05C372.069 247.05 371.549 247.31 371.549 247.96C371.549 248.48 371.939 248.87 372.719 248.87C373.369 248.87 373.889 248.48 373.889 247.96ZM371.809 245.23C371.809 245.75 372.199 246.01 372.719 246.01C373.369 246.01 373.629 245.75 373.759 245.23C373.759 244.71 373.369 244.45 372.849 244.45C372.199 244.45 371.809 244.84 371.809 245.23Z" fill="white"/>
<path d="M375.969 246.66C375.969 244.58 377.138 243.541 378.698 243.541C380.258 243.541 381.298 244.71 381.298 246.79C381.298 248.87 380.128 249.91 378.568 249.91C377.008 249.91 375.969 248.74 375.969 246.66ZM379.868 246.79C379.868 245.36 379.348 244.84 378.698 244.84C378.048 244.84 377.528 245.36 377.528 246.79C377.528 248.22 378.048 248.74 378.698 248.74C379.348 248.74 379.868 248.22 379.868 246.79Z" fill="white"/>
<path d="M375.319 214.425C375.319 216.505 374.019 217.675 372.069 217.675C371.419 217.675 370.769 217.545 370.379 217.285L370.899 216.245C371.289 216.505 371.679 216.505 372.069 216.635C373.109 216.635 373.759 216.115 373.889 214.815C373.499 215.205 372.979 215.335 372.329 215.335C371.159 215.335 370.249 214.555 370.249 213.386C370.249 212.086 371.289 211.306 372.589 211.436C374.279 211.436 375.319 212.476 375.319 214.425ZM373.759 213.386C373.759 212.866 373.369 212.476 372.719 212.476C372.069 212.476 371.679 212.866 371.679 213.386C371.679 213.906 372.069 214.295 372.719 214.295C373.369 214.295 373.759 213.906 373.759 213.386Z" fill="white"/>
<path d="M375.969 214.555C375.969 212.476 377.139 211.436 378.698 211.436C380.258 211.436 381.298 212.606 381.298 214.685C381.298 216.765 380.128 217.805 378.568 217.805C377.139 217.805 375.969 216.635 375.969 214.555ZM379.868 214.685C379.868 213.256 379.348 212.736 378.698 212.736C378.049 212.736 377.529 213.256 377.529 214.685C377.529 216.115 378.049 216.635 378.698 216.635C379.348 216.635 379.868 216.115 379.868 214.685Z" fill="white"/>
<path d="M373.498 177.512L373.368 183.621H371.939L372.069 178.551H370.899V177.382L373.498 177.512Z" fill="white"/>
<path d="M374.408 180.631C374.408 178.551 375.578 177.512 377.138 177.512C378.698 177.512 379.738 178.681 379.738 180.761C379.738 182.841 378.568 183.881 377.008 183.881C375.578 183.881 374.408 182.711 374.408 180.631ZM378.308 180.761C378.308 179.331 377.788 178.811 377.138 178.811C376.488 178.811 375.968 179.331 375.968 180.761C375.968 182.191 376.488 182.711 377.138 182.711C377.788 182.711 378.308 182.061 378.308 180.761Z" fill="white"/>
<path d="M380.388 180.761C380.388 178.681 381.558 177.641 383.118 177.641C384.677 177.641 385.717 178.811 385.717 180.891C385.717 182.971 384.548 184.01 382.988 184.01C381.558 183.88 380.388 182.711 380.388 180.761ZM384.288 180.761C384.288 179.331 383.768 178.811 383.118 178.811C382.468 178.811 381.948 179.331 381.948 180.761C381.948 182.191 382.468 182.711 383.118 182.711C383.768 182.711 384.288 182.191 384.288 180.761Z" fill="white"/>
<path d="M374.408 142.417L374.278 148.526H372.848L372.978 143.457H371.809V142.287L374.408 142.417Z" fill="white"/>
<path d="M377.918 142.417L377.788 148.526H376.358L376.488 143.457H375.318V142.287L377.918 142.417Z" fill="white"/>
<path d="M378.828 145.537C378.828 143.457 379.998 142.417 381.558 142.417C383.118 142.417 384.158 143.587 384.158 145.667C384.158 147.746 382.988 148.786 381.428 148.786C379.998 148.786 378.828 147.617 378.828 145.537ZM382.728 145.537C382.728 144.107 382.208 143.587 381.558 143.587C380.908 143.587 380.388 144.107 380.388 145.537C380.388 146.967 380.908 147.487 381.558 147.487C382.208 147.617 382.728 146.967 382.728 145.537Z" fill="white"/>
<path d="M442.91 391.61C442.91 391.74 343.938 392 221.816 392C99.6936 392 0.625977 391.87 0.625977 391.61C0.625977 391.35 99.5972 391.22 221.816 391.22C343.842 391.22 442.91 391.35 442.91 391.61Z" fill="#263238"/>
<path d="M193.336 54.5518L186.317 49.8725C185.927 45.0633 184.367 40.3841 181.248 36.2248C172.539 24.2667 155.9 21.6671 143.942 30.3757C131.983 39.0843 129.383 55.7216 138.092 67.6796C146.801 79.6376 163.44 82.2372 175.398 73.5286C180.338 69.8892 183.717 64.8201 185.277 59.361L193.336 54.5518Z" fill="white"/>
<path d="M192.817 54.8117C192.427 55.0717 191.907 55.3316 191.257 55.7216C189.957 56.5014 187.877 57.8012 185.277 59.361L185.407 59.4909C185.407 59.4909 185.407 59.361 185.277 59.361H185.147C184.107 62.7404 182.158 66.8997 178.388 70.6691C177.478 71.579 176.438 72.4888 175.268 73.3987C174.098 74.1785 172.929 75.0884 171.499 75.6083C168.769 76.9081 165.649 77.9479 162.27 78.3378C158.89 78.7278 155.38 78.3379 151.871 77.298C148.361 76.2582 144.981 74.4385 141.992 71.8389C136.012 66.7697 132.373 58.3211 133.153 49.7425C133.543 45.3233 134.972 41.164 137.312 37.6545C139.652 34.1451 142.642 31.1556 146.151 29.2059C149.531 27.1263 153.43 25.9565 157.07 25.5665C160.84 25.1766 164.349 25.6965 167.729 26.6063C170.979 27.6462 173.838 29.2059 176.308 31.1556C176.568 31.4156 176.958 31.6755 177.218 31.9355C177.478 32.1954 177.738 32.4554 177.998 32.7153C178.518 33.2353 179.038 33.7552 179.558 34.2751C180.468 35.4449 181.378 36.4847 182.028 37.5246C184.887 41.9438 186.057 46.4931 186.317 49.8725C188.527 51.3023 190.347 52.4721 191.517 53.252C192.167 53.6419 192.557 53.9019 192.817 54.1618C193.206 54.4218 193.336 54.5518 193.336 54.5518C193.336 54.5518 193.206 54.4218 192.946 54.2918C192.687 54.0318 192.167 53.7719 191.647 53.3819C190.477 52.6021 188.657 51.4323 186.447 49.8725C186.187 46.4931 185.147 41.9438 182.288 37.3946C181.638 36.2248 180.598 35.1849 179.818 34.0151C179.298 33.4952 178.778 32.9753 178.258 32.4554C177.998 32.1954 177.738 31.9355 177.478 31.6755C177.218 31.4156 176.828 31.1556 176.568 30.8956C174.098 28.946 171.239 27.3862 167.989 26.3464C164.739 25.3066 160.97 24.7866 157.2 25.1766C153.43 25.5665 149.531 26.7363 146.151 28.816C142.642 30.8956 139.522 33.8851 137.182 37.3946C134.842 40.904 133.413 45.1933 133.023 49.6126C132.893 50.1325 132.893 50.6524 132.893 51.3023V52.862L133.023 54.4218C133.023 54.9417 133.153 55.4616 133.283 55.9815C133.413 56.5014 133.413 57.0213 133.543 57.5413C133.672 58.0612 133.802 58.5811 133.932 59.101C134.062 59.6209 134.192 60.1408 134.322 60.6608C134.452 61.1807 134.712 61.7006 134.842 62.0905C136.402 65.9899 138.872 69.3693 141.862 71.9689C144.851 74.5685 148.361 76.3882 151.871 77.558C155.38 78.5978 159.02 78.8578 162.4 78.5978C165.779 78.2079 168.899 77.298 171.629 75.8683C173.059 75.2184 174.228 74.3085 175.398 73.5286C176.568 72.6188 177.608 71.7089 178.518 70.7991C182.288 67.0297 184.237 62.7404 185.277 59.361H185.147C185.147 59.361 185.147 59.4909 185.277 59.4909C187.877 57.8012 189.827 56.6314 191.257 55.7216C191.907 55.3316 192.427 54.9417 192.817 54.8117Z" fill="#263238"/>
<path d="M147.451 52.7321L151.221 48.5728L159.15 54.9417L170.849 41.424L174.748 45.1933L159.02 62.6105L147.451 52.7321Z" fill="#3AAA35"/>
<path d="M250.577 282.498H27.1162V302.944H250.577V282.498Z" fill="#455A64"/>
<path d="M68.0276 302.421H55.5488V488.81H68.0276V302.421Z" fill="#263238"/>
<path d="M215.694 302.421H203.215V488.81H215.694V302.421Z" fill="#263238"/>
<path d="M149.659 326.857L149.529 319.838C149.529 319.838 170.457 320.748 170.327 321.008C170.197 321.268 167.987 331.796 167.987 331.796L156.679 335.436L149.659 326.857Z" fill="#E0E0E0"/>
<path d="M147.319 337.255C147.449 338.945 166.037 355.322 171.236 359.742C172.016 360.391 173.186 360.651 174.226 360.521C176.176 360.132 177.216 358.312 176.696 356.622L168.637 331.276C168.637 330.886 168.247 329.976 169.157 327.897C166.167 328.807 156.418 327.767 149.659 324.907L149.009 328.937L147.059 334.916C147.059 334.916 147.059 336.475 147.319 337.255Z" fill="#455A64"/>
<path d="M165.907 344.144C166.037 344.274 166.947 343.104 168.637 342.324C170.327 341.545 171.757 341.545 171.757 341.415C171.757 341.285 170.067 340.895 168.377 341.805C166.557 342.584 165.777 344.144 165.907 344.144Z" fill="#263238"/>
<path d="M164.738 340.895C164.868 341.025 165.778 339.855 167.468 339.075C169.157 338.295 170.587 338.295 170.587 338.165C170.587 338.035 168.897 337.645 167.208 338.555C165.518 339.335 164.608 340.765 164.738 340.895Z" fill="#263238"/>
<path d="M175.006 360.392C173.577 361.171 172.017 360.651 171.107 359.872C156.808 347.654 148.229 340.115 146.279 336.995L147.319 334.136L175.006 360.392Z" fill="#E0E0E0"/>
<path d="M163.568 337.515C163.698 337.645 164.608 336.475 166.298 335.696C167.987 334.916 169.417 334.916 169.417 334.786C169.417 334.656 167.727 334.266 166.038 335.176C164.218 335.955 163.308 337.385 163.568 337.515Z" fill="#263238"/>
<path d="M183.716 326.857L183.586 319.838C183.586 319.838 204.514 320.748 204.384 321.008C204.254 321.268 202.044 331.796 202.044 331.796L190.735 335.436L183.716 326.857Z" fill="#E0E0E0"/>
<path d="M181.376 337.255C181.506 338.945 200.094 355.322 205.294 359.742C206.073 360.391 207.243 360.651 208.283 360.521C210.233 360.132 211.273 358.312 210.753 356.622L202.694 331.276C202.694 330.886 202.304 329.976 203.214 327.897C200.224 328.807 190.475 327.767 183.716 324.907L183.066 328.937L181.116 334.916C181.116 334.916 181.116 336.475 181.376 337.255Z" fill="#455A64"/>
<path d="M199.964 344.144C200.094 344.274 201.004 343.104 202.694 342.324C204.383 341.545 205.813 341.545 205.813 341.415C205.813 341.285 204.123 340.895 202.434 341.805C200.614 342.584 199.834 344.144 199.964 344.144Z" fill="#263238"/>
<path d="M198.794 340.895C198.924 341.025 199.834 339.855 201.524 339.075C203.213 338.295 204.643 338.295 204.643 338.165C204.643 338.035 202.953 337.645 201.264 338.555C199.444 339.335 198.664 340.765 198.794 340.895Z" fill="#263238"/>
<path d="M208.933 360.392C207.503 361.171 205.943 360.651 205.033 359.872C190.735 347.654 182.156 340.115 180.206 336.995L181.246 334.136L208.933 360.392Z" fill="#E0E0E0"/>
<path d="M197.494 337.515C197.624 337.645 198.534 336.475 200.224 335.696C201.914 334.916 203.344 334.916 203.344 334.786C203.344 334.656 201.654 334.266 199.964 335.176C198.274 335.955 197.364 337.385 197.494 337.515Z" fill="#263238"/>
<path d="M120.802 167.503C121.061 161.784 121.191 156.065 121.451 150.346C121.841 141.637 122.101 129.939 125.351 122.011C130.161 110.313 145.759 104.334 157.978 105.503C169.027 106.673 174.876 109.533 180.076 120.061C185.275 130.459 186.315 148.656 186.185 160.354C186.185 162.044 186.055 163.734 185.145 165.164C184.105 166.593 182.415 167.113 180.855 167.633C173.186 169.973 165.387 172.312 157.718 174.652L143.679 172.442C137.83 174.522 131.46 174.912 125.351 173.612C123.921 173.352 122.361 172.832 121.581 171.533C120.802 170.363 120.802 168.933 120.802 167.503Z" fill="#263238"/>
<path d="M177.345 125.52C175.395 117.071 165.126 110.053 156.937 112.262L140.949 118.241C135.099 120.451 131.72 126.69 132.89 132.929L137.179 142.287L143.939 182.841L142.639 183.621C142.639 183.621 147.968 201.688 162.917 198.048C176.305 194.799 170.456 178.811 170.456 178.811L168.506 168.153C168.506 168.153 181.895 165.164 181.765 150.476C181.635 143.197 179.555 135.009 177.345 125.52Z" fill="#FFBDBD"/>
<path d="M176.696 138.648C176.826 139.558 176.306 140.597 175.266 140.727C174.356 140.987 173.316 140.338 173.186 139.428C173.056 138.518 173.576 137.478 174.616 137.348C175.656 137.088 176.566 137.738 176.696 138.648Z" fill="#263238"/>
<path d="M176.305 133.969C176.175 134.229 174.876 133.449 173.056 133.709C171.366 133.969 170.196 135.008 169.936 134.878C169.806 134.748 169.936 134.359 170.456 133.839C170.976 133.319 171.756 132.799 172.926 132.669C173.966 132.539 175.006 132.799 175.525 133.189C176.175 133.449 176.305 133.839 176.305 133.969Z" fill="#263238"/>
<path d="M160.708 141.637C160.838 142.547 160.318 143.587 159.278 143.717C158.368 143.977 157.328 143.327 157.198 142.417C157.068 141.507 157.588 140.468 158.628 140.338C159.668 140.078 160.578 140.598 160.708 141.637Z" fill="#263238"/>
<path d="M158.629 136.438C158.499 136.698 157.199 135.918 155.379 136.178C153.689 136.438 152.519 137.478 152.259 137.348C152.129 137.218 152.259 136.828 152.779 136.308C153.299 135.788 154.079 135.268 155.249 135.138C156.289 135.008 157.329 135.268 157.849 135.658C158.499 135.918 158.759 136.308 158.629 136.438Z" fill="#263238"/>
<path d="M166.427 148.916C166.427 148.786 167.597 148.396 169.417 147.876C169.936 147.746 170.326 147.616 170.456 147.356C170.586 147.096 170.326 146.707 169.936 146.317C169.287 145.407 168.767 144.497 167.987 143.587C167.337 142.547 163.697 136.958 163.567 136.438C163.827 136.308 166.037 139.428 168.767 143.197C169.417 144.107 170.066 145.017 170.586 145.927C170.846 146.317 171.236 146.837 171.106 147.356C170.976 147.616 170.716 148.006 170.326 148.006C170.066 148.136 169.807 148.136 169.547 148.266C167.597 148.786 166.427 149.046 166.427 148.916Z" fill="#263238"/>
<path d="M168.636 168.153C168.636 168.153 159.407 170.363 149.138 166.203C149.138 166.203 155.508 175.562 169.156 171.922L168.636 168.153Z" fill="#EC8492"/>
<path d="M158.368 131.369C158.238 132.019 156.548 131.889 154.598 132.279C152.648 132.669 151.088 133.579 150.698 133.059C150.568 132.799 150.828 132.149 151.348 131.499C151.998 130.849 152.908 130.199 154.078 129.939C155.248 129.679 156.418 129.809 157.198 130.199C157.978 130.589 158.368 131.109 158.368 131.369Z" fill="#263238"/>
<path d="M175.785 127.73C175.525 128.38 174.095 128.12 172.406 128.51C170.716 128.77 169.416 129.549 169.026 129.159C168.766 128.9 168.896 128.38 169.416 127.73C169.936 127.08 170.846 126.43 171.886 126.17C173.056 125.91 174.095 126.17 174.875 126.56C175.655 126.95 175.915 127.34 175.785 127.73Z" fill="#263238"/>
<path d="M132.76 138.518C132.111 135.138 131.721 133.839 131.851 130.329C131.851 126.82 133.54 122.79 135.75 120.191C137.57 118.111 140.3 115.252 142.899 114.082C146.799 112.392 148.749 110.962 156.808 111.092C160.188 111.222 160.708 110.572 163.957 111.612L166.297 112.392C165.387 118.761 148.359 135.138 141.99 138.518C141.99 140.728 142.12 142.417 141.99 144.627C141.86 145.667 141.6 146.577 140.95 147.356C140.17 148.266 138.74 148.396 137.57 148.006C136.4 147.616 136.01 146.837 135.36 145.797C133.8 143.587 133.28 141.117 132.76 138.518Z" fill="#263238"/>
<path d="M137.05 143.197C137.05 143.197 128.211 141.377 130.031 149.956C131.72 158.665 139.91 155.025 139.78 154.765C139.78 154.505 137.05 143.197 137.05 143.197Z" fill="#FFBDBD"/>
<path d="M136.53 152.036C136.53 152.036 136.4 152.166 136.14 152.296C135.88 152.426 135.49 152.686 135.1 152.556C134.19 152.426 133.15 151.126 132.76 149.566C132.63 148.786 132.63 148.006 132.76 147.356C132.89 146.706 133.15 146.187 133.67 145.927C134.06 145.667 134.45 145.927 134.58 146.187C134.71 146.447 134.71 146.577 134.71 146.577C134.71 146.577 134.84 146.447 134.71 146.057C134.58 145.927 134.45 145.667 134.32 145.537C134.06 145.407 133.8 145.407 133.41 145.537C132.76 145.667 132.37 146.447 132.111 147.226C131.851 148.006 131.851 148.916 132.111 149.696C132.5 151.386 133.67 152.945 134.97 152.945C135.62 152.945 136.01 152.686 136.27 152.426C136.66 152.296 136.66 152.036 136.53 152.036Z" fill="#EC8492"/>
<path d="M166.037 153.335C166.037 153.465 165.647 153.725 164.997 153.855C164.347 153.985 163.177 153.855 162.267 153.335C161.227 152.815 160.707 151.906 160.447 151.256C160.187 150.606 160.187 150.086 160.317 150.086C160.447 150.086 160.577 150.476 160.837 150.996C161.097 151.516 161.747 152.296 162.527 152.686C163.307 153.205 164.217 153.335 164.867 153.335C165.647 153.335 166.037 153.335 166.037 153.335Z" fill="#263238"/>
<path d="M144.979 133.969C141.989 146.707 143.549 160.614 149.398 172.312C147.968 172.052 146.409 172.312 144.849 172.442C143.289 172.572 141.729 172.312 140.689 171.273C139.779 170.363 139.519 168.933 139.389 167.633C137.959 157.235 137.31 146.707 137.57 136.308" fill="#263238"/>
<path d="M144.849 172.442C144.849 172.442 144.849 172.182 144.719 171.663C144.589 171.143 144.329 170.493 144.069 169.583C143.549 167.763 142.64 165.294 141.73 162.174C140.82 159.055 140.43 155.155 139.91 150.866C139.52 146.577 139.26 141.767 139 136.828C139 136.308 139 135.788 139 135.269L138.87 135.528C143.16 133.319 146.929 130.589 150.049 127.73C153.169 124.87 155.638 122.011 157.588 119.671C159.538 117.201 161.098 115.122 162.008 113.822C162.528 113.172 162.918 112.522 163.178 112.132C163.437 111.742 163.567 111.482 163.567 111.482C163.567 111.482 163.437 111.612 163.178 112.002C162.918 112.392 162.528 112.912 162.008 113.562C160.968 114.992 159.408 116.942 157.458 119.411C155.508 121.751 153.039 124.61 149.919 127.34C146.799 130.069 143.16 132.929 138.87 135.009L138.74 135.139V135.269C138.74 135.788 138.74 136.308 138.74 136.828C139 141.897 139.26 146.577 139.65 150.996C140.04 155.285 140.56 159.185 141.6 162.434C142.64 165.554 143.549 168.023 144.069 169.843C144.329 170.623 144.589 171.273 144.719 171.793C144.719 172.312 144.849 172.442 144.849 172.442Z" fill="#455A64"/>
<path d="M134.321 135.398C134.451 134.879 134.971 134.619 135.361 134.489C135.88 134.359 136.4 134.359 136.79 134.359C139.13 134.359 141.47 134.489 143.68 135.139C144.98 135.398 144.72 136.698 144.59 136.958C144.46 137.348 144.07 137.608 143.68 137.738C143.29 137.868 142.9 137.868 142.51 137.868C140.82 137.868 139 137.738 137.31 137.738C136.53 137.738 135.75 137.738 135.101 137.348C134.581 136.958 134.061 136.178 134.321 135.398Z" fill="#3AAA35"/>
<g opacity="0.3">
<path d="M154.078 147.356C154.338 146.837 154.988 146.577 155.638 146.317C156.158 146.187 156.548 146.187 157.068 146.187C157.588 146.187 157.978 146.447 158.368 146.837C158.758 147.226 158.888 147.746 158.628 148.136C158.498 148.526 158.108 148.656 157.718 148.916C157.068 149.176 156.548 149.306 155.898 149.436C155.248 149.436 154.598 149.436 154.208 148.916C153.818 148.396 153.818 147.876 154.078 147.356Z" fill="#EC8492"/>
</g>
<path d="M142.769 176.082C141.339 176.082 126.521 181.411 123.271 186.09C120.021 190.769 120.801 248.61 120.801 248.61L186.055 246.53L184.105 210.266L189.044 190.509C189.044 190.509 182.155 180.241 169.546 177.901C169.546 177.901 167.077 181.801 158.627 179.981C150.178 178.161 142.769 176.082 142.769 176.082Z" fill="#E0E0E0"/>
<path d="M208.283 251.209L214.132 277.595L195.934 276.295L186.965 248.09L208.283 251.209Z" fill="#FFBDBD"/>
<path d="M189.175 190.509C196.064 206.107 202.953 228.983 209.973 253.289L197.884 257.968L184.105 244.84L180.855 204.157L189.175 190.509Z" fill="#E0E0E0"/>
<path d="M228.561 282.144C228.561 282.144 229.211 280.974 227.391 279.935C225.571 278.765 224.142 277.985 224.142 277.985C224.142 277.985 224.791 273.956 222.192 273.826C219.592 273.696 210.883 273.826 210.883 273.826L197.624 276.165C197.624 276.165 197.104 279.415 201.654 281.364C211.663 285.914 211.793 283.314 211.793 283.314L210.363 281.104C210.363 281.104 213.093 283.704 214.782 283.444C216.602 283.314 217.772 281.494 217.772 281.494C217.772 281.494 217.902 284.094 220.112 283.444C222.322 282.794 222.842 280.455 222.842 280.455C222.842 280.455 223.882 283.444 228.561 282.144Z" fill="#FFBDBD"/>
<path d="M117.682 248.74C117.942 246.14 114.692 266.937 120.412 274.346C126.131 281.884 132.24 283.964 146.149 283.964L145.889 324.777L172.276 325.557C172.276 325.557 177.216 290.853 178.516 279.805C179.945 268.886 183.715 264.987 167.857 257.058L163.437 255.629L162.917 246.01L117.682 248.74Z" fill="#3AAA35"/>
<path d="M150.438 245.36C150.698 242.761 147.449 263.557 153.168 270.966C158.888 278.505 164.997 280.585 178.906 280.585L179.035 322.958L208.153 324.777C210.882 296.962 209.842 290.983 211.402 279.025C212.832 268.107 213.742 258.098 200.613 253.809L186.185 247.96L185.925 241.331L150.438 245.36Z" fill="#3AAA35"/>
<path d="M118.332 249.65C119.372 249.52 137.05 244.451 138.35 240.291C139.65 236.002 143.419 209.096 143.419 209.096L184.105 207.797L186.445 247.57L172.276 256.929L118.332 249.65Z" fill="#3AAA35"/>
<path d="M128.73 181.801C128.73 181.801 139.129 190.119 142.639 197.528C146.148 204.937 146.148 212.606 146.148 212.606H155.248C155.248 212.606 152.778 187.52 134.45 178.941L128.73 181.801Z" fill="#3AAA35"/>
<path d="M172.927 177.901C176.176 189.6 176.826 201.038 174.486 211.826H181.636C183.845 206.757 181.246 183.491 179.686 181.151C179.556 180.891 175.786 178.941 172.927 177.901Z" fill="#3AAA35"/>
<path d="M155.898 254.459C155.898 254.459 156.548 254.459 157.588 254.589C158.628 254.719 160.318 254.849 162.268 255.109C164.217 255.499 166.557 255.889 169.027 256.929C171.497 257.968 174.096 259.528 176.046 261.998C177.996 264.467 178.906 267.327 179.296 269.926C179.686 272.526 179.426 274.996 179.166 276.945C178.906 278.895 178.776 280.455 178.516 281.625C178.386 282.664 178.256 283.314 178.126 283.314C178.126 283.314 178.126 282.664 178.256 281.625C178.386 280.585 178.516 278.895 178.646 276.945C178.776 274.996 178.906 272.656 178.646 270.056C178.256 267.457 177.346 264.727 175.526 262.388C173.706 260.048 171.237 258.488 168.767 257.578C166.427 256.539 164.087 256.019 162.138 255.629C160.188 255.239 158.628 254.979 157.458 254.849C156.548 254.589 155.898 254.459 155.898 254.459Z" fill="#263238"/>
<path d="M181.375 251.859C181.375 252.119 178.515 252.249 175.396 253.809C172.276 255.369 170.456 257.578 170.326 257.448C170.196 257.318 171.886 254.849 175.136 253.159C178.385 251.599 181.505 251.729 181.375 251.859Z" fill="#263238"/>
<path d="M181.634 248.09C181.634 248.09 181.115 248.22 180.075 248.48C179.035 248.61 177.605 248.87 175.785 249C172.145 249.39 167.076 249.65 161.486 249.26C155.897 249 150.828 248.22 147.318 247.44C145.498 247.05 144.068 246.79 143.028 246.4C141.988 246.14 141.469 246.01 141.469 245.88C141.469 245.88 141.988 245.88 143.028 246.14C144.068 246.4 145.498 246.66 147.318 246.92C150.958 247.57 155.897 248.22 161.486 248.48C167.076 248.74 172.145 248.61 175.785 248.35C177.605 248.22 179.035 248.09 180.075 247.96C180.985 248.09 181.634 248.09 181.634 248.09Z" fill="#263238"/>
<path d="M151.739 211.436C151.739 212.216 150.959 212.996 150.179 212.996C149.269 212.996 148.619 212.346 148.619 211.436C148.619 210.656 149.399 209.876 150.179 209.876C150.959 209.876 151.739 210.656 151.739 211.436Z" fill="#263238"/>
<path d="M179.685 210.266C179.685 211.046 178.905 211.826 178.125 211.826C177.215 211.826 176.565 211.176 176.565 210.266C176.565 209.486 177.345 208.707 178.125 208.707C179.035 208.707 179.685 209.486 179.685 210.266Z" fill="#263238"/>
<path d="M127.431 283.574C127.431 283.574 128.081 282.404 126.261 281.365C124.441 280.195 123.012 279.415 123.012 279.415C123.012 279.415 123.662 275.386 121.062 275.256C118.462 275.126 109.753 275.256 109.753 275.256L96.4943 277.595C96.4943 277.595 95.9744 280.845 100.524 282.794C110.533 287.344 110.663 284.744 110.663 284.744L109.233 282.534C109.233 282.534 111.963 285.134 113.653 284.874C115.472 284.744 116.642 282.924 116.642 282.924C116.642 282.924 116.772 285.524 118.982 284.874C121.192 284.224 121.712 281.884 121.712 281.884C121.712 281.884 122.752 284.874 127.431 283.574Z" fill="#FFBDBD"/>
<path d="M102.474 251.209L96.4949 277.595L114.693 276.295L123.662 248.09L102.474 251.209Z" fill="#FFBDBD"/>
<path d="M98.574 253.159C98.574 253.159 105.463 229.113 109.753 214.815C117.942 187.78 124.311 184.92 124.311 184.92C124.311 184.92 137.31 198.958 137.83 207.927C138.35 216.895 127.431 249.13 121.842 257.968L98.574 253.159Z" fill="#E0E0E0"/>
<path d="M138.479 211.046C138.479 211.046 138.349 211.696 137.959 212.996C137.569 214.295 137.049 216.115 136.399 218.065C134.969 222.484 133.149 228.333 131.2 234.962C130.16 238.211 129.38 241.461 128.47 244.32C127.56 247.18 126.65 249.65 125.61 251.729C124.7 253.809 123.66 255.369 123.01 256.408C122.231 257.448 121.841 257.968 121.841 257.968C121.841 257.968 122.101 257.318 122.75 256.278C123.4 255.239 124.18 253.549 125.09 251.469C126 249.39 126.91 246.92 127.82 244.06C128.73 241.201 129.51 238.081 130.55 234.702C132.629 228.073 134.579 222.224 136.009 217.935C136.659 215.855 137.309 214.165 137.699 212.866C138.219 211.696 138.479 211.046 138.479 211.046Z" fill="#263238"/>
<path d="M139.26 201.038C139.13 201.038 138.74 199.868 137.83 198.048C137.44 197.138 136.66 196.098 136.01 194.929C135.23 193.889 134.19 192.719 133.02 191.679C130.681 189.6 128.211 188.17 126.261 187.39C124.311 186.61 123.141 186.22 123.141 186.22C123.141 186.22 123.531 186.22 124.051 186.35C124.571 186.48 125.481 186.74 126.391 187C128.341 187.65 130.941 189.08 133.41 191.289C134.58 192.329 135.62 193.499 136.4 194.669C137.18 195.839 137.83 196.878 138.22 197.918C138.61 198.828 138.87 199.738 139 200.258C139.26 200.648 139.26 201.038 139.26 201.038Z" fill="#263238"/>
<path d="M281.467 277.985C280.557 282.014 278.217 316.979 276.917 335.436C275.617 353.893 277.177 362.991 279.387 367.15C281.467 371.31 363.879 432.27 369.858 446.437L391.696 430.84C391.696 430.84 362.059 376.899 349.06 366.89C335.931 356.882 310.584 347.264 310.584 347.264L320.983 246.53L286.016 243.801L281.467 277.985Z" fill="#263238"/>
<path d="M278.867 239.511C278.737 241.851 272.888 301.901 292.386 346.094C292.386 346.094 299.145 359.872 300.315 365.851C301.355 371.83 325.402 471.263 325.402 471.263L356.599 471.003C356.599 471.003 363.098 421.741 358.939 393.016C354.779 364.291 345.42 367.41 346.07 348.823C346.59 330.366 352.44 292.153 352.44 292.153C352.44 292.153 359.589 281.884 362.578 261.608C364.918 245.23 357.249 227.293 357.249 227.293L349.58 213.516L280.947 208.187L278.867 239.511Z" fill="#263238"/>
<path d="M278.867 239.511C278.867 239.511 278.867 238.861 278.997 237.432C279.127 236.002 279.127 234.052 279.257 231.453C279.517 226.124 280.037 218.325 280.557 208.316V208.186H280.687C297.585 209.486 320.983 211.176 349.32 213.386H349.45L349.58 213.516C351.92 217.805 354.649 222.484 357.249 227.293C359.199 231.973 360.629 237.042 361.669 242.371C362.709 247.57 363.229 253.159 362.839 258.748C362.319 264.337 361.149 270.056 359.459 275.775C357.769 281.494 355.689 287.084 352.31 292.413V292.283C350.88 302.291 349.45 312.689 348.15 323.348C347.5 328.677 346.98 334.136 346.46 339.595C346.2 342.324 346.07 345.054 345.94 347.914C345.81 349.343 345.94 350.643 345.94 352.073C346.07 353.503 346.07 354.802 346.33 356.232C346.72 358.962 347.76 361.691 349.06 364.161C350.36 366.76 351.79 369.23 353.09 371.96C355.559 377.289 357.119 383.008 358.159 388.727C360.239 400.295 360.369 412.383 360.109 424.471C359.719 440.458 358.289 456.056 356.469 471.263V471.523H356.079C345.42 471.653 335.021 471.653 324.882 471.783H324.622L324.492 471.523C316.433 438.249 309.024 407.054 302.525 379.108C301.745 375.599 300.965 372.22 300.185 368.71C299.795 367.02 299.535 365.331 299.015 363.641C298.495 361.951 297.975 360.391 297.325 358.832C296.025 355.712 294.725 352.593 293.426 349.603C293.036 348.823 292.776 348.173 292.386 347.394C291.996 346.614 291.736 345.964 291.346 345.184C290.696 343.624 290.176 342.194 289.526 340.765C284.976 328.937 282.377 317.499 280.687 306.97C277.307 286.044 277.307 269.017 277.567 257.448C278.087 245.75 278.867 239.511 278.867 239.511C278.867 239.511 278.867 239.901 278.867 240.681C278.867 241.461 278.737 242.631 278.607 244.061C278.477 247.05 278.217 251.599 278.087 257.318C277.957 268.887 278.087 285.784 281.467 306.71C283.157 317.109 285.756 328.547 290.306 340.375C290.956 341.805 291.476 343.364 292.126 344.794C292.386 345.574 292.776 346.224 293.166 347.004C293.556 347.784 293.816 348.433 294.205 349.213C295.635 352.203 296.935 355.322 298.235 358.442C298.885 360.002 299.405 361.691 299.925 363.251C300.445 364.941 300.705 366.63 301.095 368.32C301.875 371.7 302.655 375.209 303.435 378.718C310.064 406.664 317.603 437.729 325.532 471.133L325.142 470.873C335.281 470.743 345.68 470.743 356.339 470.613L355.949 470.873C357.769 455.796 359.199 440.068 359.589 424.211C359.849 412.123 359.719 400.165 357.639 388.597C356.599 382.878 355.039 377.159 352.57 371.96C351.4 369.36 349.97 366.89 348.54 364.291C347.24 361.691 346.2 358.962 345.81 356.102C345.55 354.672 345.55 353.243 345.42 351.813C345.42 350.383 345.42 348.953 345.42 347.654C345.55 344.924 345.68 342.064 345.94 339.335C346.46 333.876 346.98 328.417 347.63 323.088C348.93 312.429 350.36 302.031 351.79 292.023V291.893C355.039 286.694 357.119 280.975 358.809 275.385C360.369 269.796 361.539 264.077 362.189 258.488C362.579 252.899 362.059 247.44 361.019 242.241C359.979 237.042 358.549 231.973 356.599 227.293C353.869 222.484 351.27 217.805 348.93 213.516L349.19 213.646C320.853 211.436 297.455 209.616 280.557 208.186L280.687 208.057C280.037 218.195 279.517 225.994 279.257 231.193C279.127 233.792 278.997 235.872 278.867 237.172C278.867 238.731 278.867 239.511 278.867 239.511Z" fill="#455A64"/>
<path d="M279.257 32.4553L261.189 15.4281C263.659 12.1787 262.619 7.23947 259.629 4.50991C256.64 1.78036 252.22 1.13047 248.321 1.91034C242.601 3.08015 237.532 7.10949 235.192 12.4386C233.892 15.2981 233.242 18.6776 230.902 20.7572C228.823 22.5769 225.833 22.7069 223.363 24.0067C220.113 25.6964 218.034 29.3358 217.384 32.9752C216.734 36.6146 217.254 40.384 218.164 44.0234C218.944 47.2729 219.983 50.9123 218.684 54.0318C217.384 57.0213 214.134 58.841 212.184 61.4406C208.285 66.3797 209.455 74.4384 214.524 77.9479C216.214 79.1177 218.164 79.8975 218.944 81.7172C219.723 83.407 219.204 85.3566 219.204 87.0464C219.464 91.7256 224.663 95.365 229.213 94.0652C231.422 93.4153 233.502 91.5956 235.842 91.8556C238.182 92.1155 239.741 94.1952 241.691 95.495C245.461 98.0946 251.18 97.4447 254.3 94.1952C255.6 92.7654 256.64 90.9457 258.46 90.2958C260.279 89.7759 262.359 90.6858 264.179 90.4258C266.649 90.0359 268.209 87.4363 268.859 85.0967C269.508 82.6271 269.638 80.0275 270.808 77.8179C272.368 74.9583 275.358 73.1386 277.958 71.059C283.547 66.3798 287.057 59.2309 287.187 51.9521C287.707 44.6733 284.587 37.3945 279.257 32.4553Z" fill="#263238"/>
<path d="M296.546 83.7968L273.278 28.036C272.368 25.3064 266.909 20.4972 264.049 21.1471L240.651 23.0968C231.292 25.1765 229.082 38.4343 231.682 47.6628C234.542 57.9311 238.312 70.409 242.081 77.5579C249.62 91.8555 262.749 89.5159 262.749 89.5159L267.429 100.304L278.867 115.122L296.546 83.7968Z" fill="#FFBDBD"/>
<path d="M240.52 59.7507C240.78 60.7905 241.95 61.3104 243.12 61.0505C244.16 60.7905 244.81 59.6207 244.55 58.5809C244.29 57.541 243.12 57.0211 241.95 57.2811C240.78 57.541 240.13 58.7109 240.52 59.7507Z" fill="#263238"/>
<path d="M236.491 53.1218C236.881 53.2518 237.921 51.692 240.001 51.0421C242.081 50.2623 244.03 50.9122 244.16 50.5222C244.29 50.3923 243.77 50.0023 242.99 49.7424C242.21 49.4824 240.911 49.3524 239.611 49.8723C238.311 50.2623 237.401 51.1721 236.881 51.822C236.361 52.6019 236.231 53.1218 236.491 53.1218Z" fill="#263238"/>
<path d="M258.197 53.3818C258.457 54.4216 259.627 54.9415 260.797 54.6816C261.837 54.4216 262.487 53.2518 262.227 52.212C261.967 51.1722 260.797 50.6522 259.627 50.9122C258.457 51.3021 257.937 52.342 258.197 53.3818Z" fill="#263238"/>
<path d="M257.028 46.4929C257.418 46.6229 258.458 45.0631 260.538 44.4132C262.617 43.6334 264.567 44.2833 264.697 43.8933C264.827 43.7633 264.307 43.3734 263.527 43.1135C262.747 42.8535 261.448 42.7235 260.148 43.2434C258.848 43.6334 257.938 44.5432 257.418 45.1931C257.028 45.973 256.898 46.4929 257.028 46.4929Z" fill="#263238"/>
<path d="M254.819 64.5599C254.819 64.4299 253.389 64.6899 251.179 65.0798C250.659 65.2098 250.139 65.2098 249.879 64.9499C249.619 64.5599 249.619 63.91 249.749 63.2601C249.749 61.8304 249.879 60.2706 249.879 58.7109C250.139 52.2119 250.009 46.8828 249.749 46.8828C249.489 46.8828 249.099 52.2119 248.839 58.7109C248.839 60.2706 248.71 61.8304 248.71 63.2601C248.71 63.91 248.58 64.6899 249.099 65.4698C249.359 65.8597 249.879 65.9897 250.269 65.9897C250.659 65.9897 250.919 65.8597 251.179 65.8597C253.519 65.2098 254.819 64.6899 254.819 64.5599Z" fill="#263238"/>
<path d="M262.749 89.5159C262.749 89.5159 272.238 87.0463 280.167 77.4279C280.167 77.4279 280.297 90.1658 264.569 93.9351L262.749 89.5159Z" fill="#EC8492"/>
<path d="M253.261 38.3043C253.65 38.8242 255.6 37.7844 258.2 37.2644C260.8 36.6146 263.01 36.7445 263.14 36.0946C263.14 35.8347 262.62 35.4448 261.71 35.0548C260.67 34.7949 259.24 34.6649 257.81 35.0548C256.25 35.4448 255.08 36.0946 254.3 36.7445C253.261 37.3944 253.001 38.0443 253.261 38.3043Z" fill="#263238"/>
<path d="M234.672 45.7131C235.192 46.1031 236.492 45.0632 238.182 44.4133C239.872 43.7634 241.431 43.6334 241.691 42.9836C241.821 42.7236 241.301 42.3337 240.522 42.0737C239.742 41.8138 238.572 41.8137 237.402 42.3337C236.232 42.7236 235.322 43.5035 234.932 44.2833C234.542 45.0632 234.412 45.5831 234.672 45.7131Z" fill="#263238"/>
<path d="M220.373 48.3128C220.244 45.8432 220.763 43.2436 222.193 41.1639C222.973 39.9941 224.143 39.2142 224.793 38.0444C226.353 35.4449 225.703 32.3254 226.093 29.3359C226.613 25.5665 229.083 22.0571 232.592 20.3673C235.452 18.9376 238.832 18.6776 241.431 16.8579C243.381 15.5581 244.681 13.4785 246.761 12.1787C250.66 9.83907 255.73 11.3988 259.889 13.2185C261.059 16.208 259.37 19.1975 257.81 21.9271C256.25 24.7866 253.39 26.7363 250.14 27.3862C247.671 27.7761 244.681 27.6461 243.251 29.5958C241.691 31.6755 242.731 34.795 241.431 37.1346C239.612 40.384 234.672 39.8641 231.552 42.0738C229.213 43.7635 228.563 46.883 227.653 49.6125C226.743 52.3421 224.923 55.3316 221.933 55.4616C221.153 53.2519 220.503 50.7823 220.373 48.3128Z" fill="#263238"/>
<path d="M247.151 23.7468C248.841 22.4471 252.22 19.8475 252.61 17.7678C253.52 13.3486 256.51 9.44919 260.54 8.27938C264.569 6.9796 269.509 8.66932 271.978 12.5687C276.788 10.749 282.637 12.0488 286.537 15.6882C287.057 16.2081 287.447 16.598 287.967 17.1179C290.436 19.1976 291.996 22.3171 291.996 25.5665C291.996 27.5162 291.606 29.8558 293.036 31.1556C294.596 32.4554 296.806 31.6755 298.756 31.5456C302.265 31.4156 305.515 34.2751 306.035 37.6546C306.165 38.8244 306.035 40.2541 306.815 41.2939C307.465 42.3338 308.765 42.8537 309.935 43.5036C312.664 45.0633 314.614 48.1828 314.614 51.4323C314.614 54.6818 312.924 57.8012 310.194 59.491C308.895 60.2708 307.465 60.7907 306.555 61.8306C305.515 63.1304 305.515 64.9501 305.125 66.6398C304.215 69.7593 301.225 72.0989 297.976 72.2289C297.326 72.2289 296.676 72.2289 296.026 71.9689C295.636 73.5287 294.466 74.9584 292.126 75.8683L280.817 44.1535C280.817 44.9334 280.428 45.7132 279.518 46.3631C274.838 49.3526 270.289 39.2143 270.289 35.9648C267.819 35.055 265.349 34.0152 263.269 32.5854C261.059 31.0256 257.81 25.8265 257.16 23.2269C255.21 24.0068 246.371 24.2668 247.151 23.7468Z" fill="#263238"/>
<path d="M280.298 47.1429C279.258 43.8934 282.897 41.6838 286.277 42.3337C288.097 42.5937 289.917 44.0234 291.087 47.4029C294.076 56.6314 284.197 57.8012 284.197 57.5412C284.067 57.4112 281.468 51.0423 280.298 47.1429Z" fill="#FFBDBD"/>
<path d="M285.887 53.122C285.887 53.122 286.147 53.122 286.407 53.2519C286.667 53.2519 287.187 53.2519 287.576 52.862C288.486 52.2121 288.746 50.3924 288.226 48.7027C287.966 47.7928 287.576 47.1429 287.057 46.493C286.537 45.9731 286.017 45.5832 285.497 45.7132C284.977 45.7132 284.717 46.1031 284.717 46.493C284.717 46.753 284.847 47.013 284.717 47.013C284.717 47.013 284.457 46.883 284.457 46.493C284.457 46.2331 284.457 46.1031 284.587 45.8432C284.717 45.5832 285.107 45.4532 285.367 45.3232C286.147 45.1933 286.927 45.5832 287.447 46.2331C288.096 46.883 288.616 47.6629 288.876 48.5727C289.396 50.3924 289.006 52.4721 287.836 53.3819C287.187 53.7719 286.667 53.7718 286.277 53.6419C285.887 53.3819 285.757 53.122 285.887 53.122Z" fill="#EC8492"/>
<path d="M258.719 16.5979C258.719 16.7279 259.759 16.4679 261.059 17.3778C262.359 18.2876 263.659 20.4973 264.049 23.3568V23.6167H264.309C266.779 23.3568 269.898 24.1367 272.108 26.6063C272.628 27.2561 273.148 27.906 273.408 28.6859C273.668 29.4658 273.798 30.2457 274.058 31.1555C274.188 32.0654 274.318 32.9752 274.708 33.8851C274.968 34.7949 275.618 35.7048 276.398 36.3547C278.218 37.6544 280.297 37.7844 282.117 38.0444C284.067 38.3043 285.757 38.4343 287.317 39.2142C290.436 40.6439 292.516 43.1135 293.556 45.5831C294.596 48.0527 294.596 50.1324 294.466 51.6921C294.336 53.1219 294.076 53.9018 294.076 53.9018C294.076 53.9018 294.206 53.7718 294.336 53.3818C294.466 52.9919 294.596 52.472 294.726 51.6921C294.986 50.2624 294.986 47.9228 293.946 45.4532C293.036 42.9836 290.826 40.254 287.577 38.6943C285.887 37.9144 284.067 37.6544 282.117 37.3945C280.297 37.1345 278.217 37.0045 276.658 35.8347C275.098 34.7949 274.968 32.8452 274.578 31.1555C274.448 30.2457 274.188 29.3358 273.928 28.5559C273.538 27.6461 273.018 26.9962 272.498 26.3463C270.158 23.7467 266.779 22.9668 264.179 23.3568L264.439 23.6167C263.919 20.6272 262.619 18.2876 261.059 17.3778C260.279 16.9878 259.629 16.7279 259.239 16.7279C258.979 16.5979 258.719 16.5979 258.719 16.5979Z" fill="white"/>
<path d="M264.179 63.5201C262.23 64.8199 259.63 66.8996 258.07 68.5893C258.33 69.7591 260.93 71.4488 262.1 71.4488C263.27 71.4488 264.699 70.799 265.349 69.7591C265.999 68.8493 266.129 67.4195 265.869 66.3797C265.739 65.3398 264.959 64.43 264.179 63.5201Z" fill="#EC8492"/>
<path d="M262.489 71.5789C262.489 71.4489 263.529 71.3189 264.699 70.2791C265.219 69.7592 265.739 68.9793 265.869 67.9395C265.999 66.8996 265.739 65.8598 265.089 64.82C264.829 64.43 264.439 64.0401 264.049 63.7801H264.439C261.19 66.3797 258.72 68.3294 258.59 68.1994C258.46 68.0694 260.8 65.9898 264.049 63.2602L264.179 63.1302L264.439 63.2602C264.959 63.5202 265.349 64.0401 265.739 64.56C266.519 65.5999 266.779 67.0296 266.519 68.1994C266.259 69.3692 265.609 70.2791 264.959 70.799C263.659 71.7089 262.489 71.7088 262.489 71.5789Z" fill="#263238"/>
<path d="M288.096 47.5328C287.966 47.0129 287.706 46.623 287.316 46.363C286.146 45.8431 285.106 46.233 284.456 47.1429C284.067 47.6628 283.937 48.3127 284.197 48.9626C284.457 49.4825 284.976 49.8724 285.496 50.1324C286.536 50.7823 287.446 51.3022 288.486 51.9521C288.616 50.5223 288.486 48.9626 288.096 47.5328Z" fill="#455A64"/>
<path d="M340.351 176.732C340.351 176.732 336.192 154.115 334.372 145.537C329.952 123.18 328.912 117.591 323.713 106.283C318.513 95.1049 290.306 83.4069 290.306 83.4069L266.779 100.564C266.779 100.564 254.56 149.176 258.72 165.943C262.619 181.801 272.628 196.618 278.997 210.786L276.398 270.706C276.398 270.706 336.452 269.796 348.93 265.767L358.289 256.019L340.351 176.732Z" fill="#3AAA35"/>
<path d="M192.816 209.877C192.816 214.556 189.046 218.195 184.496 218.195C179.947 218.195 176.177 214.426 176.177 209.877C176.177 205.327 179.947 201.558 184.496 201.558C189.046 201.558 192.816 205.197 192.816 209.877Z" fill="#E0E0E0"/>
<path d="M184.497 218.325C179.817 218.325 176.048 214.555 176.048 209.876C176.048 205.197 179.817 201.428 184.497 201.428C189.176 201.428 192.946 205.197 192.946 209.876C192.816 214.555 189.046 218.325 184.497 218.325ZM184.497 201.558C179.947 201.558 176.178 205.327 176.178 209.876C176.178 214.425 179.947 218.195 184.497 218.195C189.046 218.195 192.816 214.425 192.816 209.876C192.816 205.327 189.046 201.558 184.497 201.558Z" fill="#263238"/>
<path d="M191.127 209.876C191.127 213.646 188.137 216.635 184.367 216.635C180.598 216.635 177.608 213.646 177.608 209.876C177.608 206.107 180.598 203.117 184.367 203.117C188.137 203.117 191.127 206.107 191.127 209.876Z" fill="#263238"/>
<path d="M260.279 111.222L259.89 110.702C259.63 110.312 252.48 101.864 251.18 87.5662L252.48 87.4362C253.65 99.5243 259.11 107.323 260.539 109.403C272.368 100.044 282.507 81.3272 286.147 72.4887C289.527 64.43 288.747 54.5517 287.317 51.4322C286.927 50.6523 286.667 50.5223 286.667 50.5223V49.2225C287.187 49.2225 287.577 49.4825 287.967 50.1324C289.787 52.9919 290.956 64.0401 287.187 73.0086C283.417 81.9772 273.018 101.474 260.669 110.832L260.279 111.222Z" fill="#455A64"/>
<path d="M363.359 227.553C359.979 214.165 342.951 160.484 342.951 160.484C342.951 160.484 329.172 115.902 327.743 111.482C322.673 95.365 296.806 81.8472 296.806 81.8472L292.776 75.3483L285.237 87.3063C285.237 87.3063 274.968 116.941 271.978 140.078C270.808 148.916 271.718 168.023 274.188 173.872C283.937 196.878 285.237 218.065 285.237 218.065L291.996 365.461L335.802 362.211L336.322 342.584L339.961 362.601L385.197 355.712C384.287 354.152 369.468 252.119 363.359 227.553Z" fill="#FAFAFA"/>
<path d="M363.359 227.553C363.359 227.553 363.619 228.333 363.879 229.763C364.268 231.193 364.788 233.402 365.308 236.392C366.478 242.241 368.168 250.819 369.988 261.868C371.938 272.916 374.147 286.564 376.617 302.291C377.917 310.22 379.217 318.538 380.647 327.507C381.297 331.926 382.077 336.605 382.857 341.285C383.247 343.624 383.637 345.964 384.026 348.433C384.286 349.603 384.416 350.903 384.676 352.073C384.936 353.243 385.066 354.542 385.326 355.582L385.456 355.972H385.196C371.288 358.052 356.079 360.391 339.961 362.861H339.701V362.601C338.531 356.362 337.361 349.603 336.061 342.584H336.711C336.581 348.693 336.451 355.322 336.191 362.211V362.471H335.931C322.023 363.511 307.204 364.681 292.126 365.851H291.736V365.461C290.306 332.966 288.616 297.742 286.926 261.218C286.536 253.159 286.146 245.1 285.886 237.172C285.756 233.142 285.496 229.243 285.366 225.344C285.107 221.444 285.107 217.545 284.587 213.646C283.677 205.977 281.987 198.438 280.037 191.029C278.997 187.39 277.827 183.75 276.527 180.241C275.877 178.421 275.228 176.732 274.448 175.042C273.668 173.352 273.148 171.403 272.888 169.583C272.238 165.943 271.848 162.174 271.588 158.535C271.328 154.895 271.328 151.256 271.328 147.616C271.328 145.797 271.458 143.977 271.588 142.157C271.718 140.338 271.978 138.518 272.238 136.828C272.758 133.319 273.408 129.809 274.188 126.43C277.177 112.652 280.947 99.6543 285.106 87.1763C287.706 83.017 290.176 79.1177 292.646 75.2183L292.906 74.8284L293.166 75.2183C294.596 77.4279 295.895 79.6376 297.195 81.7172L297.065 81.5873C302.525 84.5768 307.594 87.9562 312.274 91.7256C316.953 95.365 321.243 99.5243 324.363 104.204C325.272 105.373 325.922 106.673 326.572 107.843C326.962 108.493 327.092 109.143 327.482 109.793C327.742 110.443 328.002 111.092 328.262 111.742C329.042 114.342 329.822 116.941 330.602 119.541C332.162 124.61 333.722 129.679 335.151 134.489C338.141 144.107 340.871 153.076 343.471 161.394C346.07 169.713 348.41 177.382 350.62 184.14C354.909 197.918 358.159 208.706 360.239 216.115C361.279 219.755 362.059 222.614 362.579 224.564C363.099 226.643 363.359 227.553 363.359 227.553C363.359 227.553 363.099 226.513 362.579 224.694C362.059 222.744 361.149 219.885 360.109 216.245C357.899 208.836 354.649 198.048 350.23 184.27C348.02 177.382 345.68 169.843 343.081 161.524C340.481 153.205 337.751 144.237 334.761 134.619C333.332 129.809 331.772 124.87 330.082 119.671C329.302 117.071 328.522 114.472 327.612 111.872C327.352 111.222 327.092 110.572 326.832 109.923C326.572 109.273 326.312 108.623 326.052 108.103C325.402 106.933 324.753 105.633 323.843 104.464C320.593 99.7843 316.433 95.7549 311.754 92.1155C307.074 88.4761 302.005 85.0967 296.545 82.1072H296.415C295.115 80.0275 293.816 77.8179 292.386 75.6082H292.906C290.436 79.5076 287.966 83.5369 285.366 87.5663C281.207 99.9143 277.437 113.042 274.578 126.69C273.928 130.069 273.148 133.579 272.628 137.088C272.368 138.908 272.108 140.598 271.978 142.417C271.848 144.237 271.718 146.057 271.718 147.746C271.718 151.386 271.718 155.025 271.978 158.665C272.238 162.304 272.498 165.943 273.278 169.583C273.668 171.403 274.058 173.092 274.838 174.912C275.487 176.602 276.267 178.421 276.917 180.111C278.217 183.62 279.387 187.26 280.427 190.899C282.507 198.308 284.067 205.847 285.106 213.516C285.626 217.415 285.626 221.314 285.886 225.214C286.016 229.113 286.276 233.142 286.406 237.042C286.796 244.97 287.186 253.029 287.446 261.088C289.136 297.612 290.696 332.836 292.256 365.331L291.866 365.071C307.074 363.901 321.763 362.861 335.671 361.821L335.411 362.081C335.541 355.322 335.801 348.563 335.931 342.454L336.061 339.465L336.581 342.324C337.881 349.343 339.051 356.102 340.221 362.341L339.831 362.081C355.949 359.612 371.158 357.402 385.066 355.322L384.936 355.712C384.546 354.412 384.416 353.243 384.156 351.943C383.896 350.773 383.767 349.473 383.507 348.303C383.117 345.834 382.727 343.494 382.337 341.155C381.557 336.475 380.907 331.796 380.127 327.377C378.697 318.408 377.397 310.09 376.227 302.161C373.758 286.434 371.548 272.786 369.598 261.738C367.778 250.689 366.218 241.981 365.048 236.132C364.528 233.272 364.008 231.063 363.619 229.503C363.489 228.333 363.359 227.553 363.359 227.553Z" fill="#263238"/>
<path d="M313.054 234.442C313.054 234.442 313.314 234.442 313.704 234.312C314.224 234.182 314.874 234.182 315.654 234.052C317.343 233.792 319.683 233.402 322.673 233.012C328.652 232.102 336.841 231.063 346.2 229.763L345.941 230.283C345.031 228.203 344.121 225.993 343.211 223.784C343.081 223.524 342.951 223.134 342.821 222.874L343.211 223.134C330.212 224.824 318.643 226.383 311.624 227.163L311.754 226.903C312.144 229.243 312.534 231.063 312.794 232.362C312.924 233.012 312.924 233.402 313.054 233.792C313.054 234.312 313.054 234.442 313.054 234.442C313.054 234.442 313.054 234.312 312.924 233.922C312.794 233.532 312.664 233.012 312.534 232.492C312.274 231.063 311.884 229.243 311.364 226.903V226.643H311.624C318.643 225.604 330.082 224.044 343.211 222.354H343.471L343.601 222.614C343.731 222.874 343.861 223.264 343.991 223.524C344.901 225.734 345.811 227.943 346.72 230.023L346.85 230.413H346.46C336.971 231.583 328.652 232.622 322.673 233.402C319.813 233.792 317.473 234.052 315.654 234.182C314.874 234.312 314.354 234.312 313.834 234.442C313.184 234.442 313.054 234.442 313.054 234.442Z" fill="#263238"/>
<path d="M296.805 83.277C296.805 83.277 296.545 83.7969 296.025 84.7068C295.505 85.6166 294.725 86.9164 293.815 88.7361C291.995 92.2455 289.656 97.3147 287.836 103.424V103.554H287.706C286.146 104.074 284.456 104.593 282.766 105.113V104.464C283.936 104.853 285.236 105.243 286.536 105.763L286.796 105.893L286.666 106.153C286.276 107.193 285.886 108.363 285.496 109.533C282.246 118.631 279.517 126.95 277.567 132.929C276.657 135.918 275.877 138.258 275.227 140.078C274.967 140.858 274.707 141.507 274.577 142.027C274.447 142.417 274.317 142.677 274.317 142.677C274.317 142.677 274.317 142.417 274.447 142.027C274.577 141.507 274.707 140.858 274.967 140.078C275.487 138.388 276.137 135.918 277.047 132.929C278.867 126.82 281.596 118.501 284.846 109.403C285.236 108.233 285.626 107.063 286.016 106.023L286.276 106.413C284.976 106.023 283.676 105.503 282.506 105.113L281.596 104.723L282.636 104.464C284.326 103.944 286.016 103.424 287.576 103.034L287.316 103.294C289.266 97.0547 291.605 91.9856 293.555 88.6061C294.465 86.9164 295.375 85.6166 295.895 84.7068C296.415 83.6669 296.805 83.277 296.805 83.277Z" fill="#263238"/>
<path d="M228.954 221.314C228.044 221.314 227.134 221.314 226.224 221.314C211.925 220.664 197.887 217.155 184.238 213.646L184.498 212.346C198.017 215.855 212.055 219.365 226.224 220.014C231.423 220.274 238.053 220.014 242.862 216.505C248.842 212.086 250.661 203.897 251.441 197.268C252.871 185.18 252.481 179.071 251.831 171.402C251.441 166.593 251.051 161.264 251.051 153.465C251.051 141.247 255.081 127.08 257.941 116.681C258.591 114.342 259.24 112.132 259.63 110.312L260.93 110.572C260.41 112.392 259.89 114.602 259.11 116.941C256.251 127.21 252.221 141.377 252.221 153.335C252.221 161.004 252.611 166.463 253.001 171.143C253.651 178.941 254.171 185.05 252.611 197.268C251.701 204.157 250.011 212.606 243.512 217.415C239.482 220.534 233.893 221.314 228.954 221.314Z" fill="#455A64"/>
<path d="M227.263 196.098L234.022 214.945C234.022 214.945 219.464 215.985 215.434 217.545C211.404 219.105 198.276 215.335 198.276 215.335C198.276 215.335 194.376 217.675 191.386 219.105C188.397 220.534 185.797 218.455 185.797 218.455C183.327 219.625 182.547 217.805 182.547 217.805C179.948 218.585 179.298 215.985 179.298 215.985L182.027 212.866L180.597 211.696C180.597 211.696 181.637 210.006 184.497 206.757C187.357 203.507 197.626 195.578 200.225 195.059C202.825 194.539 217.254 200.518 217.254 200.518L227.263 196.098Z" fill="#FFBDBD"/>
<path d="M197.626 202.207C197.626 202.337 196.586 202.337 194.896 202.857C194.116 203.117 193.076 203.507 192.166 204.027C191.256 204.677 190.347 205.587 189.437 206.627C187.617 208.576 185.797 210.396 184.497 211.696C183.197 212.996 182.417 213.645 182.287 213.645C182.157 213.645 182.937 212.736 184.107 211.436C185.277 210.136 186.967 208.316 188.917 206.237C189.827 205.197 190.736 204.287 191.776 203.637C192.816 202.987 193.856 202.727 194.766 202.467C196.456 201.947 197.626 202.077 197.626 202.207Z" fill="#EC8492"/>
<path d="M200.746 205.977C200.746 206.107 199.576 206.367 197.756 207.146C195.936 207.926 193.597 209.356 191.257 211.176C188.917 212.996 186.837 214.815 185.277 215.985C183.717 217.155 182.548 217.675 182.548 217.675C182.548 217.545 183.458 216.895 185.017 215.595C186.577 214.425 188.527 212.476 190.997 210.656C193.337 208.836 195.806 207.406 197.626 206.757C199.576 205.977 200.746 205.977 200.746 205.977Z" fill="#EC8492"/>
<path d="M201.656 210.916C201.656 211.046 200.616 211.046 199.186 211.436C197.626 211.826 195.677 212.995 193.727 214.295C191.777 215.725 189.827 217.025 188.397 217.675C186.967 218.325 185.927 218.585 185.927 218.455C185.927 218.325 186.837 218.065 188.267 217.285C189.697 216.505 191.387 215.205 193.467 213.775C195.547 212.346 197.496 211.306 199.186 210.916C200.616 210.656 201.656 210.916 201.656 210.916Z" fill="#EC8492"/>
<path d="M306.816 97.8345C300.706 96.0148 295.377 100.694 291.607 105.763C288.097 110.442 285.758 115.772 284.328 121.361L281.338 133.189L277.829 153.205C276.529 163.084 274.579 174.652 273.019 176.342C270.159 179.461 218.425 194.539 218.425 194.539L224.274 220.404C224.274 220.404 280.688 207.666 293.037 201.817C301.226 197.918 308.765 177.381 314.095 161.654C315.785 155.025 322.934 129.549 323.324 121.621C324.624 100.044 306.816 97.8345 306.816 97.8345Z" fill="#FAFAFA"/>
<path d="M306.815 97.8346C306.815 97.8346 307.205 97.8346 308.115 98.0946C308.895 98.3546 310.195 98.6145 311.755 99.3944C313.314 100.044 315.134 101.084 316.954 102.774C318.774 104.464 320.594 106.803 321.764 109.663C322.024 110.443 322.414 111.092 322.544 112.002C322.804 112.782 322.934 113.692 323.194 114.472C323.323 115.382 323.453 116.292 323.453 117.201C323.583 118.111 323.453 119.021 323.583 120.061C323.713 122.011 323.323 123.96 323.064 126.04C322.674 128.12 322.284 130.199 321.764 132.409C319.814 141.118 317.214 150.996 314.354 161.784C311.885 168.933 309.155 176.602 305.775 184.4C303.955 188.3 302.006 192.199 299.536 195.968C298.236 197.788 296.806 199.608 294.986 201.038C294.076 201.688 293.037 202.337 291.867 202.727L290.307 203.377L288.617 203.897C284.197 205.457 279.648 206.757 275.098 208.057C270.419 209.356 265.739 210.656 260.93 211.826C251.311 214.296 241.432 216.765 231.293 219.105C228.953 219.625 226.613 220.145 224.274 220.794L223.884 220.924L223.754 220.534C221.804 211.696 219.854 202.987 217.904 194.669L217.774 194.409L218.034 194.279C227.653 191.419 237.012 188.69 245.981 185.83C250.401 184.4 254.82 182.971 259.11 181.541C263.4 180.111 267.559 178.681 271.329 176.862C271.849 176.602 272.239 176.342 272.499 175.952C272.759 175.562 273.019 175.042 273.149 174.652C273.539 173.612 273.798 172.702 274.058 171.662C274.578 169.583 274.968 167.633 275.358 165.683C276.138 161.654 276.658 157.755 277.178 153.985C278.478 146.447 279.648 139.558 280.818 133.059C281.728 129.419 282.638 126.04 283.418 122.791C284.197 119.541 285.237 116.552 286.407 113.822C288.877 108.363 291.867 104.334 294.986 101.474C297.976 98.6145 301.226 97.4447 303.305 97.4447C304.345 97.4447 305.255 97.5747 305.775 97.7047C306.555 97.7047 306.815 97.8346 306.815 97.8346C306.815 97.9646 305.775 97.4447 303.565 97.5747C301.486 97.7046 298.366 98.8745 295.376 101.734C292.387 104.594 289.397 108.753 287.057 114.082C285.887 116.812 284.977 119.801 284.197 123.05C283.418 126.3 282.508 129.809 281.598 133.319C280.558 139.688 279.258 146.707 278.088 154.245C277.568 158.015 277.048 161.914 276.268 165.943C275.878 167.893 275.488 169.973 275.098 172.052C274.838 173.092 274.578 174.132 274.188 175.172C274.058 175.692 273.798 176.212 273.539 176.732C273.409 176.992 273.149 177.122 272.889 177.382L272.109 177.771C268.209 179.591 264.049 181.021 259.76 182.451C255.47 183.88 251.051 185.31 246.631 186.74C237.662 189.6 228.303 192.329 218.684 195.189L218.944 194.799C220.764 203.247 222.714 211.826 224.793 220.664L224.404 220.405C226.743 219.885 229.083 219.365 231.423 218.715C241.562 216.375 251.441 213.906 261.06 211.436C265.869 210.136 270.549 208.966 275.228 207.667C279.908 206.367 284.327 205.067 288.747 203.507L290.437 202.987L291.997 202.337C293.037 201.948 294.076 201.428 294.986 200.778C296.806 199.478 298.106 197.658 299.406 195.839C301.876 192.199 303.825 188.3 305.645 184.4C309.155 176.602 311.755 169.063 314.354 161.914C317.214 151.126 319.944 141.377 321.764 132.669C322.284 130.459 322.674 128.38 323.064 126.3C323.453 124.22 323.713 122.271 323.583 120.321C323.583 119.411 323.713 118.371 323.583 117.461C323.453 116.552 323.323 115.642 323.323 114.732C323.063 113.822 322.934 113.042 322.804 112.262C322.674 111.482 322.284 110.703 322.024 109.923C320.854 106.933 319.164 104.723 317.344 103.034C315.524 101.344 313.704 100.304 312.275 99.6543C310.715 98.8745 309.545 98.6145 308.635 98.3545C308.245 98.2246 307.855 98.2246 307.725 98.0946C306.945 97.8346 306.815 97.8346 306.815 97.8346Z" fill="#263238"/>
</g>
<defs>
<clipPath id="clip0_1813_445">
<rect width="444" height="392" fill="white"/>
</clipPath>
</defs>
</svg>
