<svg width="344" height="278" viewBox="0 0 344 278" fill="none" xmlns="http://www.w3.org/2000/svg">
<g clip-path="url(#clip0)">
<path d="M225.421 124.793H11.4175V162.188H225.421V124.793Z" fill="#1C554E"/>
<path d="M27.7532 132.932C27.7532 133.828 27.4869 134.704 26.9881 135.448C26.4892 136.193 25.7802 136.774 24.9507 137.116C24.1211 137.459 23.2083 137.549 22.3277 137.374C21.447 137.199 20.6381 136.768 20.0032 136.135C19.3683 135.501 18.9359 134.694 18.7607 133.816C18.5856 132.937 18.6755 132.026 19.0191 131.199C19.3627 130.371 19.9446 129.664 20.6911 129.166C21.4377 128.669 22.3154 128.403 23.2133 128.403C24.4174 128.403 25.5721 128.88 26.4235 129.729C27.2749 130.579 27.7532 131.731 27.7532 132.932Z" fill="#3AAA35"/>
<path d="M48.1631 128.403H36.2606V137.452H48.1631V128.403Z" fill="#3AAA35"/>
<path d="M62.8982 128.403H50.9957V137.452H62.8982V128.403Z" fill="#1A4F3F"/>
<path d="M225.421 38.8557H11.4175V124.9H225.421V38.8557Z" fill="#EAFCE6"/>
<path d="M225.421 162.246H11.4175V277.516H225.421V162.246Z" fill="#EAFCE6"/>
<path d="M172.524 42.1074H64.3048V121.658H172.524V42.1074Z" fill="#1C554E"/>
<path d="M68.1171 108.632C67.6922 110.054 67.6063 111.556 67.8662 113.018C68.1261 114.48 68.7246 115.861 69.6139 117.051C70.5033 118.241 71.659 119.207 72.989 119.873C74.3189 120.539 75.7864 120.886 77.2744 120.886C78.7624 120.886 80.2298 120.539 81.5598 119.873C82.8897 119.207 84.0454 118.241 84.9348 117.051C85.8242 115.861 86.4227 114.48 86.6826 113.018C86.9424 111.556 86.8565 110.054 86.4317 108.632H68.1171Z" fill="#3AAA35"/>
<path d="M80.98 101.335V88.7537H73.5688V101.335C71.2211 102.202 69.2538 103.865 68.0111 106.034C66.7684 108.202 66.3295 110.737 66.7711 113.195C67.2128 115.654 68.5068 117.879 70.4269 119.482C72.347 121.085 74.7708 121.963 77.2744 121.963C79.7779 121.963 82.2018 121.085 84.1219 119.482C86.0419 117.879 87.336 115.654 87.7776 113.195C88.2193 110.737 87.7804 108.202 86.5377 106.034C85.295 103.865 83.3277 102.202 80.98 101.335V101.335Z" stroke="white" stroke-miterlimit="10"/>
<path d="M111.352 108.632C110.927 110.054 110.842 111.556 111.101 113.018C111.361 114.48 111.96 115.861 112.849 117.051C113.739 118.241 114.894 119.207 116.224 119.873C117.554 120.539 119.022 120.886 120.51 120.886C121.998 120.886 123.465 120.539 124.795 119.873C126.125 119.207 127.281 118.241 128.17 117.051C129.059 115.861 129.658 114.48 129.918 113.018C130.178 111.556 130.092 110.054 129.667 108.632H111.352Z" fill="#3AAA35"/>
<path d="M124.215 101.335V88.7537H116.804V101.335C114.456 102.202 112.489 103.865 111.246 106.034C110.004 108.202 109.565 110.737 110.006 113.195C110.448 115.654 111.742 117.879 113.662 119.482C115.582 121.085 118.006 121.963 120.51 121.963C123.013 121.963 125.437 121.085 127.357 119.482C129.277 117.879 130.571 115.654 131.013 113.195C131.454 110.737 131.016 108.202 129.773 106.034C128.53 103.865 126.563 102.202 124.215 101.335V101.335Z" stroke="white" stroke-miterlimit="10"/>
<path d="M91.1946 112.096C91.0037 112.744 90.9057 113.415 90.9036 114.09C90.9036 115.961 91.6486 117.755 92.9748 119.078C94.301 120.401 96.0997 121.145 97.9753 121.145C99.8508 121.145 101.65 120.401 102.976 119.078C104.302 117.755 105.047 115.961 105.047 114.09C105.045 113.415 104.947 112.744 104.756 112.096H91.1946Z" fill="#3AAA35"/>
<path d="M100.721 106.696V97.3474H95.2301V106.696C93.4878 107.339 92.0276 108.572 91.1051 110.181C90.1825 111.789 89.8562 113.67 90.1835 115.494C90.5107 117.318 91.4705 118.969 92.895 120.159C94.3194 121.348 96.1178 122 97.9753 122C99.8328 122 101.631 121.348 103.056 120.159C104.48 118.969 105.44 117.318 105.767 115.494C106.094 113.67 105.768 111.789 104.846 110.181C103.923 108.572 102.463 107.339 100.721 106.696Z" stroke="white" stroke-miterlimit="10"/>
<path d="M81.7851 53.6528H76.964V59.8175H81.7851V53.6528Z" fill="white"/>
<path d="M75.829 59.8369H82.9104C83.888 59.8369 84.8256 60.2243 85.5169 60.914C86.2082 61.6036 86.5966 62.539 86.5966 63.5144V77.9244H72.1428V63.5144C72.1428 62.539 72.5312 61.6036 73.2225 60.914C73.9137 60.2243 74.8513 59.8369 75.829 59.8369Z" fill="#EAFCE6"/>
<path d="M112.254 53.6528H107.433V59.8175H112.254V53.6528Z" fill="white"/>
<path d="M106.298 59.8369H113.38C114.357 59.8369 115.295 60.2243 115.986 60.914C116.678 61.6036 117.066 62.539 117.066 63.5144V77.9244H102.612V63.5144C102.612 62.539 103.001 61.6036 103.692 60.914C104.383 60.2243 105.321 59.8369 106.298 59.8369Z" fill="#EAFCE6"/>
<path d="M138.659 53.6528H133.838V59.8175H138.659V53.6528Z" fill="white"/>
<path d="M132.703 59.8369H139.785C140.762 59.8369 141.7 60.2243 142.391 60.914C143.082 61.6036 143.471 62.539 143.471 63.5144V77.9244H129.017V63.5144C129.017 62.539 129.405 61.6036 130.097 60.914C130.788 60.2243 131.726 59.8369 132.703 59.8369Z" fill="#EAFCE6"/>
<path d="M157.74 53.6528H152.919V59.8175H157.74V53.6528Z" fill="white"/>
<path d="M151.784 59.8369H158.866C159.35 59.8369 159.829 59.932 160.276 60.1168C160.723 60.3016 161.13 60.5725 161.472 60.914C161.814 61.2555 162.086 61.6609 162.271 62.107C162.456 62.5532 162.552 63.0314 162.552 63.5144V77.9244H148.098V63.5144C148.098 63.0314 148.193 62.5532 148.378 62.107C148.564 61.6609 148.835 61.2555 149.178 60.914C149.52 60.5725 149.926 60.3016 150.373 60.1168C150.821 59.932 151.3 59.8369 151.784 59.8369Z" fill="#EAFCE6"/>
<path d="M172.524 77.8179H64.3048V85.9374H172.524V77.8179Z" fill="#EAFCE6"/>
<path d="M25.9877 167.578L28.1509 171.565H40.4609L42.6338 167.578H25.9877Z" fill="#1A4F3F"/>
<path d="M82.6388 167.578L84.802 171.565H97.1119L99.2849 167.578H82.6388Z" fill="#1A4F3F"/>
<path d="M139.29 167.578L141.453 171.565H153.763L155.936 167.578H139.29Z" fill="#1A4F3F"/>
<path d="M195.941 167.578L198.104 171.565H210.414L212.587 167.578H195.941Z" fill="#1A4F3F"/>
<path d="M25.9877 193.746L28.1509 197.734H40.4609L42.6338 193.746H25.9877Z" fill="#1A4F3F"/>
<path d="M82.6388 193.746L84.802 197.734H97.1119L99.2849 193.746H82.6388Z" fill="#1A4F3F"/>
<path d="M139.29 193.746L141.453 197.734H153.763L155.936 193.746H139.29Z" fill="#1A4F3F"/>
<path d="M195.941 193.746L198.104 197.734H210.414L212.587 193.746H195.941Z" fill="#1A4F3F"/>
<path d="M13.8135 167.578H221.967" stroke="#808080" stroke-miterlimit="10"/>
<path d="M13.8135 193.63H221.967" stroke="#808080" stroke-miterlimit="10"/>
<path d="M279.191 114.157L274.913 97.6087V93.0505H268.869V97.57L264.601 114.119C264.533 114.377 264.525 114.648 264.578 114.91C264.631 115.173 264.745 115.419 264.909 115.63C265.073 115.842 265.284 116.013 265.525 116.13C265.766 116.247 266.031 116.307 266.299 116.306H277.483C277.748 116.305 278.008 116.246 278.246 116.131C278.484 116.016 278.692 115.849 278.856 115.642C279.021 115.436 279.136 115.195 279.194 114.938C279.252 114.681 279.251 114.414 279.191 114.157Z" fill="#EAFCE6"/>
<path d="M275.689 105.796H268.074L265.833 114.506C265.813 114.574 265.811 114.646 265.826 114.715C265.842 114.785 265.874 114.849 265.921 114.903C265.961 114.96 266.015 115.006 266.077 115.038C266.14 115.07 266.209 115.087 266.279 115.086H277.484C277.555 115.085 277.625 115.068 277.689 115.036C277.753 115.005 277.808 114.959 277.852 114.903C277.895 114.847 277.924 114.782 277.938 114.713C277.951 114.644 277.948 114.573 277.93 114.506L275.689 105.796Z" fill="#AFD2AE"/>
<path d="M304.994 114.157L300.726 97.6087V93.0505H294.683V97.57L290.414 114.119C290.346 114.377 290.338 114.648 290.391 114.91C290.445 115.173 290.558 115.419 290.722 115.63C290.886 115.842 291.097 116.013 291.338 116.13C291.579 116.247 291.844 116.307 292.112 116.306H303.297C303.56 116.306 303.821 116.246 304.058 116.131C304.296 116.016 304.504 115.849 304.668 115.642C304.831 115.436 304.945 115.195 305.002 114.937C305.058 114.68 305.056 114.414 304.994 114.157Z" fill="#EAFCE6"/>
<path d="M301.502 105.796H293.907L291.666 114.506C291.646 114.574 291.644 114.646 291.659 114.715C291.674 114.785 291.706 114.849 291.753 114.903C291.794 114.96 291.847 115.006 291.91 115.038C291.972 115.07 292.042 115.087 292.112 115.086H303.297C303.368 115.085 303.438 115.068 303.502 115.036C303.566 115.005 303.622 114.959 303.665 114.903C303.708 114.847 303.737 114.782 303.751 114.713C303.764 114.644 303.761 114.573 303.743 114.506L301.502 105.796Z" fill="#AFD2AE"/>
<path d="M271.469 96.9216V47.5656" stroke="#263238" stroke-miterlimit="10"/>
<path d="M331.642 116.277H167.887V212.492H331.642V116.277Z" fill="#EAFCE6"/>
<path d="M327.111 120.1H172.407V212.492H327.111V120.1Z" fill="#1C554E"/>
<path d="M255.046 157.339L260.614 164.975H303.782L309.718 157.339H255.046Z" fill="#1A4F3F"/>
<path d="M299.64 161.694H266.134V164.975H299.64V161.694Z" fill="#AFD2AE"/>
<path d="M250.05 144.642H222.549V152.955H250.05V144.642Z" fill="#1A4F3F"/>
<path d="M266.328 133.397H262.263V143.326H266.328V133.397Z" fill="#062018" stroke="#062018" stroke-miterlimit="10"/>
<path d="M261.914 138.613H266.764C267.742 138.613 268.68 139 269.371 139.69C270.062 140.38 270.451 141.315 270.451 142.29V153.904H258.189V142.261C258.193 141.778 258.292 141.299 258.482 140.854C258.671 140.409 258.947 140.005 259.293 139.666C259.639 139.327 260.048 139.06 260.498 138.879C260.948 138.698 261.429 138.608 261.914 138.613Z" fill="#EAFCE6"/>
<path d="M283.081 133.397H279.016V143.326H283.081V133.397Z" fill="#062018" stroke="#062018" stroke-miterlimit="10"/>
<path d="M278.638 138.613H283.488C284.454 138.623 285.377 139.011 286.059 139.693C286.742 140.376 287.128 141.298 287.136 142.261V153.874H274.952V142.261C274.959 141.291 275.351 140.363 276.042 139.68C276.732 138.996 277.665 138.613 278.638 138.613Z" fill="#EAFCE6"/>
<path d="M299.834 133.397H295.769V143.326H299.834V133.397Z" fill="#062018" stroke="#062018" stroke-miterlimit="10"/>
<path d="M295.391 138.613H300.241C301.219 138.613 302.156 139 302.847 139.69C303.539 140.38 303.927 141.315 303.927 142.29V153.904H291.704V142.261C291.712 141.291 292.104 140.363 292.794 139.68C293.485 138.996 294.418 138.613 295.391 138.613Z" fill="#EAFCE6"/>
<path d="M250.05 137.49H222.549V144.642H250.05V137.49Z" fill="#AFD2AE"/>
<path d="M327.111 152.394H172.407V158.646H327.111V152.394Z" fill="#EAFCE6"/>
<path d="M229.194 181.224H218.485V213.789H229.194V181.224Z" fill="#062018" stroke="#062018" stroke-linecap="round" stroke-linejoin="round"/>
<path d="M248.77 165.333H198.9V206.492H248.77V165.333Z" fill="#AFD2AE"/>
<path d="M245.297 168.197H202.372V203.627H245.297V168.197Z" fill="white"/>
<path d="M211.588 176.665L224.858 186.207L215.905 191.133" stroke="#828282" stroke-miterlimit="10"/>
<path d="M231.338 177.285L224.858 186.207L227.943 197.908" stroke="#828282" stroke-miterlimit="10"/>
<path d="M224.858 186.208L238.74 194.221" stroke="#828282" stroke-miterlimit="10"/>
<path d="M212.781 175.891C212.781 176.53 212.591 177.155 212.235 177.687C211.879 178.218 211.373 178.633 210.781 178.877C210.189 179.122 209.537 179.186 208.909 179.061C208.28 178.937 207.703 178.629 207.25 178.177C206.797 177.725 206.488 177.149 206.363 176.522C206.238 175.895 206.302 175.245 206.548 174.654C206.793 174.064 207.208 173.559 207.741 173.204C208.274 172.848 208.9 172.659 209.541 172.659C210.4 172.659 211.224 172.999 211.832 173.606C212.44 174.212 212.781 175.034 212.781 175.891Z" fill="#3AAA35"/>
<path d="M219.145 191.133C219.145 191.773 218.955 192.398 218.598 192.929C218.242 193.461 217.736 193.875 217.144 194.12C216.552 194.364 215.901 194.428 215.272 194.304C214.644 194.179 214.067 193.871 213.614 193.419C213.16 192.967 212.852 192.391 212.727 191.764C212.602 191.137 212.666 190.487 212.911 189.896C213.156 189.306 213.572 188.801 214.105 188.446C214.637 188.091 215.264 187.901 215.905 187.901C216.764 187.901 217.588 188.242 218.196 188.848C218.803 189.454 219.145 190.276 219.145 191.133Z" fill="#3AAA35"/>
<path d="M234.568 177.246C234.568 177.885 234.378 178.51 234.022 179.042C233.666 179.573 233.16 179.988 232.568 180.232C231.976 180.477 231.325 180.541 230.696 180.416C230.068 180.292 229.491 179.984 229.037 179.532C228.584 179.08 228.276 178.504 228.151 177.877C228.026 177.25 228.09 176.6 228.335 176.009C228.58 175.418 228.996 174.914 229.528 174.558C230.061 174.203 230.688 174.014 231.328 174.014C232.188 174.014 233.012 174.354 233.619 174.96C234.227 175.567 234.568 176.389 234.568 177.246Z" fill="#3AAA35"/>
<path d="M241.98 194.221C241.978 194.859 241.786 195.483 241.429 196.014C241.072 196.544 240.565 196.957 239.973 197.2C239.381 197.443 238.729 197.506 238.102 197.38C237.474 197.254 236.897 196.946 236.445 196.493C235.993 196.041 235.685 195.465 235.561 194.838C235.437 194.211 235.502 193.562 235.747 192.972C235.993 192.382 236.408 191.877 236.941 191.523C237.473 191.168 238.099 190.979 238.74 190.979C239.166 190.979 239.588 191.062 239.982 191.226C240.375 191.389 240.733 191.628 241.034 191.929C241.335 192.23 241.573 192.587 241.736 192.981C241.898 193.374 241.981 193.795 241.98 194.221Z" fill="#3AAA35"/>
<path d="M227.943 201.14C229.732 201.14 231.183 199.693 231.183 197.908C231.183 196.123 229.732 194.675 227.943 194.675C226.153 194.675 224.703 196.123 224.703 197.908C224.703 199.693 226.153 201.14 227.943 201.14Z" fill="#3AAA35"/>
<path d="M296.564 192.692H283.508V195.556H296.564V192.692Z" fill="#062018" stroke="#062018" stroke-linecap="round" stroke-linejoin="round"/>
<path d="M265.882 213.527V207.111C265.882 206.182 266.082 205.264 266.467 204.418C266.851 203.572 267.413 202.817 268.113 202.205L276.058 195.295H305.043L312.599 202.214C313.262 202.825 313.791 203.566 314.153 204.39C314.516 205.215 314.703 206.105 314.704 207.005V214.573L265.882 213.527Z" fill="#AFD2AE"/>
<path d="M304.257 203.501C304.257 206.163 298.01 208.34 290.288 208.34C282.567 208.34 276.319 206.182 276.319 203.501C276.319 200.821 282.576 198.663 290.288 198.663C298 198.663 304.257 200.84 304.257 203.501Z" fill="#EAFCE6"/>
<path d="M332.291 212.492H167.887V277.516H332.291V212.492Z" fill="#EAFCE6"/>
<path d="M167.829 246.354H331.554" stroke="#808080" stroke-miterlimit="10"/>
<path d="M332.291 212.492H281.16V277.516H332.291V212.492Z" fill="#1C554E"/>
<path d="M335.464 212.492H164.695V218.744H335.464V212.492Z" fill="#1A4F3F"/>
<path d="M248.256 218.802L250.836 223.544H265.503L268.103 218.802H248.256Z" fill="#1A4F3F"/>
<path d="M248.256 246.151L250.836 250.903H265.503L268.103 246.151H248.256Z" fill="#1A4F3F"/>
<path d="M193.157 218.802L195.737 223.544H210.414L213.004 218.802H193.157Z" fill="#1A4F3F"/>
<path d="M193.157 246.151L195.737 250.903H210.414L213.004 246.151H193.157Z" fill="#1A4F3F"/>
<path d="M268.219 64.5015H313.666" stroke="#263238" stroke-miterlimit="10"/>
<path d="M264.194 64.5015H268.219" stroke="#263238" stroke-width="3" stroke-miterlimit="10"/>
<path d="M297.661 64.9854V95.4699" stroke="#263238" stroke-miterlimit="10"/>
<path d="M246.907 20.9908L245.249 38.4105C245.249 38.4105 235.616 37.7428 232.793 32.1104C229.97 26.478 231.212 19.094 231.212 19.094L232.444 12.3196C234.043 11.5632 235.804 11.2132 237.571 11.301C239.338 11.3888 241.056 11.9117 242.571 12.8229C244.021 13.6064 245.205 14.7997 245.977 16.253C246.748 17.7062 247.072 19.3545 246.907 20.9908Z" fill="#FFBDB4" stroke="#062018" stroke-miterlimit="10"/>
<path d="M178.412 76.8115L213.722 68.2274L231.183 19.094C231.183 19.094 235.335 26.7877 238.303 30.3394C241.271 33.8911 246.907 37.1138 246.907 37.1138C246.907 37.1138 240.971 69.379 238.895 79.6954C236.819 90.0118 236.528 91.8312 233.851 94.2119C231.173 96.5926 199.2 116.78 199.2 116.78C199.2 116.78 209.871 136.61 211.074 150.526C212.277 164.443 213.15 180.72 213.15 180.72C213.15 180.72 187.036 139.271 177.549 127.135C168.062 114.999 164.191 96.6506 166.267 87.1762C168.343 77.7018 178.412 76.8115 178.412 76.8115Z" fill="white" stroke="#062018" stroke-miterlimit="10"/>
<path d="M190.964 86.2568L199.191 116.78L205.205 80.6341" stroke="#062018" stroke-miterlimit="10"/>
<path d="M214.721 69.0887C217.565 70.2704 220.048 72.1772 221.921 74.6179C223.794 77.0587 224.991 79.9478 225.392 82.9954" stroke="#062018" stroke-miterlimit="10"/>
<path d="M221.23 69.0887C221.23 69.0887 232.502 71.45 233.094 83.2955" stroke="#062018" stroke-miterlimit="10"/>
<path d="M179.392 88.3278L194.234 119.112L190.965 124.735L198.385 130.658L200.461 142.203" stroke="#062018" stroke-miterlimit="10"/>
<path d="M126.349 50.256C126.349 50.256 108.888 55.8884 103.204 66.8338C97.5194 77.7792 111.216 97.628 113.292 105.022C115.368 112.415 112.4 115.087 109.732 113.016C107.065 110.944 104.096 115.087 107.065 119.79C110.033 124.493 126.349 120.971 131.685 118.309C137.02 115.648 135.846 97.8797 132.878 86.373C129.909 74.8662 126.349 61.8014 128.125 56.1787C129.9 50.556 126.349 50.256 126.349 50.256Z" fill="#062018" stroke="#062018" stroke-miterlimit="10"/>
<path d="M181.681 26.1974C181.681 26.1974 190.285 36.5525 190.877 40.7139C191.236 42.8653 191.337 45.0517 191.178 47.2269C191.178 47.2269 195.33 51.9593 196.222 52.5496C197.115 53.1399 200.102 54.9206 198.298 57.2917C197.72 58.0002 196.997 58.5773 196.177 58.9846C195.357 59.3918 194.46 59.6197 193.545 59.653C193.545 59.653 193.846 68.8371 192.953 72.9791C192.061 77.1211 190.285 78.6018 187.016 78.8922C183.747 79.1825 179.605 79.1922 179.605 79.1922L176.336 95.77L180.488 117.38L149.631 83.9149C149.631 83.9149 152.638 71.7597 152.638 69.4177C152.638 67.0758 148.185 62.6434 152.046 50.1689C155.907 37.6944 181.681 26.1974 181.681 26.1974Z" fill="#FFBDB4" stroke="#062018" stroke-miterlimit="10"/>
<path d="M151.668 57.8723C151.668 57.8723 157.013 59.6433 158.458 55.8013C159.903 51.9593 157.566 47.2172 164.987 43.0655C172.407 38.9138 185.532 35.9525 188.21 29.1781C190.887 22.4038 187.909 15.2616 183.757 14.3713C179.605 13.481 174.561 15.852 166.548 16.152C158.536 16.452 135.051 16.3262 127.63 27.5716C120.209 38.817 127.378 59.0723 129.453 63.5144C131.529 67.9564 131.529 79.5019 140.124 80.0922C148.719 80.6825 154.675 74.1695 155.257 69.4468C155.839 64.7241 151.668 57.8723 151.668 57.8723Z" fill="#062018" stroke="#062018" stroke-miterlimit="10"/>
<g opacity="0.5">
<path opacity="0.5" d="M149.631 54.3393L192.41 39.8228C192.41 39.8228 200.122 44.5552 194.787 50.7779L172.825 57.8813L149.931 57.2426L149.631 54.3393Z" fill="white"/>
</g>
<path d="M149.631 54.34L192.41 39.8235C192.41 39.8235 200.122 44.5559 194.787 50.7786L172.825 57.882L149.931 57.2432L149.631 54.34Z" stroke="#062018" stroke-miterlimit="10"/>
<path d="M149.64 54.3206L192.361 39.8138" stroke="#062018" stroke-width="2" stroke-miterlimit="10" stroke-linecap="round"/>
<path d="M168.333 48.9882L172.776 57.8723" stroke="#062018" stroke-miterlimit="10"/>
<path d="M157.352 59.9433C156.46 59.9433 148.748 49.5786 144.887 52.5399C141.026 55.5013 144.586 66.1564 149.34 68.2274C154.093 70.2984 157.944 65.266 157.944 65.266" fill="#FFBDB4"/>
<path d="M157.352 59.9433C156.46 59.9433 148.748 49.5786 144.887 52.5399C141.026 55.5013 144.586 66.1564 149.34 68.2274C154.093 70.2984 157.944 65.266 157.944 65.266" stroke="#062018" stroke-miterlimit="10"/>
<path d="M186.134 48.0979C186.134 49.5689 185.6 50.7689 184.94 50.7689C184.281 50.7689 183.757 49.5689 183.757 48.0979C183.757 46.6269 184.291 45.4365 184.94 45.4365C185.59 45.4365 186.134 46.5978 186.134 48.0979Z" fill="#062018"/>
<path d="M148.758 80.3631C148.758 80.3631 164.181 93.0989 172.786 107.006C181.39 120.912 203.352 145.784 206.912 154.078C210.472 162.371 213.441 170.946 213.441 178.049C213.441 185.153 214.032 239.018 214.032 240.218V277.516H122.925C122.925 277.516 128.571 199.659 128.571 183.082C128.571 166.504 121.441 151.407 126.786 127.725C132.131 104.044 140.997 90.4278 148.758 80.3631Z" fill="white" stroke="#062018" stroke-miterlimit="10"/>
<path d="M142.811 88.9569L175.744 134.248L184.058 131.577L183.466 141.642L204.235 152.597" stroke="#062018" stroke-miterlimit="10"/>
<path d="M205.021 238.699H157.11V246.344H201.189" stroke="#062018" stroke-miterlimit="10"/>
<path d="M253.688 39.7944H258.17V52.7625C258.17 53.3126 257.951 53.8404 257.562 54.2303C257.173 54.6203 256.645 54.8406 256.094 54.8432H255.774C255.221 54.8432 254.69 54.624 254.299 54.2338C253.908 53.8435 253.688 53.3143 253.688 52.7625V39.7944Z" fill="white" stroke="#062018" stroke-miterlimit="10"/>
<path d="M259.246 37.0654H252.611V41.5364H259.246V37.0654Z" fill="white" stroke="#062018" stroke-miterlimit="10"/>
<path d="M278.638 13.2003C278.638 13.2003 280.966 16.8487 280.627 19.0069C280.287 21.165 277.144 30.62 276.145 30.7749C275.146 30.9297 274.981 29.8071 275.311 26.4683C275.64 23.1295 276.145 21.0005 276.145 20.0037C276.145 19.0069 276.805 11.2164 278.638 13.2003Z" fill="#3AAA35" stroke="#062018" stroke-linecap="round" stroke-linejoin="round"/>
<path d="M233.957 8.72922C233.957 8.72922 230.135 15.3584 232.987 19.1617C235.839 22.965 241.96 23.3134 241.96 23.3134C241.96 23.3134 242.93 30.7652 244.453 31.9265C245.976 33.0878 249.594 38.2267 250.099 40.0461C250.603 41.8655 254.086 39.5525 254.086 38.0525C254.086 36.5524 251.593 30.6007 250.923 28.9458C250.254 27.2909 251.758 22.8102 252.252 21.3198C252.474 20.559 252.8 19.8326 253.222 19.1617C253.222 19.1617 258.073 23.807 258.538 26.4587C259.004 29.1103 257.704 38.8848 259.033 40.0074C260.362 41.13 263.883 40.8396 264.514 38.8461C265.144 36.8525 266.347 25.2973 266.347 23.2747C266.347 21.2521 263.185 14.4874 263.185 14.4874C263.185 14.4874 268.336 19.6262 268.501 21.4456C268.666 23.265 267.172 34.8685 268.006 35.1976C268.514 35.4971 269.1 35.6411 269.69 35.6119C270.279 35.5826 270.847 35.3814 271.324 35.0331C272.267 33.9659 273 32.7316 273.487 31.3943C273.487 31.3943 276.804 23.6038 278.133 19.9553C279.462 16.3068 280.626 12.2132 277.639 10.6744C273.173 8.35439 268.57 6.30859 263.854 4.54848C255.386 1.22905 243.425 -1.25811 239.108 1.8968C234.791 5.05172 233.957 8.72922 233.957 8.72922Z" fill="#3AAA35" stroke="#062018" stroke-linecap="round" stroke-linejoin="round"/>
<path d="M241.931 23.3134L241.262 11.3809" stroke="#062018" stroke-miterlimit="10"/>
<path d="M241.766 18.9972C241.766 18.9972 235.121 18.8327 234.452 10.3841" stroke="#062018" stroke-miterlimit="10"/>
<path d="M275.311 26.4587C275.311 26.4587 277.474 20.1585 275.65 17.1778C273.826 14.1971 266.842 9.55182 266.842 9.55182" stroke="#062018" stroke-miterlimit="10"/>
<path d="M228.67 125.219C229.252 124.822 239.593 113.925 239.787 113.151C239.981 112.377 240.175 101.867 241.349 99.5345C242.523 97.2022 246.413 90.3795 246.616 88.2407C246.82 86.102 246.81 78.9018 246.616 76.3759C246.422 73.8501 248.954 73.6468 250.71 75.9888C252.466 78.3308 252.854 81.6309 252.854 84.5439C252.854 87.4568 253.048 89.7988 253.436 90.3505C253.824 90.9021 257.141 93.8538 258.703 94.2215C260.265 94.5893 269.626 89.9343 272.362 88.9665C275.097 87.9988 276.843 80.0147 277.212 79.2308C277.581 78.4469 277.804 72.621 277.998 71.2565C278.192 69.8919 280.723 68.1403 281.703 71.45C282.683 74.7598 282.285 82.5406 282.091 84.6794C281.897 86.8181 282.091 91.2989 281.121 92.4698C280.151 93.6408 273.904 99.0797 273.361 99.8636C272.818 100.647 270.451 108.225 269.655 109.396C268.86 110.567 262.244 113.093 257.762 115.812C254.519 117.893 251.453 120.237 248.595 122.819C248.957 123.216 249.158 123.734 249.158 124.271C249.158 124.807 248.957 125.325 248.595 125.722C247.444 126.714 246.132 127.503 244.715 128.055L240.621 137.79L228.67 125.219Z" fill="#FFBDB4" stroke="#062018" stroke-miterlimit="10"/>
<path d="M269.626 109.502C270.412 108.332 272.75 100.793 273.332 99.97C273.914 99.1474 280.122 93.7376 281.092 92.5763C282.062 91.415 281.878 86.9342 282.062 84.7858C282.246 82.6374 282.644 74.8662 281.674 71.5565C280.704 68.2467 278.163 69.9984 277.969 71.3629C277.775 72.7274 277.581 78.5631 277.183 79.3373C276.785 80.1115 275.039 88.0956 272.333 89.073C269.626 90.0504 260.236 94.7151 258.674 94.328C257.112 93.9409 253.824 91.0182 253.407 90.4569C252.99 89.8956 252.825 87.5536 252.825 84.6503C252.825 81.747 252.437 78.4276 250.681 76.0953C248.925 73.763 246.384 73.9468 246.587 76.4824C246.791 79.0179 246.781 86.16 246.587 88.3472C246.393 90.5343 242.484 97.299 241.32 99.641C240.156 101.983 239.942 112.406 239.787 113.151C238.018 115.428 236.114 117.596 234.083 119.645L244.492 128.538L244.657 128.132C246.074 127.58 247.386 126.792 248.537 125.8C248.899 125.402 249.1 124.885 249.1 124.348C249.1 123.811 248.899 123.294 248.537 122.896C251.395 120.314 254.461 117.971 257.704 115.89C262.254 113.151 268.85 110.625 269.626 109.502Z" fill="#3AAA35" stroke="#062018" stroke-linecap="round" stroke-linejoin="round"/>
<path d="M273.332 99.9216L266.706 104.78" stroke="#062018" stroke-miterlimit="10"/>
<path d="M141.967 111.157C141.967 111.157 152.056 109.377 157.992 114.109C163.929 118.841 166.005 127.726 166.296 128.626C166.587 129.526 194.437 154.987 194.437 154.987L229.447 122.712L246.665 139.59C246.665 139.59 224.703 167.414 213.431 178.069C202.159 188.724 193.846 193.746 191.77 194.666C189.694 195.585 187.618 194.666 185.241 193.185C182.865 191.704 133.615 142.271 133.615 142.271" fill="white"/>
<path d="M141.967 111.157C141.967 111.157 152.056 109.377 157.992 114.109C163.929 118.841 166.005 127.726 166.296 128.626C166.587 129.526 194.437 154.987 194.437 154.987L229.447 122.712L246.665 139.59C246.665 139.59 224.703 167.414 213.431 178.069C202.159 188.724 193.846 193.746 191.77 194.666C189.694 195.585 187.618 194.666 185.241 193.185C182.865 191.704 133.615 142.271 133.615 142.271" stroke="#062018" stroke-miterlimit="10"/>
<path d="M141.327 131.877C141.327 131.877 150.523 123.293 155.276 122.993C160.03 122.693 163.279 126.545 163.279 126.545" stroke="#062018" stroke-miterlimit="10"/>
<path d="M136.574 124.774C136.574 124.774 147.855 117.37 154.384 120.903" stroke="#062018" stroke-miterlimit="10"/>
<path d="M194.437 154.987C194.437 154.987 186.725 171.265 187.909 178.959" stroke="#062018" stroke-miterlimit="10"/>
<path d="M192.953 155.849C187.821 159.381 183.969 164.472 181.972 170.365" stroke="#062018" stroke-miterlimit="10"/>
<path d="M264.417 60.6111H268.899V73.5501C268.899 74.1019 268.679 74.6312 268.288 75.0214C267.897 75.4116 267.366 75.6308 266.813 75.6308H266.493C265.941 75.6282 265.413 75.4079 265.024 75.018C264.635 74.628 264.417 74.1003 264.417 73.5501V60.6111Z" fill="white" stroke="#062018" stroke-miterlimit="10"/>
<path d="M269.975 57.8917H263.34V62.3627H269.975V57.8917Z" fill="white" stroke="#062018" stroke-miterlimit="10"/>
<path d="M272.798 60.6111H277.28V73.5501C277.28 74.1019 277.06 74.6312 276.669 75.0214C276.278 75.4116 275.747 75.6308 275.194 75.6308H274.874C274.323 75.6282 273.795 75.4079 273.406 75.018C273.017 74.628 272.798 74.1003 272.798 73.5501V60.6111Z" fill="white" stroke="#062018" stroke-miterlimit="10"/>
<path d="M278.366 57.8917H271.731V62.3627H278.366V57.8917Z" fill="white" stroke="#062018" stroke-miterlimit="10"/>
<path d="M280.171 67.4241H251.69V82.018H280.171V67.4241Z" fill="#11640D" stroke="#062018" stroke-miterlimit="10"/>
<path d="M136.428 209.434H123.885C122.707 209.482 121.578 209.917 120.673 210.671C119.768 211.426 119.137 212.457 118.88 213.605L105.93 277.477H126.815L139.765 213.605C139.899 213.103 139.913 212.578 139.806 212.07C139.7 211.562 139.475 211.086 139.15 210.68C138.826 210.275 138.411 209.951 137.938 209.734C137.465 209.518 136.948 209.415 136.428 209.434Z" fill="#062018" stroke="#062018" stroke-miterlimit="10"/>
<path d="M0 277.516H344" stroke="#062018" stroke-miterlimit="10"/>
<path d="M234.336 232.118H242.756V271.458C242.756 272.485 242.347 273.469 241.619 274.195C240.891 274.921 239.905 275.329 238.875 275.329H238.274C237.245 275.329 236.258 274.921 235.53 274.195C234.803 273.469 234.394 272.485 234.394 271.458V232.118H234.336Z" fill="white" stroke="#062018" stroke-linecap="round" stroke-linejoin="round"/>
<path d="M234.336 248.057V271.119C234.336 272.233 234.779 273.301 235.569 274.089C236.358 274.877 237.429 275.319 238.546 275.319C239.662 275.319 240.733 274.877 241.523 274.089C242.312 273.301 242.756 272.233 242.756 271.119V248.057H234.336Z" fill="#3AAA35" stroke="#062018" stroke-linecap="round" stroke-linejoin="round"/>
<path d="M244.25 230.88H232.851V238.786H244.25V230.88Z" fill="white" stroke="#062018" stroke-linecap="round" stroke-linejoin="round"/>
<path d="M254.93 275.348C253.813 275.348 252.742 274.906 251.953 274.118C251.163 273.33 250.72 272.262 250.72 271.148V232.118H259.14V271.119C259.144 271.673 259.038 272.222 258.828 272.735C258.618 273.248 258.308 273.715 257.917 274.108C257.526 274.501 257.06 274.813 256.548 275.026C256.035 275.239 255.485 275.348 254.93 275.348Z" fill="white" stroke="#062018" stroke-linecap="round" stroke-linejoin="round"/>
<path d="M250.72 248.057V271.119C250.72 272.233 251.163 273.301 251.953 274.089C252.742 274.877 253.813 275.319 254.93 275.319C256.046 275.319 257.117 274.877 257.907 274.089C258.696 273.301 259.14 272.233 259.14 271.119V248.057H250.72Z" fill="#3AAA35" stroke="#062018" stroke-linecap="round" stroke-linejoin="round"/>
<path d="M260.634 230.88H249.236V238.786H260.634V230.88Z" fill="white" stroke="#062018" stroke-linecap="round" stroke-linejoin="round"/>
<path d="M271.314 275.348C270.759 275.348 270.209 275.239 269.696 275.026C269.183 274.813 268.718 274.501 268.327 274.108C267.935 273.715 267.626 273.248 267.416 272.735C267.206 272.222 267.1 271.673 267.104 271.119V232.118H275.534V271.119C275.538 271.674 275.431 272.224 275.221 272.738C275.01 273.251 274.7 273.718 274.308 274.111C273.915 274.505 273.449 274.816 272.935 275.029C272.421 275.241 271.87 275.35 271.314 275.348Z" fill="white" stroke="#062018" stroke-linecap="round" stroke-linejoin="round"/>
<path d="M267.104 248.057V271.119C267.104 271.672 267.213 272.219 267.425 272.729C267.638 273.239 267.948 273.702 268.34 274.093C268.732 274.483 269.198 274.792 269.71 275.002C270.222 275.213 270.77 275.321 271.324 275.319C272.44 275.319 273.511 274.877 274.301 274.089C275.09 273.301 275.534 272.233 275.534 271.119V248.057H267.104Z" fill="#3AAA35" stroke="#062018" stroke-linecap="round" stroke-linejoin="round"/>
<path d="M277.018 230.88H265.62V238.786H277.018V230.88Z" fill="white" stroke="#062018" stroke-linecap="round" stroke-linejoin="round"/>
<path d="M287.688 275.348C286.572 275.348 285.501 274.906 284.711 274.118C283.922 273.33 283.478 272.262 283.478 271.148V232.118H291.908V271.119C291.912 271.674 291.806 272.224 291.595 272.738C291.385 273.251 291.074 273.718 290.682 274.111C290.29 274.505 289.823 274.816 289.309 275.029C288.795 275.241 288.245 275.35 287.688 275.348Z" fill="white" stroke="#062018" stroke-linecap="round" stroke-linejoin="round"/>
<path d="M283.478 248.057V271.119C283.53 272.2 283.997 273.218 284.782 273.965C285.567 274.711 286.609 275.127 287.693 275.127C288.777 275.127 289.82 274.711 290.605 273.965C291.389 273.218 291.856 272.2 291.908 271.119V248.057H283.478Z" fill="#3AAA35" stroke="#062018" stroke-linecap="round" stroke-linejoin="round"/>
<path d="M293.392 230.88H281.994V238.786H293.392V230.88Z" fill="white" stroke="#062018" stroke-linecap="round" stroke-linejoin="round"/>
<path d="M300.513 243.054H227.147V245.541H300.513V271.477H223.587V277.516H305.499V276.093V271.477V245.541V243.054H300.513Z" fill="white" stroke="#062018" stroke-linecap="round" stroke-linejoin="round"/>
</g>
<defs>
<clipPath id="clip0">
<rect width="344" height="278" fill="white"/>
</clipPath>
</defs>
</svg>
