<svg width="248" height="300" viewBox="0 0 248 300" fill="none" xmlns="http://www.w3.org/2000/svg">
<path d="M39.0756 218.106C58.3653 211 78.9078 214.861 79.7588 215.027L78.7187 220.309C78.5296 220.309 58.8144 216.448 40.8958 223.128C26.854 228.364 21.4643 235.944 22.3862 240.777C23.0718 244.33 27.2559 246.439 33.3312 246.297C55.5285 245.775 62.6676 246.841 73.9199 254.067L149.968 209.981C151.87 208.897 154.02 208.327 156.208 208.327C158.397 208.327 160.547 208.897 162.449 209.981L211.193 237.982C212.035 238.462 212.74 239.152 213.239 239.984C213.738 240.817 214.015 241.764 214.044 242.734C214.072 243.705 213.851 244.667 213.402 245.527C212.952 246.387 212.289 247.117 211.477 247.647L221.406 253.474C222.092 253.874 222.663 254.448 223.059 255.138C223.455 255.828 223.664 256.611 223.664 257.407C223.664 258.203 223.455 258.985 223.059 259.675C222.663 260.365 222.092 260.939 221.406 261.339L158.738 297.678C155.991 299.251 152.883 300.078 149.719 300.078C146.556 300.078 143.448 299.251 140.701 297.678L132.971 293.225H132.829C129.397 295.186 125.515 296.217 121.565 296.217C117.615 296.217 113.732 295.186 110.301 293.225L68.4829 269.062C67.4317 268.458 66.5582 267.587 65.9507 266.537C65.3433 265.487 65.0234 264.294 65.0234 263.08C65.0234 261.866 65.3433 260.674 65.9507 259.624C66.5582 258.573 67.4317 257.702 68.4829 257.099L68.7666 256.957C60.3273 251.935 53.661 251.034 33.5203 251.508C22.9063 251.792 18.1548 246.581 17.1856 241.63C15.8854 235.115 20.8497 224.905 39.0756 218.106Z" fill="#143638"/>
<path d="M37.1129 293.628C16.6286 293.628 0.0228424 284.262 0.0228424 272.71C0.0228424 261.158 16.6286 251.792 37.1129 251.792C57.5972 251.792 74.203 261.158 74.203 272.71C74.203 284.262 57.5972 293.628 37.1129 293.628Z" fill="#143638"/>
<path d="M76.1657 257.265L79.2388 252.858C65.0552 242.909 59.1691 241.488 34.1823 242.104C28.1307 242.104 23.9465 240.114 23.261 236.56C22.3154 231.822 27.7288 224.171 41.7705 218.912C59.6419 212.255 79.3334 216.045 79.5934 216.093L80.5626 210.834C79.7116 210.668 59.2873 206.712 39.903 213.913C21.6771 220.712 16.7129 230.922 17.9894 237.603C18.935 242.554 23.6865 247.765 34.3242 247.481C59.2873 246.865 63.6132 248.405 76.1657 257.265Z" fill="#254A4C"/>
<path d="M170.851 254.974L170.85 254.973L131.4 232.139C129.475 231.071 127.328 230.468 125.13 230.376C122.939 230.285 120.756 230.706 118.755 231.605L75.1165 256.844C73.571 257.744 72.9988 258.912 73.1388 260.034C73.2834 261.193 74.2074 262.489 76.0605 263.559L76.0606 263.559L115.532 286.392C115.533 286.393 115.534 286.393 115.535 286.394C117.454 287.467 119.597 288.073 121.792 288.164C123.98 288.255 126.159 287.832 128.155 286.928L171.795 261.688C171.796 261.688 171.796 261.688 171.796 261.688C173.354 260.786 173.929 259.619 173.79 258.499C173.645 257.341 172.717 256.045 170.851 254.974Z" fill="#062018" stroke="#062018"/>
<path d="M92.5199 259.039V247.318H73.1191V259.039H92.5199Z" fill="#062018" stroke="#062018"/>
<path d="M153.914 245.941H174.315V258.662H153.914V245.941Z" fill="#BFFCA3"/>
<path d="M128.384 274.652L172.046 249.4C175.403 247.457 174.977 244.046 171.1 241.819L131.646 218.983C129.654 217.871 127.43 217.242 125.151 217.147C122.873 217.053 120.604 217.495 118.527 218.438L74.8647 243.691C71.5316 245.633 71.9571 249.044 75.8103 251.271L115.288 274.108C117.278 275.214 119.498 275.84 121.772 275.934C124.045 276.029 126.31 275.59 128.384 274.652Z" fill="#ABCD9A"/>
<path d="M72.6186 178.19H174.315V245.941H72.6186V178.19Z" fill="#ABCD9A"/>
<path d="M129.283 204.509L183.629 172.979L173.11 188.732L118.385 220.452L129.283 204.509Z" fill="#CABEB1"/>
<path d="M129.282 204.509C125.902 220.31 113.893 226.516 99.544 218.201C85.195 209.886 73.2098 189.774 69.8294 170.112L129.282 204.509Z" fill="#93BC7F"/>
<path d="M183.629 172.931C180.249 188.708 168.24 194.915 153.915 186.623C139.589 178.332 127.439 158.291 124.177 138.582L183.629 172.931Z" fill="#CABEB1"/>
<path d="M183.629 172.978L129.283 204.509L69.8298 170.112L124.177 138.582L183.629 172.978Z" fill="#BFFCA3"/>
<path d="M78.7188 248.168L95.9282 258.117V244.401L78.7188 234.452V248.168Z" fill="#93BC7F"/>
<path d="M141.505 269.772C142.078 269.776 142.648 269.671 143.183 269.464C144.258 268.995 145.108 268.122 145.549 267.033C145.991 265.944 145.99 264.725 145.547 263.637L123.373 209.768L67.348 176.603L18.3201 62.2077C17.7078 61.1632 16.7196 60.3934 15.5585 60.0565C14.3974 59.7195 13.1516 59.8411 12.0772 60.3961C11.0028 60.9512 10.1813 61.8975 9.78157 63.0407C9.38187 64.1839 9.43433 65.4372 9.92813 66.5428L61.4855 186.221L117.629 218.58L137.391 267.001C137.725 267.82 138.294 268.521 139.027 269.015C139.759 269.508 140.622 269.772 141.505 269.772Z" fill="#143638"/>
<path d="M159.564 90.8481C160.944 90.1048 162.499 89.7497 164.064 89.8206C165.629 89.8915 167.145 90.3858 168.453 91.2508L207.387 113.708C205.023 115.39 202.824 117.072 200.602 118.872L164.529 98.0022C164.219 97.7868 163.862 97.6487 163.488 97.5995C162.936 98.4111 162.692 99.3948 162.803 100.371V134.176C160.226 133.252 157.602 132.375 154.978 131.593V100.419C154.83 98.5593 155.176 96.6939 155.981 95.0125C156.787 93.3312 158.023 91.8941 159.564 90.8481Z" fill="#2E726A"/>
<path d="M154.853 97.8315L202.106 125.107C204.555 126.193 207.224 126.693 209.899 126.565C212.583 126.437 215.2 125.682 217.54 124.361C219.807 123.052 220.959 121.461 221.139 120.013C221.315 118.603 220.585 117.151 218.672 116.036C218.672 116.036 218.672 116.036 218.671 116.035L171.416 88.8539C168.976 87.7584 166.316 87.2461 163.644 87.3576C160.966 87.4695 158.35 88.2052 156.005 89.5064C153.727 90.8267 152.575 92.418 152.396 93.8622C152.22 95.269 152.95 96.7155 154.852 97.8306C154.852 97.8309 154.853 97.8312 154.853 97.8315Z" fill="#062018" stroke="#062018"/>
<path d="M221.165 118.633V115.108H216.917V117.559L221.165 118.633Z" fill="#062018" stroke="#062018"/>
<path d="M156.724 91.948V89.4293H152.477V93.5588L156.724 91.948Z" fill="#062018" stroke="#062018"/>
<path d="M201.879 120.057L154.6 92.7906C150.558 90.4216 151.054 86.2997 155.759 83.5755C158.188 82.2159 160.902 81.4476 163.682 81.3323C166.462 81.2171 169.23 81.7583 171.762 82.9122L218.923 110.202C222.989 112.571 222.469 116.693 217.788 119.394C215.372 120.74 212.674 121.5 209.912 121.616C207.15 121.731 204.399 121.197 201.879 120.057Z" fill="#CDE4C0"/>
<path d="M69.8776 162.532V186.221C69.7606 187.198 70.0044 188.183 70.5631 188.992C70.9451 188.947 71.3103 188.809 71.6269 188.59L88.5053 178.853C90.8693 180.417 93.2332 182.075 95.739 183.757L75.4328 195.436C73.9225 196.338 72.2028 196.828 70.4449 196.857C69.0687 196.857 67.7162 196.498 66.5208 195.815C64.9945 194.777 63.7673 193.355 62.9624 191.692C62.1574 190.029 61.8031 188.183 61.9347 186.339V159.144C64.6533 160.281 67.2536 161.442 69.8776 162.532Z" fill="#2E726A"/>
<path d="M70.0323 184.105L70.0331 184.106L109.531 206.916C109.531 206.917 109.532 206.917 109.533 206.918C112.705 208.713 116.291 209.647 119.935 209.627C123.579 209.607 127.155 208.632 130.309 206.801L130.309 206.801L204.276 163.876L204.279 163.874C205.018 163.452 205.633 162.842 206.06 162.104C206.488 161.367 206.713 160.53 206.713 159.677C206.713 158.824 206.488 157.987 206.06 157.25C205.633 156.512 205.018 155.902 204.279 155.48L204.278 155.479L158.276 129.018L158.275 129.018C156.554 128.022 154.602 127.498 152.615 127.498C150.628 127.498 148.677 128.022 146.956 129.018L70.0341 173.672L70.0323 173.672C69.1166 174.199 68.3557 174.959 67.8265 175.875C67.2973 176.791 67.0186 177.83 67.0186 178.889C67.0186 179.947 67.2973 180.987 67.8265 181.903C68.3557 182.819 69.1166 183.579 70.0323 184.105Z" fill="#062018" stroke="#062018"/>
<path d="M74.6725 177.951V168.362H66.9969V177.951H74.6725Z" fill="#062018" stroke="#062018"/>
<path d="M206.745 158.573V148.984H199.07V158.573H206.745Z" fill="#062018" stroke="#062018"/>
<path d="M109.283 196.052L69.7821 173.239C68.7901 172.668 67.9658 171.845 67.3926 170.853C66.8195 169.861 66.5176 168.735 66.5176 167.589C66.5176 166.443 66.8195 165.317 67.3926 164.325C67.9658 163.333 68.7901 162.51 69.7821 161.939L146.704 117.285C148.501 116.246 150.539 115.698 152.614 115.698C154.689 115.698 156.727 116.246 158.524 117.285L204.526 143.722C205.341 144.191 206.019 144.868 206.49 145.683C206.961 146.498 207.209 147.423 207.209 148.365C207.209 149.307 206.961 150.233 206.49 151.048C206.019 151.863 205.341 152.539 204.526 153.008L130.559 195.933C127.33 197.809 123.669 198.806 119.937 198.827C116.205 198.848 112.533 197.891 109.283 196.052Z" fill="#B5D7A4"/>
<path d="M238.945 215.714L215.306 161.584C214.909 160.668 214.323 159.846 213.588 159.172C212.853 158.497 211.984 157.986 211.038 157.671C210.093 157.356 209.091 157.244 208.099 157.343C207.108 157.441 206.148 157.748 205.282 158.244L129.637 202.164C126.851 203.771 124.751 206.348 123.735 209.405C122.72 212.462 122.86 215.786 124.129 218.746L146.35 270.057C146.933 271.373 147.786 272.551 148.853 273.516C149.92 274.481 151.177 275.21 152.543 275.657C153.909 276.103 155.354 276.257 156.783 276.109C158.213 275.96 159.595 275.513 160.841 274.795L233.295 232.817C236.165 231.156 238.326 228.496 239.367 225.343C240.409 222.19 240.259 218.763 238.945 215.714Z" fill="#93BC7F"/>
<path d="M207.127 157.296L215.519 155.638C215.519 155.638 217.883 158.646 217.599 158.646C217.315 158.646 207.127 161.276 207.127 161.276V157.296Z" fill="#93BC7F"/>
<path d="M165.592 274.273L157.271 276.098L154.364 271.691L166.207 269.796L165.592 274.273Z" fill="#93BC7F"/>
<path d="M246.888 213.961L223.249 159.831C222.852 158.915 222.267 158.093 221.532 157.418C220.796 156.744 219.928 156.233 218.982 155.918C218.036 155.602 217.035 155.491 216.043 155.589C215.051 155.688 214.091 155.995 213.226 156.491L137.58 200.41C134.794 202.018 132.694 204.595 131.679 207.652C130.663 210.709 130.803 214.033 132.072 216.993L154.34 268.233C154.923 269.558 155.778 270.746 156.85 271.717C157.923 272.689 159.188 273.422 160.562 273.87C161.937 274.317 163.391 274.468 164.828 274.313C166.265 274.158 167.654 273.701 168.902 272.97L241.238 231.064C244.108 229.403 246.269 226.743 247.311 223.59C248.352 220.437 248.202 217.01 246.888 213.961Z" fill="#C4E9B3"/>
<path d="M142.024 116.48C143.68 115.518 144.929 113.984 145.538 112.166C146.147 110.348 146.075 108.37 145.334 106.601L104.248 9.12037C100.608 0.521189 94.7927 -0.734338 88.221 3.00856L16.0266 45.0095C9.57304 48.7287 8.24924 53.7745 12.0079 62.729L51.7928 157.13C52.2956 158.32 53.0456 159.389 53.9927 160.266C54.9399 161.142 56.0625 161.807 57.2859 162.215C58.5093 162.623 59.8053 162.765 61.0878 162.631C62.3703 162.498 63.6097 162.093 64.7235 161.442L142.024 116.48Z" fill="#93BC7F"/>
<path d="M101.885 0C101.672 0 93.8945 0.994946 93.8945 0.994946C93.8945 0.994946 92.9017 3.86134 93.0199 3.79027C93.1381 3.7192 100.939 5.09318 100.939 5.09318L101.885 0Z" fill="#93BC7F"/>
<path d="M150.014 115.461C151.679 114.502 152.935 112.965 153.545 111.14C154.155 109.315 154.076 107.33 153.323 105.559L112.238 8.10169C108.527 -0.497487 102.664 -1.75301 96.2343 1.98988L24.0162 44.0382C17.5626 47.7811 16.2388 52.8032 19.9975 61.7577L59.7824 156.112C60.2852 157.302 61.0352 158.37 61.9823 159.247C62.9295 160.124 64.0521 160.788 65.2755 161.196C66.4989 161.604 67.7949 161.746 69.0774 161.613C70.3599 161.479 71.5993 161.074 72.7132 160.423L150.014 115.461Z" fill="#C4E9B3"/>
<path d="M36.6632 38.5423L33.8974 40.1769L54.7473 80.1406L58.1514 78.5534C58.1514 78.5534 61.6973 68.3197 53.2108 52.8506C44.7242 37.3816 36.6632 38.5423 36.6632 38.5423Z" fill="#96DF95"/>
<path d="M75.314 30.796C84.6841 30.5417 93.9648 28.8972 102.854 25.916C103.208 26.5319 103.539 27.1715 103.894 27.8348C106.928 34.4634 108.814 41.5608 109.473 48.8235L58.1518 78.5534C57.4924 71.2882 55.5976 64.1896 52.5493 57.5648C48.7026 50.1583 43.2796 43.6888 36.6637 38.6134L51.7928 29.7063C59.5932 30.6799 67.4572 31.0442 75.314 30.796Z" fill="#AFEEAE"/>
<path d="M51.7931 29.7063L87.8431 8.71765C93.9615 13.3681 99.0693 19.2201 102.854 25.916C93.9651 28.8972 84.6843 30.5417 75.3142 30.796C67.4575 31.0442 59.5935 30.6799 51.7931 29.7063Z" fill="#C9F9C8"/>
<path d="M194.527 198.752C196.891 197.757 198.853 196.383 201.193 195.483C201.571 196.455 201.973 197.426 202.399 198.302C205.33 204.296 209.75 206.759 213.013 210.763C216.275 214.766 219.514 216.946 219.632 221.494C219.75 226.042 217.268 230.472 213.249 228.293C210.267 226.697 207.612 224.551 205.424 221.968C202.682 219.044 199.648 216.409 196.371 214.103C195.265 213.224 194.375 212.103 193.768 210.826C193.162 209.549 192.855 208.15 192.872 206.736C192.797 204.394 192.472 202.067 191.903 199.795C192.73 199.463 193.628 199.131 194.527 198.752Z" fill="#6B8F85"/>
<path d="M177.318 213.511C177.318 213.511 181.384 220.31 184.173 224.124C186.909 227.629 189.887 230.938 193.085 234.026C195.615 236.56 197.577 241.132 194.48 243.146C191.383 245.16 183.251 244.141 181.1 241.985C178.949 239.829 176.372 233.907 172.921 231.633C171.135 230.281 169.806 228.412 169.115 226.279C168.102 223.415 167.428 220.441 167.106 217.419C166.444 211.308 177.318 213.511 177.318 213.511Z" fill="#6B8F85"/>
<path d="M130.465 116.243C130.465 116.243 170.392 135.739 175.994 139.766C179.729 141.306 181.337 146.494 183.582 150.9C191.596 166.559 202.328 190.295 205.685 200.529C203.477 203.351 200.361 205.319 196.868 206.096C194.262 206.196 191.662 205.794 189.208 204.912C186.703 198.113 182.258 191.361 177.247 182.478C173.373 175.056 170.009 167.379 167.177 159.499C158.43 153.98 116.092 143.32 110.891 127.495C109.828 123.823 130.465 116.243 130.465 116.243Z" fill="#254A4C"/>
<path d="M145.404 170.562C150.132 164.782 154.86 158.504 162.212 156.349C162.981 157.832 163.501 159.433 163.749 161.086C164.41 166.796 177.27 207.541 180.296 216.093C176.75 220.831 172.282 224.195 165.971 220.641C164.103 213.345 157.862 202.448 153.016 192.214C148.572 182.857 147.627 174.139 145.404 170.562Z" fill="#254A4C"/>
<path d="M99.0712 122.07C109.496 118.091 116.257 128.182 120.938 130.314C123.42 131.428 155.262 148.389 162.094 156.372C163.559 158.054 152.638 168.501 146.232 172.647C140.322 166.772 110.914 167.459 98.0547 149.266C94.2251 143.604 93.1141 124.392 99.0712 122.07Z" fill="#254A4C"/>
<path d="M143.041 95.2542C149.045 117.617 149.258 120.602 149.896 124.297C150.535 127.993 144.507 135.715 142.261 129.509C141.126 126.382 136.304 106.625 130.441 92.1036C129.401 89.5925 123.349 76.1607 123.349 76.1607L117.132 60.8812C117.132 60.8812 119.212 54.343 126.021 59.1282C131.552 63.0606 141.032 87.65 143.041 95.2542Z" fill="#FFBDBD"/>
<path d="M132.167 92.9327C130.843 96.5098 133.396 113.779 137.131 119.275C129.803 131.736 109.426 137.658 95.7385 132.66C93.8001 122.639 97.7479 106.483 94.2493 99.8974C91.318 94.3541 83.0679 90.5638 85.9282 76.2082C86.8029 71.873 98.788 64.79 98.788 64.79C98.788 64.79 107.038 69.5278 109.709 71.3282C112.381 73.1286 116.801 75.4738 117.061 75.9002C116.195 71.8334 114.92 67.8649 113.255 64.0556C112.333 61.8999 113.87 57.3279 115.336 56.9489C117.699 59.3178 122.758 63.4397 125.264 66.0218C127.77 68.6039 137.084 76.2792 134.885 84.9732C134.132 87.6762 133.224 90.3338 132.167 92.9327Z" fill="#3AAA35"/>
<path d="M126.115 66.9929C126.115 66.9929 127.155 60.0283 123.751 57.0672C120.347 54.106 115.383 57.0672 115.383 57.0672L126.115 66.9929Z" fill="#3AAA35"/>
<path d="M114.06 56.4514C113.949 59.745 114.38 63.0345 115.336 66.1876C118.126 68.8882 122.428 74.313 119.378 77.4637C117.44 79.4536 110.088 76.1371 107.559 74.313C104.353 71.4366 101.425 68.264 98.8122 64.8374C101.176 62.658 102.5 48.2549 102.784 46.6677C104.32 38.495 114.06 56.4514 114.06 56.4514Z" fill="#F19FAA"/>
<path d="M99.5677 47.3784C97.6213 52.527 95.9562 57.778 94.5798 63.108C92.9487 70.049 97.8184 78.2218 101.27 81.7751C104.721 85.3285 108.054 96.1308 108.054 96.1308C108.054 96.1308 111.718 92.9327 110.891 84.9495C110.3 79.3825 107.841 75.8291 104.414 64.1978C103.543 59.8711 102.928 55.4968 102.57 51.0976L99.5677 47.3784Z" fill="#33211F"/>
<path d="M103.303 28.9957C105.056 27.6785 107.102 26.8079 109.266 26.4588C111.429 26.1098 113.644 26.2927 115.721 26.992C117.798 27.6912 119.675 28.8857 121.189 30.4728C122.703 32.0598 123.809 33.9918 124.413 36.1024C128.928 48.9183 117.321 64.9322 111.199 62.1605C107.724 60.6207 100.467 55.2196 98.41 48.4682C96.117 41.0298 99.4502 31.9568 103.303 28.9957Z" fill="#FFBDBD"/>
<path d="M116.197 48.8859C116.034 49.3723 115.693 49.6967 115.441 49.6237C115.189 49.5507 115.107 49.0723 115.27 48.5858C115.433 48.0994 115.766 47.775 116.018 47.848C116.27 47.921 116.351 48.3913 116.197 48.8859Z" fill="#10242E"/>
<path d="M122.68 49.6343C122.509 50.1614 122.184 50.5262 121.956 50.4451C121.729 50.3641 121.68 49.8857 121.859 49.3587C122.038 48.8316 122.33 48.5884 122.558 48.6614C122.786 48.7343 122.859 49.1073 122.68 49.6343Z" fill="#10242E"/>
<path d="M119.62 48.2844L117.27 54.0331L120.124 54.925C120.311 54.925 121.01 54.8033 120.937 54.6168L119.62 48.2844Z" fill="#DF8994"/>
<path d="M115.603 44.1087C116.843 43.6337 116.682 42.5675 119.49 43.8249C119.367 43.2823 119.037 42.809 118.569 42.5061C118.101 42.2031 117.533 42.0945 116.986 42.2033C116.7 42.2412 116.425 42.3379 116.179 42.4873C115.932 42.6366 115.72 42.8353 115.555 43.0709C115.425 43.2979 115.189 44.2385 115.603 44.1087Z" fill="#4A3735"/>
<path d="M121.531 44.5628C124.127 43.6061 124.116 45.1481 125.157 45.9655C125.293 45.4215 125.206 44.8462 124.916 44.3659C124.627 43.8855 124.158 43.5394 123.612 43.4034C123.333 43.3165 123.039 43.2896 122.749 43.3245C122.459 43.3595 122.179 43.4554 121.929 43.6061C121.71 43.752 121.092 44.4979 121.531 44.5628Z" fill="#4A3735"/>
<path d="M125.666 42.6406C125.666 42.6406 123.775 41.5272 120.939 39.7269C118.884 42.4064 116.409 44.7345 113.61 46.6204C110.848 48.5522 107.517 49.4952 104.155 49.2973C103.28 48.4682 101.791 45.6255 101.082 45.3175C98.7177 44.4173 98.4104 48.634 98.4104 48.634C98.4104 48.634 90.2785 33.8046 104.698 25.3949C109.899 22.3627 118.551 26.1766 122.31 30.0143C127.038 34.8232 125.666 42.6406 125.666 42.6406Z" fill="#33211F"/>
<path d="M148.927 118.849C151.166 123.559 153.055 128.429 154.577 133.418C156.681 140.667 152.686 141.164 148.762 138.155C145.777 136.004 143.51 132.998 142.261 129.533C141.623 127.306 148.927 118.849 148.927 118.849Z" fill="#FFBDBD"/>
<path d="M66.6385 144.007C68.0198 143.312 69.5587 142.992 71.1016 143.08C72.6446 143.167 74.1378 143.658 75.4323 144.504L114.484 166.938C112.121 168.62 109.922 170.302 107.7 172.078L71.6264 151.208C71.3112 151.008 70.9563 150.878 70.5863 150.829C70.5863 150.829 69.9007 151.682 69.9007 153.601V187.334C67.3241 186.41 64.7001 185.557 62.0761 184.776V153.601C61.9254 151.74 62.268 149.873 63.0692 148.188C63.8704 146.504 65.1018 145.061 66.6385 144.007Z" fill="#2E726A"/>
<path d="M61.9509 150.919L109.205 178.171C111.646 179.276 114.311 179.795 116.987 179.688C119.669 179.58 122.29 178.845 124.639 177.542C126.904 176.223 128.057 174.626 128.237 173.175C128.412 171.761 127.683 170.309 125.77 169.195C125.77 169.194 125.769 169.194 125.769 169.194L78.5138 141.941C76.0713 140.842 73.4076 140.326 70.7321 140.433C68.0503 140.541 65.4304 141.273 63.0794 142.57C60.815 143.889 59.668 145.486 59.4906 146.937C59.3176 148.351 60.0485 149.804 61.9491 150.918C61.9497 150.918 61.9503 150.919 61.9509 150.919Z" fill="#062018" stroke="#062018"/>
<path d="M128.263 172.083V168.267H124.015V170.741L128.263 172.083Z" fill="#062018" stroke="#062018"/>
<path d="M63.8223 145.082V142.611H59.5743V146.386L63.8223 145.082Z" fill="#062018" stroke="#062018"/>
<path d="M108.977 173.239L61.6981 145.949C57.6557 143.58 58.1522 139.458 62.8327 136.758C65.2493 135.412 67.9465 134.651 70.7089 134.536C73.4712 134.42 76.2222 134.954 78.742 136.094L126.021 163.455C130.087 165.824 129.566 169.923 124.886 172.647C122.462 173.976 119.762 174.722 117.001 174.825C114.24 174.927 111.492 174.385 108.977 173.239Z" fill="#CDE4C0"/>
<path d="M81.3191 102.716C81.8865 95.6096 83.2339 80.5669 83.2339 80.5669C83.2339 80.5669 85.3378 73.626 91.2476 77.2267C93.8085 78.8665 95.8621 81.1896 97.1776 83.9349C98.4931 86.6802 99.0182 89.7388 98.694 92.7668C97.4349 100.962 95.7383 109.083 93.6116 117.096C95.0536 124.581 95.1718 142.585 95.3845 143.485C96.6015 145.388 98.2142 147.004 100.112 148.223C101.625 149.171 107.062 154.643 108.575 155.33C110.088 156.017 109.237 157.486 107.961 157.699C106.003 157.186 104.131 156.388 102.405 155.33C104.602 158.162 106.1 161.473 106.779 164.995C107.417 169.946 102.287 170.657 97.3229 167.364C92.3587 164.071 90.4203 155.827 87.8672 149.455C84.5601 140.139 82.0144 130.568 80.2554 120.839C79.6407 116.077 80.7754 109.705 81.3191 102.716Z" fill="#FFBDBD"/>
<path d="M91.2936 126.785C91.9463 129.501 92.4358 132.254 92.7593 135.028C88.977 135.763 85.3365 136.852 85.3365 136.852L83.2327 128.419C85.789 127.358 88.5265 126.802 91.2936 126.785Z" fill="white"/>
<path d="M99.3314 89.3794C99.3314 89.3794 99.0713 75.8055 92.7124 73.1287C83.2566 68.9357 83.2566 80.5671 83.2566 80.5671C84.0833 80.1023 84.9946 79.8084 85.9366 79.7026C86.8785 79.5968 87.8321 79.6813 88.741 79.9511C91.1076 80.6077 93.2926 81.7988 95.1284 83.4332C96.9642 85.0675 98.402 87.1017 99.3314 89.3794Z" fill="#3AAA35"/>
<path d="M57.2767 73.5787C57.2767 73.5787 62.6901 85.4233 64.9122 88.9056C67.9853 91.5588 79.0957 103.119 82.8308 106.791C84.2728 108.236 94.154 116.859 96.3761 121.005C98.5982 125.15 100.489 129.912 97.9363 133.655C95.3832 137.397 88.9297 130.314 87.9369 128.514C87.5738 127.822 87.2502 127.11 86.9676 126.382C86.3406 127.49 85.6458 128.558 84.8874 129.58C84.0127 131.001 81.9561 130.101 82.5235 129.319C83.3454 127.305 83.917 125.196 84.2255 123.042C84.5078 121.577 84.4349 120.066 84.0127 118.636C82.878 117.427 60.9408 102.574 58.6714 100.94C56.402 99.3052 51.5796 88.7872 48.4592 84.3573C45.3388 79.9274 57.2767 73.5787 57.2767 73.5787Z" fill="#F7A7A7"/>
<path d="M41.7232 237.366C45.08 237.366 48.5786 236.845 52.0299 236.679C52.0299 238.763 51.8881 240.587 51.8645 241.914C51.8645 249.732 56.5923 257.028 58.4126 259.847C60.2328 262.666 54.5357 267.096 50.2333 262.974C47.3905 260.034 44.1522 257.507 40.6121 255.464C38.2482 254.161 38.39 252.503 40.754 243.62C41.2764 241.571 41.6009 239.477 41.7232 237.366Z" fill="#FFA08D"/>
<path d="M10.8268 255.488C14.3264 256.055 17.904 255.91 21.3464 255.062V256.507C21.3464 264.348 26.0742 271.62 27.8708 274.439C29.6674 277.258 23.9939 281.688 19.6916 277.566C15.3892 273.444 14.9637 272.639 12.5998 271.336C10.2359 270.033 7.0682 268.399 8.98298 262.239C9.24302 261.41 10.6614 256.53 10.8268 255.488Z" fill="#FFC5B3"/>
<path d="M53.5898 250.655C53.5898 250.655 57.6085 256.388 60.9889 260.131C64.9367 264.585 66.6387 265.627 67.5606 268.067C68.4826 270.507 64.062 276.382 56.332 271.905C52.0317 269.755 48.0532 267.012 44.5123 263.756C41.1319 260.629 37.6097 258.544 37.066 254.043C36.9638 252.864 37.1395 251.677 37.5789 250.579C38.0182 249.48 38.7089 248.5 39.5954 247.718C39.5954 247.718 40.3045 250.395 44.9378 253.024C48.5074 255.062 53.5898 250.655 53.5898 250.655Z" fill="white"/>
<path d="M62.0036 272.05L62.0036 272.05L61.9981 272.052C59.5398 273.16 57.1716 272.393 54.9677 271.078C53.8634 270.42 52.7728 269.607 51.7051 268.789C51.5129 268.641 51.3216 268.494 51.1309 268.347C50.2574 267.674 49.3987 267.012 48.5393 266.423C44.9511 264.145 41.9746 261.02 39.87 257.322L39.8637 257.311L39.8579 257.3C39.1633 255.92 38.3042 254.631 37.3 253.46C37.2833 253.513 37.2662 253.567 37.249 253.623C37.0721 254.202 36.8748 254.989 36.7861 255.836C36.6051 257.563 36.8881 259.339 38.435 260.271L38.4374 260.273C40.6265 261.608 43.5044 263.576 46.0765 265.358C46.5949 265.717 47.1002 266.068 47.5848 266.405C49.5181 267.747 51.1221 268.861 51.9127 269.346C52.1102 269.467 52.3597 269.63 52.654 269.823C53.9228 270.652 56.0232 272.026 58.3646 272.911C61.2573 274.006 64.2913 274.27 66.4967 272.05L66.4967 272.05L66.5025 272.044C66.9825 271.576 67.3008 270.967 67.411 270.305C67.4908 269.824 67.4582 269.335 67.3188 268.874C67.2271 268.93 67.1249 268.993 67.0141 269.061C66.5246 269.362 65.865 269.765 65.1846 270.179C64.5044 270.592 63.8022 271.016 63.228 271.356C62.6669 271.689 62.1974 271.96 62.0036 272.05Z" fill="#062018" stroke="#062018"/>
<path d="M55.3439 257.523L55.3765 257.487L55.4155 257.458C56.0081 257.011 56.6308 256.606 57.2791 256.246L56.3955 255.267C55.0947 255.895 53.9383 256.789 53.0023 257.895C52.2755 258.763 51.587 259.662 50.9386 260.59L51.7714 261.222C51.8107 261.183 51.8532 261.14 51.8987 261.095C52.1678 260.825 52.5392 260.451 52.9489 260.035C53.7707 259.2 54.7382 258.201 55.3439 257.523Z" fill="#062018" stroke="#062018"/>
<path d="M58.0218 261.12C58.6369 260.61 59.2818 260.137 59.9531 259.703L59.2214 258.829C57.8931 259.481 56.7091 260.398 55.7417 261.523L55.7325 261.534L55.7226 261.544C55.0896 262.201 54.5273 262.922 54.0446 263.696L54.8346 264.568C54.8395 264.563 54.8445 264.558 54.8494 264.553C55.088 264.31 55.4181 263.971 55.7841 263.588C56.5195 262.818 57.388 261.883 57.9535 261.189L57.9843 261.151L58.0218 261.12Z" fill="#062018" stroke="#062018"/>
<path d="M22.787 265.106C22.787 265.106 26.8057 270.839 30.1861 274.581C34.1338 279.035 35.8359 280.077 36.7815 282.517C37.727 284.957 33.2592 290.832 25.5291 286.355C21.2289 284.205 17.2504 281.462 13.7095 278.206C10.3291 275.079 6.80681 272.994 6.2631 268.493C6.16099 267.314 6.33669 266.128 6.77603 265.029C7.21537 263.93 7.90608 262.95 8.79251 262.168C8.79251 262.168 9.50169 264.845 14.135 267.475C17.7045 269.512 22.787 265.106 22.787 265.106Z" fill="white"/>
<path d="M31.2018 286.5L31.2019 286.5L31.1964 286.503C28.7381 287.611 26.3699 286.844 24.166 285.529C23.0617 284.87 21.9711 284.058 20.9034 283.239C20.7112 283.092 20.5198 282.944 20.3292 282.798C19.4556 282.124 18.597 281.463 17.7376 280.874C14.1424 278.593 11.1644 275.458 9.06753 271.748L9.0621 271.738L9.0571 271.729C8.3597 270.356 7.5005 269.075 6.49862 267.91C6.48182 267.962 6.46466 268.017 6.44728 268.074C6.2704 268.653 6.07308 269.44 5.98437 270.287C5.80345 272.013 6.08638 273.79 7.63334 274.722L7.63565 274.723C9.82471 276.059 12.7026 278.027 15.2745 279.805C15.7059 280.104 16.1283 280.396 16.5371 280.68C18.5796 282.095 20.2853 283.277 21.1073 283.771C21.3238 283.901 21.6014 284.082 21.931 284.296C23.2093 285.127 25.2687 286.466 27.5669 287.342C30.463 288.445 33.5029 288.721 35.7194 286.499C36.1927 286.025 36.5063 285.414 36.6164 284.752C36.6958 284.275 36.6664 283.788 36.5334 283.328C36.4424 283.383 36.3411 283.445 36.2314 283.512C35.7398 283.813 35.0772 284.217 34.3938 284.63C33.7107 285.043 33.0056 285.467 32.4292 285.807C31.8658 286.14 31.3951 286.411 31.2018 286.5Z" fill="#062018" stroke="#062018"/>
<path d="M24.6399 271.97L24.666 271.942L24.6961 271.918C25.2549 271.468 25.8453 271.06 26.4625 270.697L25.6511 269.724C24.3558 270.351 23.2043 271.244 22.2715 272.345C21.5458 273.212 20.8581 274.11 20.2105 275.037L21.0392 275.653C21.0795 275.613 21.1232 275.57 21.17 275.524C21.4395 275.256 21.8117 274.885 22.223 274.472C23.0476 273.642 24.0216 272.648 24.6399 271.97Z" fill="#062018" stroke="#062018"/>
<path d="M27.2221 275.639C27.8408 275.133 28.4865 274.661 29.1562 274.225L28.4189 273.331C27.0936 273.998 25.9107 274.919 24.9386 276.045L24.9296 276.056L24.9202 276.065C24.2872 276.722 23.7248 277.443 23.2421 278.217L24.0322 279.089C24.0371 279.084 24.042 279.079 24.047 279.074C24.2856 278.831 24.6157 278.492 24.9817 278.109C25.7171 277.34 26.5856 276.405 27.1511 275.711L27.183 275.671L27.2221 275.639Z" fill="#062018" stroke="#062018"/>
<path d="M53.0938 136.142C53.0938 136.142 56.0251 158.978 55.9778 168.312C55.9778 182.075 56.7342 190.011 56.3324 195.46C55.9305 200.908 55.2213 248.476 55.2213 248.476C52.006 250.326 48.4036 251.397 44.7018 251.603C43.2389 251.635 41.8052 251.19 40.6159 250.336C39.4267 249.482 38.5461 248.264 38.1065 246.865C38.1065 246.865 36.0735 206.357 35.7425 195.152C35.5771 187.69 33.3786 168.786 33.3786 168.786C33.3786 168.786 31.6529 197.781 30.5183 207.944C29.2417 219.291 26.5232 261.837 26.5232 261.837C23.4616 263.74 19.9777 264.855 16.3819 265.082C11.2522 265.082 4.7514 259.752 4.7514 259.752C4.7514 259.752 9.05376 175.987 8.13182 164.995C6.14612 141.567 11.8196 136.047 11.8196 136.047L53.0938 136.142Z" fill="#6ECFA0"/>
<path d="M53.7075 80.2117C52.7673 80.7499 51.7964 81.2324 50.7998 81.6567L38.011 56.1908C39.5767 55.4405 41.2983 55.0749 43.0332 55.1243C44.768 55.1737 46.4661 55.6368 47.9867 56.4751C51.4854 58.1096 56.7097 66.5667 60.7283 73.6734C58.831 76.2864 56.4468 78.5067 53.7075 80.2117Z" fill="#6ECFA0"/>
<path d="M10.992 72.9864C12.0085 68.9829 24.23 60.5733 24.23 60.5733C24.23 60.5733 31.0618 66.0455 33.473 67.9406C35.8117 70.0525 37.985 72.3413 39.9738 74.7868C39.6061 70.2096 38.6364 65.7012 37.0898 61.3787C36.7736 58.6913 36.9014 55.9701 37.468 53.3244C37.468 53.3244 38.4372 53.0875 39.832 52.8269C41.9122 55.1958 46.0018 61.2603 48.2239 63.795C50.446 66.3297 56.5213 73.4365 56.3322 81.7751C56.0012 99.3051 57.2305 141.661 57.2305 141.661C50.1773 146.053 42.2571 148.857 34.0167 149.882C29.3425 150.671 24.548 150.338 20.0275 148.909C15.507 147.48 11.3894 144.996 8.01346 141.661C8.01346 141.661 13.545 109.515 13.1905 102.551C13.1195 102.551 7.6825 86.205 10.992 72.9864Z" fill="#85E1B5"/>
<path d="M38.2007 54.2246C38.7009 57.2979 39.3957 60.3363 40.2809 63.3212C41.2974 64.9084 44.2523 74.313 43.6377 78.6955C39.7773 75.5533 36.1215 72.1667 32.6927 68.5565C30.1397 66.1876 23.237 61.2603 23.237 61.2603C25.0793 59.1195 25.9976 56.3331 25.79 53.5139V39.0635L38.2007 54.2246Z" fill="#F7A7A7"/>
<path d="M40.9661 56.6408C42.8351 61.4047 44.414 66.2778 45.694 71.2333C46.4341 75.2741 46.4341 79.4162 45.694 83.457C45.694 83.457 34.749 74.7867 31.1794 72.0861C26.097 68.2248 20.0926 63.7475 20.0926 63.7475L23.4258 61.2602C26.9908 63.1795 30.3768 65.4152 33.5434 67.9405C35.6236 69.6462 42.6918 76.6582 42.6918 76.6582C42.6918 76.6582 41.2498 70.9017 39.8551 65.7137C38.6494 61.2128 37.2784 55.0062 37.2784 55.0062L40.9661 56.6408Z" fill="#6ECFA0"/>
<path d="M27.0906 87.271L38.0119 82.391L36.8063 79.6667L25.8613 84.5467L27.0906 87.271Z" fill="white"/>
<path d="M19.1946 100.655C19.1946 101.437 19.1946 113.566 19.1946 113.566C19.1946 113.566 35.9313 120.009 41.1556 122.852C46.3799 125.695 51.8169 124.179 56.072 124.179C58.0992 124.327 60.1371 124.183 62.1236 123.752C63.9202 123.35 64.133 124.866 62.6673 126.358C61.2017 127.851 56.9703 127.993 56.9703 127.993C60.6513 129.399 64.1386 131.27 67.3479 133.56C71.3903 136.781 66.3787 141.306 61.4854 141.306C56.592 141.306 47.0418 134.341 41.9357 133.086C39.1462 132.375 28.2249 130.717 21.2276 129.153C15.9246 127.871 11.0653 125.179 7.16224 121.36C4.98742 119.228 4.79829 105.559 5.74387 98.855C6.68944 92.151 19.1946 100.655 19.1946 100.655Z" fill="#FFBDBD"/>
<path d="M2.33891 101.485V100.869C2.90045 93.5257 4.22351 86.2613 6.28668 79.193C8.4615 70.8544 12.0074 68.675 15.0805 67.0404C17.4445 65.8797 22.1723 70.807 23.8271 74.9053C25.3873 78.5771 24.2999 91.9141 23.0233 102.053C16.2525 104.139 8.9855 103.939 2.33891 101.485Z" fill="#6ECFA0"/>
<path d="M30.5176 27.3847C32.1667 26.145 34.0928 25.3272 36.1287 25.0024C38.1646 24.6776 40.2489 24.8555 42.2007 25.5207C44.1525 26.1859 45.9128 27.3183 47.329 28.8196C48.7451 30.321 49.7743 32.1459 50.3273 34.1361C54.5824 46.1702 43.7083 61.1892 37.9167 58.6307C34.6781 57.2094 27.8463 52.1399 25.9315 45.7912C23.7567 38.6608 26.8771 30.1563 30.5176 27.3847Z" fill="#FFBDBD"/>
<path d="M41.4115 44.7615C41.225 45.6522 40.7453 46.2923 40.319 46.2088C39.8927 46.1253 39.7328 45.3182 39.9193 44.4275C40.1059 43.5369 40.5855 42.8967 40.9852 42.9802C41.3848 43.0637 41.5714 43.8709 41.4115 44.7615Z" fill="#0E162E"/>
<path d="M48.6673 45.5873C48.5129 46.4828 48.024 47.1263 47.638 47.0144C47.2521 46.9025 47.0462 46.119 47.2263 45.2235C47.4065 44.3281 47.8696 43.6845 48.2813 43.7965C48.693 43.9084 48.9503 44.6919 48.6673 45.5873Z" fill="#0E162E"/>
<path d="M36.9608 42.0913C35.6102 42.7217 38.2552 38.9393 39.9716 38.9393C40.3458 38.8914 40.7247 38.9282 41.086 39.0474C41.4473 39.1666 41.7836 39.3659 42.0748 39.6334C42.3661 39.9009 42.6064 40.2312 42.7817 40.6047C42.9569 40.9781 43.0634 41.3872 43.0948 41.8076C41.6093 39.0474 38.6227 39.7298 36.9608 42.0913Z" fill="#0E162E"/>
<path d="M51.226 41.7567C50.0063 40.5472 48.6765 42.4303 47.7655 42.4128C48.0383 41.7415 48.5117 41.1966 49.105 40.8714C49.6983 40.5462 50.5825 40.3715 51.226 40.5405" fill="#0E162E"/>
<path d="M45.3671 46.2219L46.3452 54.086C46.3495 54.1158 46.3473 54.1461 46.3388 54.1749C46.3303 54.2038 46.3157 54.2305 46.296 54.2531C46.2763 54.2757 46.2519 54.2938 46.2246 54.3061C46.1973 54.3184 46.1676 54.3246 46.1377 54.3243L43.1739 53.8775C43.1739 53.8775 42.9961 53.8775 43.1739 53.6392L45.2782 46.2219C45.3074 46.2143 45.338 46.2143 45.3671 46.2219Z" fill="#D46F6C"/>
<path d="M35.2462 20.9886C35.2462 20.9886 31.6767 9.14404 22.2682 14.7584C12.8598 20.3727 16.6893 28.6639 20.5189 30.7012C22.292 31.6975 24.1325 32.5683 26.0269 33.307L35.2462 20.9886Z" fill="#33211F"/>
<path d="M39.5709 23.4049C39.5709 23.4049 37.2069 15.6111 29.0041 19.0698C23.236 21.4387 21.6759 25.2289 21.7704 28.5454C22.4355 31.9271 23.6324 35.1815 25.3163 38.1869L39.5709 23.4049Z" fill="#3AAA35"/>
<path d="M51.1317 36.4103C46.7946 36.8068 42.422 36.511 38.1774 35.5338C37.3782 39.3551 35.2915 42.7845 32.2676 45.2463C32.2676 45.2463 29.62 39.8452 28.0125 40.319C24.8212 41.2666 26.736 47.8285 26.736 47.8285C25.4069 46.0291 24.4065 44.008 23.7811 41.8588C23.4501 39.4899 19.2896 27.1952 31.7475 22.1257C42.858 17.6721 51.2736 24.5183 51.1317 36.4103Z" fill="#33211F"/>
</svg>
