<svg width="537" height="333" viewBox="0 0 537 333" fill="none" xmlns="http://www.w3.org/2000/svg">
<g clip-path="url(#clip0_1863_900)">
<g opacity="0.56">
<path opacity="0.56" d="M462.366 331.356C506.359 304.716 535.095 247.834 528.001 196.973C526.379 185.347 523.015 173.577 515.553 164.499C503.703 150.106 483.214 144.953 464.79 147.704C446.367 150.455 429.608 159.968 414.42 170.699C362.214 207.516 321.252 227.297 262.728 253C249.512 258.8 235.246 263.109 220.835 262.232C196.401 260.742 175.587 244.969 153.467 234.562C130.177 223.626 107.5 240.5 78.7136 261.861C49.9273 283.221 38.5881 308.123 46.7668 332.472" fill="#EAFCE6"/>
<path opacity="0.56" d="M467.147 152.635C475.659 149.979 484.754 149.798 493.365 152.115C500.79 154.168 507.662 157.849 513.479 162.889C525.756 173.364 532.979 188.49 535.617 204.212C538.331 220.393 536.897 237.188 532.654 252.952C528.729 267.487 522.355 281.25 513.804 293.653C505.232 306.167 494.543 317.098 482.215 325.957C480.713 327.038 479.176 328.077 477.622 329.091C476.239 329.943 474.959 327.779 476.333 326.885C488.631 318.849 499.432 308.74 508.254 297.009C517.066 285.335 523.869 272.279 528.385 258.377C533.26 243.615 535.197 228.044 534.088 212.541C532.816 196.683 527.369 180.936 516.348 169.166C511.446 163.854 505.496 159.612 498.872 156.706C489.075 152.404 478.038 151.831 467.847 155.096C466.276 155.599 465.602 153.129 467.164 152.635H467.147Z" fill="#EAFCE6"/>
<path opacity="0.56" d="M213.304 301.56C198.823 293.335 183.896 285.963 168.594 279.478C153.273 272.893 137.561 267.302 121.553 262.737C106.198 258.446 89.4041 255.61 73.867 260.629C61.8855 264.506 50.4167 273.147 46.0425 285.606C43.843 291.878 44.1489 298.496 45.2652 304.971C46.5688 311.927 48.3962 318.769 50.7309 325.436C51.2188 326.884 51.7066 328.331 52.211 329.778C52.7154 331.226 50.3422 331.987 49.813 330.455C47.4207 323.842 45.3917 317.097 43.7355 310.252C42.2306 303.558 41.1473 296.423 42.3463 289.584C44.7029 276.236 55.5764 265.826 67.2024 260.511C81.9539 253.782 98.4833 254.696 113.921 258.192C122.366 260.203 130.706 262.649 138.909 265.521C146.947 268.23 154.904 271.178 162.782 274.366C178.57 280.754 193.987 288.068 208.955 296.27C210.823 297.292 212.684 298.33 214.536 299.385C215.925 300.172 214.677 302.373 213.279 301.577L213.304 301.56Z" fill="#EAFCE6"/>
<path opacity="0.56" d="M135.88 201.648C131.801 201.648 128.495 198.35 128.495 194.281C128.495 190.213 131.801 186.914 135.88 186.914C139.958 186.914 143.265 190.213 143.265 194.281C143.265 198.35 139.958 201.648 135.88 201.648Z" fill="#EAFCE6"/>
<path opacity="0.56" d="M117.713 170.494C117.713 170.046 117.846 169.608 118.096 169.236C118.345 168.863 118.7 168.573 119.115 168.401C119.53 168.23 119.986 168.185 120.427 168.273C120.867 168.36 121.272 168.576 121.59 168.893C121.907 169.209 122.124 169.613 122.211 170.052C122.299 170.492 122.254 170.947 122.082 171.361C121.91 171.775 121.619 172.129 121.246 172.378C120.872 172.627 120.433 172.76 119.984 172.76C119.382 172.76 118.804 172.521 118.378 172.096C117.952 171.671 117.713 171.095 117.713 170.494Z" fill="#EAFCE6"/>
<path opacity="0.56" d="M15.4983 260.188C15.3904 257.373 17.5908 255.003 20.4131 254.895C23.2353 254.788 25.6107 256.983 25.7186 259.798C25.8266 262.614 23.6262 264.983 20.8039 265.091C17.9817 265.199 15.6063 263.004 15.4983 260.188Z" fill="#EAFCE6"/>
<path opacity="0.56" d="M152.349 141.044C152.348 140.482 152.513 139.933 152.825 139.465C153.137 138.997 153.58 138.632 154.1 138.417C154.62 138.201 155.192 138.144 155.745 138.253C156.297 138.362 156.804 138.633 157.202 139.03C157.601 139.427 157.872 139.933 157.981 140.484C158.09 141.035 158.033 141.606 157.817 142.124C157.601 142.643 157.235 143.086 156.766 143.397C156.298 143.708 155.747 143.873 155.184 143.871C154.432 143.871 153.711 143.573 153.179 143.043C152.648 142.513 152.349 141.794 152.349 141.044V141.044Z" fill="#EAFCE6"/>
<path opacity="0.56" d="M143.782 78.5038C142.342 75.036 143.993 71.0604 147.469 69.624C150.945 68.1876 154.93 69.8344 156.37 73.3021C157.81 76.7699 156.16 80.7455 152.683 82.1819C149.207 83.6183 145.222 81.9715 143.782 78.5038Z" fill="#EAFCE6"/>
<path opacity="0.56" d="M239.216 5.10998C239.216 4.09932 239.517 3.11136 240.079 2.27103C240.642 1.4307 241.442 0.775738 242.378 0.388976C243.314 0.00221408 244.344 -0.0989805 245.338 0.098189C246.331 0.295359 247.244 0.782036 247.961 1.49668C248.677 2.21132 249.165 3.12183 249.363 4.11307C249.56 5.10431 249.459 6.13175 249.071 7.06548C248.683 7.99921 248.027 8.79727 247.184 9.35877C246.342 9.92026 245.352 10.22 244.339 10.22C242.98 10.22 241.677 9.68158 240.716 8.72327C239.756 7.76497 239.216 6.46523 239.216 5.10998Z" fill="#EAFCE6"/>
<path opacity="0.56" d="M479.399 138.208C477.201 138.208 475.42 136.431 475.42 134.239C475.42 132.047 477.201 130.27 479.399 130.27C481.596 130.27 483.377 132.047 483.377 134.239C483.377 136.431 481.596 138.208 479.399 138.208Z" fill="#EAFCE6"/>
<path opacity="0.56" d="M458.96 37.3879C453.627 37.3879 449.304 33.0754 449.304 27.7556C449.304 22.4358 453.627 18.1233 458.96 18.1233C464.292 18.1233 468.615 22.4358 468.615 27.7556C468.615 33.0754 464.292 37.3879 458.96 37.3879Z" fill="#EAFCE6"/>
<path opacity="0.56" d="M431.136 22.0921C431.135 21.5308 431.3 20.9817 431.611 20.5142C431.923 20.0467 432.366 19.6819 432.885 19.4659C433.405 19.2499 433.977 19.1926 434.529 19.301C435.081 19.4095 435.588 19.6789 435.987 20.0752C436.385 20.4715 436.657 20.9768 436.767 21.5272C436.877 22.0775 436.822 22.6482 436.607 23.1669C436.392 23.6856 436.027 24.1291 435.56 24.4411C435.092 24.7531 434.542 24.9196 433.979 24.9196C433.227 24.9196 432.505 24.622 431.972 24.092C431.439 23.562 431.139 22.8428 431.136 22.0921V22.0921Z" fill="#EAFCE6"/>
<path opacity="0.56" d="M489.054 80.4311C489.054 80.0942 489.154 79.7649 489.342 79.4848C489.529 79.2047 489.796 78.9864 490.108 78.8574C490.42 78.7285 490.763 78.6948 491.094 78.7605C491.426 78.8262 491.73 78.9885 491.969 79.2267C492.207 79.4649 492.37 79.7684 492.436 80.0988C492.502 80.4292 492.468 80.7717 492.339 81.0829C492.21 81.3942 491.991 81.6602 491.71 81.8474C491.429 82.0345 491.099 82.1344 490.761 82.1344C490.308 82.1344 489.874 81.955 489.554 81.6355C489.234 81.3161 489.054 80.8829 489.054 80.4311Z" fill="#EAFCE6"/>
<path opacity="0.56" d="M333.478 62.3077C333.478 61.2971 333.778 60.3091 334.341 59.4688C334.904 58.6284 335.704 57.9735 336.64 57.5867C337.576 57.2 338.606 57.0988 339.6 57.2959C340.593 57.4931 341.506 57.9798 342.222 58.6944C342.939 59.4091 343.427 60.3196 343.624 61.3108C343.822 62.3021 343.72 63.3295 343.333 64.2632C342.945 65.197 342.288 65.995 341.446 66.5565C340.604 67.118 339.613 67.4177 338.6 67.4177C337.242 67.4177 335.939 66.8793 334.978 65.921C334.018 64.9627 333.478 63.663 333.478 62.3077Z" fill="#EAFCE6"/>
<path opacity="0.56" d="M65.4671 51.9515C65.4671 50.9409 65.7675 49.9529 66.3303 49.1126C66.8932 48.2722 67.6932 47.6173 68.6292 47.2305C69.5652 46.8438 70.5952 46.7426 71.5888 46.9397C72.5825 47.1369 73.4952 47.6236 74.2116 48.3382C74.928 49.0529 75.4158 49.9634 75.6135 50.9546C75.8111 51.9459 75.7097 52.9733 75.322 53.907C74.9343 54.8408 74.2777 55.6388 73.4354 56.2003C72.593 56.7618 71.6026 57.0615 70.5895 57.0615C69.2309 57.0615 67.928 56.5231 66.9674 55.5648C66.0067 54.6065 65.4671 53.3068 65.4671 51.9515V51.9515Z" fill="#EAFCE6"/>
</g>
<path d="M447.033 332.489C447.033 332.489 376.062 198.778 376.626 200.481" stroke="#AFEEAE" stroke-miterlimit="10"/>
<path d="M455.553 278.119H417.51" stroke="#AFEEAE" stroke-miterlimit="10"/>
<path d="M444.762 256.589H406.719" stroke="#AFEEAE" stroke-miterlimit="10"/>
<path d="M476.564 314.936H438.521" stroke="#AFEEAE" stroke-miterlimit="10"/>
<path d="M465.772 296.242H427.73" stroke="#AFEEAE" stroke-miterlimit="10"/>
<path d="M485.075 332.489C485.075 332.489 414.104 198.778 414.668 200.481" stroke="#AFEEAE" stroke-miterlimit="10"/>
<path d="M513.949 332.148L40.1257 332.148" stroke="#1E334D" stroke-width="1.09" stroke-miterlimit="10" stroke-linecap="round"/>
<path d="M438.179 206.656H115.732C111.93 206.656 108.284 208.163 105.596 210.844C102.908 213.526 101.398 217.163 101.398 220.955V230.962H452.479V220.955C452.48 217.169 450.974 213.537 448.293 210.856C445.612 208.176 441.975 206.665 438.179 206.656V206.656Z" fill="#254A4C"/>
<path d="M358.987 230.417V330.854" stroke="#1C554E" stroke-width="4.9" stroke-miterlimit="10"/>
<path d="M449.824 330.854V230.417" stroke="#1C554E" stroke-width="4.9" stroke-miterlimit="10"/>
<path d="M449.824 296.625H103.259" stroke="#1C554E" stroke-width="2.16" stroke-miterlimit="10"/>
<path d="M103.669 230.417V330.854" stroke="#1C554E" stroke-width="4.9" stroke-miterlimit="10"/>
<path d="M194.506 330.854V230.417" stroke="#1C554E" stroke-width="4.9" stroke-miterlimit="10"/>
<path d="M100.45 229.353H455.741V234.718H100.45V229.353Z" fill="#1C554E"/>
<path d="M455.741 331.484V331.203C455.741 330.019 455.27 328.884 454.431 328.047C453.592 327.21 452.454 326.74 451.267 326.74H447.127C445.94 326.74 444.802 327.21 443.963 328.047C443.125 328.884 442.653 330.019 442.653 331.203" fill="#1C554E"/>
<path d="M360.319 327.192H356.58C355.509 327.192 354.482 327.616 353.724 328.372C352.967 329.127 352.542 330.152 352.542 331.22V331.476H364.357V331.22C364.357 330.152 363.932 329.127 363.175 328.372C362.417 327.616 361.39 327.192 360.319 327.192Z" fill="#1C554E"/>
<path d="M195.308 327.192H191.569C190.498 327.192 189.471 327.616 188.714 328.372C187.956 329.127 187.531 330.152 187.531 331.22V331.476H199.347V331.22C199.347 330.152 198.921 329.127 198.164 328.372C197.407 327.616 196.379 327.192 195.308 327.192Z" fill="#1C554E"/>
<path d="M105.547 327.192H101.807C100.736 327.192 99.7093 327.616 98.952 328.372C98.1947 329.127 97.7693 330.152 97.7693 331.22V331.476H109.585V331.22C109.585 330.152 109.16 329.127 108.402 328.372C107.645 327.616 106.618 327.192 105.547 327.192Z" fill="#1C554E"/>
<path d="M408.384 148.385C375.426 148.385 348.708 121.732 348.708 88.854C348.708 55.9758 375.426 29.3228 408.384 29.3228C441.343 29.3228 468.061 55.9758 468.061 88.854C468.061 121.732 441.343 148.385 408.384 148.385Z" fill="#EAFCE6"/>
<path d="M456.783 129.172H401.708C392.768 129.172 385.521 121.942 385.521 113.024V65.5099C385.521 56.5918 392.768 49.3623 401.708 49.3623L456.783 49.3623C465.722 49.3623 472.969 56.5918 472.969 65.5099V113.024C472.969 121.942 465.722 129.172 456.783 129.172Z" fill="#AFEEAE"/>
<path d="M407.104 118.739C399.685 120.621 391.352 124.198 393.102 109.575C394.426 98.2818 407.087 69.6915 415.189 66.1997C423.291 62.7079 426.688 64.556 427.935 76.3174C429.258 88.8369 431.136 112.641 407.104 118.739Z" fill="#1C3255"/>
<path d="M409.724 90.2763L405.9 89.2884C407.061 84.8086 409.314 82.9179 410.945 82.1259C412.081 81.5643 413.358 81.3481 414.616 81.5042C418.945 81.7937 422.505 80.0478 425.185 76.292C427.089 73.5194 428.343 70.3556 428.856 67.0344L432.767 67.571C432.166 71.5222 430.671 75.2852 428.395 78.5745C424.895 83.48 419.995 85.8476 414.241 85.3878H414.01C413.583 85.3707 411.013 85.2941 409.724 90.2763Z" fill="#E6E6E6"/>
<path d="M421.31 81.6404C421.343 85.728 420.076 89.7208 417.69 93.0442C417.323 93.5552 416.469 93.0442 416.836 92.5502C419.128 89.3739 420.351 85.554 420.328 81.6404C420.344 81.5217 420.402 81.4126 420.493 81.3337C420.583 81.2547 420.699 81.2112 420.819 81.2112C420.939 81.2112 421.055 81.2547 421.145 81.3337C421.236 81.4126 421.294 81.5217 421.31 81.6404Z" fill="#E6E6E6"/>
<path d="M420.038 87.8575C416.276 89.1795 412.915 91.438 410.274 94.4189C407.632 97.3998 405.798 101.004 404.944 104.891C404.816 105.512 403.86 105.248 403.996 104.635C404.886 100.581 406.799 96.8216 409.554 93.7124C412.31 90.6032 415.815 88.2478 419.739 86.8696C420.345 86.6652 420.593 87.6191 420.004 87.8235L420.038 87.8575Z" fill="#E6E6E6"/>
<path d="M411.5 92.729C413.831 97.5576 414.72 102.953 414.061 108.272C413.984 108.885 412.994 108.894 413.079 108.272C413.73 103.129 412.885 97.9088 410.646 93.2315C410.382 92.6609 411.227 92.1584 411.5 92.729Z" fill="#E6E6E6"/>
<path d="M454.426 118.739C461.845 120.621 470.178 124.198 468.427 109.575C467.079 98.2818 454.452 69.6915 446.341 66.1997C438.231 62.7079 434.842 64.556 433.595 76.3174C432.272 88.8369 430.428 112.641 454.426 118.739Z" fill="#1C3255"/>
<path d="M452.326 89.348C452.011 86.793 448.544 85.3962 447.093 85.4558H446.367C434.782 85.4558 430.146 74.1117 429.182 67.2814C428.584 62.9379 429.182 50.4355 429.182 49.9075L433.126 50.0778C433.126 50.2056 432.563 62.7591 433.126 66.7448C433.339 68.3034 435.542 81.964 446.965 81.5127C448.916 81.5407 450.817 82.1324 452.437 83.216C453.458 83.8179 454.332 84.6381 454.996 85.6175C455.66 86.5968 456.098 87.7109 456.279 88.8795L452.326 89.348Z" fill="#E6E6E6"/>
<path d="M440.528 81.6405C440.497 85.5553 441.72 89.3777 444.02 92.5502C444.387 93.0698 443.533 93.5552 443.166 93.0442C440.778 89.7216 439.507 85.7289 439.537 81.6405C439.537 81.5094 439.59 81.3838 439.683 81.2912C439.775 81.1985 439.901 81.1465 440.033 81.1465C440.164 81.1465 440.29 81.1985 440.383 81.2912C440.476 81.3838 440.528 81.5094 440.528 81.6405Z" fill="#E6E6E6"/>
<path d="M441.091 86.8696C445.025 88.246 448.541 90.6045 451.303 93.7203C454.064 96.8361 455.98 100.606 456.868 104.669C457.005 105.283 456.014 105.521 455.92 104.925C455.065 101.039 453.23 97.4353 450.589 94.4546C447.947 91.474 444.587 89.215 440.826 87.8916C440.229 87.6872 440.485 86.7334 441.091 86.9378V86.8696Z" fill="#E6E6E6"/>
<path d="M450.141 93.2315C447.928 97.9165 447.11 103.137 447.784 108.272C447.861 108.894 446.879 108.894 446.794 108.272C446.119 102.96 446.984 97.5658 449.287 92.729C449.56 92.1584 450.405 92.6609 450.141 93.2315Z" fill="#E6E6E6"/>
<path d="M410.758 75.2956C415.496 76.1562 419.936 78.2081 423.658 81.2573C424.144 81.6575 423.444 82.3559 422.958 81.9556C419.359 79.0234 415.068 77.059 410.493 76.2495C409.87 76.1302 410.134 75.1849 410.758 75.2956V75.2956Z" fill="#E6E6E6"/>
<path d="M439.102 80.2864C441.673 77.4024 445.178 75.5121 449.005 74.9465C449.628 74.8528 449.859 75.7981 449.27 75.9003C445.607 76.4331 442.253 78.2437 439.802 81.0103C439.375 81.4872 438.683 80.7889 439.102 80.3205V80.2864Z" fill="#E6E6E6"/>
<path d="M477.256 65.7015C468.638 64.2102 462.864 56.0322 464.359 47.4355C465.854 38.8387 474.052 33.0785 482.67 34.5698C491.287 36.0611 497.062 44.2391 495.567 52.8359C494.072 61.4326 485.874 67.1928 477.256 65.7015Z" fill="#3AAA35"/>
<path d="M472.654 50.2481L477.734 55.307L487.501 45.5554" stroke="white" stroke-width="3.03" stroke-miterlimit="10" stroke-linecap="round"/>
<path d="M374.611 200.43L375.567 198.522L381.312 198.735L381.44 200.43L378.743 205.097L373.885 201.358L374.611 200.43Z" fill="#F69491"/>
<path d="M378.111 198.718L378.35 203.13C379.505 202.437 380.588 201.632 381.586 200.728L381.347 198.224L378.111 198.718Z" fill="#D46F6C"/>
<path d="M374.261 200.362C375.602 200.453 376.88 200.963 377.915 201.818C379.076 202.67 380.843 200.873 381.39 200.405C381.492 200.311 381.646 200.405 381.663 200.566L382.346 206.733H365.271C365.162 206.716 365.064 206.657 364.997 206.57C364.931 206.483 364.9 206.373 364.912 206.264V204.97C364.904 204.88 364.924 204.789 364.968 204.71C365.012 204.631 365.079 204.567 365.16 204.527L374.261 200.362Z" fill="#3AAA35"/>
<path d="M373.296 200.686L376.054 202.27" stroke="white" stroke-width="0.28" stroke-miterlimit="10"/>
<path d="M372.101 201.299L374.85 202.883" stroke="white" stroke-width="0.28" stroke-miterlimit="10"/>
<path d="M414.6 197.875L414.446 195.755L418.553 192.365L420.456 194.358L420.567 199.749L414.472 199.051L414.6 197.875Z" fill="#F69491"/>
<path d="M416.324 192.919L418.885 198.029C419.51 196.836 420.022 195.587 420.413 194.298L417.929 191.786L416.324 192.919Z" fill="#D46F6C"/>
<path d="M414.019 198.105C415.156 197.395 416.488 197.058 417.827 197.143C419.295 197.143 419.645 194.665 419.807 193.966C419.807 193.821 420.012 193.804 420.123 193.966L424.306 198.523L410.476 208.538C410.377 208.588 410.262 208.598 410.156 208.566C410.05 208.534 409.96 208.464 409.904 208.368L409.144 207.32C409.086 207.251 409.049 207.167 409.039 207.078C409.028 206.989 409.044 206.898 409.084 206.818L414.019 198.105Z" fill="#3AAA35"/>
<path d="M413.353 199.076L416.529 199.017" stroke="white" stroke-width="0.28" stroke-miterlimit="10"/>
<path d="M412.636 200.217L415.82 200.158" stroke="white" stroke-width="0.28" stroke-miterlimit="10"/>
<path d="M363.418 50.4015C362.838 49.9075 362.394 49.7457 363.777 48.4937C365.16 47.2418 372.681 51.2276 373.33 50.3163C373.979 49.405 374.184 48.7833 376.233 49.4646C378.282 50.146 376.813 51.6193 376.813 51.6193C378.521 51.7301 377.531 54.251 377.531 54.251C378.384 55.537 378.077 60.2637 378.077 60.2637V60.3148L376.37 61.8052L376.293 61.703L376.207 61.6008L376.344 61.4901L372.605 58.9351C371.708 58.6304 370.907 58.0959 370.282 57.3851C369.54 56.5334 368.575 57.2659 367.721 57.1296C367.322 57.0217 366.958 56.8135 366.663 56.5249C366.101 56.3122 365.629 55.9159 365.322 55.4007C362.59 55.4007 360.388 52.701 364.392 51.1424L363.418 50.4015ZM377.428 60.4681C377.122 60.6412 376.864 60.887 376.677 61.1835L377.053 60.8599L377.428 60.4681Z" fill="#0E162E"/>
<path d="M375.644 125.773C375.644 125.773 373.441 152.005 373.236 159.252C373.031 166.5 374.483 198.803 374.483 198.803L383.626 198.965C383.626 198.965 390.021 144.766 398.899 127.289L375.644 125.773Z" fill="#254A4C"/>
<path d="M386.742 127.162C386.742 127.162 380.493 157.455 380.493 162.08C380.493 166.704 379.571 198.701 379.571 198.701" stroke="white" stroke-width="0.28" stroke-miterlimit="10"/>
<path d="M384.13 195.431H374.44" stroke="white" stroke-width="0.28" stroke-miterlimit="10"/>
<path d="M375.396 130.304C375.396 130.304 379.938 157.779 383.634 164.575C391.839 174.889 411.756 197.926 411.756 197.926L419.688 191.479L400.658 163.519C399.57 161.927 398.635 160.236 397.866 158.469C394.938 151.8 402.476 131.122 399.838 122.069L375.396 130.304Z" fill="#85E1B5"/>
<path d="M387.596 128.294C387.596 128.294 387.178 157.745 390.721 161.152C394.264 164.558 416.333 194.145 416.333 194.145" stroke="#0E162E" stroke-width="0.28" stroke-miterlimit="10"/>
<path d="M417.46 188.388L409.042 194.852" stroke="#0E162E" stroke-width="0.28" stroke-miterlimit="10"/>
<path d="M347.171 98.3671C347.171 98.3671 363.921 109.439 366.909 108.306C369.898 107.173 379.869 77.5525 372.467 76.309C372.467 76.309 370.521 74.9379 369.189 76.6923C367.857 78.4467 363.691 82.8839 361.13 98.4267C361.13 98.4267 348.324 94.1684 347.265 93.6574" fill="#F69491"/>
<path d="M360.277 95.4884C360.277 95.4884 365.135 68.5163 375.644 73.7455C381.543 76.6667 371.845 107.557 368.814 110.98L347.667 102.2L348.444 94.0577L360.277 95.4884Z" fill="white"/>
<path d="M382.798 70.9691C382.798 70.9691 394.272 69.6916 396.987 78.8044C399.702 87.9171 405.362 129.299 405.362 129.299L374.628 134.171L365.774 87.8405C365.371 85.4605 365.603 83.0164 366.449 80.7547C367.226 78.6681 368.156 76.3005 368.908 76.0365L379.613 69.5212L382.798 70.9691Z" fill="#39714F"/>
<path d="M380.868 70.3303L374.576 83.3522L371.127 74.3672" stroke="white" stroke-width="0.25" stroke-miterlimit="10"/>
<path d="M383.387 69.8364C383.387 69.8364 376.557 77.1352 376.412 89.8675C376.267 102.6 379.059 137.118 379.059 137.118L408.461 132.008C408.461 132.008 400.308 86.7419 399.275 83.9911C398.242 81.2402 398.618 73.2771 389.935 71.2928L383.387 69.8364Z" fill="white"/>
<path d="M384.71 70.3813L384.522 85.0896L380.92 86.4607L383.481 90.0888L377.65 107.667C377.65 107.667 375.174 88.5984 378.145 81.6488C381.116 74.6993 383.754 71.5396 383.754 71.5396L384.71 70.3813Z" fill="#228276"/>
<path d="M385.12 70.143L382.713 83.7185L379.972 85.2686L382.328 88.4367L377.274 105.981C377.274 105.981 374.798 86.9123 377.769 79.9627C380.74 73.0131 380.442 68.6611 380.442 68.6611L385.12 70.143Z" fill="white"/>
<path d="M372.075 79.0087L372.169 79.7923L376.25 135.661L369.241 137.365C369.241 137.365 363.948 87.8916 364.75 84.7404C365.553 81.5893 367.106 75.9087 371.128 74.3672L372.075 79.0087Z" fill="white"/>
<path d="M374.5 105.785L368.438 92.0307L370.624 88.7603L367.551 85.9243L369.676 75.4829L371.213 74.8867L374.5 105.785Z" fill="#228276"/>
<path d="M375.037 104.201L368.984 90.4467L371.17 87.1678L368.096 84.3317L370.222 73.8904L371.759 73.2942L375.037 104.201Z" fill="white"/>
<path d="M385.47 77.791C385.47 77.791 408.444 97.3793 406.028 102.907C404.619 106.151 399.685 103.196 395.843 100.19C392.774 97.7867 390.523 94.4972 389.397 90.7704L385.47 77.791Z" fill="#254A4C"/>
<path d="M413.012 123.193L405.61 122.427C405.61 122.427 403.364 129.282 403.663 130.304C404.227 132.263 406.088 127.673 406.088 127.673C406.088 127.673 405.567 137.833 406.207 137.808C406.848 137.782 407.488 133.694 407.795 131.906C408.103 130.117 406.942 137.867 407.428 138.259C408.376 138.906 409.989 133.149 409.878 131.565C409.878 131.565 409.605 138.676 410.075 137.765C410.544 136.854 411.407 136.062 411.569 132.57C411.731 129.078 411.569 136.53 412.03 136.615C413.276 136.811 413.012 123.193 413.012 123.193Z" fill="#F69491"/>
<path d="M387.101 82.8924C387.101 82.8924 381.33 76.505 386.99 73.2261C391.959 70.356 402.067 76.3346 411.919 95.2586C414.156 99.5169 415.59 119.727 414.122 125.45L403.023 122.35L401.478 102.762L387.101 82.8924Z" fill="white"/>
<path d="M377.275 105.981C377.317 106.483 377.488 106.884 377.65 106.832C377.812 106.781 377.915 106.407 377.872 105.904C377.829 105.402 377.659 105.001 377.496 105.052C377.334 105.104 377.232 105.478 377.275 105.981Z" fill="white"/>
<path d="M377.444 63.3467L379.468 69.5127L374.619 79.8008L372.57 73.7284L371.946 68.4056L376.164 62.5376C376.544 62.6905 376.905 62.8877 377.24 63.1252C377.296 63.2093 377.365 63.2841 377.444 63.3467Z" fill="#F69491"/>
<path d="M376.164 62.5376L371.947 68.4056L372.229 71.5908C372.229 71.5908 376.711 69.2487 376.019 65.2885" fill="#0E162E"/>
<path d="M376.292 60.6724C376.315 60.7075 376.346 60.7365 376.382 60.7566C376.419 60.7767 376.46 60.7872 376.502 60.7872C376.543 60.7872 376.584 60.7767 376.621 60.7566C376.657 60.7365 376.688 60.7075 376.711 60.6724C377.044 60.1614 377.769 59.4034 378.418 61.0045C379.323 63.1763 376.873 63.2955 376.711 63.6447C376.463 64.343 375.686 66.6851 374.03 67.903C373.447 68.3487 372.745 68.6118 372.013 68.6588C371.28 68.7058 370.55 68.5346 369.915 68.167C368.447 67.2642 368.071 68.167 365.877 55.605C366.306 56.1194 366.885 56.4884 367.533 56.661C368.495 56.8264 369.484 56.7141 370.385 56.3374C371.085 55.9712 372.271 59.7441 373.748 56.0904C374.474 57.172 375.703 59.7696 376.292 60.6724Z" fill="#F69491"/>
<path d="M378.043 60.9194L377.001 62.1713C377.001 62.1713 376.976 59.7526 378.043 60.9194Z" fill="#EC8492"/>
<path d="M368.814 61.5922C368.873 61.8648 369.027 62.0606 369.164 62.0351C369.3 62.0095 369.352 61.7626 369.292 61.49C369.232 61.2175 369.078 61.0216 368.95 61.0472C368.822 61.0727 368.762 61.3197 368.814 61.5922Z" fill="#0E162E"/>
<path d="M367.2 61.6944C367.251 61.967 367.413 62.1628 367.541 62.1288C367.67 62.0947 367.738 61.8562 367.678 61.5837C367.618 61.3112 367.465 61.1153 367.328 61.1494C367.191 61.1834 367.106 61.4219 367.2 61.6944Z" fill="#0E162E"/>
<path d="M370.393 59.0288C370.803 59.1991 370.001 58.1771 369.48 58.1771C369.366 58.1642 369.251 58.1741 369.142 58.2063C369.032 58.2386 368.93 58.2924 368.842 58.3647C368.753 58.437 368.68 58.5262 368.627 58.6271C368.574 58.728 368.542 58.8385 368.532 58.9522C369.142 58.7579 369.801 58.7851 370.393 59.0288V59.0288Z" fill="#0E162E"/>
<path d="M366.688 59.7015C366.962 59.5994 367.25 59.5447 367.542 59.5397C367.455 59.3473 367.303 59.1911 367.113 59.0979C366.923 59.0047 366.707 58.9802 366.5 59.0287" fill="#0E162E"/>
<path d="M367.96 61.5155L367.678 63.7639C367.677 63.7724 367.678 63.7811 367.68 63.7894C367.683 63.7976 367.687 63.8052 367.692 63.8117C367.698 63.8182 367.705 63.8233 367.713 63.8268C367.721 63.8304 367.729 63.8321 367.738 63.832L368.592 63.7043C368.592 63.7043 368.643 63.7043 368.592 63.6362L367.986 61.5155C367.977 61.5134 367.968 61.5134 367.96 61.5155V61.5155Z" fill="#D46F6C"/>
<path d="M347.256 93.683C347.256 93.683 343.278 88.2153 343.782 89.8846C344.285 91.5538 344.542 92.3629 344.542 92.3629C344.542 92.3629 339.001 90.9151 338.753 91.111C337.976 91.7412 342.467 93.3168 342.467 93.3168C342.467 93.3168 338.454 91.7668 338.198 92.414C337.942 93.0613 341.81 94.5006 341.81 94.5006C341.81 94.5006 337.387 92.7377 337.934 93.5723C338.48 94.4069 341.596 95.8633 341.596 95.8633C341.596 95.8633 338.045 94.4325 338.506 95.2075C338.967 95.9825 347.342 98.2905 347.342 98.2905" fill="#F69491"/>
<path d="M342.962 94.6707C342.7 93.0222 342.895 91.3335 343.526 89.7874C344.156 88.2413 345.198 86.8966 346.54 85.8986C349.033 83.8631 351.756 82.1087 355.077 82.6282C357.638 83.0115 359.901 84.3315 362.146 85.4217C363.853 86.2733 366.21 87.6871 368.225 87.125C368.79 86.9009 369.299 86.556 369.716 86.1146C370.134 85.6732 370.449 85.146 370.641 84.57C371.509 82.2984 372.01 79.9039 372.126 77.4757C372.194 76.7347 373.364 76.7262 373.296 77.4757C372.997 80.6098 372.698 84.9873 370.205 87.3038C368.66 88.7346 366.577 88.5473 364.724 87.883C360.456 86.35 355.453 81.9213 350.808 84.4763C348.597 85.6857 346.19 87.2783 344.892 89.5011C344.059 91.1041 343.791 92.9401 344.132 94.7133C344.235 95.4543 343.065 95.4457 342.962 94.7133V94.6707Z" fill="#66BC5F"/>
<path d="M345.464 96.3487C345.324 95.9196 345.113 95.5167 344.841 95.1564C344.702 94.9766 344.522 94.8336 344.315 94.74C344.108 94.6464 343.881 94.6051 343.654 94.6198C343.363 94.6953 343.099 94.8499 342.891 95.0664C342.683 95.283 342.539 95.553 342.476 95.8463C342.386 96.1226 342.329 96.4084 342.305 96.6979C342.305 96.7661 342.305 96.8597 342.382 96.8938C342.424 96.9059 342.468 96.9059 342.51 96.8938C343.364 96.5787 344.38 96.8342 345.25 96.5106" fill="#66BC5F"/>
<path d="M342.348 97.558L345.575 96.8596C345.675 96.8372 345.763 96.7764 345.819 96.6905C345.875 96.6045 345.894 96.5001 345.874 96.3997C345.864 96.3497 345.844 96.3022 345.815 96.26C345.786 96.2177 345.749 96.1817 345.706 96.1539C345.663 96.1262 345.615 96.1072 345.565 96.0983C345.515 96.0893 345.463 96.0904 345.413 96.1017L342.177 96.8C342.077 96.8225 341.99 96.8832 341.934 96.9692C341.878 97.0551 341.858 97.1595 341.879 97.2599V97.2599C341.903 97.3605 341.966 97.4478 342.053 97.5034C342.141 97.5589 342.246 97.5785 342.348 97.558V97.558Z" fill="#1F861B"/>
<path d="M377.479 61.3197C382.166 60.3147 380.621 67.145 379.912 69.5127C379.444 71.3021 378.738 73.0207 377.812 74.6226C376.335 76.9732 372.937 78.8809 370.495 76.7773C368.054 74.6737 368.421 70.8157 368.327 68.0819C368.327 67.3239 369.471 67.3324 369.497 68.0819C369.573 70.3473 369.394 73.0045 370.581 75.0485C370.918 75.6884 371.493 76.1705 372.183 76.3904C372.873 76.6103 373.623 76.5505 374.269 76.2238C375.274 75.7458 376.134 75.0113 376.762 74.0946C377.513 72.8226 378.107 71.4642 378.529 70.0492C379.133 68.383 379.495 66.6394 379.605 64.8711C379.605 63.5936 379.391 62.1373 377.786 62.4779C377.052 62.6312 376.745 61.507 377.479 61.3537V61.3197Z" fill="#66BC5F"/>
<path d="M377.069 60.7832H377.325C377.579 60.8251 377.806 60.9646 377.958 61.1716C378.109 61.3786 378.173 61.6366 378.137 61.8904V61.8904C378.122 62.0199 378.081 62.1452 378.017 62.2587C377.953 62.3722 377.866 62.4717 377.763 62.5512C377.659 62.6307 377.541 62.6885 377.414 62.7213C377.288 62.7541 377.156 62.7611 377.027 62.742H376.771L377.069 60.7832Z" fill="#1F861B"/>
<path d="M170.321 120.594C145.693 96.0267 145.693 56.1949 170.321 31.6274C194.948 7.05995 234.877 7.05994 259.504 31.6274C284.131 56.1949 284.131 96.0267 259.504 120.594C234.877 145.162 194.948 145.162 170.321 120.594Z" fill="#EAFCE6"/>
<path opacity="0.3" d="M226.186 107.739C227.828 107.923 230.952 108.346 232.306 108.13C233.25 108.098 234.194 108.013 235.134 107.877C236.091 107.633 239.984 107.09 240.459 107.414C240.935 107.738 236.139 109.208 236.212 109.369C236.286 109.53 237.8 109.214 237.8 109.214C237.8 109.214 240.968 108.793 240.749 109.283C240.53 109.773 233.883 111.088 235.283 110.821C235.378 110.793 240.827 109.518 240.698 110.256C240.617 110.743 235.72 111.81 235.544 111.945C235.368 112.081 239.521 110.777 239.474 111.383C239.431 111.647 237.358 112.325 236.653 112.486C235.764 112.694 232.088 113.653 226.156 114.636C226.137 112.338 226.137 110.042 226.186 107.739Z" fill="#72C66E" stroke="white" stroke-width="0.2" stroke-miterlimit="10"/>
<path d="M204.188 98.4693C206.226 98.4693 208.18 97.6617 209.621 96.2243C211.062 94.7868 211.871 92.8372 211.871 90.8043V42.3277H196.504V90.8214C196.504 92.8542 197.314 94.8039 198.755 96.2413C200.196 97.6788 202.15 98.4863 204.188 98.4863V98.4693Z" fill="white"/>
<path d="M198.621 60.6638V90.8127C198.621 92.2877 199.208 93.7022 200.254 94.7452C201.299 95.7881 202.717 96.374 204.196 96.374V96.374C205.675 96.374 207.093 95.7881 208.138 94.7452C209.184 93.7022 209.771 92.2877 209.771 90.8127V60.6638H198.621Z" fill="#3AAA35"/>
<path d="M211.359 46.0493H196.803C195.752 46.0493 194.899 45.199 194.899 44.1501V38.461C194.899 37.4121 195.752 36.5618 196.803 36.5618H211.359C212.411 36.5618 213.263 37.4121 213.263 38.461V44.1501C213.263 45.199 212.411 46.0493 211.359 46.0493Z" fill="#3AAA35"/>
<path d="M204.418 89.8931H196.513V63.6874H204.418V89.8931Z" fill="#BFFCA3"/>
<path d="M198.997 66.3105V85.3282" stroke="#FBFAF6" stroke-width="0.82" stroke-miterlimit="10"/>
<path d="M201.481 66.3105V85.3282" stroke="#FBFAF6" stroke-width="0.82" stroke-miterlimit="10"/>
<path d="M198.673 37.9502V44.2014" stroke="#FBFAF6" stroke-width="0.58" stroke-miterlimit="10" stroke-linecap="round"/>
<path d="M202.301 37.9502V44.2014" stroke="#FBFAF6" stroke-width="0.58" stroke-miterlimit="10" stroke-linecap="round"/>
<path d="M205.93 37.9502V44.2014" stroke="#FBFAF6" stroke-width="0.58" stroke-miterlimit="10" stroke-linecap="round"/>
<path d="M209.558 37.9502V44.2014" stroke="#FBFAF6" stroke-width="0.58" stroke-miterlimit="10" stroke-linecap="round"/>
<path d="M211.351 46.0579C210.71 46.5007 196.368 55.0599 196.368 55.0599L196.803 46.0579H211.351Z" fill="#EAFCE6"/>
<path d="M224.242 72.9791C226.28 72.9791 228.234 72.1715 229.675 70.734C231.116 69.2966 231.926 67.347 231.926 65.3141V16.8545H216.559V65.3311C216.559 67.364 217.368 69.3136 218.809 70.7511C220.25 72.1885 222.204 72.9961 224.242 72.9961V72.9791Z" fill="white"/>
<path d="M218.667 35.1736V65.3224C218.667 66.7974 219.254 68.212 220.3 69.2549C221.345 70.2979 222.763 70.8838 224.242 70.8838V70.8838C225.72 70.8838 227.138 70.2979 228.184 69.2549C229.229 68.212 229.817 66.7974 229.817 65.3224V35.1736H218.667Z" fill="#3AAA35"/>
<path d="M231.404 20.5676L216.848 20.5676C215.797 20.5676 214.944 19.7173 214.944 18.6684V12.9793C214.944 11.9304 215.797 11.0801 216.848 11.0801L231.404 11.0801C232.456 11.0801 233.308 11.9304 233.308 12.9793V18.6684C233.308 19.7173 232.456 20.5676 231.404 20.5676Z" fill="#3AAA35"/>
<path d="M224.472 64.4028H216.566V38.1972H224.472V64.4028Z" fill="#BFFCA3"/>
<path d="M219.051 40.8203V59.8379" stroke="#FBFAF6" stroke-width="0.82" stroke-miterlimit="10"/>
<path d="M221.527 40.8203V59.8379" stroke="#FBFAF6" stroke-width="0.82" stroke-miterlimit="10"/>
<path d="M218.727 12.46V18.7112" stroke="#FBFAF6" stroke-width="0.58" stroke-miterlimit="10" stroke-linecap="round"/>
<path d="M222.355 12.46V18.7112" stroke="#FBFAF6" stroke-width="0.58" stroke-miterlimit="10" stroke-linecap="round"/>
<path d="M225.984 12.46V18.7112" stroke="#FBFAF6" stroke-width="0.58" stroke-miterlimit="10" stroke-linecap="round"/>
<path d="M229.612 12.46V18.7112" stroke="#FBFAF6" stroke-width="0.58" stroke-miterlimit="10" stroke-linecap="round"/>
<path d="M231.362 20.5676C231.277 20.5676 217.31 28.8543 216.37 29.5697L216.849 20.5676H231.362Z" fill="#EAFCE6"/>
<path d="M209.694 19.4946C209.694 15.8325 203.044 5.97876 203.044 5.97876C203.044 5.97876 196.359 15.8325 196.359 19.4946C196.421 21.212 197.148 22.8384 198.388 24.0315C199.627 25.2247 201.283 25.8914 203.005 25.8914C204.728 25.8914 206.383 25.2247 207.623 24.0315C208.863 22.8384 209.59 21.212 209.652 19.4946H209.694Z" fill="#3AAA35"/>
<path d="M197.341 16.5052C197.462 17.0501 197.655 17.5769 197.913 18.0722C198.597 19.325 199.46 20.4724 200.474 21.4789C201.629 22.6 203.178 23.2273 204.79 23.2273C206.402 23.2273 207.95 22.6 209.105 21.4789C209.216 21.3511 209.319 21.2234 209.43 21.1042C209.453 21.095 209.473 21.0804 209.49 21.0616C209.138 22.6723 208.198 24.0946 206.852 25.0507C205.506 26.0068 203.851 26.4281 202.21 26.2323C200.569 26.0365 199.061 25.2376 197.979 23.9917C196.897 22.7459 196.319 21.1424 196.359 19.4945C196.453 18.3881 196.742 17.3068 197.213 16.3008L197.341 16.5052Z" fill="#1F861B"/>
<path d="M203.743 21.4194H202.027V15.9688H203.743V21.4194Z" fill="white"/>
<path d="M200.149 19.5541V17.8423H205.613V19.5541H200.149Z" fill="white"/>
<path d="M197.58 195.457L200.055 206.205H216.541V204.91L207.167 199.476L206.014 195.661L197.58 195.457Z" fill="#F69491"/>
<path d="M207.167 199.476C206.621 199.127 197.579 195.465 197.579 195.465L206.014 195.661L207.167 199.476Z" fill="#E8716F"/>
<path d="M207.287 199.476L204.495 202.457C204.329 202.642 204.126 202.79 203.9 202.894C203.673 202.997 203.428 203.052 203.179 203.057C202.93 203.062 202.683 203.016 202.453 202.921C202.222 202.827 202.014 202.686 201.84 202.508L198.664 199.357L200.176 206.17H216.661V204.91L207.287 199.476Z" fill="#EAFCE6" stroke="#EAFCE6" stroke-width="1.21" stroke-miterlimit="10"/>
<path d="M175.176 195.61L173.289 206.111H157.179V204.842L166.34 199.528L166.51 195.797L175.176 195.61Z" fill="#F69491"/>
<path d="M166.226 199.528L166.397 195.797L175.062 195.61L166.226 199.528Z" fill="#E8716F"/>
<path d="M166.16 199.527L168.892 202.44C169.054 202.616 169.249 202.758 169.467 202.856C169.685 202.955 169.921 203.009 170.16 203.014C170.399 203.02 170.637 202.977 170.859 202.889C171.082 202.8 171.284 202.668 171.453 202.5L174.245 199.408L173.093 206.111H157V204.842L166.16 199.527Z" fill="#EAFCE6" stroke="#EAFCE6" stroke-width="1.18" stroke-miterlimit="10"/>
<path d="M195.93 119.003L206.286 198.207L193.967 198.105L185.694 148.445C185.02 146.418 182.766 146.435 182.04 148.445L175.628 198.301L163.113 198.855C163.113 198.855 164.223 149.313 173.212 115.783L195.93 119.003Z" fill="#85E1B5"/>
<path d="M196.528 127.639C196.528 127.639 196.597 141.325 184.508 139.911C172.419 138.497 170.677 125.032 170.677 125.032L196.528 127.639Z" fill="#254A4C"/>
<path d="M175.942 195.167L163 195.227" stroke="white" stroke-width="0.42" stroke-miterlimit="10"/>
<path d="M208.252 195.167L196.257 195.227" stroke="white" stroke-width="0.42" stroke-miterlimit="10"/>
<path d="M229.401 114.121C229.399 114.755 223.664 115.152 223.664 115.152C223.664 115.152 215.712 116.681 210.575 117.384L199.979 119.396C197.257 115.794 187.587 83.1556 194.036 83.5828C204.573 84.274 210.296 106.392 210.296 106.392L222.044 107.658L222.052 107.734C222.563 107.62 227.524 107.853 227.713 107.773C227.713 107.773 237.907 110.598 238.943 112.288C239.979 113.977 233.925 111.582 233.13 111.289C232.335 110.995 229.401 114.121 229.401 114.121Z" fill="#EE8881"/>
<path d="M200.362 95.8716C200.293 105.087 196.016 115.613 197.365 117.844L205.108 117.368C202.786 113.91 202.001 110.776 200.362 95.8716Z" fill="#D46F6C"/>
<path d="M210.29 105.904C210.29 105.904 207.976 84.9618 198.227 81.206C192.191 78.8639 193.497 109.362 195.828 113.228L210.29 105.904Z" fill="#85E1B5"/>
<path d="M206.952 107.642L195.854 113.212C193.523 109.345 195.427 87.0059 201.659 85.2429L206.952 107.642Z" fill="#254A4C"/>
<path d="M210.137 102.693L194.94 109.149" stroke="white" stroke-width="0.12" stroke-miterlimit="10"/>
<path d="M174.946 87.5168C177.626 79.0513 186.505 78.4125 186.505 78.4125L190.518 77.2883L190.569 77.365L195.93 84.3145L197.416 81.7596L197.518 80.7205L199.226 81.6744C199.986 81.9214 202.641 85.6857 203.204 87.7978C203.83 90.4148 204.057 93.1106 203.879 95.795L198.808 133.898L167.885 129.878C167.885 129.878 172.12 96.4337 174.946 87.5168Z" fill="#85E1B5"/>
<path d="M201.532 130.449L171.233 125.969" stroke="white" stroke-width="0.12" stroke-miterlimit="10"/>
<path d="M198.653 81.3509L196.903 91.0088L188.622 77.6292" stroke="white" stroke-width="0.12" stroke-miterlimit="10"/>
<path d="M196.22 68.4396L196.946 67.3921C196.946 67.3921 203.025 68.4822 204.536 67.6731C206.047 66.864 206.124 63.8747 206.124 63.8747C206.124 63.8747 208.958 63.3807 207.567 62.4269C206.175 61.473 206.713 61.5071 206.713 61.5071C206.713 61.5071 210.649 60.9705 208.591 59.2076C206.534 57.4447 195 58.5603 195 58.5603C192.771 58.9862 191.115 70.0748 194.88 69.8278" fill="#0F1032"/>
<path d="M205.364 64.3176C205.364 64.3176 204.195 75.0145 200.899 78.0719C199.482 77.859 198.714 76.4282 197.843 76.3005C197.756 77.8597 197.796 79.4233 197.962 80.9761C197.775 81.7596 196.332 87.9853 196.332 87.9853L190.082 77.5013L193.028 69.6831C193.028 69.6831 192.464 69.7342 192.106 68.8314C191.969 68.3808 191.927 67.9067 191.983 67.4391C192.038 66.9715 192.191 66.5205 192.43 66.1146C193.011 65.1778 194.94 65.6292 195.128 66.6C195.188 66.9152 195.461 67.2814 195.905 66.9152C196.349 66.5489 197.535 62.4184 198.773 62.7761C200.575 63.3691 202.411 63.8526 204.271 64.2239C204.63 64.3002 204.998 64.3316 205.364 64.3176V64.3176Z" fill="#F69491"/>
<path d="M194.104 67.1365C194.104 67.2387 193.25 65.9867 192.567 67.5964Z" fill="#D46F6C"/>
<path d="M198.628 76.854L196.408 74.563L197.877 81.4104L198.628 76.854Z" fill="#D46F6C"/>
<path d="M203.349 71.02C203.298 71.3011 203.349 71.5566 203.503 71.5821C203.656 71.6077 203.793 71.3948 203.844 71.1052C203.895 70.8156 203.844 70.5686 203.69 70.5431C203.537 70.5175 203.4 70.7305 203.349 71.02Z" fill="#0F1032"/>
<path d="M201.215 70.4495C201.163 70.7391 201.215 70.9861 201.377 71.0116C201.539 71.0372 201.667 70.8242 201.718 70.5432C201.769 70.2621 201.718 70.0066 201.556 69.9811C201.394 69.9555 201.266 70.1685 201.215 70.4495Z" fill="#0F1032"/>
<path d="M202.957 69.5042C202.88 70.3558 202.855 72.519 202.855 72.519L201.497 72.255L202.957 69.5042Z" fill="#D46F6C"/>
<path d="M202.24 67.4176C202.436 67.4687 203.093 66.9492 202.376 66.6852C202.038 66.6108 201.688 66.6056 201.347 66.67C201.007 66.7344 200.683 66.8671 200.395 67.0599C200.233 67.2814 201.138 67.1621 202.24 67.4176Z" fill="#0F1032"/>
<path d="M204.715 69.1551C204.92 69.1551 205.501 68.5844 204.792 68.3034C204.083 68.0223 203.563 68.7377 203.4 68.9251C203.238 69.1125 203.622 68.8996 204.715 69.1551Z" fill="#0F1032"/>
<path d="M221.807 107.606L222.044 107.658L222.052 107.734C222.564 107.621 227.524 107.853 227.713 107.773C227.713 107.773 237.908 110.598 238.944 112.288C239.98 113.977 233.925 111.582 233.13 111.289C232.335 110.996 229.43 114.144 229.43 114.144C229.428 114.778 223.692 115.175 223.692 115.175C223.692 115.175 222.389 115.432 220.509 115.766C221.022 113.049 221.467 110.339 221.807 107.606Z" fill="white"/>
<path d="M237.611 113.757C237.611 113.757 240.446 113.85 239.695 113.194C238.943 112.539 233.163 111.397 233.163 111.397L237.611 113.757Z" fill="white"/>
<path d="M242.718 121.847L245.279 125.969" stroke="#12AC0F" stroke-width="0.52" stroke-miterlimit="10"/>
<path d="M239.764 121.575L244.014 118.942C244.164 118.849 244.271 118.701 244.311 118.529C244.351 118.358 244.322 118.177 244.228 118.027L238.666 109.092L233.285 112.426L238.847 121.361C238.94 121.511 239.089 121.617 239.261 121.658C239.433 121.698 239.614 121.668 239.764 121.575V121.575Z" fill="#72C66E"/>
<path d="M241.789 122.396L243.863 121.111C243.963 121.049 244.034 120.95 244.061 120.835C244.088 120.721 244.068 120.601 244.006 120.501L241.137 115.892L238.316 117.64L241.185 122.249C241.246 122.347 241.344 122.418 241.457 122.445C241.57 122.473 241.689 122.455 241.789 122.396V122.396Z" fill="#72C66E"/>
<path d="M238.834 108.349L232.678 112.164C232.622 112.198 232.572 112.243 232.533 112.296C232.494 112.35 232.466 112.41 232.451 112.475C232.436 112.539 232.434 112.606 232.445 112.671C232.456 112.736 232.481 112.798 232.516 112.854V112.854C232.586 112.965 232.698 113.043 232.826 113.072C232.954 113.1 233.088 113.077 233.199 113.007L239.363 109.192C239.419 109.158 239.467 109.113 239.505 109.06C239.544 109.008 239.571 108.948 239.586 108.885C239.601 108.821 239.604 108.756 239.593 108.692C239.583 108.627 239.56 108.566 239.525 108.51V108.51C239.455 108.398 239.343 108.318 239.213 108.287C239.083 108.257 238.947 108.279 238.834 108.349V108.349Z" fill="#12AC0F"/>
<path d="M235.922 106.228L232.072 108.613C232.003 108.657 231.953 108.726 231.934 108.805C231.915 108.884 231.928 108.968 231.969 109.039V109.039C231.991 109.074 232.02 109.104 232.053 109.129C232.087 109.153 232.125 109.17 232.166 109.18C232.206 109.189 232.248 109.191 232.289 109.184C232.33 109.177 232.369 109.163 232.405 109.141L236.247 106.756C236.283 106.736 236.314 106.709 236.339 106.676C236.364 106.643 236.382 106.606 236.391 106.566C236.401 106.526 236.402 106.484 236.395 106.443C236.387 106.403 236.372 106.364 236.349 106.33C236.329 106.294 236.301 106.263 236.269 106.238C236.236 106.213 236.198 106.196 236.158 106.186C236.118 106.176 236.076 106.175 236.036 106.182C235.995 106.19 235.956 106.205 235.922 106.228Z" fill="#12AC0F"/>
<path d="M233.933 107.735L238.372 114.864" stroke="#12AC0F" stroke-width="2.08" stroke-miterlimit="10"/>
<path d="M238.834 120.519C239.124 120.365 239.568 120.059 239.85 119.914" stroke="white" stroke-width="0.52" stroke-miterlimit="10" stroke-linecap="round"/>
<path d="M238.406 119.667C238.679 119.522 239.149 119.233 239.431 119.088" stroke="white" stroke-width="0.52" stroke-miterlimit="10" stroke-linecap="round"/>
<path d="M241.532 122.06C241.564 121.975 241.578 121.883 241.57 121.792C241.563 121.7 241.535 121.612 241.489 121.532C241.451 121.46 241.395 121.398 241.327 121.354C241.252 121.288 241.16 121.243 241.062 121.226C241.038 121.321 241.038 121.42 241.062 121.515C241.066 121.599 241.09 121.681 241.13 121.754C241.221 121.902 241.364 122.012 241.532 122.06Z" fill="white"/>
<path d="M237.843 118.892L238.773 118.313" stroke="white" stroke-width="0.52" stroke-miterlimit="10" stroke-linecap="round"/>
<path d="M237.356 118.015L238.312 117.444" stroke="white" stroke-width="0.52" stroke-miterlimit="10" stroke-linecap="round"/>
<path d="M232.968 112.53C233.06 112.555 233.155 112.56 233.249 112.547C233.343 112.534 233.433 112.502 233.515 112.454C233.582 112.406 233.643 112.349 233.694 112.283C233.757 112.201 233.798 112.105 233.813 112.002C233.715 111.977 233.613 111.977 233.515 112.002C233.43 112.012 233.348 112.042 233.276 112.087C233.197 112.136 233.129 112.201 233.076 112.277C233.023 112.353 232.986 112.439 232.968 112.53V112.53Z" fill="white"/>
<path d="M234.769 111.372C235.203 111.269 235.614 111.087 235.982 110.835C236.166 110.717 236.34 110.583 236.502 110.435C236.67 110.286 236.819 110.117 236.946 109.933C236.727 109.987 236.512 110.061 236.306 110.154C236.108 110.246 235.917 110.351 235.734 110.469C235.363 110.712 235.036 111.018 234.769 111.372Z" fill="white"/>
<path d="M46.5592 249.822C26.0315 229.344 26.0315 196.143 46.5592 175.665C67.087 155.187 100.369 155.187 120.897 175.665C141.424 196.143 141.424 229.344 120.897 249.822C100.369 270.3 67.0869 270.3 46.5592 249.822Z" fill="#EAFCE6"/>
<path d="M97.8916 66.387V66.5062L85.7515 66.6936V66.5743C85.7286 65.0692 86.3056 63.6165 87.3557 62.5354C88.4058 61.4543 89.8432 60.8332 91.352 60.8086H92.0862C92.8353 60.7916 93.5804 60.9228 94.2785 61.1945C94.9766 61.4662 95.6138 61.8731 96.1535 62.3917C96.6932 62.9102 97.1246 63.5303 97.4229 64.216C97.7213 64.9017 97.8805 65.6395 97.8916 66.387ZM93.0168 63.6787C93.0146 63.5169 92.9802 63.3571 92.9159 63.2086C92.8515 63.0601 92.7583 62.9258 92.6416 62.8134C92.525 62.701 92.3872 62.6127 92.2362 62.5536C92.0852 62.4946 91.9239 62.4659 91.7618 62.4693C91.4335 62.4693 91.1186 62.5994 90.8864 62.831C90.6543 63.0626 90.5238 63.3767 90.5238 63.7042C90.5238 64.0317 90.6543 64.3459 90.8864 64.5775C91.1186 64.809 91.4335 64.9392 91.7618 64.9392C91.9273 64.9392 92.0912 64.9065 92.244 64.843C92.3969 64.7796 92.5356 64.6866 92.6522 64.5694C92.7689 64.4523 92.8611 64.3133 92.9237 64.1604C92.9862 64.0075 93.0179 63.8438 93.0168 63.6787V63.6787Z" fill="#1F861B"/>
<path d="M129.051 173.012L58.8561 174.087C56.9562 174.116 55.3924 172.603 55.3632 170.708L53.8375 71.6203C53.8083 69.725 55.3248 68.165 57.2248 68.1358L127.419 67.0603C129.319 67.0312 130.883 68.544 130.912 70.4393L132.438 169.527C132.467 171.422 130.951 172.982 129.051 173.012Z" fill="#254A4C"/>
<path d="M128.727 166.436L59.2322 167.5L57.7703 72.5598L127.265 71.495L128.727 166.436Z" fill="#AFD2AE"/>
<path d="M133.151 133.541L125.759 133.655L125.645 126.28L133.038 126.167L133.151 133.541Z" fill="#3AAA35"/>
<path d="M132.844 107.986L122.284 108.148L122.171 100.774L132.73 100.612L132.844 107.986Z" fill="#3AAA35"/>
<path d="M133.128 126.605L122.219 126.772L122.105 119.397L133.015 119.23L133.128 126.605Z" fill="white"/>
<path d="M126.97 111.754L99.1387 108.669L102.999 74.0072L130.831 77.0919L126.97 111.754Z" fill="#AFEEAE"/>
<g style="mix-blend-mode:multiply" opacity="0.43">
<path d="M130.112 81.981L130.001 83.3437L123.607 81.2571L130.112 81.981Z" fill="#0C5209"/>
</g>
<path d="M119.142 165.563L59.184 166.483L57.7326 71.9482L124.964 70.9177L126.305 158.196L119.142 165.563Z" fill="white"/>
<path d="M129.745 85.7964L123.598 85.1151C123.09 85.0594 122.624 84.8048 122.304 84.4072C121.984 84.0096 121.835 83.5015 121.89 82.9945V82.9945C121.948 82.4884 122.204 82.0257 122.602 81.7068C123 81.3878 123.508 81.2385 124.016 81.2911L131.648 82.1428C132.157 82.1985 132.622 82.4531 132.942 82.8507C133.262 83.2483 133.411 83.7564 133.356 84.2634L133.296 84.8C133.242 85.3195 132.989 85.7982 132.59 86.1362C132.191 86.4742 131.676 86.6453 131.153 86.614L129.736 86.4607" stroke="#BFFCA3" stroke-width="0.32" stroke-miterlimit="10"/>
<path d="M106.29 73.7995L78.581 74.2241C77.0487 74.2476 75.7876 73.0275 75.764 71.499L75.7194 68.6037C75.6959 67.0752 76.9189 65.8171 78.4511 65.7936L106.16 65.369C107.692 65.3456 108.954 66.5656 108.977 68.0941L109.022 70.9894C109.045 72.5179 107.822 73.776 106.29 73.7995Z" fill="#D86A6A"/>
<path d="M118.74 165.572L118.63 158.29L125.903 158.179L120.149 165.495L118.74 165.572Z" fill="#BDF1BC"/>
<path d="M120.192 165.555L120.081 158.265L127.363 158.154L120.192 165.555Z" fill="white"/>
<path d="M102.963 77.447L82.0234 77.7678L81.9208 71.1001L102.86 70.7792L102.963 77.447Z" fill="#1F861B"/>
<path d="M75.8063 74.2752L109.098 73.7651L109.011 68.1192C109 67.3852 108.697 66.6857 108.168 66.1747C107.64 65.6636 106.93 65.3829 106.194 65.3941L78.4596 65.8191C77.7238 65.8304 77.0226 66.1328 76.5103 66.6598C75.998 67.1868 75.7166 67.8952 75.7279 68.6292L75.8149 74.2836L75.8063 74.2752Z" fill="#3AAA35"/>
<path d="M118.066 81.734C118.05 81.0637 117.837 80.4128 117.453 79.8628C117.069 79.3127 116.53 78.888 115.905 78.6419C115.28 78.3958 114.596 78.3391 113.939 78.4791C113.281 78.6191 112.68 78.9494 112.21 79.4288C111.74 79.9081 111.422 80.5151 111.297 81.1738C111.171 81.8324 111.243 82.5134 111.504 83.1315C111.764 83.7495 112.202 84.2771 112.762 84.6481C113.321 85.0192 113.978 85.2172 114.651 85.2174C115.106 85.2175 115.556 85.1269 115.975 84.9509C116.395 84.7749 116.775 84.5171 117.093 84.1926C117.411 83.8681 117.661 83.4835 117.828 83.0613C117.995 82.6391 118.076 82.1878 118.066 81.734Z" fill="#BFFCA3"/>
<path d="M99.6164 91.3664L90.8059 91.5027C90.6981 91.5108 90.5898 91.4969 90.4876 91.4618C90.3855 91.4267 90.2915 91.3712 90.2116 91.2987C90.1317 91.2261 90.0674 91.1381 90.0228 91.0399C89.9782 90.9417 89.9542 90.8354 89.9521 90.7277V90.7277C89.951 90.6236 89.9704 90.5204 90.0093 90.4239C90.0482 90.3274 90.1057 90.2394 90.1786 90.1651C90.2516 90.0907 90.3385 90.0315 90.4344 89.9906C90.5303 89.9498 90.6333 89.9282 90.7376 89.9271L99.5567 89.7908C99.7658 89.7885 99.9674 89.8686 100.118 90.0138C100.268 90.1589 100.355 90.3573 100.359 90.5658C100.364 90.7694 100.289 90.9668 100.15 91.1162C100.012 91.2657 99.8202 91.3554 99.6164 91.3664V91.3664Z" fill="#BFFCA3"/>
<path d="M118.117 91.0853L103.211 91.3152C103.107 91.3187 103.003 91.3012 102.905 91.2637C102.808 91.2263 102.72 91.1698 102.645 91.0975C102.57 91.0252 102.51 90.9386 102.47 90.8428C102.429 90.7471 102.408 90.6442 102.408 90.5402C102.406 90.4362 102.424 90.3328 102.462 90.2358C102.5 90.1388 102.556 90.0503 102.629 89.9751C102.701 89.9 102.787 89.8398 102.882 89.7979C102.978 89.756 103.081 89.7333 103.185 89.7311L118.091 89.5097C118.196 89.5074 118.299 89.5257 118.396 89.5634C118.494 89.6012 118.582 89.6576 118.658 89.7296C118.733 89.8016 118.793 89.8876 118.835 89.9829C118.877 90.0781 118.9 90.1807 118.902 90.2847V90.2847C118.902 90.4941 118.82 90.6952 118.673 90.8449C118.527 90.9945 118.327 91.0808 118.117 91.0853V91.0853Z" fill="#BFFCA3"/>
<path d="M91.028 97.8219L117.912 97.4131" stroke="#BFFCA3" stroke-width="0.32" stroke-miterlimit="10"/>
<path d="M91.0963 102.557L117.98 102.148" stroke="#BFFCA3" stroke-width="0.32" stroke-miterlimit="10"/>
<path d="M62.9653 113.263L120.251 112.385" stroke="#254A4C" stroke-width="0.15" stroke-miterlimit="10"/>
<path d="M76.8255 121.914L66.155 122.078C65.8957 122.082 65.6823 121.875 65.6783 121.617L65.6779 121.591C65.674 121.332 65.8809 121.119 66.1402 121.116L76.8107 120.952C77.07 120.948 77.2834 121.155 77.2874 121.413L77.2878 121.439C77.2917 121.697 77.0848 121.91 76.8255 121.914Z" fill="#3AAA35"/>
<path d="M97.4346 121.61L90.7421 121.712C90.5346 121.715 90.3639 121.55 90.3607 121.343L90.3574 121.13C90.3542 120.924 90.5198 120.753 90.7272 120.75L97.4198 120.647C97.6272 120.644 97.798 120.809 97.8012 121.016L97.8045 121.229C97.8076 121.436 97.6421 121.607 97.4346 121.61Z" fill="#BFFCA3"/>
<path d="M97.5818 131.433L90.8893 131.536C90.6818 131.539 90.5111 131.374 90.5079 131.167L90.5046 130.954C90.5014 130.747 90.667 130.576 90.8745 130.573L97.567 130.471C97.7744 130.468 97.9452 130.633 97.9484 130.84L97.9516 131.053C97.9548 131.259 97.7892 131.43 97.5818 131.433Z" fill="#BFFCA3"/>
<path d="M97.6453 135.13L90.9528 135.233C90.7453 135.236 90.5746 135.071 90.5714 134.864L90.5681 134.651C90.5649 134.444 90.7305 134.274 90.9379 134.271L97.6305 134.168C97.8379 134.165 98.0087 134.33 98.0118 134.537L98.0151 134.75C98.0183 134.957 97.8527 135.127 97.6453 135.13Z" fill="#BFFCA3"/>
<path d="M76.8978 126.668L66.2273 126.832C65.968 126.836 65.7546 126.629 65.7506 126.371L65.7502 126.345C65.7462 126.086 65.9532 125.873 66.2125 125.869L76.8829 125.706C77.1422 125.702 77.3557 125.908 77.3597 126.167L77.3601 126.193C77.3641 126.451 77.1571 126.664 76.8978 126.668Z" fill="#3AAA35"/>
<path d="M76.97 131.405L66.2996 131.569C66.0403 131.573 65.8268 131.366 65.8229 131.108L65.8225 131.082C65.8185 130.823 66.0255 130.61 66.2848 130.606L76.9552 130.443C77.2145 130.439 77.4279 130.645 77.4319 130.904L77.4323 130.93C77.4363 131.188 77.2293 131.401 76.97 131.405Z" fill="#3AAA35"/>
<path d="M77.0423 136.142L66.3718 136.306C66.1125 136.31 65.8991 136.103 65.8951 135.844L65.8947 135.819C65.8908 135.56 66.0977 135.347 66.357 135.343L77.0275 135.18C77.2868 135.176 77.5002 135.382 77.5042 135.641L77.5046 135.666C77.5085 135.925 77.3016 136.138 77.0423 136.142Z" fill="#3AAA35"/>
<path d="M104.849 128.614C103.44 125.24 105.04 121.366 108.422 119.961C111.804 118.556 115.688 120.152 117.096 123.526C118.505 126.9 116.905 130.774 113.523 132.179C110.141 133.584 106.257 131.988 104.849 128.614Z" stroke="#BFFCA3" stroke-width="2.12" stroke-miterlimit="10"/>
<path d="M104.321 126.089C104.321 124.334 105.019 122.65 106.264 121.409C107.508 120.168 109.195 119.471 110.954 119.471C112.713 119.471 114.401 120.168 115.645 121.409C116.889 122.65 117.588 124.334 117.588 126.089" stroke="#67EA61" stroke-width="2.12" stroke-miterlimit="10"/>
<path d="M110.954 151.613C107.291 151.613 104.321 148.65 104.321 144.996C104.321 141.341 107.291 138.378 110.954 138.378C114.618 138.378 117.588 141.341 117.588 144.996C117.588 148.65 114.618 151.613 110.954 151.613Z" stroke="#BFFCA3" stroke-width="2.12" stroke-miterlimit="10"/>
<path d="M106.268 149.671C105.648 149.058 105.156 148.328 104.821 147.524C104.485 146.72 104.313 145.858 104.313 144.987C104.313 144.116 104.485 143.254 104.821 142.45C105.156 141.646 105.648 140.916 106.268 140.303" stroke="#67EA61" stroke-width="2.12" stroke-miterlimit="10"/>
<path d="M83.1651 94.8411C83.1413 93.2188 82.6357 91.6401 81.7123 90.3046C80.7889 88.9691 79.4892 87.9368 77.9775 87.3383C76.4659 86.7398 74.8103 86.6019 73.2201 86.9422C71.63 87.2825 70.1768 88.0856 69.0442 89.2499C67.9117 90.4143 67.1507 91.8876 66.8577 93.4834C66.5646 95.0792 66.7526 96.7259 67.3978 98.2152C68.0431 99.7044 69.1166 100.969 70.4826 101.85C71.8485 102.73 73.4456 103.187 75.0717 103.162C77.2508 103.128 79.3273 102.233 80.8449 100.673C82.3625 99.1124 83.1971 97.0149 83.1651 94.8411V94.8411Z" fill="#BFFCA3"/>
<path d="M122.673 320.889L123.441 330.351L138.476 330.99L130.049 326.255L128.35 320.327L122.673 320.889Z" fill="#FFBDBD"/>
<path d="M129.58 319.569L123.442 330.351L122.195 320.421L129.58 319.569Z" fill="#EC8492"/>
<path d="M130.049 325.42L139.705 331.28L121.435 331.467L122.673 325.514L126.267 329.006L130.049 325.42Z" fill="#3AAA35"/>
<path d="M131.859 326.502L130.177 327.584" stroke="white" stroke-width="0.3" stroke-miterlimit="10"/>
<path d="M133.361 327.209L131.68 328.29" stroke="white" stroke-width="0.3" stroke-miterlimit="10"/>
<path d="M106.307 322.703L107.562 330.734L92.3821 331.935L100.979 326.749L100.501 322.388L106.307 322.703Z" fill="#FFBDBD"/>
<path d="M100.501 322.388L106.307 322.703L107.562 330.734L100.501 322.388Z" fill="#EC8492"/>
<path d="M100.331 326.272L91.7249 331.936L108.1 331.748L107.015 326.613L104.497 330.045L100.331 326.272Z" fill="#3AAA35"/>
<path d="M98.7005 327.294L100.434 328.29" stroke="white" stroke-width="0.3" stroke-miterlimit="10"/>
<path d="M97.2316 328.069L98.9646 329.065" stroke="white" stroke-width="0.3" stroke-miterlimit="10"/>
<path d="M103.549 233.475L117.969 233.56C117.969 233.56 120.274 235.263 122.579 243.984C125.388 254.63 129.596 282.309 130.979 322.278L120.496 322.593L111.898 261.639C111.851 261.451 111.735 261.287 111.572 261.181C111.41 261.074 111.213 261.032 111.021 261.063C110.829 261.094 110.655 261.196 110.535 261.348C110.414 261.501 110.356 261.693 110.37 261.886L107.57 323.274L97.2399 322.874C97.2399 322.874 91.2637 255.959 95.225 245.952C99.1863 235.945 103.549 233.475 103.549 233.475Z" fill="#254A4C"/>
<path d="M98.7687 250.04L100.86 323.121" stroke="white" stroke-width="0.3" stroke-miterlimit="10"/>
<path d="M119.915 249.58L128.367 322.354" stroke="white" stroke-width="0.3" stroke-miterlimit="10"/>
<path d="M119.642 322.405L118.976 317.023L132.414 312.773L131.944 322.78L119.642 322.405Z" fill="#85E1B5"/>
<path d="M107.57 323.274C107.365 323.061 107.084 317.491 107.084 317.491L95.2509 313.906L96.4718 323.155L107.57 323.274Z" fill="#85E1B5"/>
<path d="M140.866 205.557C140.866 205.557 133.182 228.237 129.324 227.121L129.383 215.897C129.528 216.118 135.94 203.411 135.94 203.411C135.94 203.411 137.87 200.226 138.74 199.723C138.74 199.723 142.241 196.887 141.814 198.165C141.399 199.151 140.822 200.06 140.106 200.856L140.909 205.242" fill="#FFBDBD"/>
<path d="M138.425 203.249L136.495 195.133" stroke="#67EA61" stroke-width="1.76" stroke-miterlimit="10" stroke-linecap="round"/>
<path d="M136.11 203.309C136.11 203.309 136.11 200.073 136.588 200.004C137.067 199.936 139.201 200.107 139.406 200.856C139.611 201.606 137.792 201.554 137.792 201.554C137.792 201.554 138.646 203.07 137.912 203.556C137.178 204.041 136.11 203.309 136.11 203.309Z" fill="#FFBDBD"/>
<path d="M110.755 200.882C110.755 200.882 117.252 204.799 119.48 207.014C121.708 209.228 129.622 215.232 129.622 215.232L135.018 204.748L140.14 209.339C140.14 209.339 133.661 227.743 130.015 227.854C126.37 227.964 102.824 211.655 110.755 200.882Z" fill="white"/>
<path d="M119.258 211.212C119.258 211.212 123.996 207.908 120.402 206.298C116.808 204.689 119.548 204.697 121.725 203.658C123.902 202.619 120.965 202.151 118.976 201.393C116.987 200.635 118.695 199.689 120.402 198.659C122.109 197.628 121.153 196.385 121.153 196.385L120.65 191.522C121.119 190.568 119.736 187.766 119.42 186.753C118.473 183.644 113.444 181.992 109.577 183.61C109.577 183.61 101.184 186.761 102.508 189.785C104.104 193.413 102.61 193.838 100.339 194.12C98.0682 194.401 96.3608 196.104 98.7256 197.807C100.8 199.298 102.226 199.885 100.339 200.924C98.4524 201.963 95.6948 201.299 95.6009 203.283C95.507 205.268 99.955 205.361 99.1013 206.775C98.2475 208.189 95.1314 206.682 93.8081 208.947C93.1409 209.968 92.6288 211.081 92.2884 212.251L119.258 211.212Z" fill="#1E2F4D"/>
<path d="M109.892 191.53C109.882 191.562 109.865 191.592 109.843 191.617C109.821 191.643 109.794 191.663 109.764 191.678C109.734 191.693 109.701 191.702 109.667 191.705C109.634 191.707 109.6 191.703 109.568 191.692C109.013 191.496 107.766 190.934 107.083 192.331C106.845 192.903 106.843 193.545 107.078 194.118C107.314 194.691 107.767 195.148 108.338 195.388C108.578 195.482 109.124 195.729 109.235 195.967C109.551 196.691 109.372 197.977 109.235 199.621C109.212 200.606 108.865 201.556 108.248 202.326C107.631 203.095 106.778 203.641 105.82 203.879C105.82 203.879 113.913 210.769 115.314 206.434C114.759 205.515 115.092 198.582 116.167 198.957C117.542 199.451 120.248 198.838 120.521 192.637C120.777 186.897 116.816 185.96 115.783 185.824C114.887 185.662 111.967 184.853 109.892 191.53Z" fill="#FFBDBD"/>
<path d="M118.626 186.199C118.626 186.199 110.84 191.428 109.704 191.692C109.704 191.692 109.021 181.821 118.626 186.199Z" fill="#1E2F4D"/>
<path d="M107.57 192.97C107.57 192.97 109.081 191.428 109.346 194.281Z" fill="#EC8492"/>
<path d="M114.733 193.2C114.997 193.278 115.232 193.432 115.407 193.644C115.582 193.856 115.69 194.115 115.717 194.388C115.744 194.661 115.688 194.936 115.557 195.178C115.427 195.419 115.227 195.616 114.983 195.744C114.74 195.872 114.463 195.924 114.19 195.894C113.916 195.864 113.658 195.754 113.448 195.576C113.237 195.399 113.085 195.163 113.01 194.899C112.935 194.635 112.94 194.355 113.026 194.094C113.138 193.752 113.379 193.468 113.697 193.301C114.016 193.134 114.388 193.098 114.733 193.2V193.2Z" fill="#FF9C9C"/>
<path d="M120.035 195.559C119.756 195.403 119.539 195.157 119.421 194.86C119.302 194.564 119.29 194.236 119.386 193.932C119.46 193.7 119.594 193.491 119.776 193.328C119.957 193.165 120.179 193.053 120.419 193.004C120.459 193.872 120.328 194.74 120.035 195.559V195.559Z" fill="#FF9C9C"/>
<path d="M117.986 192.774L117.815 194.298L118.609 194.23C118.644 194.229 118.677 194.219 118.705 194.2C118.734 194.182 118.757 194.156 118.772 194.125C118.787 194.094 118.793 194.06 118.79 194.026C118.787 193.992 118.775 193.96 118.755 193.932L117.986 192.774Z" fill="#EC8492"/>
<mask id="path-226-inside-1_1863_900" fill="white">
<path d="M115.749 191.122C115.493 191.3 115.886 190.491 116.236 190.398C116.39 190.346 116.558 190.356 116.705 190.426C116.852 190.496 116.965 190.62 117.021 190.772C116.57 190.739 116.12 190.862 115.749 191.122V191.122Z"/>
</mask>
<path d="M115.749 191.122C115.493 191.3 115.886 190.491 116.236 190.398C116.39 190.346 116.558 190.356 116.705 190.426C116.852 190.496 116.965 190.62 117.021 190.772C116.57 190.739 116.12 190.862 115.749 191.122V191.122Z" fill="#062018"/>
<path d="M116.236 190.398L116.556 191.345L116.526 191.355L116.494 191.364L116.236 190.398ZM117.021 190.772L117.96 190.428L118.495 191.884L116.947 191.77L117.021 190.772ZM115.749 191.122L116.322 191.941L116.322 191.942L115.749 191.122ZM116.322 191.942C116.267 191.98 116.169 192.042 116.038 192.088C115.922 192.129 115.64 192.205 115.314 192.075C114.937 191.926 114.767 191.615 114.706 191.4C114.653 191.212 114.666 191.052 114.675 190.978C114.707 190.713 114.833 190.477 114.898 190.364C114.985 190.212 115.105 190.04 115.252 189.886C115.377 189.754 115.623 189.526 115.977 189.432L116.494 191.364C116.673 191.316 116.739 191.225 116.701 191.265C116.683 191.283 116.655 191.32 116.633 191.359C116.622 191.378 116.62 191.384 116.623 191.378C116.624 191.374 116.629 191.361 116.636 191.34C116.641 191.321 116.653 191.278 116.661 191.217C116.667 191.169 116.68 191.03 116.631 190.858C116.576 190.66 116.414 190.36 116.051 190.216C115.738 190.092 115.473 190.167 115.379 190.2C115.27 190.238 115.199 190.286 115.177 190.302L116.322 191.942ZM115.915 189.451C116.316 189.315 116.754 189.341 117.136 189.523L116.274 191.328C116.363 191.37 116.464 191.376 116.556 191.345L115.915 189.451ZM117.136 189.523C117.518 189.705 117.814 190.03 117.96 190.428L116.083 191.117C116.117 191.211 116.186 191.286 116.274 191.328L117.136 189.523ZM116.947 191.77C116.725 191.753 116.504 191.814 116.322 191.941L115.176 190.302C115.736 189.911 116.414 189.725 117.095 189.775L116.947 191.77Z" fill="#062018" mask="url(#path-226-inside-1_1863_900)"/>
<mask id="path-228-inside-2_1863_900" fill="white">
<path d="M120.01 190.994C120.266 191.173 119.865 190.364 119.515 190.278C119.438 190.252 119.356 190.24 119.275 190.245C119.194 190.25 119.115 190.271 119.042 190.307C118.969 190.342 118.903 190.392 118.85 190.453C118.796 190.514 118.755 190.585 118.729 190.662C119.182 190.617 119.636 190.735 120.01 190.994V190.994Z"/>
</mask>
<path d="M120.01 190.994C120.266 191.173 119.865 190.364 119.515 190.278C119.438 190.252 119.356 190.24 119.275 190.245C119.194 190.25 119.115 190.271 119.042 190.307C118.969 190.342 118.903 190.392 118.85 190.453C118.796 190.514 118.755 190.585 118.729 190.662C119.182 190.617 119.636 190.735 120.01 190.994V190.994Z" fill="#062018"/>
<path d="M119.515 190.278L119.278 191.25L119.231 191.239L119.185 191.223L119.515 190.278ZM118.729 190.662L118.828 191.657L117.287 191.809L117.782 190.342L118.729 190.662ZM120.01 190.994L120.58 190.172L120.582 190.174L120.01 190.994ZM120.582 190.174C120.56 190.159 120.49 190.111 120.381 190.073C120.29 190.041 120.021 189.962 119.703 190.09C119.332 190.24 119.174 190.55 119.122 190.748C119.077 190.92 119.092 191.058 119.099 191.104C119.107 191.165 119.119 191.207 119.125 191.225C119.132 191.246 119.137 191.258 119.138 191.261C119.141 191.267 119.138 191.26 119.127 191.242C119.104 191.202 119.076 191.166 119.059 191.149C119.021 191.109 119.091 191.205 119.278 191.25L119.751 189.307C120.113 189.395 120.365 189.623 120.492 189.754C120.641 189.907 120.763 190.077 120.851 190.228C120.918 190.341 121.045 190.573 121.08 190.835C121.09 190.907 121.106 191.066 121.056 191.256C121 191.47 120.834 191.791 120.45 191.946C120.119 192.079 119.833 192 119.719 191.96C119.589 191.914 119.491 191.852 119.437 191.814L120.582 190.174ZM119.185 191.223C119.233 191.239 119.284 191.246 119.334 191.243L119.216 189.247C119.429 189.234 119.642 189.264 119.844 189.334L119.185 191.223ZM119.334 191.243C119.385 191.24 119.434 191.227 119.48 191.205L118.603 189.408C118.795 189.314 119.003 189.26 119.216 189.247L119.334 191.243ZM119.48 191.205C119.526 191.183 119.567 191.152 119.6 191.113L118.099 189.792C118.24 189.632 118.411 189.501 118.603 189.408L119.48 191.205ZM119.6 191.113C119.634 191.075 119.66 191.03 119.677 190.981L117.782 190.342C117.85 190.14 117.958 189.953 118.099 189.792L119.6 191.113ZM118.631 189.667C119.32 189.598 120.011 189.778 120.58 190.172L119.44 191.816C119.261 191.692 119.044 191.635 118.828 191.657L118.631 189.667Z" fill="#062018" mask="url(#path-228-inside-2_1863_900)"/>
<path d="M117.025 192.971C117.027 192.971 117.029 192.97 117.03 192.97C117.025 192.969 117.02 192.968 117.015 192.967C116.995 192.965 116.973 192.963 116.951 192.964C116.946 192.964 116.941 192.964 116.937 192.965C116.91 192.966 116.886 192.971 116.863 192.977C116.862 192.977 116.86 192.978 116.859 192.978C116.864 192.979 116.869 192.98 116.874 192.98C116.894 192.983 116.915 192.984 116.938 192.984C116.943 192.984 116.947 192.983 116.952 192.983C116.979 192.981 117.003 192.977 117.025 192.971Z" fill="#062018" stroke="#062018"/>
<path d="M119.451 192.829C119.454 192.828 119.456 192.827 119.459 192.826C119.453 192.824 119.447 192.822 119.441 192.82C119.405 192.808 119.362 192.8 119.312 192.802C119.309 192.802 119.305 192.803 119.301 192.803C119.259 192.806 119.222 192.815 119.189 192.828C119.18 192.831 119.171 192.835 119.163 192.839C119.162 192.84 119.161 192.84 119.16 192.841C119.161 192.841 119.162 192.842 119.163 192.842C119.202 192.857 119.25 192.867 119.305 192.864C119.309 192.864 119.313 192.864 119.317 192.864C119.356 192.861 119.391 192.853 119.421 192.842C119.432 192.838 119.442 192.834 119.451 192.829Z" fill="#062018" stroke="#062018"/>
<path d="M114.614 199.575C114.734 199.573 114.927 199.525 115.133 199.218C114.965 199.159 114.765 199.088 114.548 199.01C114.142 198.865 113.67 198.692 113.218 198.519C113.34 198.694 113.49 198.876 113.659 199.043C114.023 199.401 114.368 199.578 114.614 199.575ZM112.892 197.876C112.892 197.876 112.892 197.878 112.893 197.881C112.893 197.878 112.892 197.876 112.892 197.876Z" fill="#062018" stroke="#062018"/>
<path d="M117.722 192.11C117.722 193.634 117.098 194.665 116.1 194.665C115.101 194.665 113.923 192.868 113.965 191.343C113.871 190.926 114.273 191.973 115.195 191.581C115.613 191.367 116.092 191.302 116.552 191.398C117.012 191.495 117.425 191.746 117.722 192.11V192.11Z" stroke="#1E334D" stroke-width="0.33" stroke-miterlimit="10"/>
<path d="M121.58 191.275C121.58 192.654 120.88 194.409 119.975 194.392C119.07 194.375 118.267 193.54 118.319 192.169C118.771 191.249 119.437 191.437 120.35 191.462C121.264 191.488 121.614 189.921 121.58 191.275Z" stroke="#1E334D" stroke-width="0.33" stroke-miterlimit="10"/>
<path d="M117.713 192.476L118.43 192.484" stroke="#1E334D" stroke-width="0.33" stroke-miterlimit="10"/>
<path d="M114.102 192.442L108.518 191.249" stroke="#1E334D" stroke-width="0.33" stroke-miterlimit="10"/>
<path d="M108.552 203.437C108.552 203.437 107.194 203.062 107.425 203.352C107.779 203.707 108.181 204.011 108.62 204.254L108.552 203.437Z" fill="#C20600"/>
<path d="M115.348 202.517C115.203 202.883 121.623 215.292 121.486 218.894C121.35 222.497 118.925 234.071 119.156 234.607C119.156 234.607 116.381 236.847 100.894 234.607C96.0877 230.511 100.092 210.889 101.637 206.4C101.637 206.4 107.519 201.376 108.825 201.29C108.825 201.256 113.393 208.172 115.348 202.517Z" fill="#BFFCA3"/>
<path d="M106.717 203.334C106.717 203.334 111.293 215.079 113.666 217.566C116.04 220.053 111.711 255.175 111.711 255.175L88.7882 256.478C88.7882 256.478 92.502 242.928 98.3927 236.89C94.4485 215.692 99.2465 211.536 99.2465 211.536C99.4569 209.695 100.204 207.956 101.395 206.535C102.587 205.113 104.17 204.072 105.948 203.539L106.717 203.334Z" fill="white"/>
<path d="M107.622 203.147C111.43 211.595 110.047 210.122 113.897 217.847C113.897 217.847 114.469 228.458 114.059 231.346C114.059 231.346 107.161 217.472 105.684 214.883L106.35 211.476L103.464 211.008L104.651 203.709L107.622 203.147Z" fill="#228276"/>
<path d="M108.253 201.171C108.253 201.171 111.472 211.51 114.673 217.949C114.673 217.949 115.689 227.411 115.271 230.289C115.271 230.289 108.527 216.612 107.058 214.023L107.741 211.05L105.12 210.361L104.36 203.411L108.253 201.171Z" fill="white"/>
<path d="M116.714 232.563L98.2561 220.001L98.5292 223.178C98.5292 223.178 100.945 234.003 102.798 237.145C104.77 240.441 107.007 244.223 112.01 238.747L116.714 232.563Z" fill="#254A4C"/>
<path d="M115.605 202.576C115.605 202.576 118.166 213.376 117.662 218.221C117.577 219.031 115.664 255.209 115.664 255.209L129.384 254.647L119.626 206.469L115.605 202.576Z" fill="white"/>
<path d="M115.485 201.921L117.935 203.735L118.55 205.932L117.44 207.337L119.028 208.402C119.028 208.402 120.923 212.515 119.105 222.114C117.286 231.712 117.662 229.327 117.662 229.327L115.485 201.921Z" fill="white"/>
<path d="M115.544 203.718C115.723 203.59 118.046 205.31 118.046 205.31L118.652 207.508L117.542 208.913L119.932 209.339C119.932 209.339 121.034 214.091 119.207 223.689C117.38 233.287 117.721 231.124 117.721 231.124L115.544 203.718Z" fill="#228276"/>
<path d="M115.058 202.236C115.195 202.321 117.935 203.735 117.935 203.735L118.55 205.932L117.44 207.337L119.796 209.185C119.796 209.185 119.916 213.98 118.089 223.578C116.262 233.177 117.619 230.026 117.619 230.026L115.058 202.236Z" fill="white"/>
<path d="M120.718 221.798C120.75 221.425 120.845 221.059 121 220.717C121.078 220.548 121.197 220.4 121.346 220.287C121.495 220.174 121.669 220.1 121.853 220.07C122.101 220.078 122.342 220.154 122.55 220.289C122.757 220.424 122.924 220.613 123.031 220.836C123.151 221.034 123.246 221.245 123.313 221.466C123.313 221.526 123.313 221.603 123.313 221.637C123.277 221.65 123.238 221.65 123.202 221.637C122.442 221.551 121.683 221.935 120.923 221.833" fill="#35445C"/>
<path d="M123.433 222.199H120.701C120.615 222.199 120.532 222.165 120.471 222.104C120.411 222.043 120.376 221.961 120.376 221.875C120.376 221.791 120.409 221.71 120.468 221.649C120.527 221.589 120.608 221.554 120.692 221.552H123.424C123.466 221.55 123.508 221.558 123.548 221.573C123.587 221.588 123.623 221.611 123.653 221.641C123.683 221.67 123.707 221.705 123.724 221.744C123.74 221.783 123.749 221.825 123.749 221.867V221.867C123.75 221.909 123.743 221.952 123.727 221.991C123.712 222.031 123.689 222.067 123.66 222.098C123.63 222.129 123.595 222.154 123.556 222.171C123.517 222.188 123.475 222.198 123.433 222.199V222.199Z" fill="#B7DEAD"/>
<path d="M122.161 230.801L128.316 210.693C128.479 210.148 128.758 209.645 129.134 209.217C129.51 208.789 129.973 208.447 130.493 208.214L143.53 202.406C143.618 202.369 143.716 202.359 143.81 202.376C143.904 202.393 143.992 202.438 144.061 202.503C144.131 202.569 144.18 202.654 144.202 202.747C144.225 202.84 144.219 202.938 144.187 203.028L137.955 222.727C137.794 223.246 137.529 223.727 137.175 224.14C136.821 224.553 136.386 224.89 135.897 225.128L122.835 231.414C122.747 231.454 122.648 231.468 122.552 231.453C122.456 231.439 122.366 231.396 122.294 231.33C122.222 231.265 122.171 231.18 122.147 231.086C122.123 230.991 122.128 230.892 122.161 230.801V230.801Z" fill="#254A4C"/>
<path d="M122.69 231.09L128.845 210.982C129.009 210.438 129.288 209.934 129.663 209.507C130.039 209.079 130.502 208.737 131.022 208.504L144.059 202.696C144.147 202.659 144.245 202.648 144.339 202.666C144.434 202.683 144.521 202.727 144.591 202.793C144.66 202.859 144.709 202.943 144.732 203.037C144.754 203.13 144.749 203.227 144.716 203.317L138.484 223.016C138.324 223.536 138.058 224.017 137.705 224.43C137.351 224.843 136.916 225.179 136.427 225.418L123.364 231.703C123.276 231.744 123.177 231.758 123.081 231.743C122.985 231.728 122.895 231.685 122.823 231.62C122.751 231.555 122.7 231.469 122.676 231.375C122.653 231.281 122.657 231.182 122.69 231.09V231.09Z" fill="#EAFCE6"/>
<path d="M140.866 205.557C140.866 205.481 133.831 208.717 133.831 208.717L134.514 206.273L141.72 203.113L140.866 205.557Z" fill="#3AAA35"/>
<path d="M139.611 204.714C139.611 204.637 135.897 206.256 135.897 206.256L136.427 204.399C136.477 204.225 136.566 204.065 136.687 203.931C136.809 203.797 136.959 203.692 137.127 203.624L138.057 203.249C138.269 203.167 138.499 203.146 138.721 203.19C138.944 203.235 139.149 203.341 139.313 203.498C139.476 203.655 139.591 203.855 139.644 204.075C139.697 204.295 139.686 204.526 139.611 204.74V204.714Z" fill="#1F861B"/>
<path d="M123.527 224.055C123.527 224.055 110.115 239.99 107.092 237.384L111.831 227.164C111.831 227.428 122.997 218.545 122.997 218.545C122.997 218.545 130.596 215.471 130.784 216.45C130.92 217.131 126.233 217.676 126.677 217.668C126.728 217.668 130.809 216.935 131.21 217.319C131.8 217.898 127.019 218.818 127.078 219.141C127.078 219.141 131.851 219.141 131.996 219.652C132.141 220.163 127.241 220.504 127.334 220.623C127.428 220.742 129.896 220.623 130.212 221.202C130.527 221.781 123.527 224.055 123.527 224.055Z" fill="#FFBDBD"/>
<path d="M125.721 217.889C125.721 217.889 127.531 214.236 126.728 214.67C125.926 215.104 121.777 219.669 121.777 219.669" fill="#FFBDBD"/>
<path d="M102.013 206C103.671 208.921 105.175 211.926 106.52 215.002C107.613 217.941 112.3 226.687 112.3 226.687L121.589 219.405L124.295 225.691C124.295 225.691 110.721 239.726 107.357 238.312C103.993 236.899 90.3079 212.498 102.013 206Z" fill="white"/>
<path d="M184.098 98.3501L177.849 114.975L187.718 124.649C184.824 125.501 161.79 124.837 162.55 115.392C162.9 110.98 165.674 105.01 166.818 101.672L184.098 98.3501Z" fill="#254A4C"/>
<path d="M194.667 123.985C194.88 123.891 200.028 124.309 200.25 123.789C200.592 123.006 194.838 122.648 194.735 122.639C193.275 122.478 200.233 123.193 200.583 122.716C200.933 122.239 197.8 121.686 197.689 121.668C197.578 121.651 194.957 121.353 194.94 121.157C194.923 120.962 201.215 121.055 200.839 120.527C200.464 119.999 196.46 119.335 195.444 119.292C194.475 119.136 193.517 118.92 192.575 118.645C191.525 118.492 196.425 116.984 195.461 115.818C195.461 115.818 191.004 116.524 189.485 117.248C188.691 117.623 177.49 111.389 177.49 111.389C176.32 110.742 176.303 110.478 176.918 109.294L184.678 92.1328C184.678 92.1328 187.717 84.1272 183.73 83.8887C177.754 83.5225 167.928 91.1534 163.804 111.721C162.874 116.388 164.991 119.744 171.129 121.49L176.457 122.418V122.537C182.766 123.809 189.161 124.617 195.589 124.956C196.332 125.007 198.577 124.956 198.696 124.649C199.004 123.994 194.462 124.087 194.667 123.985Z" fill="#F69491"/>
<path d="M186.641 116.192C188.127 116.899 189.254 117.359 189.484 117.248C191.004 116.525 195.46 115.818 195.46 115.818C196.425 116.984 191.525 118.492 192.575 118.645C193.517 118.92 194.475 119.136 195.443 119.292C196.459 119.335 200.463 120.008 200.839 120.527C201.215 121.047 196.049 121.115 196.075 121.319C196.101 121.524 197.689 121.669 197.689 121.669C197.689 121.669 200.941 122.239 200.583 122.716C200.224 123.193 193.275 122.478 194.735 122.639C194.837 122.639 200.591 123.006 200.25 123.789C200.028 124.309 194.88 123.891 194.666 123.985C194.453 124.079 198.935 123.985 198.713 124.649C198.594 124.93 196.348 125.007 195.605 124.956C194.666 124.896 190.756 124.76 184.609 123.908C185.258 121.328 185.924 118.756 186.641 116.192Z" fill="white" stroke="white" stroke-width="0.2" stroke-miterlimit="10"/>
<path d="M185.822 79.3665C185.822 79.3665 198.885 79.4261 180.461 105.095L164.428 101.22C164.428 101.22 176.26 76.573 185.822 79.3665Z" fill="#85E1B5"/>
<path d="M184.568 102.08L168.185 98.0264" stroke="white" stroke-width="0.12" stroke-miterlimit="10"/>
<g clip-path="url(#clip1_1863_900)">
<path d="M256.31 243.69L255.858 238.857L274.503 238.127L273.417 244.054L267.081 247.246L260.836 247.611L256.31 243.69Z" fill="#455A64"/>
<path d="M238.118 243.69L237.756 238.857L256.31 238.127L255.315 244.054L248.888 247.246L242.643 247.611L238.118 243.69Z" fill="#455A64"/>
<path d="M237.847 241.683V242.96C237.847 242.96 219.02 250.711 219.201 255.818H256.311L255.677 241.41C250.156 244.419 244.363 244.693 237.847 241.683Z" fill="#062018"/>
<path d="M256.31 255.818L256.129 252.353L220.197 253.538C220.197 253.538 219.11 254.815 219.201 255.818H256.31Z" fill="#062018"/>
<path d="M235.312 249.252H235.534C235.66 248.946 235.593 247.939 235.312 246.878C235.084 245.808 234.466 244.783 234.229 244.563L234.063 244.646C234.102 244.774 234.769 245.787 235.04 246.972C235.402 248.158 235.312 249.064 235.312 249.252Z" fill="white"/>
<path d="M237.723 248.188L237.94 248.14C237.998 247.814 237.719 246.845 237.218 245.869C236.769 244.874 236.031 244.035 235.753 243.872L235.534 243.965C235.599 244.081 236.456 244.921 236.973 246.02C237.579 247.1 237.683 248.005 237.723 248.188Z" fill="white"/>
<path d="M239.368 247.45L239.581 247.388C239.617 247.059 239.274 246.111 238.711 245.171C238.196 244.208 237.377 243.421 237.089 243.277L236.845 243.38C236.918 243.492 237.887 244.276 238.476 245.338C239.152 246.374 239.316 247.27 239.368 247.45Z" fill="white"/>
<path d="M257.306 241.775L257.397 243.143C257.397 243.143 238.752 250.894 238.933 255.909H276.042L275.409 241.501C269.887 244.602 263.733 244.784 257.306 241.775Z" fill="#1A4F3F"/>
<path d="M254.321 249.719L254.543 249.716C254.665 249.408 254.585 248.403 254.29 247.345C254.048 246.278 253.416 245.261 253.177 245.045L253.012 245.13C253.052 245.257 253.732 246.261 254.019 247.443C254.397 248.623 254.318 249.531 254.321 249.719Z" fill="white"/>
<path d="M256.718 248.623L256.935 248.572C256.988 248.245 256.696 247.28 256.183 246.311C255.72 245.322 254.972 244.493 254.692 244.334L254.474 244.429C254.54 244.545 255.408 245.373 255.94 246.465C256.56 247.537 256.676 248.44 256.718 248.623Z" fill="white"/>
<path d="M258.354 247.863L258.566 247.798C258.598 247.468 258.242 246.525 257.666 245.593C257.139 244.636 256.31 243.86 256.02 243.72L255.778 243.827C255.852 243.938 256.831 244.709 257.434 245.763C258.123 246.79 258.299 247.684 258.354 247.863Z" fill="white"/>
<path d="M276.042 256L275.861 252.535L239.928 253.72C239.928 253.72 238.842 254.997 238.932 256H276.042Z" fill="#1A4F3F"/>
<path d="M335.87 97.88C334.602 92.7734 333.245 87.6669 331.978 82.5604C329.986 74.8094 327.362 64.3227 322.926 57.8484C316.41 48.2736 301.204 45.9939 290.614 49.4591C281.02 52.7419 276.313 56.4806 273.779 66.876C271.245 77.2714 273.87 93.7765 276.223 104.263C276.585 105.722 276.947 107.364 278.033 108.367C279.21 109.461 280.839 109.552 282.287 109.734C289.618 110.282 296.95 110.829 304.281 111.467L316.41 106.725C322.021 107.455 327.814 106.543 332.973 104.172C334.15 103.625 335.508 102.895 335.96 101.527C336.413 100.342 336.141 99.0654 335.87 97.88Z" fill="#763709"/>
<path d="M277.128 71.3443C277.219 63.3197 285.002 54.9304 292.786 55.4775L308.173 57.7572C313.785 58.5779 318.039 63.5021 318.22 69.3381L316.229 78.5481L318.22 116.3L319.487 116.665C319.487 116.665 318.311 133.899 304.281 133.626C291.7 133.352 293.782 117.85 293.782 117.759L293.42 107.819C293.42 107.819 280.929 107.728 278.124 94.506C276.766 88.0317 277.128 80.2807 277.128 71.3443Z" fill="#FFBDBD"/>
<path d="M293.33 107.911C293.33 107.911 302.019 108.093 310.255 102.348C310.255 102.348 306.454 112.014 293.511 111.467L293.33 107.911Z" fill="#1A4F3F"/>
<path d="M319.487 74.1711C319.487 70.9796 319.487 69.7941 318.673 66.6025C317.949 63.5021 315.686 60.2194 313.152 58.2132C311.16 56.663 308.083 54.6569 305.639 54.1098C301.838 53.4714 299.846 52.5596 292.696 54.2921C289.709 55.0216 289.166 54.5657 286.451 56.1159L284.55 57.3013C286.632 62.7726 305.096 74.1711 311.341 75.9949C311.794 78.001 311.975 79.5512 312.608 81.4662C312.88 82.2869 313.333 83.1988 314.057 83.6547C314.962 84.293 316.229 84.1106 317.134 83.5635C318.039 82.9252 318.22 82.2869 318.673 81.1926C319.578 78.9129 319.578 76.6332 319.487 74.1711Z" fill="#763709"/>
<path d="M316.591 79.1865C316.591 79.1865 324.103 75.7214 324.194 83.9283C324.375 92.0441 316.41 90.4939 316.41 90.2203C316.41 89.9467 316.591 79.1865 316.591 79.1865Z" fill="#FFBDBD"/>
<path d="M318.763 87.1199C318.763 87.1199 318.944 87.2111 319.125 87.3022C319.397 87.3934 319.759 87.4846 320.121 87.3022C320.935 86.9375 321.66 85.5697 321.66 84.1107C321.66 83.3812 321.479 82.6517 321.207 82.1045C320.935 81.4662 320.573 81.1015 320.121 81.0103C319.668 80.9191 319.397 81.1926 319.306 81.375C319.216 81.6486 319.216 81.7398 319.216 81.7398C319.216 81.7398 319.035 81.6486 319.125 81.2838C319.125 81.1015 319.216 80.9191 319.397 80.7367C319.578 80.5543 319.849 80.4631 320.121 80.5543C320.754 80.5543 321.297 81.1926 321.569 81.831C321.931 82.4693 322.112 83.29 322.112 84.1107C322.112 85.752 321.297 87.3022 320.211 87.667C319.668 87.8494 319.216 87.667 318.944 87.4846C318.763 87.3022 318.763 87.1199 318.763 87.1199Z" fill="#FFACAE"/>
<path d="M307.721 72.4385C312.88 83.381 314.147 96.0562 311.341 107.819C312.608 107.272 314.056 107.272 315.414 107.09C316.772 106.908 318.22 106.36 318.944 105.175C319.578 104.172 319.487 102.895 319.397 101.619C318.673 92.0439 317.134 82.4692 314.962 73.0768" fill="#763709"/>
<path d="M315.414 107.09C315.414 107.09 315.414 106.816 315.414 106.452C315.414 105.996 315.505 105.357 315.595 104.537C315.776 102.804 315.957 100.342 316.229 97.424C316.41 94.4148 316.048 90.8585 315.595 86.8462C315.143 82.9251 314.419 78.5481 313.604 73.9887C313.513 73.5328 313.423 72.9856 313.332 72.5297L313.513 72.7121C309.169 71.6178 305.367 69.7941 302.019 67.8791C298.76 65.9642 295.954 63.8668 293.782 62.0431C291.519 60.2193 289.8 58.6691 288.623 57.5749C287.989 57.0277 287.627 56.5718 287.265 56.2982C286.994 56.0247 286.813 55.8423 286.813 55.8423C286.813 55.8423 286.994 55.9335 287.356 56.207C287.718 56.4806 288.17 56.9365 288.713 57.3925C289.89 58.3956 291.7 59.9457 293.963 61.6783C296.226 63.4109 298.941 65.417 302.29 67.332C305.549 69.2469 309.44 70.9795 313.604 72.0738H313.785V72.2561C313.876 72.7121 313.966 73.168 314.057 73.7151C314.871 78.2746 315.505 82.5604 315.957 86.5727C316.41 90.5849 316.681 94.1413 316.5 97.2417C316.138 100.251 315.867 102.622 315.686 104.354C315.595 105.175 315.505 105.813 315.414 106.269C315.505 106.908 315.414 107.09 315.414 107.09Z" fill="#99521E"/>
<path d="M317.496 71.7089C317.224 71.3441 316.772 71.0706 316.319 71.0706C315.867 71.0706 315.414 71.1617 314.962 71.2529C312.88 71.7089 310.798 72.256 308.988 73.3503C307.902 73.8974 308.354 74.9005 308.535 75.174C308.716 75.4476 309.078 75.63 309.44 75.63C309.802 75.63 310.164 75.5388 310.527 75.4476C312.065 75.0828 313.604 74.6269 315.143 74.2621C315.776 74.0798 316.5 73.8974 316.953 73.4414C317.586 73.0767 317.858 72.256 317.496 71.7089Z" fill="#3AAA35"/>
<path d="M237.846 241.319C237.846 241.319 234.497 200.922 234.497 193.08C234.497 185.238 239.928 175.663 251.604 175.755C258.664 175.755 289.347 177.852 289.347 177.852L292.515 208.217L259.75 207.579C259.75 207.579 260.112 212.139 259.75 222.625C259.388 232.838 259.75 241.228 259.75 241.228H237.846V241.319Z" fill="#062018"/>
<path d="M334.512 173.201C334.512 174.113 311.432 177.031 299.575 172.654C287.989 168.459 279.119 165.45 279.119 165.45L268.891 175.025L282.468 175.39L286.722 177.213C278.395 176.758 269.525 176.21 266.086 176.21C254.5 176.21 248.979 185.785 248.979 193.536C248.979 201.378 252.599 241.319 252.599 241.319H274.503C274.503 241.319 276.766 232.656 277.128 222.443C277.49 211.956 277.399 207.944 277.399 207.944L303.014 208.4H306.997C311.522 208.217 318.853 207.853 321.478 207.397C328.176 206.302 332.792 200.74 335.236 193.81C337.68 186.879 334.512 173.201 334.512 173.201Z" fill="#13382D"/>
<path d="M255.315 179.858C255.315 179.949 254.5 180.223 253.233 181.226C252.056 182.229 250.608 184.235 249.884 186.97C249.16 189.706 249.251 193.171 249.432 197.001C249.613 200.831 249.794 205.026 250.065 209.403C250.699 218.248 251.423 226.181 251.875 231.926C252.147 234.844 252.237 237.124 252.418 238.765C252.418 239.495 252.509 240.133 252.509 240.589C252.509 241.045 252.509 241.227 252.509 241.227C252.509 241.227 252.418 241.045 252.418 240.589C252.328 240.133 252.328 239.495 252.237 238.765C252.056 237.124 251.875 234.753 251.604 231.926C251.061 226.181 250.246 218.248 249.613 209.403C249.341 205.026 249.07 200.831 248.979 197.001C248.798 193.171 248.798 189.706 249.613 186.879C250.337 184.052 251.875 182.046 253.143 181.043C253.776 180.496 254.319 180.223 254.681 180.04C255.134 179.858 255.315 179.767 255.315 179.858Z" fill="#455A64"/>
<path d="M274.141 200.649C274.232 200.558 275.589 202.199 276.585 204.479C277.58 206.85 277.761 208.947 277.671 208.947C277.49 208.947 277.128 206.941 276.132 204.661C275.137 202.381 274.051 200.74 274.141 200.649Z" fill="#455A64"/>
<path d="M282.378 115.844C282.378 115.844 277.942 116.665 276.223 123.504C275.408 126.878 272.24 149.219 272.24 149.219L241.467 155.511L246.535 165.268C246.535 165.268 279.843 160.526 288.623 157.699C297.402 154.872 282.378 115.844 282.378 115.844Z" fill="#3AAA35"/>
<path d="M334.512 119.583C331.615 115.753 318.22 110.646 318.22 110.646C304.1 117.394 297.674 116.573 293.329 112.288C293.329 112.288 284.369 114.02 280.658 116.938L282.83 163.262C282.649 163.353 273.055 169.007 273.055 169.007L266.448 174.66L335.96 184.417C338.223 182.867 337.951 180.132 336.141 177.305C336.141 177.305 333.697 162.988 333.697 155.328C333.697 143.565 339.218 125.692 334.512 119.583Z" fill="#3AAA35"/>
<g opacity="0.3">
<path d="M297.674 175.025C308.173 177.396 319.306 176.393 329.172 172.289C331.434 171.378 333.335 170.557 334.964 168.824L334.24 162.988C334.24 162.988 300.299 164.903 300.389 165.359C300.48 165.906 294.687 168.277 294.687 168.277L291.791 172.563L297.674 175.025Z" fill="black"/>
</g>
<path d="M220.74 127.06L216.757 129.249L226.804 144.295L225.989 147.304L230.153 150.86L232.868 146.939L296.859 178.125L297.855 174.751L259.207 133.808L230.877 142.015L220.74 127.06Z" fill="white"/>
<path d="M220.739 127.06C220.739 127.06 220.83 127.151 220.921 127.334C221.011 127.516 221.192 127.79 221.464 128.063C221.916 128.701 222.64 129.705 223.455 130.981C225.175 133.534 227.799 137.273 231.058 142.015L230.877 141.924C238.299 139.735 247.983 137 259.207 133.717H259.297H259.388C270.43 145.389 283.735 159.432 298.036 174.66L298.126 174.751V174.843C297.764 175.846 297.493 176.94 297.131 178.125V178.217L297.04 178.49L296.769 178.399C272.059 166.362 249.522 155.328 232.868 147.213L233.049 147.121C232.053 148.489 231.148 149.766 230.334 151.043L230.243 151.225L230.062 151.134C228.523 149.857 227.166 148.672 225.899 147.577L225.808 147.486V147.395C226.08 146.301 226.351 145.298 226.623 144.386V144.477C222.097 137.547 218.658 132.44 216.667 129.34V129.249H216.757C218.115 128.519 219.11 127.972 219.744 127.607C220.106 127.334 220.287 127.242 220.468 127.151C220.649 127.06 220.739 127.06 220.739 127.06C220.739 127.06 220.649 127.151 220.468 127.242C220.287 127.334 220.106 127.516 219.744 127.698C219.11 128.063 218.115 128.61 216.848 129.34V129.157C218.839 132.167 222.278 137.273 226.894 144.203V144.295V144.386C226.623 145.298 226.351 146.301 226.08 147.395L225.989 147.213C227.347 148.307 228.704 149.492 230.153 150.769H229.881C230.786 149.492 231.601 148.216 232.596 146.848L232.687 146.757L232.777 146.848C249.431 154.964 271.969 165.906 296.769 177.943L296.407 178.125V178.034C296.769 176.94 297.131 175.846 297.402 174.751L297.493 175.025C283.192 159.888 269.887 145.754 258.845 134.082L259.026 134.173C247.712 137.364 238.118 140.191 230.696 142.288H230.605L230.515 142.197C227.347 137.456 224.812 133.717 223.093 131.164C222.278 129.887 221.554 128.884 221.102 128.246C220.921 127.881 220.739 127.698 220.558 127.516C220.739 127.151 220.739 127.06 220.739 127.06Z" fill="#062018"/>
<path d="M257.759 138.276L230.424 145.571C230.424 145.571 229.338 148.124 228.161 148.033C228.161 148.033 226.894 148.398 226.623 147.121C226.351 145.845 227.437 144.659 227.437 144.659L216.123 127.425L215.037 127.972L226.08 144.933C226.08 144.933 224.813 146.939 226.532 149.036C228.252 151.134 255.948 178.49 255.948 178.49C257.94 179.311 259.75 179.402 261.379 178.49L298.579 178.308L257.759 138.276Z" fill="#85E1B5"/>
<path d="M321.058 128.954L317.948 153.78L289.019 159.852L296.847 172.472C306.35 172.472 321.478 171.379 329.081 169.191C335.055 167.458 336.141 162.078 337.137 155.877C338.585 146.12 338.766 137.548 338.947 136.363C339.49 131.712 337.93 118.295 331.414 118.812C327.851 119.943 325.436 119.797 321.921 125.946" fill="#4CBF47"/>
<path d="M275.77 167.73C274.503 167.821 273.779 166.271 274.593 165.268C274.956 164.812 275.589 164.174 276.404 163.444C279.029 161.164 289.075 159.979 289.075 159.979L295.592 170.374C295.592 170.374 294.868 172.928 289.98 175.299C287.808 176.393 282.106 179.493 281.744 179.402C281.382 179.311 280.567 178.49 280.567 178.49C280.567 178.49 279.572 179.311 278.576 178.581C277.58 177.852 277.037 176.94 277.852 176.393C278.666 175.846 286.722 167.639 286.631 167.639C286.45 167.639 276.585 176.119 276.042 175.846C275.589 175.572 272.602 175.025 274.231 172.837C275.861 170.648 283.101 164.174 283.101 164.174C283.101 164.174 276.947 167.639 275.77 167.73Z" fill="#FFBDBD"/>
<path d="M281.923 126.974C281.936 126.974 282.269 127.046 282.269 127.046C282.366 128.685 282.299 135.493 282.377 143.2C282.468 152.228 282.468 159.432 282.287 159.432C282.196 159.432 282.015 152.137 281.925 143.2C281.834 134.264 281.833 126.974 281.923 126.974Z" fill="#062018"/>
<path d="M331.435 118.939C331.038 119.016 330.313 119.192 329.262 119.491C327.995 119.947 326.275 120.859 324.737 122.409C323.198 123.868 322.202 125.601 321.75 126.878C321.207 128.154 321.116 129.066 321.026 129.066C321.026 129.066 321.026 128.884 321.026 128.428C321.116 128.063 321.207 127.425 321.478 126.786C321.931 125.419 322.926 123.595 324.465 122.136C326.004 120.586 327.814 119.601 329.262 119.236C329.967 119.059 330.934 118.802 331.326 118.709L331.435 118.939Z" fill="#062018"/>
<path d="M280.386 155.146C280.024 155.055 279.572 155.055 279.391 155.328C279.21 155.602 279.481 156.058 279.662 156.332C281.291 158.246 282.83 160.161 284.459 162.076L289.075 160.07C286.722 157.517 283.645 156.058 280.386 155.146Z" fill="#FFBDBD"/>
<path d="M324.524 158.447C324.407 158.283 323.421 156.709 321.43 155.341C319.439 153.973 318.673 153.892 317.916 153.775L317.973 153.568C318.555 153.557 320.007 153.99 321.713 155.186C323.395 156.365 324.452 157.754 324.694 158.301L324.524 158.447Z" fill="#062018"/>
<path d="M259.388 133.808C259.478 133.899 259.207 134.994 258.754 136.27C258.302 137.547 257.759 138.55 257.668 138.55C257.578 138.459 257.849 137.364 258.392 136.088C258.754 134.811 259.297 133.808 259.388 133.808Z" fill="#062018"/>
<path d="M261.379 178.308C261.379 178.308 261.288 178.217 261.017 178.034C260.745 177.761 260.474 177.487 260.112 177.122C259.297 176.21 258.12 175.116 256.763 173.657C253.957 170.739 250.065 166.636 245.811 162.167C241.557 157.608 237.665 153.505 234.95 150.587C233.592 149.128 232.506 147.942 231.691 147.03C231.329 146.665 231.058 146.301 230.786 146.027C230.605 145.754 230.515 145.662 230.515 145.662C230.515 145.662 230.605 145.754 230.877 145.936C231.148 146.209 231.42 146.483 231.782 146.848C232.596 147.76 233.773 148.854 235.131 150.313C237.937 153.231 241.829 157.334 246.083 161.803C250.337 166.362 254.229 170.466 256.944 173.384C258.302 174.843 259.388 176.028 260.202 176.94C260.564 177.305 260.836 177.669 261.107 177.943C261.288 178.125 261.379 178.308 261.379 178.308Z" fill="#062018"/>
<path d="M291.493 83.1163C291.67 84.2161 292.283 85.0309 292.844 84.9628C293.406 84.8946 293.745 83.8976 293.568 82.7978C293.392 81.698 292.796 80.886 292.234 80.9541C291.673 81.0223 291.337 82.0019 291.493 83.1163Z" fill="#10242E"/>
<path d="M302.093 90.0405C304.822 89.6898 306.884 88.2206 306.763 86.8078C306.642 85.3951 304.21 84.4613 301.481 84.8119C298.752 85.1626 296.698 86.5887 296.82 88.0015C296.941 89.4142 299.33 90.3395 302.093 90.0405Z" fill="#FBAFB3"/>
<path d="M278.081 89.6534C278.924 89.7678 279.768 89.3274 279.976 88.6974C280.184 88.0674 279.646 87.4202 278.803 87.3058C277.96 87.1914 277.126 87.6138 276.918 88.2438C276.71 88.8738 277.237 89.5131 278.081 89.6534Z" fill="#FBAFB3"/>
<path d="M281.79 83.854C281.97 85.0435 282.534 85.9396 283.046 85.8455C283.559 85.7514 283.829 84.743 283.632 83.5506C283.434 82.3582 282.897 81.7342 282.387 81.8109C281.878 81.8876 281.593 82.6615 281.79 83.854Z" fill="#10242E"/>
<path d="M287.059 82.1288L289.482 92.7545L284.327 93.492C284.005 93.4391 282.838 93.0304 283.016 92.728L287.059 82.1288Z" fill="#EC8492"/>
<path d="M296.371 96.8936L285.312 97.2339C285.312 97.2339 286.419 102.096 289.787 101.569C293.154 101.043 296.371 96.8936 296.371 96.8936Z" fill="white"/>
<path d="M279.368 79.0345C279.549 79.2169 280.636 78.305 282.174 78.1227C283.713 78.0315 284.98 78.761 285.161 78.5786C285.252 78.4874 284.98 78.1227 284.437 77.7579C283.894 77.3932 282.989 77.1196 282.084 77.2108C281.088 77.302 280.274 77.7579 279.911 78.1227C279.368 78.5786 279.187 78.9434 279.368 79.0345Z" fill="#062018"/>
<path d="M291.135 78.1222C291.316 78.3046 292.402 77.3927 293.941 77.2103C295.479 77.1191 296.746 77.8486 296.927 77.6663C297.018 77.5751 296.746 77.2103 296.203 76.8456C295.66 76.4808 294.755 76.2072 293.85 76.2984C292.854 76.3896 292.04 76.8456 291.678 77.2103C291.135 77.6663 290.954 78.031 291.135 78.1222Z" fill="#062018"/>
</g>
</g>
<defs>
<clipPath id="clip0_1863_900">
<rect width="537" height="333" fill="white" transform="matrix(-1 0 0 1 537 0)"/>
</clipPath>
<clipPath id="clip1_1863_900">
<rect width="124" height="208" fill="white" transform="translate(215.037 48)"/>
</clipPath>
</defs>
</svg>
