<svg width="537" height="333" viewBox="0 0 537 333" fill="none" xmlns="http://www.w3.org/2000/svg">
<g clip-path="url(#clip0)">
<g opacity="0.56">
<path opacity="0.56" d="M462.366 331.356C506.359 304.716 535.096 247.834 528.002 196.973C526.38 185.347 523.016 173.577 515.554 164.499C503.704 150.106 483.215 144.953 464.791 147.704C446.367 150.455 429.609 159.968 414.421 170.699C362.215 207.516 321.252 260.975 262.729 286.678C249.513 292.478 235.247 296.787 220.836 295.91C196.402 294.42 175.588 278.647 153.468 268.24C130.178 257.304 102.576 252.228 78.7145 261.861C54.8526 271.493 38.589 308.123 46.7678 332.472" fill="#EAFCE6"/>
<path opacity="0.56" d="M467.147 152.635C475.659 149.979 484.754 149.798 493.366 152.115C500.791 154.168 507.663 157.849 513.48 162.889C525.756 173.364 532.979 188.49 535.617 204.212C538.332 220.393 536.898 237.188 532.654 252.952C528.729 267.487 522.355 281.25 513.804 293.653C505.232 306.167 494.543 317.098 482.216 325.957C480.713 327.038 479.176 328.077 477.623 329.091C476.24 329.943 474.959 327.779 476.334 326.885C488.631 318.85 499.433 308.74 508.255 297.009C517.067 285.335 523.87 272.279 528.386 258.377C533.26 243.615 535.197 228.044 534.089 212.541C532.817 196.683 527.37 180.936 516.348 169.166C511.447 163.854 505.497 159.612 498.872 156.706C489.076 152.404 478.038 151.831 467.847 155.096C466.277 155.599 465.602 153.129 467.164 152.635H467.147Z" fill="#EAFCE6"/>
<path opacity="0.56" d="M213.304 301.56C198.823 293.335 183.896 285.963 168.594 279.478C153.273 272.893 137.561 267.302 121.553 262.737C106.198 258.446 89.4041 255.61 73.867 260.629C61.8855 264.506 50.4167 273.147 46.0424 285.606C43.843 291.878 44.1489 298.496 45.2652 304.971C46.5688 311.927 48.3962 318.769 50.7309 325.436C51.2188 326.884 51.7066 328.331 52.211 329.778C52.7154 331.226 50.3422 331.987 49.813 330.455C47.4207 323.842 45.3917 317.097 43.7355 310.252C42.2306 303.558 41.1473 296.423 42.3463 289.584C44.7029 276.236 55.5764 265.826 67.2024 260.511C81.9539 253.782 98.4833 254.696 113.921 258.192C122.366 260.203 130.706 262.649 138.909 265.521C146.947 268.23 154.904 271.178 162.782 274.366C178.57 280.754 193.987 288.068 208.955 296.27C210.823 297.292 212.684 298.33 214.536 299.385C215.925 300.172 214.677 302.373 213.279 301.577L213.304 301.56Z" fill="#EAFCE6"/>
<path opacity="0.56" d="M135.881 201.648C131.802 201.648 128.496 198.35 128.496 194.281C128.496 190.213 131.802 186.914 135.881 186.914C139.959 186.914 143.266 190.213 143.266 194.281C143.266 198.35 139.959 201.648 135.881 201.648Z" fill="#EAFCE6"/>
<path opacity="0.56" d="M117.713 170.494C117.713 170.046 117.846 169.608 118.096 169.236C118.345 168.863 118.7 168.573 119.115 168.401C119.53 168.23 119.987 168.185 120.427 168.273C120.868 168.36 121.272 168.576 121.59 168.893C121.907 169.209 122.124 169.613 122.211 170.052C122.299 170.492 122.254 170.947 122.082 171.361C121.91 171.775 121.619 172.129 121.246 172.378C120.872 172.627 120.433 172.76 119.984 172.76C119.382 172.76 118.804 172.521 118.378 172.096C117.952 171.671 117.713 171.095 117.713 170.494Z" fill="#EAFCE6"/>
<path opacity="0.56" d="M15.4987 260.188C15.3908 257.373 17.5912 255.003 20.4134 254.895C23.2357 254.788 25.6111 256.983 25.719 259.798C25.8269 262.614 23.6265 264.983 20.8043 265.091C17.982 265.199 15.6066 263.004 15.4987 260.188Z" fill="#EAFCE6"/>
<path opacity="0.56" d="M152.349 141.044C152.348 140.482 152.513 139.933 152.825 139.465C153.137 138.997 153.58 138.632 154.1 138.417C154.62 138.201 155.192 138.144 155.745 138.253C156.297 138.362 156.804 138.633 157.202 139.03C157.601 139.427 157.872 139.933 157.981 140.484C158.09 141.035 158.033 141.606 157.817 142.124C157.601 142.643 157.235 143.086 156.766 143.397C156.298 143.708 155.747 143.873 155.184 143.871C154.432 143.871 153.711 143.573 153.179 143.043C152.648 142.513 152.349 141.794 152.349 141.044Z" fill="#EAFCE6"/>
<path opacity="0.56" d="M143.782 78.5038C142.342 75.036 143.993 71.0604 147.469 69.624C150.945 68.1876 154.931 69.8344 156.371 73.3021C157.811 76.7699 156.16 80.7455 152.684 82.1819C149.207 83.6183 145.222 81.9715 143.782 78.5038Z" fill="#EAFCE6"/>
<path opacity="0.56" d="M239.217 5.10998C239.217 4.09932 239.517 3.11136 240.08 2.27103C240.643 1.4307 241.443 0.775738 242.379 0.388976C243.315 0.00221408 244.345 -0.0989805 245.339 0.098189C246.332 0.295359 247.245 0.782036 247.961 1.49668C248.678 2.21132 249.166 3.12183 249.363 4.11307C249.561 5.10431 249.459 6.13175 249.072 7.06548C248.684 7.99921 248.027 8.79727 247.185 9.35877C246.343 9.92026 245.352 10.22 244.339 10.22C242.981 10.22 241.678 9.68158 240.717 8.72328C239.757 7.76497 239.217 6.46523 239.217 5.10998Z" fill="#EAFCE6"/>
<path opacity="0.56" d="M479.398 138.208C477.201 138.208 475.42 136.431 475.42 134.239C475.42 132.047 477.201 130.27 479.398 130.27C481.596 130.27 483.377 132.047 483.377 134.239C483.377 136.431 481.596 138.208 479.398 138.208Z" fill="#EAFCE6"/>
<path opacity="0.56" d="M458.96 37.3879C453.627 37.3879 449.304 33.0754 449.304 27.7556C449.304 22.4358 453.627 18.1233 458.96 18.1233C464.293 18.1233 468.616 22.4358 468.616 27.7556C468.616 33.0754 464.293 37.3879 458.96 37.3879Z" fill="#EAFCE6"/>
<path opacity="0.56" d="M431.137 22.0921C431.135 21.5308 431.3 20.9817 431.612 20.5142C431.923 20.0467 432.367 19.6819 432.886 19.4659C433.405 19.2499 433.977 19.1926 434.529 19.301C435.081 19.4095 435.588 19.6789 435.987 20.0752C436.385 20.4715 436.657 20.9768 436.767 21.5272C436.878 22.0775 436.822 22.6482 436.607 23.1669C436.392 23.6856 436.028 24.1291 435.56 24.4411C435.092 24.7531 434.542 24.9196 433.98 24.9196C433.227 24.9196 432.505 24.622 431.972 24.092C431.44 23.562 431.139 22.8428 431.137 22.0921Z" fill="#EAFCE6"/>
<path opacity="0.56" d="M489.054 80.4311C489.054 80.0942 489.154 79.7649 489.342 79.4848C489.53 79.2047 489.796 78.9864 490.108 78.8574C490.42 78.7285 490.764 78.6948 491.095 78.7605C491.426 78.8262 491.73 78.9885 491.969 79.2267C492.208 79.4649 492.37 79.7684 492.436 80.0988C492.502 80.4292 492.468 80.7717 492.339 81.0829C492.21 81.3942 491.991 81.6602 491.71 81.8474C491.429 82.0345 491.099 82.1344 490.762 82.1344C490.309 82.1344 489.874 81.955 489.554 81.6355C489.234 81.3161 489.054 80.8829 489.054 80.4311Z" fill="#EAFCE6"/>
<path opacity="0.56" d="M333.478 62.3077C333.478 61.2971 333.778 60.3091 334.341 59.4688C334.904 58.6284 335.704 57.9735 336.64 57.5867C337.576 57.2 338.606 57.0988 339.6 57.2959C340.593 57.4931 341.506 57.9798 342.222 58.6944C342.939 59.4091 343.427 60.3196 343.624 61.3108C343.822 62.3021 343.72 63.3295 343.333 64.2632C342.945 65.197 342.288 65.995 341.446 66.5565C340.604 67.118 339.613 67.4177 338.6 67.4177C337.242 67.4177 335.939 66.8793 334.978 65.921C334.018 64.9627 333.478 63.663 333.478 62.3077Z" fill="#EAFCE6"/>
<path opacity="0.56" d="M65.4674 51.9515C65.4674 50.9409 65.7679 49.9529 66.3307 49.1126C66.8936 48.2722 67.6936 47.6173 68.6296 47.2305C69.5656 46.8438 70.5955 46.7426 71.5892 46.9397C72.5828 47.1369 73.4956 47.6236 74.2119 48.3382C74.9283 49.0529 75.4162 49.9634 75.6139 50.9546C75.8115 51.9459 75.7101 52.9733 75.3224 53.907C74.9347 54.8408 74.2781 55.6388 73.4357 56.2003C72.5934 56.7618 71.603 57.0615 70.5899 57.0615C69.2313 57.0615 67.9284 56.5231 66.9677 55.5648C66.0071 54.6065 65.4674 53.3068 65.4674 51.9515Z" fill="#EAFCE6"/>
</g>
<path d="M447.033 332.489C447.033 332.489 376.062 198.778 376.626 200.481" stroke="#AFEEAE" stroke-miterlimit="10"/>
<path d="M455.554 278.119H417.511" stroke="#AFEEAE" stroke-miterlimit="10"/>
<path d="M444.762 256.589H406.72" stroke="#AFEEAE" stroke-miterlimit="10"/>
<path d="M476.564 314.936H438.521" stroke="#AFEEAE" stroke-miterlimit="10"/>
<path d="M465.773 296.242H427.73" stroke="#AFEEAE" stroke-miterlimit="10"/>
<path d="M485.076 332.489C485.076 332.489 414.105 198.778 414.668 200.481" stroke="#AFEEAE" stroke-miterlimit="10"/>
<path d="M513.949 332.148L40.1257 332.148" stroke="#1E334D" stroke-width="1.09" stroke-miterlimit="10" stroke-linecap="round"/>
<path d="M438.18 206.656H115.732C111.931 206.656 108.285 208.163 105.597 210.844C102.908 213.526 101.398 217.163 101.398 220.955V230.962H452.48V220.955C452.48 217.169 450.975 213.537 448.294 210.856C445.613 208.176 441.976 206.665 438.18 206.656Z" fill="#254A4C"/>
<path d="M358.988 230.417V330.854" stroke="#1C554E" stroke-width="4.9" stroke-miterlimit="10"/>
<path d="M449.825 330.854V230.417" stroke="#1C554E" stroke-width="4.9" stroke-miterlimit="10"/>
<path d="M449.825 296.625H103.259" stroke="#1C554E" stroke-width="2.16" stroke-miterlimit="10"/>
<path d="M103.669 230.417V330.854" stroke="#1C554E" stroke-width="4.9" stroke-miterlimit="10"/>
<path d="M194.507 330.854V230.417" stroke="#1C554E" stroke-width="4.9" stroke-miterlimit="10"/>
<path d="M100.451 229.353H455.741V234.718H100.451V229.353Z" fill="#1C554E"/>
<path d="M455.741 331.484V331.203C455.741 330.019 455.27 328.884 454.431 328.047C453.592 327.21 452.454 326.74 451.268 326.74H447.127C445.941 326.74 444.803 327.21 443.964 328.047C443.125 328.884 442.654 330.019 442.654 331.203" fill="#1C554E"/>
<path d="M360.319 327.192H356.58C355.509 327.192 354.482 327.616 353.725 328.372C352.967 329.127 352.542 330.152 352.542 331.22V331.476H364.358V331.22C364.358 330.152 363.932 329.127 363.175 328.372C362.417 327.616 361.39 327.192 360.319 327.192Z" fill="#1C554E"/>
<path d="M195.309 327.192H191.57C190.499 327.192 189.472 327.616 188.714 328.372C187.957 329.127 187.532 330.152 187.532 331.22V331.476H199.347V331.22C199.347 330.152 198.922 329.127 198.165 328.372C197.407 327.616 196.38 327.192 195.309 327.192Z" fill="#1C554E"/>
<path d="M105.547 327.192H101.808C100.737 327.192 99.7099 327.616 98.9526 328.372C98.1953 329.127 97.7699 330.152 97.7699 331.22V331.476H109.586V331.22C109.586 330.152 109.16 329.127 108.403 328.372C107.646 327.616 106.618 327.192 105.547 327.192Z" fill="#1C554E"/>
<path d="M408.385 148.385C375.426 148.385 348.708 121.732 348.708 88.854C348.708 55.9758 375.426 29.3228 408.385 29.3228C441.343 29.3228 468.061 55.9758 468.061 88.854C468.061 121.732 441.343 148.385 408.385 148.385Z" fill="#EAFCE6"/>
<path d="M456.783 129.172H401.708C392.769 129.172 385.522 121.942 385.522 113.024V65.5099C385.522 56.5918 392.769 49.3623 401.708 49.3623L456.783 49.3623C465.723 49.3623 472.97 56.5918 472.97 65.5099V113.024C472.97 121.942 465.723 129.172 456.783 129.172Z" fill="#AFEEAE"/>
<path d="M407.104 118.739C399.685 120.621 391.353 124.198 393.103 109.575C394.426 98.2818 407.087 69.6915 415.189 66.1997C423.291 62.7079 426.689 64.556 427.935 76.3174C429.258 88.8369 431.137 112.641 407.104 118.739Z" fill="#1C3255"/>
<path d="M409.725 90.2763L405.9 89.2884C407.061 84.8086 409.315 82.9179 410.946 82.1259C412.082 81.5643 413.359 81.3481 414.617 81.5042C418.945 81.7937 422.505 80.0478 425.186 76.292C427.089 73.5194 428.344 70.3556 428.857 67.0344L432.767 67.571C432.166 71.5222 430.672 75.2852 428.396 78.5745C424.896 83.48 419.995 85.8476 414.241 85.3878H414.011C413.584 85.3707 411.014 85.2941 409.725 90.2763Z" fill="#E6E6E6"/>
<path d="M421.31 81.6404C421.344 85.728 420.076 89.7208 417.69 93.0442C417.323 93.5552 416.47 93.0442 416.837 92.5502C419.129 89.3739 420.351 85.554 420.328 81.6404C420.344 81.5217 420.403 81.4126 420.493 81.3337C420.583 81.2547 420.699 81.2112 420.819 81.2112C420.939 81.2112 421.055 81.2547 421.146 81.3337C421.236 81.4126 421.295 81.5217 421.31 81.6404Z" fill="#E6E6E6"/>
<path d="M420.038 87.8575C416.276 89.1795 412.916 91.438 410.274 94.4189C407.632 97.3998 405.798 101.004 404.944 104.891C404.816 105.512 403.86 105.248 403.996 104.635C404.886 100.581 406.799 96.8216 409.555 93.7124C412.31 90.6032 415.816 88.2478 419.739 86.8696C420.346 86.6652 420.593 87.6191 420.004 87.8235L420.038 87.8575Z" fill="#E6E6E6"/>
<path d="M411.501 92.729C413.831 97.5576 414.721 102.953 414.062 108.272C413.985 108.885 412.995 108.894 413.08 108.272C413.73 103.129 412.886 97.9088 410.647 93.2315C410.382 92.6609 411.228 92.1584 411.501 92.729Z" fill="#E6E6E6"/>
<path d="M454.427 118.739C461.846 120.621 470.178 124.198 468.428 109.575C467.079 98.2818 454.452 69.6915 446.342 66.1997C438.231 62.7079 434.842 64.556 433.596 76.3174C432.272 88.8369 430.428 112.641 454.427 118.739Z" fill="#1C3255"/>
<path d="M452.326 89.348C452.011 86.793 448.544 85.3962 447.093 85.4558H446.367C434.782 85.4558 430.146 74.1117 429.182 67.2814C428.584 62.9379 429.182 50.4355 429.182 49.9075L433.126 50.0778C433.126 50.2056 432.563 62.7591 433.126 66.7448C433.339 68.3034 435.542 81.964 446.965 81.5127C448.916 81.5407 450.817 82.1324 452.437 83.216C453.458 83.8179 454.332 84.6381 454.996 85.6175C455.66 86.5968 456.098 87.7109 456.279 88.8795L452.326 89.348Z" fill="#E6E6E6"/>
<path d="M440.528 81.6405C440.497 85.5553 441.72 89.3777 444.02 92.5502C444.387 93.0698 443.533 93.5552 443.166 93.0442C440.778 89.7216 439.507 85.7289 439.537 81.6405C439.537 81.5094 439.59 81.3838 439.683 81.2912C439.775 81.1985 439.901 81.1465 440.033 81.1465C440.164 81.1465 440.29 81.1985 440.383 81.2912C440.476 81.3838 440.528 81.5094 440.528 81.6405Z" fill="#E6E6E6"/>
<path d="M441.091 86.8696C445.026 88.246 448.541 90.6045 451.303 93.7203C454.065 96.8361 455.981 100.606 456.868 104.669C457.005 105.283 456.015 105.521 455.921 104.925C455.065 101.039 453.23 97.4353 450.589 94.4546C447.948 91.474 444.588 89.215 440.827 87.8916C440.229 87.6872 440.485 86.7334 441.091 86.9378V86.8696Z" fill="#E6E6E6"/>
<path d="M450.141 93.2315C447.928 97.9165 447.11 103.137 447.785 108.272C447.861 108.894 446.88 108.894 446.794 108.272C446.119 102.96 446.984 97.5658 449.287 92.729C449.56 92.1584 450.406 92.6609 450.141 93.2315Z" fill="#E6E6E6"/>
<path d="M410.758 75.2956C415.496 76.1562 419.936 78.2081 423.658 81.2573C424.145 81.6575 423.445 82.3559 422.958 81.9556C419.359 79.0234 415.068 77.059 410.493 76.2495C409.87 76.1302 410.135 75.1849 410.758 75.2956Z" fill="#E6E6E6"/>
<path d="M439.102 80.2864C441.673 77.4024 445.178 75.5121 449.005 74.9465C449.629 74.8528 449.859 75.7981 449.27 75.9003C445.608 76.4331 442.253 78.2437 439.802 81.0103C439.375 81.4872 438.684 80.7889 439.102 80.3205V80.2864Z" fill="#E6E6E6"/>
<path d="M477.256 65.7015C468.639 64.2102 462.864 56.0322 464.359 47.4355C465.854 38.8387 474.052 33.0785 482.67 34.5698C491.288 36.0611 497.062 44.2391 495.567 52.8359C494.072 61.4326 485.874 67.1928 477.256 65.7015Z" fill="#3AAA35"/>
<path d="M472.655 50.2481L477.734 55.307L487.501 45.5554" stroke="white" stroke-width="3.03" stroke-miterlimit="10" stroke-linecap="round"/>
<path d="M374.611 200.43L375.567 198.522L381.313 198.735L381.441 200.43L378.743 205.097L373.885 201.358L374.611 200.43Z" fill="#F69491"/>
<path d="M378.111 198.718L378.35 203.13C379.505 202.437 380.588 201.632 381.586 200.728L381.347 198.224L378.111 198.718Z" fill="#D46F6C"/>
<path d="M374.261 200.362C375.602 200.453 376.88 200.963 377.915 201.818C379.076 202.67 380.843 200.873 381.39 200.405C381.492 200.311 381.646 200.405 381.663 200.566L382.346 206.733H365.271C365.162 206.716 365.064 206.657 364.997 206.57C364.931 206.483 364.9 206.373 364.912 206.264V204.97C364.904 204.879 364.924 204.789 364.968 204.71C365.012 204.631 365.079 204.567 365.16 204.527L374.261 200.362Z" fill="#3AAA35"/>
<path d="M373.296 200.686L376.054 202.27" stroke="white" stroke-width="0.28" stroke-miterlimit="10"/>
<path d="M372.101 201.299L374.85 202.883" stroke="white" stroke-width="0.28" stroke-miterlimit="10"/>
<path d="M414.6 197.875L414.446 195.755L418.553 192.365L420.457 194.358L420.568 199.749L414.472 199.051L414.6 197.875Z" fill="#F69491"/>
<path d="M416.324 192.919L418.886 198.029C419.511 196.836 420.023 195.587 420.414 194.298L417.929 191.786L416.324 192.919Z" fill="#D46F6C"/>
<path d="M414.019 198.105C415.156 197.395 416.488 197.058 417.827 197.143C419.295 197.143 419.645 194.665 419.808 193.966C419.808 193.821 420.013 193.804 420.124 193.966L424.307 198.523L410.476 208.538C410.377 208.588 410.263 208.598 410.157 208.566C410.05 208.534 409.96 208.464 409.904 208.368L409.145 207.32C409.086 207.251 409.05 207.167 409.039 207.078C409.029 206.989 409.044 206.898 409.085 206.818L414.019 198.105Z" fill="#3AAA35"/>
<path d="M413.353 199.076L416.529 199.017" stroke="white" stroke-width="0.28" stroke-miterlimit="10"/>
<path d="M412.636 200.217L415.821 200.158" stroke="white" stroke-width="0.28" stroke-miterlimit="10"/>
<path d="M363.418 50.4015C362.838 49.9075 362.394 49.7457 363.777 48.4937C365.16 47.2418 372.681 51.2276 373.33 50.3163C373.979 49.405 374.184 48.7833 376.233 49.4646C378.282 50.146 376.813 51.6193 376.813 51.6193C378.521 51.7301 377.531 54.251 377.531 54.251C378.384 55.537 378.077 60.2637 378.077 60.2637V60.3148L376.37 61.8052L376.293 61.703L376.207 61.6008L376.344 61.4901L372.605 58.9351C371.708 58.6304 370.907 58.0959 370.282 57.3851C369.54 56.5334 368.575 57.2659 367.721 57.1296C367.322 57.0217 366.958 56.8135 366.663 56.5249C366.101 56.3122 365.629 55.9159 365.322 55.4007C362.59 55.4007 360.388 52.701 364.392 51.1424L363.418 50.4015ZM377.428 60.4681C377.122 60.6412 376.864 60.887 376.677 61.1835L377.053 60.8599L377.428 60.4681Z" fill="#0E162E"/>
<path d="M375.644 125.773C375.644 125.773 373.441 152.005 373.236 159.252C373.031 166.5 374.483 198.803 374.483 198.803L383.626 198.965C383.626 198.965 390.021 144.766 398.9 127.289L375.644 125.773Z" fill="#254A4C"/>
<path d="M386.742 127.162C386.742 127.162 380.493 157.455 380.493 162.08C380.493 166.704 379.571 198.701 379.571 198.701" stroke="white" stroke-width="0.28" stroke-miterlimit="10"/>
<path d="M384.13 195.431H374.44" stroke="white" stroke-width="0.28" stroke-miterlimit="10"/>
<path d="M375.396 130.304C375.396 130.304 379.938 157.779 383.635 164.575C391.839 174.889 411.757 197.926 411.757 197.926L419.688 191.479L400.658 163.519C399.571 161.927 398.636 160.236 397.867 158.469C394.938 151.8 402.477 131.122 399.839 122.069L375.396 130.304Z" fill="#85E1B5"/>
<path d="M387.596 128.294C387.596 128.294 387.178 157.745 390.721 161.152C394.264 164.558 416.333 194.145 416.333 194.145" stroke="#0E162E" stroke-width="0.28" stroke-miterlimit="10"/>
<path d="M417.46 188.388L409.042 194.852" stroke="#0E162E" stroke-width="0.28" stroke-miterlimit="10"/>
<path d="M347.172 98.3671C347.172 98.3671 363.922 109.439 366.91 108.306C369.898 107.173 379.87 77.5525 372.468 76.309C372.468 76.309 370.521 74.9379 369.19 76.6923C367.858 78.4467 363.692 82.8839 361.13 98.4267C361.13 98.4267 348.324 94.1684 347.266 93.6574" fill="#F69491"/>
<path d="M360.277 95.4884C360.277 95.4884 365.134 68.5163 375.644 73.7455C381.543 76.6667 371.845 107.557 368.814 110.98L347.667 102.2L348.444 94.0577L360.277 95.4884Z" fill="white"/>
<path d="M382.798 70.9691C382.798 70.9691 394.272 69.6916 396.987 78.8044C399.702 87.9171 405.362 129.299 405.362 129.299L374.628 134.171L365.775 87.8405C365.371 85.4605 365.604 83.0164 366.449 80.7547C367.226 78.6681 368.157 76.3005 368.908 76.0365L379.614 69.5212L382.798 70.9691Z" fill="#39714F"/>
<path d="M380.869 70.3303L374.577 83.3522L371.128 74.3672" stroke="white" stroke-width="0.25" stroke-miterlimit="10"/>
<path d="M383.387 69.8364C383.387 69.8364 376.557 77.1352 376.412 89.8675C376.267 102.6 379.059 137.118 379.059 137.118L408.462 132.008C408.462 132.008 400.308 86.7419 399.275 83.9911C398.242 81.2402 398.618 73.2771 389.935 71.2928L383.387 69.8364Z" fill="white"/>
<path d="M384.711 70.3813L384.523 85.0896L380.92 86.4607L383.481 90.0888L377.65 107.667C377.65 107.667 375.174 88.5984 378.145 81.6488C381.116 74.6993 383.754 71.5396 383.754 71.5396L384.711 70.3813Z" fill="#228276"/>
<path d="M385.12 70.143L382.713 83.7185L379.972 85.2686L382.329 88.4367L377.275 105.981C377.275 105.981 374.799 86.9123 377.77 79.9627C380.741 73.0131 380.442 68.6611 380.442 68.6611L385.12 70.143Z" fill="white"/>
<path d="M372.075 79.0087L372.169 79.7923L376.25 135.661L369.241 137.365C369.241 137.365 363.948 87.8916 364.75 84.7404C365.553 81.5893 367.106 75.9087 371.128 74.3672L372.075 79.0087Z" fill="white"/>
<path d="M374.5 105.785L368.438 92.0307L370.624 88.7603L367.55 85.9243L369.676 75.4829L371.213 74.8867L374.5 105.785Z" fill="#228276"/>
<path d="M375.038 104.201L368.985 90.4467L371.17 87.1678L368.097 84.3317L370.223 73.8904L371.759 73.2942L375.038 104.201Z" fill="white"/>
<path d="M385.47 77.791C385.47 77.791 408.444 97.3793 406.028 102.907C404.62 106.151 399.685 103.196 395.843 100.19C392.774 97.7867 390.523 94.4972 389.398 90.7704L385.47 77.791Z" fill="#254A4C"/>
<path d="M413.012 123.193L405.61 122.427C405.61 122.427 403.365 129.282 403.663 130.304C404.227 132.263 406.088 127.673 406.088 127.673C406.088 127.673 405.567 137.833 406.208 137.808C406.848 137.782 407.488 133.694 407.796 131.906C408.103 130.117 406.942 137.867 407.428 138.259C408.376 138.906 409.99 133.149 409.879 131.565C409.879 131.565 409.605 138.676 410.075 137.765C410.545 136.854 411.407 136.062 411.569 132.57C411.731 129.078 411.569 136.53 412.03 136.615C413.277 136.811 413.012 123.193 413.012 123.193Z" fill="#F69491"/>
<path d="M387.101 82.8924C387.101 82.8924 381.33 76.505 386.99 73.2261C391.959 70.356 402.067 76.3346 411.919 95.2586C414.156 99.5169 415.59 119.727 414.122 125.45L403.023 122.35L401.478 102.762L387.101 82.8924Z" fill="white"/>
<path d="M377.275 105.981C377.317 106.483 377.488 106.884 377.65 106.832C377.812 106.781 377.915 106.407 377.872 105.904C377.829 105.402 377.659 105.001 377.496 105.052C377.334 105.104 377.232 105.478 377.275 105.981Z" fill="white"/>
<path d="M377.445 63.3467L379.469 69.5127L374.619 79.8008L372.57 73.7284L371.947 68.4056L376.165 62.5376C376.545 62.6905 376.906 62.8877 377.24 63.1252C377.297 63.2093 377.366 63.2841 377.445 63.3467Z" fill="#F69491"/>
<path d="M376.165 62.5376L371.947 68.4056L372.229 71.5908C372.229 71.5908 376.711 69.2487 376.02 65.2885" fill="#0E162E"/>
<path d="M376.293 60.6724C376.315 60.7075 376.346 60.7365 376.383 60.7566C376.419 60.7767 376.46 60.7872 376.502 60.7872C376.544 60.7872 376.585 60.7767 376.621 60.7566C376.658 60.7365 376.689 60.7075 376.711 60.6724C377.044 60.1614 377.77 59.4034 378.419 61.0045C379.323 63.1763 376.873 63.2955 376.711 63.6447C376.463 64.343 375.687 66.6851 374.03 67.903C373.448 68.3487 372.746 68.6118 372.013 68.6588C371.28 68.7058 370.55 68.5346 369.915 68.167C368.447 67.2642 368.071 68.167 365.877 55.605C366.306 56.1194 366.885 56.4884 367.533 56.661C368.495 56.8264 369.485 56.7141 370.385 56.3374C371.085 55.9712 372.272 59.7441 373.749 56.0904C374.474 57.172 375.704 59.7696 376.293 60.6724Z" fill="#F69491"/>
<path d="M378.043 60.9194L377.001 62.1713C377.001 62.1713 376.976 59.7526 378.043 60.9194Z" fill="#EC8492"/>
<path d="M368.814 61.5922C368.874 61.8648 369.027 62.0606 369.164 62.0351C369.301 62.0095 369.352 61.7626 369.292 61.49C369.232 61.2175 369.079 61.0216 368.951 61.0472C368.823 61.0727 368.763 61.3197 368.814 61.5922Z" fill="#0E162E"/>
<path d="M367.2 61.6944C367.252 61.967 367.414 62.1628 367.542 62.1288C367.67 62.0947 367.738 61.8562 367.679 61.5837C367.619 61.3112 367.465 61.1153 367.329 61.1494C367.192 61.1834 367.107 61.4219 367.2 61.6944Z" fill="#0E162E"/>
<path d="M370.393 59.0288C370.803 59.1991 370.001 58.1771 369.48 58.1771C369.366 58.1642 369.251 58.1741 369.142 58.2063C369.032 58.2386 368.93 58.2924 368.842 58.3647C368.753 58.437 368.68 58.5262 368.627 58.6271C368.574 58.728 368.542 58.8385 368.532 58.9522C369.142 58.7579 369.802 58.7851 370.393 59.0288Z" fill="#0E162E"/>
<path d="M366.688 59.7015C366.961 59.5994 367.25 59.5447 367.542 59.5397C367.455 59.3473 367.303 59.1911 367.113 59.0979C366.923 59.0047 366.706 58.9802 366.5 59.0287" fill="#0E162E"/>
<path d="M367.96 61.5155L367.678 63.7639C367.677 63.7724 367.678 63.7811 367.68 63.7894C367.683 63.7976 367.687 63.8052 367.693 63.8117C367.698 63.8182 367.705 63.8233 367.713 63.8268C367.721 63.8304 367.73 63.8321 367.738 63.832L368.592 63.7043C368.592 63.7043 368.643 63.7043 368.592 63.6362L367.986 61.5155C367.977 61.5134 367.969 61.5134 367.96 61.5155Z" fill="#D46F6C"/>
<path d="M347.257 93.683C347.257 93.683 343.279 88.2153 343.782 89.8846C344.286 91.5538 344.542 92.3629 344.542 92.3629C344.542 92.3629 339.002 90.9151 338.754 91.111C337.977 91.7412 342.468 93.3168 342.468 93.3168C342.468 93.3168 338.455 91.7668 338.199 92.414C337.943 93.0613 341.81 94.5006 341.81 94.5006C341.81 94.5006 337.388 92.7377 337.934 93.5723C338.481 94.4069 341.597 95.8633 341.597 95.8633C341.597 95.8633 338.045 94.4325 338.506 95.2075C338.967 95.9825 347.343 98.2905 347.343 98.2905" fill="#F69491"/>
<path d="M342.963 94.6707C342.701 93.0222 342.896 91.3335 343.526 89.7874C344.157 88.2413 345.199 86.8966 346.54 85.8986C349.033 83.8631 351.756 82.1087 355.077 82.6282C357.639 83.0115 359.901 84.3315 362.146 85.4217C363.854 86.2733 366.21 87.6871 368.225 87.125C368.79 86.9009 369.299 86.556 369.717 86.1146C370.134 85.6732 370.45 85.146 370.641 84.57C371.509 82.2984 372.01 79.9039 372.126 77.4757C372.195 76.7347 373.364 76.7262 373.296 77.4757C372.997 80.6098 372.698 84.9873 370.206 87.3038C368.66 88.7346 366.577 88.5473 364.725 87.883C360.456 86.35 355.453 81.9213 350.809 84.4763C348.597 85.6857 346.19 87.2783 344.892 89.5011C344.06 91.1041 343.792 92.9401 344.132 94.7133C344.235 95.4543 343.065 95.4457 342.963 94.7133V94.6707Z" fill="#66BC5F"/>
<path d="M345.464 96.3487C345.324 95.9196 345.114 95.5167 344.841 95.1564C344.703 94.9766 344.522 94.8336 344.315 94.74C344.108 94.6464 343.881 94.6051 343.654 94.6198C343.363 94.6953 343.099 94.8499 342.891 95.0664C342.683 95.283 342.539 95.553 342.476 95.8463C342.387 96.1226 342.329 96.4084 342.306 96.6979C342.306 96.7661 342.306 96.8597 342.382 96.8938C342.424 96.9059 342.469 96.9059 342.51 96.8938C343.364 96.5787 344.38 96.8342 345.251 96.5106" fill="#66BC5F"/>
<path d="M342.348 97.558L345.575 96.8596C345.676 96.8372 345.763 96.7764 345.819 96.6905C345.875 96.6045 345.895 96.5001 345.874 96.3997C345.864 96.3497 345.844 96.3022 345.815 96.26C345.786 96.2177 345.749 96.1817 345.707 96.1539C345.664 96.1262 345.616 96.1072 345.565 96.0983C345.515 96.0893 345.463 96.0904 345.413 96.1017L342.177 96.8C342.077 96.8225 341.99 96.8832 341.934 96.9692C341.878 97.0551 341.858 97.1595 341.879 97.2599C341.903 97.3605 341.966 97.4478 342.053 97.5034C342.141 97.5589 342.247 97.5785 342.348 97.558Z" fill="#1F861B"/>
<path d="M377.479 61.3197C382.166 60.3147 380.621 67.145 379.913 69.5127C379.445 71.3021 378.738 73.0207 377.812 74.6226C376.335 76.9732 372.937 78.8809 370.496 76.7773C368.054 74.6737 368.421 70.8157 368.327 68.0819C368.327 67.3239 369.471 67.3324 369.497 68.0819C369.574 70.3473 369.394 73.0045 370.581 75.0485C370.918 75.6884 371.494 76.1705 372.184 76.3904C372.874 76.6103 373.623 76.5505 374.269 76.2238C375.274 75.7458 376.134 75.0113 376.762 74.0946C377.514 72.8226 378.107 71.4642 378.529 70.0492C379.133 68.383 379.495 66.6394 379.605 64.8711C379.605 63.5936 379.392 62.1373 377.787 62.4779C377.052 62.6312 376.745 61.507 377.479 61.3537V61.3197Z" fill="#66BC5F"/>
<path d="M377.07 60.7832H377.326C377.579 60.8251 377.806 60.9646 377.958 61.1716C378.11 61.3786 378.174 61.6366 378.137 61.8904C378.122 62.0199 378.081 62.1452 378.017 62.2587C377.953 62.3722 377.867 62.4717 377.763 62.5512C377.659 62.6307 377.541 62.6885 377.414 62.7213C377.288 62.7541 377.156 62.7611 377.027 62.742H376.771L377.07 60.7832Z" fill="#1F861B"/>
<path d="M177.243 99.8791C156.438 79.1251 156.438 45.4764 177.243 24.7225C198.047 3.96855 231.778 3.96855 252.583 24.7225C273.387 45.4764 273.387 79.1252 252.583 99.8791C231.778 120.633 198.047 120.633 177.243 99.8791Z" fill="#EAFCE6"/>
<path d="M204.188 98.4693C206.226 98.4693 208.18 97.6617 209.621 96.2243C211.062 94.7868 211.872 92.8372 211.872 90.8043V42.3277H196.504V90.8214C196.504 92.8542 197.314 94.8039 198.755 96.2413C200.196 97.6788 202.15 98.4863 204.188 98.4863V98.4693Z" fill="white"/>
<path d="M198.622 60.6638V90.8127C198.622 92.2877 199.209 93.7022 200.255 94.7452C201.3 95.7881 202.718 96.374 204.197 96.374C205.675 96.374 207.093 95.7881 208.139 94.7452C209.184 93.7022 209.771 92.2877 209.771 90.8127V60.6638H198.622Z" fill="#3AAA35"/>
<path d="M211.359 46.0493H196.803C195.752 46.0493 194.899 45.199 194.899 44.1501V38.461C194.899 37.4121 195.752 36.5618 196.803 36.5618H211.359C212.411 36.5618 213.263 37.4121 213.263 38.461V44.1501C213.263 45.199 212.411 46.0493 211.359 46.0493Z" fill="#3AAA35"/>
<path d="M204.419 89.8931H196.513V63.6874H204.419V89.8931Z" fill="#BFFCA3"/>
<path d="M198.997 66.3105V85.3282" stroke="#FBFAF6" stroke-width="0.82" stroke-miterlimit="10"/>
<path d="M201.482 66.3105V85.3282" stroke="#FBFAF6" stroke-width="0.82" stroke-miterlimit="10"/>
<path d="M198.673 37.9502V44.2014" stroke="#FBFAF6" stroke-width="0.58" stroke-miterlimit="10" stroke-linecap="round"/>
<path d="M202.301 37.9502V44.2014" stroke="#FBFAF6" stroke-width="0.58" stroke-miterlimit="10" stroke-linecap="round"/>
<path d="M205.93 37.9502V44.2014" stroke="#FBFAF6" stroke-width="0.58" stroke-miterlimit="10" stroke-linecap="round"/>
<path d="M209.558 37.9502V44.2014" stroke="#FBFAF6" stroke-width="0.58" stroke-miterlimit="10" stroke-linecap="round"/>
<path d="M211.351 46.0579C210.711 46.5007 196.368 55.0599 196.368 55.0599L196.803 46.0579H211.351Z" fill="#EAFCE6"/>
<path d="M224.242 72.9791C226.28 72.9791 228.235 72.1715 229.675 70.734C231.116 69.2966 231.926 67.347 231.926 65.3141V16.8545H216.559V65.3311C216.559 67.364 217.368 69.3136 218.809 70.7511C220.25 72.1885 222.205 72.9961 224.242 72.9961V72.9791Z" fill="white"/>
<path d="M218.667 35.1736V65.3224C218.667 66.7974 219.255 68.212 220.3 69.2549C221.346 70.2979 222.764 70.8838 224.242 70.8838C225.721 70.8838 227.139 70.2979 228.184 69.2549C229.23 68.212 229.817 66.7974 229.817 65.3224V35.1736H218.667Z" fill="#3AAA35"/>
<path d="M231.405 20.5676L216.849 20.5676C215.797 20.5676 214.945 19.7173 214.945 18.6684V12.9793C214.945 11.9304 215.797 11.0801 216.849 11.0801L231.405 11.0801C232.457 11.0801 233.309 11.9304 233.309 12.9793V18.6684C233.309 19.7173 232.457 20.5676 231.405 20.5676Z" fill="#3AAA35"/>
<path d="M224.473 64.4028H216.567V38.1972H224.473V64.4028Z" fill="#BFFCA3"/>
<path d="M219.052 40.8203V59.8379" stroke="#FBFAF6" stroke-width="0.82" stroke-miterlimit="10"/>
<path d="M221.527 40.8203V59.8379" stroke="#FBFAF6" stroke-width="0.82" stroke-miterlimit="10"/>
<path d="M218.727 12.46V18.7112" stroke="#FBFAF6" stroke-width="0.58" stroke-miterlimit="10" stroke-linecap="round"/>
<path d="M222.356 12.46V18.7112" stroke="#FBFAF6" stroke-width="0.58" stroke-miterlimit="10" stroke-linecap="round"/>
<path d="M225.984 12.46V18.7112" stroke="#FBFAF6" stroke-width="0.58" stroke-miterlimit="10" stroke-linecap="round"/>
<path d="M229.612 12.46V18.7112" stroke="#FBFAF6" stroke-width="0.58" stroke-miterlimit="10" stroke-linecap="round"/>
<path d="M231.363 20.5676C231.277 20.5676 217.31 28.8543 216.371 29.5697L216.849 20.5676H231.363Z" fill="#EAFCE6"/>
<path d="M209.695 19.4946C209.695 15.8325 203.044 5.97876 203.044 5.97876C203.044 5.97876 196.359 15.8325 196.359 19.4946C196.421 21.212 197.148 22.8384 198.388 24.0315C199.628 25.2247 201.283 25.8914 203.006 25.8914C204.728 25.8914 206.384 25.2247 207.623 24.0315C208.863 22.8384 209.59 21.212 209.652 19.4946H209.695Z" fill="#3AAA35"/>
<path d="M197.341 16.5052C197.463 17.0501 197.655 17.5769 197.913 18.0722C198.598 19.325 199.46 20.4724 200.474 21.4789C201.63 22.6 203.178 23.2273 204.79 23.2273C206.402 23.2273 207.95 22.6 209.106 21.4789C209.217 21.3511 209.319 21.2234 209.43 21.1042C209.453 21.095 209.474 21.0804 209.49 21.0616C209.139 22.6723 208.198 24.0946 206.852 25.0507C205.506 26.0068 203.851 26.4281 202.21 26.2323C200.57 26.0365 199.061 25.2376 197.979 23.9917C196.897 22.7459 196.32 21.1424 196.359 19.4945C196.453 18.3881 196.742 17.3068 197.213 16.3008L197.341 16.5052Z" fill="#1F861B"/>
<path d="M203.744 21.4194H202.028V15.9688H203.744V21.4194Z" fill="white"/>
<path d="M200.15 19.5541V17.8423H205.614V19.5541H200.15Z" fill="white"/>
<path d="M197.58 195.457L200.056 206.205H216.542V204.91L207.168 199.476L206.015 195.661L197.58 195.457Z" fill="#F69491"/>
<path d="M207.168 199.476C206.621 199.127 197.58 195.465 197.58 195.465L206.015 195.661L207.168 199.476Z" fill="#E8716F"/>
<path d="M207.287 199.476L204.495 202.457C204.329 202.642 204.126 202.79 203.9 202.894C203.673 202.997 203.428 203.052 203.179 203.057C202.93 203.062 202.683 203.016 202.453 202.921C202.222 202.827 202.014 202.686 201.84 202.508L198.664 199.357L200.176 206.17H216.661V204.91L207.287 199.476Z" fill="#EAFCE6" stroke="#EAFCE6" stroke-width="1.21" stroke-miterlimit="10"/>
<path d="M177.654 195.61L175.767 206.111H159.657V204.842L168.818 199.528L168.989 195.797L177.654 195.61Z" fill="#F69491"/>
<path d="M168.818 199.528L168.989 195.797L177.654 195.61L168.818 199.528Z" fill="#E8716F"/>
<path d="M168.638 199.527L171.37 202.44C171.532 202.616 171.728 202.758 171.946 202.856C172.163 202.955 172.399 203.009 172.638 203.014C172.878 203.02 173.115 202.977 173.338 202.889C173.56 202.8 173.762 202.668 173.932 202.5L176.723 199.408L175.571 206.111H159.478V204.842L168.638 199.527Z" fill="#EAFCE6" stroke="#EAFCE6" stroke-width="1.18" stroke-miterlimit="10"/>
<path d="M198.408 119.003L208.764 198.207L196.445 198.105L188.172 148.445C187.498 146.418 185.244 146.435 184.518 148.445L178.106 198.301L165.591 198.855C165.591 198.855 166.701 149.313 175.69 115.783L198.408 119.003Z" fill="#85E1B5"/>
<path d="M199.006 127.639C199.006 127.639 199.074 141.325 186.985 139.911C174.896 138.497 173.155 125.032 173.155 125.032L199.006 127.639Z" fill="#254A4C"/>
<path d="M178.533 195.167L165.591 195.227" stroke="white" stroke-width="0.42" stroke-miterlimit="10"/>
<path d="M208.252 195.167L196.257 195.227" stroke="white" stroke-width="0.42" stroke-miterlimit="10"/>
<path d="M230.321 116.209C230.253 116.84 224.507 116.635 224.507 116.635C224.507 116.635 216.439 117.325 211.257 117.487L200.508 118.381C198.178 114.515 191.971 81.0443 198.34 82.1429C208.747 83.9314 212.128 106.526 212.128 106.526L223.679 109.013V109.09C224.2 109.03 229.109 109.779 229.305 109.72C229.305 109.72 239.148 113.595 240.002 115.383C240.856 117.172 235.085 114.157 234.325 113.782C233.565 113.407 230.321 116.209 230.321 116.209Z" fill="#EE8881"/>
<path d="M202.839 95.8716C202.771 105.087 198.494 115.613 199.843 117.844L207.586 117.368C205.264 113.91 204.478 110.776 202.839 95.8716Z" fill="#D46F6C"/>
<path d="M212.768 105.904C212.768 105.904 210.454 84.9618 200.705 81.206C194.669 78.8639 195.975 109.362 198.306 113.228L212.768 105.904Z" fill="#85E1B5"/>
<path d="M209.43 107.642L198.331 113.212C196.001 109.345 197.904 87.0059 204.137 85.2429L209.43 107.642Z" fill="#254A4C"/>
<path d="M212.615 102.693L197.418 109.149" stroke="white" stroke-width="0.12" stroke-miterlimit="10"/>
<path d="M177.423 87.5168C180.104 79.0513 188.983 78.4125 188.983 78.4125L192.996 77.2883L193.047 77.365L198.408 84.3145L199.894 81.7596L199.996 80.7205L201.704 81.6744C202.463 81.9214 205.119 85.6857 205.682 87.7978C206.307 90.4148 206.535 93.1106 206.357 95.795L201.285 133.898L170.363 129.878C170.363 129.878 174.598 96.4337 177.423 87.5168Z" fill="#85E1B5"/>
<path d="M201.533 130.449L171.234 125.969" stroke="white" stroke-width="0.12" stroke-miterlimit="10"/>
<path d="M201.132 81.3509L199.382 91.0088L191.1 77.6292" stroke="white" stroke-width="0.12" stroke-miterlimit="10"/>
<path d="M198.699 68.4396L199.424 67.3921C199.424 67.3921 205.503 68.4822 207.014 67.6731C208.525 66.864 208.602 63.8747 208.602 63.8747C208.602 63.8747 211.436 63.3807 210.045 62.4269C208.653 61.473 209.191 61.5071 209.191 61.5071C209.191 61.5071 213.127 60.9705 211.069 59.2076C209.012 57.4447 197.478 58.5603 197.478 58.5603C195.249 58.9862 193.593 70.0748 197.358 69.8278" fill="#0F1032"/>
<path d="M207.842 64.3176C207.842 64.3176 206.672 75.0145 203.377 78.0719C201.96 77.859 201.191 76.4282 200.321 76.3005C200.234 77.8597 200.274 79.4233 200.44 80.9761C200.252 81.7596 198.81 87.9853 198.81 87.9853L192.56 77.5013L195.506 69.6831C195.506 69.6831 194.942 69.7342 194.584 68.8314C194.446 68.3808 194.404 67.9067 194.46 67.4391C194.516 66.9715 194.669 66.5205 194.908 66.1146C195.488 65.1778 197.418 65.6292 197.606 66.6C197.665 66.9152 197.939 67.2814 198.383 66.9152C198.827 66.5489 200.013 62.4184 201.251 62.7761C203.053 63.3691 204.889 63.8526 206.749 64.2239C207.108 64.3002 207.475 64.3316 207.842 64.3176Z" fill="#F69491"/>
<path d="M196.581 67.1365C196.581 67.2387 195.728 65.9867 195.045 67.5964L196.581 67.1365Z" fill="#D46F6C"/>
<path d="M201.106 76.854L198.886 74.563L200.355 81.4104L201.106 76.854Z" fill="#D46F6C"/>
<path d="M205.827 71.02C205.776 71.3011 205.827 71.5566 205.981 71.5821C206.135 71.6077 206.271 71.3948 206.322 71.1052C206.374 70.8156 206.322 70.5686 206.169 70.5431C206.015 70.5175 205.878 70.7305 205.827 71.02Z" fill="#0F1032"/>
<path d="M203.693 70.4495C203.642 70.7391 203.693 70.9861 203.855 71.0116C204.017 71.0372 204.145 70.8242 204.197 70.5432C204.248 70.2621 204.197 70.0066 204.034 69.9811C203.872 69.9555 203.744 70.1685 203.693 70.4495Z" fill="#0F1032"/>
<path d="M205.435 69.5042C205.358 70.3558 205.332 72.519 205.332 72.519L203.975 72.255L205.435 69.5042Z" fill="#D46F6C"/>
<path d="M204.717 67.4176C204.914 67.4687 205.571 66.9492 204.854 66.6852C204.516 66.6108 204.166 66.6056 203.825 66.67C203.485 66.7344 203.161 66.8671 202.873 67.0599C202.711 67.2814 203.616 67.1621 204.717 67.4176Z" fill="#0F1032"/>
<path d="M207.193 69.1551C207.398 69.1551 207.979 68.5844 207.27 68.3034C206.561 68.0223 206.041 68.7377 205.878 68.9251C205.716 69.1125 206.1 68.8996 207.193 69.1551Z" fill="#0F1032"/>
<path d="M237.612 113.757C237.612 113.757 240.446 113.85 239.695 113.194C238.944 112.539 233.164 111.397 233.164 111.397L237.612 113.757Z" fill="#D46F6C"/>
<path d="M223.448 108.936L223.679 109.013V109.09C224.2 109.03 229.109 109.779 229.305 109.72C229.305 109.72 239.148 113.595 240.002 115.383C240.856 117.172 235.085 114.157 234.325 113.782C233.565 113.408 230.346 116.235 230.346 116.235C230.278 116.865 224.533 116.661 224.533 116.661C224.533 116.661 223.209 116.78 221.305 116.916C222.099 114.268 222.825 111.619 223.448 108.936Z" fill="white"/>
<path d="M237.612 113.757C237.612 113.757 240.446 113.85 239.695 113.194C238.944 112.539 233.164 111.397 233.164 111.397L237.612 113.757Z" fill="white"/>
<path d="M237.808 123.661L240.369 127.783" stroke="#12AC0F" stroke-width="0.52" stroke-miterlimit="10"/>
<path d="M234.854 123.389L239.104 120.756C239.254 120.663 239.361 120.515 239.401 120.343C239.441 120.172 239.412 119.991 239.319 119.841L233.756 110.906L228.375 114.24L233.937 123.175C234.03 123.325 234.179 123.431 234.351 123.472C234.523 123.512 234.704 123.482 234.854 123.389Z" fill="#72C66E"/>
<path d="M236.879 124.21L238.953 122.925C239.053 122.863 239.124 122.764 239.151 122.649C239.178 122.535 239.158 122.415 239.096 122.315L236.227 117.706L233.406 119.454L236.275 124.063C236.336 124.161 236.434 124.232 236.547 124.259C236.66 124.287 236.779 124.269 236.879 124.21Z" fill="#72C66E"/>
<path d="M233.924 110.163L227.768 113.978C227.711 114.012 227.662 114.057 227.623 114.11C227.584 114.164 227.556 114.224 227.541 114.289C227.526 114.353 227.524 114.42 227.535 114.485C227.546 114.55 227.57 114.612 227.606 114.668C227.676 114.778 227.788 114.857 227.916 114.886C228.044 114.914 228.178 114.891 228.289 114.821L234.453 111.006C234.509 110.972 234.557 110.927 234.595 110.874C234.634 110.822 234.661 110.762 234.676 110.699C234.691 110.635 234.694 110.57 234.683 110.505C234.673 110.441 234.65 110.38 234.615 110.324C234.545 110.212 234.432 110.131 234.303 110.101C234.173 110.071 234.037 110.093 233.924 110.163Z" fill="#12AC0F"/>
<path d="M231.012 108.042L227.162 110.427C227.093 110.471 227.044 110.539 227.025 110.619C227.005 110.698 227.018 110.782 227.06 110.852C227.081 110.888 227.11 110.918 227.144 110.943C227.177 110.967 227.216 110.984 227.256 110.994C227.297 111.003 227.338 111.005 227.379 110.998C227.42 110.991 227.46 110.977 227.495 110.955L231.337 108.57C231.373 108.55 231.404 108.523 231.429 108.49C231.454 108.457 231.472 108.419 231.481 108.379C231.491 108.339 231.492 108.298 231.485 108.257C231.478 108.217 231.462 108.178 231.439 108.144C231.419 108.108 231.392 108.077 231.359 108.052C231.326 108.027 231.288 108.01 231.248 108C231.208 107.99 231.167 107.989 231.126 107.996C231.085 108.004 231.047 108.019 231.012 108.042Z" fill="#12AC0F"/>
<path d="M229.023 109.549L233.463 116.678" stroke="#12AC0F" stroke-width="2.08" stroke-miterlimit="10"/>
<path d="M233.924 122.333C234.214 122.179 234.658 121.873 234.94 121.728" stroke="white" stroke-width="0.52" stroke-miterlimit="10" stroke-linecap="round"/>
<path d="M233.497 121.481C233.77 121.336 234.24 121.047 234.521 120.902" stroke="white" stroke-width="0.52" stroke-miterlimit="10" stroke-linecap="round"/>
<path d="M236.621 123.874C236.654 123.789 236.668 123.697 236.66 123.606C236.653 123.514 236.625 123.426 236.579 123.346C236.541 123.274 236.485 123.212 236.417 123.168C236.342 123.102 236.25 123.057 236.152 123.04C236.128 123.135 236.128 123.234 236.152 123.329C236.156 123.413 236.18 123.495 236.22 123.568C236.311 123.716 236.454 123.826 236.621 123.874Z" fill="white"/>
<path d="M232.933 120.706L233.864 120.127" stroke="white" stroke-width="0.52" stroke-miterlimit="10" stroke-linecap="round"/>
<path d="M232.447 119.829L233.403 119.258" stroke="white" stroke-width="0.52" stroke-miterlimit="10" stroke-linecap="round"/>
<path d="M228.059 114.344C228.15 114.369 228.246 114.374 228.339 114.361C228.433 114.348 228.524 114.316 228.605 114.268C228.673 114.22 228.733 114.163 228.784 114.097C228.847 114.015 228.888 113.919 228.904 113.816C228.806 113.791 228.703 113.791 228.605 113.816C228.52 113.826 228.438 113.856 228.366 113.901C228.287 113.95 228.219 114.015 228.166 114.091C228.113 114.167 228.076 114.253 228.059 114.344Z" fill="white"/>
<path d="M229.86 113.186C230.294 113.083 230.705 112.901 231.072 112.649C231.257 112.531 231.431 112.397 231.593 112.249C231.761 112.1 231.91 111.931 232.037 111.747C231.817 111.801 231.603 111.875 231.397 111.968C231.199 112.06 231.008 112.165 230.825 112.283C230.453 112.526 230.127 112.832 229.86 113.186Z" fill="white"/>
<path d="M169.381 133.396C169.381 133.396 251.451 175.178 261.653 168.433C275.484 159.295 297.057 112.113 297.057 112.113L267.322 93.4614L240.352 127.443C240.352 127.443 194.481 118.151 178.431 115.826C178.431 115.826 170.209 102.796 166.222 102.796C163.952 102.796 169.637 113.016 169.637 113.016C169.637 113.016 159.982 105.657 154.595 100.241C149.207 94.8241 156.575 111.312 161.971 114.114C167.366 116.916 150.872 103.043 149.165 103.894C147.457 104.746 155.141 114.659 157.702 116.669C160.263 118.679 145.75 106.185 146.066 109.583C146.143 110.478 154.296 122.052 157.702 122.052C161.109 122.052 147.201 114.114 146.347 115.818C145.494 117.521 169.381 133.396 169.381 133.396Z" fill="#FFBDBD"/>
<path d="M251.383 160.061C255.023 151.886 257.254 143.156 257.982 134.239C258.699 125.475 257.128 116.78 255.677 108.136L267.322 93.4614L297.057 112.113C297.057 112.113 275.484 159.295 261.653 168.433C259.57 169.813 254.465 169.166 247.677 167.249C249.034 164.918 250.271 162.519 251.383 160.061Z" fill="#EC8492"/>
<path d="M244.023 120.493C247.438 109.072 248.394 102.293 263.215 77.9101C265 75.0059 272.7 66.1486 278.318 64.803C286.386 62.8868 301.668 74.8952 298.543 92.8482C300.003 96.3401 294.684 133.975 293.421 141.631L244.023 120.493Z" fill="#3AAA35"/>
<path d="M225.31 295.527C225.053 319.731 224.797 329.593 224.797 329.593C224.797 329.593 175.426 330.496 173.488 328.154C171.55 325.812 197.546 313.787 197.546 313.787C197.546 313.787 198.007 307.655 198.007 295.552L225.31 295.527Z" fill="#FFBDBD"/>
<path d="M201.251 295.527H224.738C224.609 308.021 224.473 316.674 224.379 322.133C216.286 313.625 208.482 304.827 201.251 295.527Z" fill="#EC8492"/>
<path d="M225.216 311.708C224.814 311.708 218.983 323.777 218.983 323.777C218.983 323.777 212.418 321.503 195.488 313.744C195.488 313.744 165.608 321.554 169.603 330.667L229.1 330.581L225.216 311.708Z" fill="#062018" stroke="#062018" stroke-width="1.23" stroke-linecap="round" stroke-linejoin="round"/>
<path d="M190.93 314.97L202.301 323.291" stroke="white" stroke-width="1.34" stroke-miterlimit="10"/>
<path d="M182.845 316.478L194.216 324.798" stroke="white" stroke-width="1.34" stroke-miterlimit="10"/>
<path d="M228.084 302.11C229.604 279.916 231.986 216.314 231.115 213.852C230.244 211.391 333.811 194.366 333.811 172.036C333.811 149.705 292.601 163.093 292.601 163.093C292.601 163.093 225.002 162.497 198.912 174.429C183.852 181.31 197.256 301.063 197.256 301.063L228.084 302.11Z" fill="#EAFCE6"/>
<path d="M287.231 148.292C287.231 148.292 303.409 174.523 281.169 179.565C258.93 184.606 217.993 182.12 213.425 190.151C208.662 198.599 213.929 287.99 213.929 287.99" stroke="#254A4C" stroke-width="0.67" stroke-miterlimit="10"/>
<path d="M229.604 287.99L195.864 288.492" stroke="#254A4C" stroke-width="0.67" stroke-miterlimit="10"/>
<path d="M257.41 295.527C257.154 319.731 256.898 329.593 256.898 329.593C256.898 329.593 207.526 330.496 205.588 328.154C203.65 325.812 229.655 313.787 229.655 313.787C229.655 313.787 230.116 307.655 230.116 295.552L257.41 295.527Z" fill="#FFBDBD"/>
<path d="M232.071 295.527H257.41C257.29 306.513 257.179 314.536 257.085 320.021C248.693 311.376 240.386 303.192 232.071 295.527Z" fill="#EC8492"/>
<path d="M258.161 311.708C257.769 311.708 251.084 323.811 251.084 323.811C251.084 323.811 244.519 321.537 227.589 313.778C227.589 313.778 197.708 321.588 201.704 330.701L261.201 330.615L258.161 311.708Z" fill="#1A4F3F" stroke="#1A4F3F" stroke-width="1.23" stroke-linecap="round" stroke-linejoin="round"/>
<path d="M227.58 304.129C227.58 304.129 216.832 180.706 225.532 174.795C246.021 160.862 327.681 152.192 327.681 152.192C327.681 152.192 343.654 172.743 339.693 201.384C337.26 218.962 291.03 219.414 271.565 217.889C270.549 217.809 269.528 217.94 268.566 218.275C267.605 218.609 266.723 219.14 265.978 219.833C265.233 220.526 264.64 221.366 264.238 222.3C263.836 223.233 263.633 224.24 263.642 225.256C263.813 243.678 258.622 285.452 258.921 304.129H227.58Z" fill="white"/>
<path d="M319.724 205.14C328.782 196.691 335.339 183.286 336.611 169.958C340.067 180.053 341.122 190.812 339.693 201.384C338.148 212.541 318.973 216.791 300.182 218.026C307.338 214.789 313.934 210.439 319.724 205.14Z" fill="#EAFCE6"/>
<path d="M319.588 155.352C319.588 155.352 334.75 184.606 312.467 189.648C290.185 194.69 253.321 187.093 244.724 196.709C237.783 204.45 244.22 287.99 244.22 287.99" stroke="#254A4C" stroke-width="0.67" stroke-miterlimit="10"/>
<path d="M259.937 287.99L226.189 288.492" stroke="#254A4C" stroke-width="0.67" stroke-miterlimit="10"/>
<path d="M223.03 314.97L234.402 323.291" stroke="white" stroke-width="1.34" stroke-miterlimit="10"/>
<path d="M214.945 316.478L226.317 324.798" stroke="white" stroke-width="1.34" stroke-miterlimit="10"/>
<path d="M339.369 181.515C339.369 181.515 342.288 112.011 338.114 88.9392C333.939 65.8677 309.77 59.5313 309.77 59.5313L301.232 55.8777L283.364 61.4305L277.072 65.6888C271.83 69.3595 268.952 79.6476 267.868 85.6433L264.991 163.323C264.991 163.323 270.489 173.135 339.369 181.515Z" fill="#3AAA35"/>
<path d="M289.468 126.174C294.846 115.664 299.858 104.942 304.374 94.0235C308.728 83.5139 311.989 72.5956 316.104 61.9924C323.566 65.5779 335.313 73.4984 338.079 88.939C342.254 112.011 339.334 181.515 339.334 181.515C288.11 175.281 271.958 168.254 267.023 165.052C275.133 152.447 282.638 139.502 289.468 126.174Z" fill="#1F861B"/>
<path d="M307.926 58.9094C307.644 59.7611 288.563 79.5367 282.092 75.338C276.414 71.6503 279.821 61.4559 279.821 61.4559" stroke="white" stroke-width="0.66" stroke-miterlimit="10"/>
<path d="M281.494 65.7739L281.34 63.3467L280.239 54.2169L280.717 53.5781L280.606 51.96L292.746 37.2688C293.274 37.348 293.765 37.5856 294.155 37.9501C294.513 38.4526 296.853 36.5364 296.853 36.5364L305.936 57.4958L297.817 64.522C294.471 67.7498 287.829 73.3623 284.507 73.1493C282.493 73.0301 281.946 68.2778 281.946 68.2778L281.665 65.9358L281.494 65.7739Z" fill="#FFBDBD"/>
<path d="M293.019 36.5022L279.872 52.3516L280.256 54.4297C280.256 54.4297 285.037 70.2451 291.047 44.6696" fill="#1A4F3F"/>
<path d="M295.854 38.0948C298.415 36.9281 298.782 34.2113 298.842 31.4348C298.805 27.9913 298.131 24.5841 296.853 21.3852C294.88 17.1951 291.329 8.77211 289.331 6.37042C287.905 4.6671 284.789 -1.35899e-05 276.201 4.53935C275.947 3.83763 275.469 3.23845 274.841 2.83382C274.213 2.42918 273.468 2.24147 272.723 2.2995C271.977 2.35753 271.271 2.65809 270.714 3.15504C270.156 3.65199 269.777 4.31784 269.635 5.05034C269.234 3.99882 268.502 3.10488 267.55 2.50175C266.598 1.89861 265.476 1.61855 264.351 1.70331C263.23 1.8262 262.163 2.24764 261.262 2.92344C260.361 3.59925 259.658 4.50451 259.228 5.54431C258.82 6.59137 258.64 7.71331 258.7 8.83532C258.76 9.95732 259.06 11.0536 259.578 12.051C258.794 12.5239 258.177 13.2296 257.814 14.0695C257.451 14.9094 257.361 15.8414 257.555 16.7352C257.787 17.6212 258.291 18.4124 258.997 18.9976C259.703 19.5827 260.575 19.9322 261.491 19.997C261.334 20.4081 261.299 20.8553 261.388 21.2859C261.478 21.7165 261.689 22.1126 261.997 22.4276C262.304 22.7426 262.696 22.9633 263.125 23.0638C263.554 23.1643 264.003 23.1404 264.419 22.9949L295.854 38.0948Z" fill="#1A4F3F"/>
<path d="M291.508 32.9252C291.816 33.2914 295.837 28.3773 298.005 32.3035C300.942 37.6434 294.257 38.9975 294.018 39.9684C293.523 41.8421 294.676 42.7619 290.603 46.3389C288.102 48.5106 281.537 56.3204 276.995 56.2437C275.125 56.2437 272.504 53.7313 263.6 21.9643C263.6 21.9643 265.845 24.2297 268.159 24.2468C270.472 24.2638 273.008 20.5335 275.082 18.9835C284.089 12.1702 289.732 30.7705 291.508 32.9252Z" fill="#FFBDBD"/>
<path d="M272.214 37.0218C272.384 37.5328 272.743 37.8735 273.008 37.7968C273.272 37.7202 273.358 37.2177 273.187 36.7067C273.016 36.1957 272.666 35.855 272.402 35.9317C272.137 36.0083 272.051 36.5023 272.214 37.0218Z" fill="#10242E"/>
<path d="M268.56 37.7629C268.739 38.3164 269.081 38.6997 269.32 38.6145C269.559 38.5293 269.61 38.0269 269.422 37.4733C269.234 36.9197 268.927 36.6642 268.688 36.7409C268.449 36.8175 268.372 37.2093 268.56 37.7629Z" fill="#10242E"/>
<path d="M297.1 32.721C297.1 32.721 293.583 31.6138 293.455 34.9183L297.1 32.721Z" fill="#EC8492"/>
<path d="M270.634 36.1873L273.102 42.2255L270.105 43.1624C269.909 43.1624 269.175 43.0346 269.251 42.8387L270.634 36.1873Z" fill="#EC8492"/>
<path d="M276.73 43.2219L271.377 44.4654C271.377 44.4654 272.299 47.1566 273.896 46.5349C275.492 45.9132 276.73 43.2219 276.73 43.2219Z" fill="white"/>
<path d="M274.852 31.8011C273.551 31.302 272.131 31.1983 270.771 31.503C270.9 30.933 271.247 30.4359 271.738 30.1177C272.23 29.7994 272.826 29.6853 273.4 29.7996C273.7 29.8395 273.989 29.941 274.248 30.0979C274.506 30.2547 274.729 30.4635 274.903 30.7109C275.04 30.9494 275.287 31.9373 274.852 31.8011Z" fill="#10242E"/>
<path d="M268.628 32.2779C267.24 32.3796 265.914 32.8927 264.82 33.7513C264.678 33.1799 264.769 32.5756 265.073 32.071C265.378 31.5665 265.87 31.2029 266.442 31.0601C266.735 30.9688 267.044 30.9406 267.349 30.9773C267.654 31.014 267.947 31.1148 268.21 31.273C268.44 31.4263 269.089 32.2098 268.628 32.2779Z" fill="#10242E"/>
<path d="M343.56 111.474C343.56 111.474 361.805 160.913 352.747 174.77C346.053 184.99 253.15 175.408 253.15 175.408C253.15 175.408 240.25 176.022 222.757 178.704C222.757 178.704 225.899 169.523 242.094 165.163C257.717 160.905 312.954 144.408 312.954 144.408L308.822 106.126L343.56 111.474Z" fill="#FFBDBD"/>
<path d="M342.57 117.53C342.57 117.53 350.749 166.534 342.57 167.888C317.812 172.01 288.435 178.185 288.435 178.185C288.435 178.185 353.72 182.707 353.319 173.245C360.072 153.461 348.324 120.936 348.324 120.936L342.57 117.53Z" fill="#EC8492"/>
<path d="M326.127 67.6901C323.566 65.3735 314.482 59.7866 311.221 60.8768C303.35 63.4829 290.552 78.7021 298.654 95.0284L311.366 138.242L356.307 132.135C356.307 132.135 347.232 86.8695 326.127 67.6901Z" fill="#3AAA35"/>
<path d="M353.49 123.44L310.675 131.377" stroke="white" stroke-width="0.66" stroke-miterlimit="10"/>
<path d="M46.5599 249.822C26.0322 229.344 26.0322 196.143 46.56 175.665C67.0877 155.187 100.37 155.187 120.897 175.665C141.425 196.143 141.425 229.344 120.897 249.822C100.37 270.3 67.0877 270.3 46.5599 249.822Z" fill="#EAFCE6"/>
<path d="M97.8923 66.387V66.5062L85.7522 66.6936V66.5743C85.7294 65.0692 86.3064 63.6165 87.3565 62.5354C88.4066 61.4543 89.8439 60.8332 91.3527 60.8086H92.0869C92.8361 60.7916 93.5811 60.9228 94.2792 61.1945C94.9773 61.4662 95.6145 61.8731 96.1542 62.3917C96.6939 62.9102 97.1254 63.5303 97.4237 64.216C97.722 64.9017 97.8813 65.6395 97.8923 66.387ZM93.0175 63.6787C93.0153 63.5169 92.981 63.3571 92.9166 63.2086C92.8522 63.0601 92.759 62.9258 92.6423 62.8134C92.5257 62.701 92.3879 62.6127 92.2369 62.5536C92.0859 62.4946 91.9247 62.4659 91.7625 62.4693C91.4342 62.4693 91.1193 62.5994 90.8871 62.831C90.655 63.0626 90.5246 63.3767 90.5246 63.7042C90.5246 64.0317 90.655 64.3459 90.8871 64.5775C91.1193 64.809 91.4342 64.9392 91.7625 64.9392C91.928 64.9392 92.0919 64.9065 92.2448 64.843C92.3976 64.7796 92.5363 64.6866 92.653 64.5694C92.7696 64.4523 92.8618 64.3133 92.9244 64.1604C92.987 64.0075 93.0187 63.8438 93.0175 63.6787Z" fill="#1F861B"/>
<path d="M129.051 173.012L58.8569 174.087C56.9569 174.116 55.3931 172.603 55.3639 170.708L53.8382 71.6203C53.809 69.725 55.3255 68.165 57.2255 68.1358L127.42 67.0603C129.32 67.0312 130.884 68.544 130.913 70.4393L132.439 169.527C132.468 171.422 130.951 172.982 129.051 173.012Z" fill="#254A4C"/>
<path d="M128.727 166.436L59.2327 167.5L57.7708 72.5598L127.265 71.495L128.727 166.436Z" fill="#AFD2AE"/>
<path d="M133.151 133.541L125.759 133.655L125.645 126.28L133.038 126.167L133.151 133.541Z" fill="#3AAA35"/>
<path d="M132.844 107.986L122.284 108.148L122.171 100.774L132.73 100.612L132.844 107.986Z" fill="#3AAA35"/>
<path d="M133.129 126.605L122.22 126.772L122.106 119.397L133.016 119.23L133.129 126.605Z" fill="white"/>
<path d="M126.97 111.754L99.1389 108.669L103 74.0072L130.831 77.0919L126.97 111.754Z" fill="#AFEEAE"/>
<g style="mix-blend-mode:multiply" opacity="0.43">
<path d="M130.112 81.981L130.001 83.3437L123.607 81.2571L130.112 81.981Z" fill="#0C5209"/>
</g>
<path d="M119.142 165.563L59.184 166.483L57.7326 71.9482L124.964 70.9177L126.305 158.196L119.142 165.563Z" fill="white"/>
<path d="M129.745 85.7964L123.598 85.1151C123.09 85.0594 122.625 84.8048 122.305 84.4072C121.985 84.0096 121.836 83.5015 121.891 82.9945V82.9945C121.949 82.4884 122.205 82.0257 122.603 81.7068C123.001 81.3878 123.509 81.2385 124.017 81.2911L131.649 82.1428C132.157 82.1985 132.622 82.4531 132.943 82.8507C133.263 83.2483 133.412 83.7564 133.357 84.2634L133.297 84.8C133.243 85.3195 132.99 85.7982 132.59 86.1362C132.191 86.4742 131.677 86.6453 131.154 86.614L129.737 86.4607" stroke="#BFFCA3" stroke-width="0.32" stroke-miterlimit="10"/>
<path d="M106.29 73.7995L78.581 74.2241C77.0487 74.2476 75.7876 73.0275 75.764 71.499L75.7194 68.6037C75.6959 67.0752 76.9189 65.8171 78.4511 65.7936L106.16 65.369C107.692 65.3456 108.954 66.5656 108.977 68.0941L109.022 70.9894C109.045 72.5179 107.822 73.776 106.29 73.7995Z" fill="#D86A6A"/>
<path d="M118.741 165.572L118.63 158.29L125.903 158.179L120.149 165.495L118.741 165.572Z" fill="#BDF1BC"/>
<path d="M120.192 165.555L120.081 158.265L127.363 158.154L120.192 165.555Z" fill="white"/>
<path d="M102.964 77.447L82.024 77.7678L81.9214 71.1001L102.861 70.7792L102.964 77.447Z" fill="#1F861B"/>
<path d="M75.8066 74.2752L109.098 73.7651L109.011 68.1192C109 67.3852 108.697 66.6857 108.169 66.1747C107.64 65.6636 106.93 65.3829 106.195 65.3941L78.4599 65.8191C77.7242 65.8304 77.023 66.1328 76.5107 66.6598C75.9984 67.1868 75.7169 67.8952 75.7282 68.6292L75.8153 74.2836L75.8066 74.2752Z" fill="#3AAA35"/>
<path d="M118.066 81.734C118.051 81.0637 117.838 80.4128 117.454 79.8628C117.069 79.3127 116.531 78.888 115.906 78.6419C115.281 78.3958 114.596 78.3391 113.939 78.4791C113.282 78.6191 112.681 78.9494 112.211 79.4288C111.741 79.9081 111.423 80.5151 111.297 81.1738C111.172 81.8324 111.244 82.5134 111.504 83.1315C111.765 83.7495 112.202 84.2771 112.762 84.6481C113.322 85.0192 113.979 85.2172 114.651 85.2174C115.106 85.2175 115.557 85.1269 115.976 84.9509C116.395 84.7749 116.775 84.5171 117.094 84.1926C117.412 83.8681 117.662 83.4835 117.829 83.0613C117.996 82.6391 118.076 82.1878 118.066 81.734Z" fill="#BFFCA3"/>
<path d="M99.6169 91.3664L90.8064 91.5027C90.6986 91.5108 90.5903 91.4969 90.4881 91.4618C90.3859 91.4267 90.292 91.3712 90.2121 91.2987C90.1321 91.2261 90.0679 91.1381 90.0233 91.0399C89.9787 90.9417 89.9546 90.8354 89.9526 90.7277C89.9515 90.6236 89.9709 90.5204 90.0098 90.4239C90.0486 90.3274 90.1062 90.2394 90.1791 90.1651C90.2521 90.0907 90.339 90.0315 90.4349 89.9906C90.5308 89.9498 90.6338 89.9282 90.738 89.9271L99.5571 89.7908C99.7663 89.7885 99.9679 89.8686 100.118 90.0138C100.268 90.1589 100.355 90.3573 100.36 90.5658C100.364 90.7694 100.289 90.9668 100.151 91.1162C100.012 91.2657 99.8207 91.3554 99.6169 91.3664Z" fill="#BFFCA3"/>
<path d="M118.117 91.0853L103.211 91.3152C103.107 91.3187 103.003 91.3012 102.906 91.2637C102.809 91.2263 102.72 91.1698 102.645 91.0975C102.57 91.0252 102.511 90.9386 102.47 90.8428C102.43 90.7471 102.409 90.6442 102.409 90.5402C102.406 90.4362 102.425 90.3328 102.462 90.2358C102.5 90.1388 102.557 90.0503 102.629 89.9751C102.701 89.9 102.787 89.8398 102.883 89.7979C102.978 89.756 103.081 89.7333 103.186 89.7311L118.092 89.5097C118.196 89.5074 118.3 89.5257 118.397 89.5634C118.494 89.6012 118.583 89.6576 118.658 89.7296C118.734 89.8016 118.794 89.8876 118.836 89.9829C118.878 90.0781 118.901 90.1807 118.903 90.2847C118.903 90.4941 118.821 90.6952 118.674 90.8449C118.527 90.9945 118.327 91.0808 118.117 91.0853Z" fill="#BFFCA3"/>
<path d="M91.0283 97.8219L117.912 97.4131" stroke="#BFFCA3" stroke-width="0.32" stroke-miterlimit="10"/>
<path d="M91.0966 102.557L117.981 102.148" stroke="#BFFCA3" stroke-width="0.32" stroke-miterlimit="10"/>
<path d="M62.966 113.263L120.252 112.385" stroke="#254A4C" stroke-width="0.15" stroke-miterlimit="10"/>
<path d="M76.826 121.914L66.1555 122.078C65.8962 122.082 65.6828 121.875 65.6788 121.617L65.6784 121.591C65.6744 121.332 65.8814 121.119 66.1407 121.116L76.8112 120.952C77.0704 120.948 77.2839 121.155 77.2879 121.413L77.2882 121.439C77.2922 121.697 77.0853 121.91 76.826 121.914Z" fill="#3AAA35"/>
<path d="M97.435 121.61L90.7424 121.712C90.535 121.715 90.3642 121.55 90.3611 121.343L90.3578 121.13C90.3546 120.924 90.5202 120.753 90.7276 120.75L97.4202 120.647C97.6276 120.644 97.7984 120.809 97.8015 121.016L97.8048 121.229C97.808 121.436 97.6424 121.607 97.435 121.61Z" fill="#BFFCA3"/>
<path d="M97.5823 131.433L90.8898 131.536C90.6823 131.539 90.5116 131.374 90.5084 131.167L90.5051 130.954C90.5019 130.747 90.6675 130.576 90.8749 130.573L97.5675 130.471C97.7749 130.468 97.9457 130.633 97.9489 130.84L97.9521 131.053C97.9553 131.259 97.7897 131.43 97.5823 131.433Z" fill="#BFFCA3"/>
<path d="M97.6452 135.13L90.9526 135.233C90.7452 135.236 90.5744 135.071 90.5713 134.864L90.568 134.651C90.5648 134.444 90.7304 134.274 90.9378 134.271L97.6303 134.168C97.8378 134.165 98.0085 134.33 98.0117 134.537L98.015 134.75C98.0182 134.957 97.8526 135.127 97.6452 135.13Z" fill="#BFFCA3"/>
<path d="M76.8982 126.668L66.2278 126.832C65.9685 126.836 65.7551 126.629 65.7511 126.371L65.7507 126.345C65.7467 126.086 65.9537 125.873 66.213 125.869L76.8834 125.706C77.1427 125.702 77.3562 125.908 77.3602 126.167L77.3606 126.193C77.3646 126.451 77.1575 126.664 76.8982 126.668Z" fill="#3AAA35"/>
<path d="M76.9704 131.405L66.2999 131.569C66.0406 131.573 65.8272 131.366 65.8232 131.108L65.8228 131.082C65.8189 130.823 66.0258 130.61 66.2851 130.606L76.9556 130.443C77.2149 130.439 77.4283 130.645 77.4323 130.904L77.4327 130.93C77.4366 131.188 77.2297 131.401 76.9704 131.405Z" fill="#3AAA35"/>
<path d="M77.0426 136.142L66.3722 136.306C66.1129 136.31 65.8995 136.103 65.8955 135.844L65.8951 135.819C65.8911 135.56 66.0981 135.347 66.3574 135.343L77.0278 135.18C77.2871 135.176 77.5005 135.382 77.5045 135.641L77.5049 135.666C77.5089 135.925 77.3019 136.138 77.0426 136.142Z" fill="#3AAA35"/>
<path d="M104.849 128.614C103.44 125.24 105.04 121.366 108.422 119.961C111.804 118.556 115.688 120.152 117.096 123.526C118.505 126.9 116.905 130.774 113.523 132.179C110.141 133.584 106.257 131.988 104.849 128.614Z" stroke="#BFFCA3" stroke-width="2.12" stroke-miterlimit="10"/>
<path d="M104.321 126.089C104.321 124.334 105.02 122.65 106.264 121.409C107.508 120.168 109.195 119.471 110.954 119.471C112.714 119.471 114.401 120.168 115.645 121.409C116.889 122.65 117.588 124.334 117.588 126.089" stroke="#67EA61" stroke-width="2.12" stroke-miterlimit="10"/>
<path d="M110.954 151.613C107.291 151.613 104.321 148.65 104.321 144.996C104.321 141.341 107.291 138.378 110.954 138.378C114.618 138.378 117.588 141.341 117.588 144.996C117.588 148.65 114.618 151.613 110.954 151.613Z" stroke="#BFFCA3" stroke-width="2.12" stroke-miterlimit="10"/>
<path d="M106.267 149.671C105.648 149.058 105.156 148.328 104.821 147.524C104.485 146.72 104.312 145.858 104.312 144.987C104.312 144.116 104.485 143.254 104.821 142.45C105.156 141.646 105.648 140.916 106.267 140.303" stroke="#67EA61" stroke-width="2.12" stroke-miterlimit="10"/>
<path d="M83.1654 94.8411C83.1415 93.2188 82.636 91.6401 81.7126 90.3046C80.7892 88.9691 79.4894 87.9368 77.9778 87.3383C76.4662 86.7398 74.8105 86.6019 73.2204 86.9422C71.6302 87.2825 70.177 88.0856 69.0445 89.2499C67.9119 90.4143 67.151 91.8876 66.8579 93.4834C66.5649 95.0792 66.7528 96.7259 67.3981 98.2152C68.0433 99.7044 69.1168 100.969 70.4828 101.85C71.8488 102.73 73.4458 103.187 75.072 103.162C77.251 103.128 79.3275 102.233 80.8452 100.673C82.3628 99.1124 83.1973 97.0149 83.1654 94.8411Z" fill="#BFFCA3"/>
<path d="M122.673 320.889L123.442 330.351L138.476 330.99L130.05 326.255L128.351 320.327L122.673 320.889Z" fill="#FFBDBD"/>
<path d="M129.58 319.569L123.442 330.351L122.195 320.421L129.58 319.569Z" fill="#EC8492"/>
<path d="M130.05 325.42L139.705 331.28L121.435 331.467L122.673 325.514L126.268 329.006L130.05 325.42Z" fill="#3AAA35"/>
<path d="M131.86 326.502L130.178 327.584" stroke="white" stroke-width="0.3" stroke-miterlimit="10"/>
<path d="M133.362 327.209L131.68 328.29" stroke="white" stroke-width="0.3" stroke-miterlimit="10"/>
<path d="M106.307 322.703L107.562 330.734L92.3829 331.935L100.98 326.749L100.502 322.388L106.307 322.703Z" fill="#FFBDBD"/>
<path d="M100.502 322.388L106.307 322.703L107.562 330.734L100.502 322.388Z" fill="#EC8492"/>
<path d="M100.331 326.272L91.7254 331.936L108.1 331.748L107.016 326.613L104.497 330.045L100.331 326.272Z" fill="#3AAA35"/>
<path d="M98.7005 327.294L100.434 328.29" stroke="white" stroke-width="0.3" stroke-miterlimit="10"/>
<path d="M97.2321 328.069L98.9651 329.065" stroke="white" stroke-width="0.3" stroke-miterlimit="10"/>
<path d="M103.55 233.475L117.969 233.56C117.969 233.56 120.274 235.263 122.579 243.984C125.388 254.63 129.597 282.309 130.98 322.278L120.496 322.593L111.899 261.639C111.852 261.451 111.735 261.287 111.573 261.181C111.41 261.074 111.214 261.032 111.021 261.063C110.829 261.094 110.656 261.196 110.536 261.348C110.415 261.501 110.356 261.693 110.371 261.886L107.571 323.274L97.2406 322.874C97.2406 322.874 91.2644 255.959 95.2257 245.952C99.1871 235.945 103.55 233.475 103.55 233.475Z" fill="#254A4C"/>
<path d="M98.7687 250.04L100.86 323.121" stroke="white" stroke-width="0.3" stroke-miterlimit="10"/>
<path d="M119.916 249.58L128.368 322.354" stroke="white" stroke-width="0.3" stroke-miterlimit="10"/>
<path d="M119.643 322.405L118.977 317.023L132.415 312.773L131.945 322.78L119.643 322.405Z" fill="#85E1B5"/>
<path d="M107.571 323.274C107.366 323.061 107.084 317.491 107.084 317.491L95.2514 313.906L96.4722 323.155L107.571 323.274Z" fill="#85E1B5"/>
<path d="M140.866 205.557C140.866 205.557 133.183 228.237 129.324 227.121L129.384 215.897C129.529 216.118 135.94 203.411 135.94 203.411C135.94 203.411 137.87 200.226 138.741 199.723C138.741 199.723 142.241 196.887 141.814 198.165C141.399 199.151 140.822 200.06 140.107 200.856L140.909 205.242" fill="#FFBDBD"/>
<path d="M138.425 203.249L136.495 195.133" stroke="#67EA61" stroke-width="1.76" stroke-miterlimit="10" stroke-linecap="round"/>
<path d="M136.111 203.309C136.111 203.309 136.111 200.073 136.589 200.004C137.067 199.936 139.202 200.107 139.407 200.856C139.612 201.606 137.793 201.554 137.793 201.554C137.793 201.554 138.647 203.07 137.913 203.556C137.178 204.041 136.111 203.309 136.111 203.309Z" fill="#FFBDBD"/>
<path d="M110.755 200.882C110.755 200.882 117.252 204.799 119.48 207.014C121.709 209.228 129.623 215.232 129.623 215.232L135.018 204.748L140.141 209.339C140.141 209.339 133.661 227.743 130.015 227.854C126.37 227.964 102.824 211.655 110.755 200.882Z" fill="white"/>
<path d="M119.258 211.212C119.258 211.212 123.997 207.908 120.402 206.298C116.808 204.689 119.549 204.697 121.726 203.658C123.903 202.619 120.966 202.151 118.977 201.393C116.987 200.635 118.695 199.689 120.402 198.659C122.11 197.628 121.154 196.385 121.154 196.385L120.65 191.522C121.119 190.568 119.736 187.766 119.421 186.753C118.473 183.644 113.444 181.992 109.577 183.61C109.577 183.61 101.185 186.761 102.508 189.785C104.105 193.413 102.61 193.838 100.34 194.12C98.0686 194.401 96.3611 196.104 98.726 197.807C100.801 199.298 102.226 199.885 100.34 200.924C98.4528 201.963 95.6952 201.299 95.6013 203.283C95.5074 205.268 99.9554 205.361 99.1016 206.775C98.2479 208.189 95.1318 206.682 93.8085 208.947C93.1413 209.968 92.6291 211.081 92.2888 212.251L119.258 211.212Z" fill="#1E2F4D"/>
<path d="M109.893 191.53C109.882 191.562 109.865 191.592 109.843 191.617C109.821 191.643 109.794 191.663 109.764 191.678C109.734 191.693 109.701 191.702 109.668 191.705C109.634 191.707 109.6 191.703 109.568 191.692C109.014 191.496 107.767 190.934 107.084 192.331C106.846 192.903 106.844 193.545 107.079 194.118C107.314 194.691 107.767 195.148 108.339 195.388C108.578 195.482 109.125 195.729 109.236 195.967C109.551 196.691 109.372 197.977 109.236 199.621C109.213 200.606 108.866 201.556 108.249 202.326C107.632 203.095 106.779 203.641 105.821 203.879C105.821 203.879 113.914 210.769 115.314 206.434C114.759 205.515 115.092 198.582 116.168 198.957C117.542 199.451 120.249 198.838 120.522 192.637C120.778 186.897 116.817 185.96 115.784 185.824C114.887 185.662 111.967 184.853 109.893 191.53Z" fill="#FFBDBD"/>
<path d="M118.627 186.199C118.627 186.199 110.841 191.428 109.705 191.692C109.705 191.692 109.022 181.821 118.627 186.199Z" fill="#1E2F4D"/>
<path d="M107.571 192.97C107.571 192.97 109.082 191.428 109.346 194.281L107.571 192.97Z" fill="#EC8492"/>
<path d="M114.734 193.2C114.997 193.278 115.232 193.432 115.407 193.644C115.582 193.856 115.69 194.115 115.717 194.388C115.744 194.661 115.689 194.936 115.558 195.178C115.427 195.419 115.227 195.616 114.984 195.744C114.74 195.872 114.464 195.924 114.19 195.894C113.917 195.864 113.658 195.754 113.448 195.576C113.238 195.399 113.085 195.163 113.01 194.899C112.935 194.635 112.941 194.355 113.026 194.094C113.138 193.752 113.379 193.468 113.698 193.301C114.017 193.134 114.388 193.098 114.734 193.2Z" fill="#FF9C9C"/>
<path d="M120.035 195.559C119.756 195.403 119.539 195.157 119.421 194.86C119.303 194.564 119.291 194.236 119.386 193.932C119.46 193.7 119.595 193.491 119.777 193.328C119.958 193.165 120.18 193.053 120.419 193.004C120.46 193.872 120.329 194.74 120.035 195.559Z" fill="#FF9C9C"/>
<path d="M117.986 192.774L117.815 194.298L118.609 194.23C118.644 194.229 118.677 194.219 118.705 194.2C118.734 194.182 118.757 194.156 118.772 194.125C118.787 194.094 118.793 194.06 118.79 194.026C118.787 193.992 118.775 193.96 118.755 193.932L117.986 192.774Z" fill="#EC8492"/>
<mask id="path-264-inside-1" fill="white">
<path d="M115.75 191.122C115.493 191.3 115.886 190.491 116.236 190.398C116.39 190.346 116.559 190.356 116.705 190.426C116.852 190.496 116.966 190.62 117.022 190.772C116.57 190.739 116.12 190.862 115.75 191.122Z"/>
</mask>
<path d="M115.75 191.122C115.493 191.3 115.886 190.491 116.236 190.398C116.39 190.346 116.559 190.356 116.705 190.426C116.852 190.496 116.966 190.62 117.022 190.772C116.57 190.739 116.12 190.862 115.75 191.122Z" fill="#062018"/>
<path d="M116.236 190.398L116.557 191.345L116.526 191.355L116.495 191.364L116.236 190.398ZM117.022 190.772L117.96 190.428L118.496 191.884L116.948 191.77L117.022 190.772ZM116.322 191.942C116.267 191.98 116.169 192.042 116.038 192.088C115.922 192.129 115.64 192.205 115.314 192.075C114.937 191.926 114.767 191.615 114.707 191.4C114.654 191.212 114.667 191.052 114.675 190.978C114.707 190.713 114.833 190.477 114.898 190.364C114.985 190.212 115.105 190.04 115.252 189.886C115.378 189.754 115.624 189.526 115.978 189.432L116.495 191.364C116.674 191.316 116.739 191.225 116.701 191.265C116.684 191.283 116.656 191.32 116.633 191.359C116.623 191.378 116.62 191.384 116.623 191.378C116.624 191.374 116.63 191.361 116.636 191.34C116.642 191.321 116.654 191.278 116.661 191.217C116.667 191.169 116.68 191.03 116.632 190.858C116.576 190.66 116.415 190.36 116.051 190.216C115.738 190.092 115.473 190.167 115.379 190.2C115.271 190.238 115.2 190.286 115.177 190.302L116.322 191.942ZM115.915 189.451C116.316 189.315 116.754 189.341 117.136 189.523L116.275 191.328C116.363 191.37 116.464 191.376 116.557 191.345L115.915 189.451ZM117.136 189.523C117.518 189.705 117.814 190.03 117.96 190.428L116.083 191.117C116.117 191.211 116.186 191.286 116.275 191.328L117.136 189.523ZM116.948 191.77C116.725 191.753 116.504 191.814 116.322 191.941L115.177 190.302C115.736 189.911 116.414 189.725 117.095 189.775L116.948 191.77Z" fill="#062018" mask="url(#path-264-inside-1)"/>
<mask id="path-266-inside-2" fill="white">
<path d="M120.01 190.994C120.266 191.173 119.865 190.364 119.515 190.278C119.438 190.252 119.356 190.24 119.275 190.245C119.194 190.25 119.115 190.271 119.042 190.307C118.969 190.342 118.903 190.392 118.85 190.453C118.796 190.514 118.755 190.585 118.729 190.662C119.182 190.617 119.636 190.735 120.01 190.994Z"/>
</mask>
<path d="M120.01 190.994C120.266 191.173 119.865 190.364 119.515 190.278C119.438 190.252 119.356 190.24 119.275 190.245C119.194 190.25 119.115 190.271 119.042 190.307C118.969 190.342 118.903 190.392 118.85 190.453C118.796 190.514 118.755 190.585 118.729 190.662C119.182 190.617 119.636 190.735 120.01 190.994Z" fill="#062018"/>
<path d="M119.515 190.278L119.278 191.25L119.231 191.239L119.185 191.223L119.515 190.278ZM118.729 190.662L118.828 191.657L117.287 191.809L117.782 190.342L118.729 190.662ZM120.582 190.174C120.56 190.159 120.49 190.111 120.381 190.073C120.29 190.041 120.021 189.962 119.703 190.09C119.332 190.24 119.174 190.55 119.122 190.748C119.077 190.92 119.092 191.058 119.099 191.104C119.107 191.165 119.119 191.207 119.125 191.225C119.132 191.246 119.137 191.258 119.138 191.261C119.141 191.267 119.138 191.26 119.127 191.242C119.104 191.202 119.076 191.166 119.059 191.149C119.021 191.109 119.091 191.205 119.278 191.25L119.751 189.307C120.113 189.395 120.365 189.623 120.492 189.754C120.641 189.907 120.763 190.077 120.851 190.228C120.918 190.341 121.045 190.573 121.08 190.835C121.09 190.907 121.106 191.066 121.056 191.256C121 191.47 120.834 191.791 120.45 191.946C120.119 192.079 119.833 192 119.719 191.96C119.589 191.914 119.491 191.852 119.437 191.814L120.582 190.174ZM119.185 191.223C119.233 191.239 119.284 191.246 119.334 191.243L119.216 189.247C119.429 189.234 119.642 189.264 119.844 189.334L119.185 191.223ZM119.334 191.243C119.385 191.24 119.434 191.227 119.48 191.205L118.603 189.408C118.795 189.314 119.003 189.26 119.216 189.247L119.334 191.243ZM119.48 191.205C119.526 191.183 119.567 191.152 119.6 191.113L118.099 189.792C118.24 189.632 118.411 189.501 118.603 189.408L119.48 191.205ZM119.6 191.113C119.634 191.075 119.66 191.03 119.677 190.981L117.782 190.342C117.85 190.14 117.958 189.953 118.099 189.792L119.6 191.113ZM118.631 189.667C119.32 189.598 120.011 189.778 120.58 190.172L119.44 191.816C119.261 191.692 119.044 191.635 118.828 191.657L118.631 189.667Z" fill="#062018" mask="url(#path-266-inside-2)"/>
<path d="M117.026 192.971C117.027 192.971 117.029 192.97 117.031 192.97C117.025 192.969 117.02 192.968 117.015 192.967C116.995 192.965 116.974 192.963 116.951 192.964C116.946 192.964 116.942 192.964 116.937 192.965C116.911 192.966 116.886 192.971 116.864 192.977C116.862 192.977 116.86 192.978 116.859 192.978C116.864 192.979 116.869 192.98 116.874 192.98C116.894 192.983 116.916 192.984 116.938 192.984C116.943 192.984 116.948 192.983 116.952 192.983C116.979 192.981 117.003 192.977 117.026 192.971Z" fill="#062018" stroke="#062018"/>
<path d="M119.452 192.829C119.454 192.828 119.457 192.827 119.459 192.826C119.454 192.824 119.448 192.822 119.441 192.82C119.405 192.808 119.362 192.8 119.313 192.802C119.31 192.802 119.306 192.803 119.302 192.803C119.26 192.806 119.222 192.815 119.19 192.828C119.181 192.831 119.172 192.835 119.164 192.839C119.163 192.84 119.161 192.84 119.16 192.841C119.161 192.841 119.162 192.842 119.163 192.842C119.203 192.857 119.251 192.867 119.306 192.864C119.31 192.864 119.314 192.864 119.317 192.864C119.356 192.861 119.391 192.853 119.422 192.842C119.432 192.838 119.442 192.834 119.452 192.829Z" fill="#062018" stroke="#062018"/>
<path d="M114.614 199.575C114.734 199.573 114.927 199.525 115.133 199.218C114.965 199.159 114.765 199.088 114.548 199.01C114.142 198.865 113.67 198.692 113.218 198.519C113.34 198.694 113.49 198.876 113.659 199.043C114.023 199.401 114.368 199.578 114.614 199.575ZM112.892 197.876C112.892 197.876 112.892 197.878 112.893 197.881C112.893 197.878 112.892 197.876 112.892 197.876Z" fill="#062018" stroke="#062018"/>
<path d="M117.722 192.11C117.722 193.634 117.098 194.665 116.1 194.665C115.101 194.665 113.923 192.868 113.965 191.343C113.871 190.926 114.273 191.973 115.195 191.581C115.613 191.367 116.092 191.302 116.552 191.398C117.012 191.495 117.425 191.746 117.722 192.11V192.11Z" stroke="#1E334D" stroke-width="0.33" stroke-miterlimit="10"/>
<path d="M121.581 191.275C121.581 192.654 120.88 194.409 119.975 194.392C119.071 194.375 118.268 193.54 118.319 192.169C118.772 191.249 119.438 191.437 120.351 191.462C121.265 191.488 121.615 189.921 121.581 191.275Z" stroke="#1E334D" stroke-width="0.33" stroke-miterlimit="10"/>
<path d="M117.713 192.476L118.43 192.484" stroke="#1E334D" stroke-width="0.33" stroke-miterlimit="10"/>
<path d="M114.102 192.442L108.518 191.249" stroke="#1E334D" stroke-width="0.33" stroke-miterlimit="10"/>
<path d="M108.553 203.437C108.553 203.437 107.195 203.062 107.426 203.352C107.779 203.707 108.182 204.011 108.621 204.254L108.553 203.437Z" fill="#C20600"/>
<path d="M115.348 202.517C115.203 202.883 121.623 215.292 121.487 218.894C121.35 222.497 118.925 234.071 119.156 234.607C119.156 234.607 116.381 236.847 100.894 234.607C96.0879 230.511 100.092 210.889 101.637 206.4C101.637 206.4 107.519 201.376 108.826 201.29C108.826 201.256 113.393 208.172 115.348 202.517Z" fill="#BFFCA3"/>
<path d="M106.717 203.334C106.717 203.334 111.293 215.079 113.666 217.566C116.04 220.053 111.711 255.175 111.711 255.175L88.7886 256.478C88.7886 256.478 92.5023 242.928 98.3931 236.89C94.4489 215.692 99.2469 211.536 99.2469 211.536C99.4573 209.695 100.204 207.956 101.396 206.535C102.587 205.113 104.17 204.072 105.949 203.539L106.717 203.334Z" fill="white"/>
<path d="M107.622 203.147C111.43 211.595 110.047 210.122 113.897 217.847C113.897 217.847 114.469 228.458 114.059 231.346C114.059 231.346 107.161 217.472 105.684 214.883L106.35 211.476L103.464 211.008L104.651 203.709L107.622 203.147Z" fill="#228276"/>
<path d="M108.254 201.171C108.254 201.171 111.472 211.51 114.674 217.949C114.674 217.949 115.69 227.411 115.271 230.289C115.271 230.289 108.527 216.612 107.058 214.023L107.741 211.05L105.12 210.361L104.361 203.411L108.254 201.171Z" fill="white"/>
<path d="M116.714 232.563L98.2564 220.001L98.5296 223.178C98.5296 223.178 100.946 234.003 102.798 237.145C104.77 240.441 107.007 244.223 112.01 238.747L116.714 232.563Z" fill="#254A4C"/>
<path d="M115.604 202.576C115.604 202.576 118.166 213.376 117.662 218.221C117.577 219.031 115.664 255.209 115.664 255.209L129.384 254.647L119.625 206.469L115.604 202.576Z" fill="white"/>
<path d="M115.485 201.921L117.935 203.735L118.55 205.932L117.44 207.337L119.028 208.402C119.028 208.402 120.923 212.515 119.105 222.114C117.286 231.712 117.662 229.327 117.662 229.327L115.485 201.921Z" fill="white"/>
<path d="M115.545 203.718C115.724 203.59 118.046 205.31 118.046 205.31L118.652 207.508L117.542 208.913L119.933 209.339C119.933 209.339 121.034 214.091 119.207 223.689C117.38 233.287 117.722 231.124 117.722 231.124L115.545 203.718Z" fill="#228276"/>
<path d="M115.058 202.236C115.195 202.321 117.935 203.735 117.935 203.735L118.55 205.932L117.44 207.337L119.796 209.185C119.796 209.185 119.916 213.98 118.089 223.578C116.262 233.177 117.619 230.026 117.619 230.026L115.058 202.236Z" fill="white"/>
<path d="M120.718 221.798C120.75 221.425 120.846 221.059 121 220.717C121.078 220.548 121.197 220.4 121.346 220.287C121.495 220.174 121.669 220.1 121.854 220.07C122.102 220.078 122.342 220.154 122.55 220.289C122.758 220.424 122.924 220.613 123.032 220.836C123.152 221.034 123.246 221.245 123.314 221.466C123.314 221.526 123.314 221.603 123.314 221.637C123.278 221.65 123.238 221.65 123.203 221.637C122.443 221.551 121.683 221.935 120.923 221.833" fill="#35445C"/>
<path d="M123.433 222.199H120.701C120.615 222.199 120.533 222.165 120.472 222.104C120.411 222.043 120.377 221.961 120.377 221.875C120.377 221.791 120.41 221.71 120.469 221.649C120.528 221.589 120.608 221.554 120.693 221.552H123.425C123.467 221.55 123.509 221.558 123.548 221.573C123.587 221.588 123.623 221.611 123.653 221.641C123.684 221.67 123.708 221.705 123.724 221.744C123.741 221.783 123.749 221.825 123.749 221.867C123.75 221.909 123.743 221.952 123.728 221.991C123.712 222.031 123.689 222.067 123.66 222.098C123.631 222.129 123.596 222.154 123.557 222.171C123.518 222.188 123.476 222.198 123.433 222.199Z" fill="#B7DEAD"/>
<path d="M122.161 230.801L128.317 210.693C128.48 210.148 128.759 209.645 129.134 209.217C129.51 208.789 129.974 208.447 130.494 208.214L143.53 202.406C143.619 202.369 143.716 202.359 143.81 202.376C143.905 202.393 143.992 202.438 144.062 202.503C144.131 202.569 144.18 202.654 144.203 202.747C144.225 202.84 144.22 202.938 144.188 203.028L137.955 222.727C137.795 223.246 137.53 223.727 137.176 224.14C136.822 224.553 136.387 224.89 135.898 225.128L122.836 231.414C122.747 231.454 122.649 231.468 122.552 231.453C122.456 231.439 122.366 231.396 122.294 231.33C122.222 231.265 122.171 231.18 122.148 231.086C122.124 230.991 122.129 230.892 122.161 230.801Z" fill="#254A4C"/>
<path d="M122.69 231.09L128.846 210.982C129.009 210.438 129.288 209.934 129.664 209.507C130.039 209.079 130.503 208.737 131.023 208.504L144.059 202.696C144.148 202.659 144.245 202.648 144.34 202.666C144.434 202.683 144.521 202.727 144.591 202.793C144.661 202.859 144.71 202.943 144.732 203.037C144.754 203.13 144.749 203.227 144.717 203.317L138.485 223.016C138.324 223.536 138.059 224.017 137.705 224.43C137.351 224.843 136.916 225.179 136.427 225.418L123.365 231.703C123.276 231.744 123.178 231.758 123.082 231.743C122.985 231.728 122.896 231.685 122.824 231.62C122.752 231.555 122.701 231.469 122.677 231.375C122.653 231.281 122.658 231.182 122.69 231.09Z" fill="#EAFCE6"/>
<path d="M140.866 205.557C140.866 205.481 133.832 208.717 133.832 208.717L134.515 206.273L141.72 203.113L140.866 205.557Z" fill="#3AAA35"/>
<path d="M139.611 204.714C139.611 204.637 135.898 206.256 135.898 206.256L136.427 204.399C136.477 204.225 136.566 204.065 136.688 203.931C136.809 203.797 136.959 203.692 137.127 203.624L138.058 203.249C138.269 203.167 138.499 203.146 138.722 203.19C138.944 203.235 139.149 203.341 139.313 203.498C139.476 203.655 139.591 203.855 139.644 204.075C139.697 204.295 139.686 204.526 139.611 204.74V204.714Z" fill="#1F861B"/>
<path d="M123.527 224.055C123.527 224.055 110.115 239.99 107.093 237.384L111.831 227.164C111.831 227.428 122.998 218.545 122.998 218.545C122.998 218.545 130.596 215.471 130.784 216.45C130.92 217.131 126.233 217.676 126.677 217.668C126.729 217.668 130.809 216.935 131.211 217.319C131.8 217.898 127.019 218.818 127.079 219.141C127.079 219.141 131.851 219.141 131.996 219.652C132.141 220.163 127.241 220.504 127.335 220.623C127.429 220.742 129.896 220.623 130.212 221.202C130.528 221.781 123.527 224.055 123.527 224.055Z" fill="#FFBDBD"/>
<path d="M125.721 217.889C125.721 217.889 127.531 214.236 126.729 214.67C125.926 215.104 121.777 219.669 121.777 219.669" fill="#FFBDBD"/>
<path d="M102.013 206C103.671 208.921 105.176 211.926 106.521 215.002C107.613 217.941 112.3 226.687 112.3 226.687L121.589 219.405L124.295 225.691C124.295 225.691 110.721 239.726 107.357 238.312C103.994 236.899 90.3081 212.498 102.013 206Z" fill="white"/>
<path d="M186.575 98.3501L180.326 114.975L190.195 124.649C187.301 125.501 164.267 124.837 165.027 115.392C165.377 110.98 168.152 105.01 169.296 101.672L186.575 98.3501Z" fill="#254A4C"/>
<path d="M197.145 123.985C197.358 123.891 202.506 124.309 202.728 123.789C203.07 123.006 197.316 122.648 197.213 122.639C195.753 122.478 202.711 123.193 203.061 122.716C203.411 122.239 200.278 121.686 200.167 121.668C200.056 121.651 197.435 121.353 197.418 121.157C197.401 120.962 203.693 121.055 203.317 120.527C202.942 119.999 198.938 119.335 197.922 119.292C196.953 119.136 195.995 118.92 195.053 118.645C194.003 118.492 198.904 116.984 197.939 115.818C197.939 115.818 193.482 116.524 191.963 117.248C191.169 117.623 179.968 111.389 179.968 111.389C178.798 110.742 178.781 110.478 179.396 109.294L187.156 92.1328C187.156 92.1328 190.195 84.1272 186.208 83.8887C180.232 83.5225 170.406 91.1534 166.282 111.721C165.352 116.388 167.469 119.744 173.607 121.49L178.935 122.418V122.537C185.244 123.809 191.639 124.617 198.067 124.956C198.81 125.007 201.055 124.956 201.174 124.649C201.482 123.994 196.94 124.087 197.145 123.985Z" fill="#F69491"/>
<path d="M189.12 116.192C190.605 116.899 191.732 117.359 191.963 117.248C193.482 116.525 197.939 115.818 197.939 115.818C198.903 116.984 194.003 118.492 195.053 118.645C195.995 118.92 196.953 119.136 197.922 119.292C198.938 119.335 202.942 120.008 203.317 120.527C203.693 121.047 198.528 121.115 198.553 121.319C198.579 121.524 200.167 121.669 200.167 121.669C200.167 121.669 203.42 122.239 203.061 122.716C202.703 123.193 195.753 122.478 197.213 122.639C197.316 122.639 203.07 123.006 202.728 123.789C202.506 124.309 197.358 123.891 197.145 123.985C196.931 124.079 201.413 123.985 201.191 124.649C201.072 124.93 198.827 125.007 198.084 124.956C197.145 124.896 193.235 124.76 187.088 123.908C187.737 121.328 188.402 118.756 189.12 116.192Z" fill="white" stroke="white" stroke-width="0.2" stroke-miterlimit="10"/>
<path d="M188.3 79.3665C188.3 79.3665 201.362 79.4261 182.939 105.095L166.905 101.22C166.905 101.22 178.738 76.573 188.3 79.3665Z" fill="#85E1B5"/>
<path d="M184.569 102.08L168.186 98.0264" stroke="white" stroke-width="0.12" stroke-miterlimit="10"/>
</g>
<defs>
<clipPath id="clip0">
<rect width="537" height="333" fill="white" transform="matrix(-1 0 0 1 537 0)"/>
</clipPath>
</defs>
</svg>
