<svg width="328" height="290" viewBox="0 0 328 290" fill="none" xmlns="http://www.w3.org/2000/svg">
<g style="mix-blend-mode:multiply">
<path d="M6.86195 251.794C9.36881 250.037 12.2874 248.954 15.3364 248.648C22.1023 247.854 30.1101 250.474 35.0782 246.021C38.7424 242.731 38.6258 237.13 37.1368 232.52C35.6477 227.91 33.0539 223.628 32.6079 218.841C31.9629 211.871 36.5466 204.744 43.3605 202.152C50.641 199.382 60.0762 201.194 65.5314 195.812C70.4926 190.914 69.1339 183.056 69.8613 176.278C71.5356 160.67 87.8807 149.008 102.112 143.447C112.577 139.344 124.228 138.66 134.755 142.278C147.051 146.471 160.144 150.041 173.298 148.297C182.905 147.025 191.997 142.989 201.658 142.107C209.001 141.423 216.308 142.49 222.031 147.134C226.245 150.554 230.554 154.083 233.209 158.707C236.407 164.26 236.908 170.888 236.386 177.174C235.803 184.259 234.417 192.474 239.653 197.528C242.974 200.736 248.093 201.564 252.814 201.352C257.535 201.14 262.208 200.066 266.936 200.168C270.566 200.246 274.147 201.022 277.483 202.453C280.42 203.627 282.99 205.561 284.928 208.054C291.604 217.336 284.379 229.811 288.667 239.695C292.654 248.867 308.944 249.591 316.733 254.489C320.049 256.575 322.786 259.46 324.69 262.877C326.594 266.294 327.605 270.134 327.629 274.043C327.629 275.719 327.362 277.463 326.291 278.831C325.221 280.199 323.629 280.794 322.051 281.368C312.382 284.911 302.048 286.484 291.748 287.579C244.209 292.62 196.224 287.934 148.43 286.033C109.544 284.48 70.5955 284.775 31.6815 285.52C25.4715 285.636 19.1105 285.746 13.2367 283.837C-1.19395 279.173 -4.04851 259.659 6.86195 251.794Z" fill="#D2F8F5"/>
</g>
<path d="M220.755 226.091C218.923 228.416 216.988 230.824 214.284 232.041C211.581 233.259 207.889 232.834 206.331 230.317C205.075 228.266 205.57 225.687 205.981 223.334C206.991 217.53 207.256 211.621 206.77 205.75C206.427 201.68 205.899 197.542 206.379 193.479C206.505 191.988 207.084 190.571 208.04 189.417C208.644 188.733 209.412 188.24 210.044 187.618C211.672 185.939 213.058 184.042 214.161 181.982C215.362 179.711 215.643 177.085 216.466 174.65C217.544 171.476 219.767 168.494 222.951 167.434C225.009 166.75 227.123 167.024 229.037 166.066C230.864 165.102 232.493 163.805 233.841 162.243C235.446 160.444 236.853 158.46 238.555 156.771C239.605 155.718 240.902 154.719 242.391 154.719C243.142 154.763 243.866 155.012 244.486 155.437C245.105 155.863 245.596 156.45 245.904 157.134C247.42 160.266 245.904 164.712 245.424 167.954C245.197 169.561 244.737 171.688 245.218 173.282C245.581 174.527 246.693 175.477 247.276 176.667C247.735 177.634 247.98 178.688 247.994 179.757C248.008 180.826 247.792 181.886 247.359 182.864C246.048 185.798 242.83 187.912 242.624 191.113C242.521 192.734 243.241 194.279 243.701 195.839C245.925 203.363 241.677 208.697 236.091 213.082L227.466 219.839C225.188 221.604 222.12 223.368 220.755 226.091Z" fill="#00A79B"/>
<path d="M210.661 228.498C221.558 206.194 231.247 183.357 242.459 161.169C242.857 160.382 241.67 159.692 241.272 160.485C230.087 182.652 220.371 205.51 209.481 227.814C209.09 228.601 210.277 229.298 210.661 228.498Z" fill="#43BB9F"/>
<path d="M223.616 172.017C224.206 177.044 225.833 182.078 230.101 185.149C230.787 185.668 231.473 184.465 230.787 183.972C226.958 181.236 225.51 176.503 224.982 172.017C224.886 171.155 223.507 171.141 223.609 172.017H223.616Z" fill="#43BB9F"/>
<path d="M210.277 191.858C212.116 198.383 217.029 203.137 218.264 209.963C218.422 210.831 219.739 210.462 219.588 209.6C218.346 202.761 213.413 198.028 211.601 191.496C211.553 191.321 211.437 191.172 211.279 191.082C211.12 190.992 210.933 190.969 210.757 191.017C210.582 191.065 210.432 191.181 210.342 191.338C210.252 191.496 210.229 191.683 210.277 191.858Z" fill="#43BB9F"/>
<path d="M230.465 185.251C235.972 185.237 241.398 183.927 246.302 181.428C247.091 181.031 246.398 179.855 245.616 180.251C240.927 182.639 235.737 183.884 230.471 183.883C230.289 183.883 230.115 183.955 229.986 184.084C229.858 184.212 229.785 184.386 229.785 184.567C229.785 184.749 229.858 184.923 229.986 185.051C230.115 185.179 230.289 185.251 230.471 185.251H230.465Z" fill="#43BB9F"/>
<path d="M219.451 210.079C224.756 205.907 232.434 208.992 237.677 204.45C238.363 203.876 237.375 202.911 236.709 203.486C231.59 207.911 223.843 204.888 218.484 209.115C217.798 209.655 218.765 210.619 219.451 210.079Z" fill="#43BB9F"/>
<path d="M227.939 241.234C233.299 237.075 237.937 231.98 243.66 228.334C250.139 224.366 257.551 222.168 265.152 221.959C272.089 221.85 278.43 224.114 285.134 225.53C286.108 225.735 287.295 226.166 287.371 227.158C287.425 227.883 286.822 228.471 286.259 228.943C282.766 231.897 279.109 234.729 276.261 238.347C273.29 242.13 270.854 246.274 268.027 250.146C259.106 262.306 243.537 269.816 228.578 267.621C222.169 266.677 216.123 264.098 210.291 261.274C205.453 258.921 200.533 256.247 197.349 251.917C196.292 250.481 195.476 248.442 196.539 247.02C199.353 243.258 207.875 247.704 211.636 247.957C217.523 248.278 223.513 244.667 227.939 241.234Z" fill="#43BB9F"/>
<path d="M199.682 250.433C211.183 258.736 227.617 259.577 239.296 251.062C245.396 246.609 249.987 240.351 256.348 236.234C260.105 233.802 264.177 231.892 268.452 230.557C272.665 229.271 277.139 229.189 281.387 228.013C281.563 227.964 281.711 227.847 281.801 227.689C281.89 227.53 281.913 227.343 281.864 227.168C281.815 226.993 281.698 226.844 281.539 226.755C281.38 226.666 281.192 226.643 281.016 226.692C277.167 227.759 273.166 227.937 269.296 228.902C265.963 229.843 262.743 231.141 259.69 232.773C253.356 235.946 248.71 240.878 243.598 245.645C237.635 251.206 231.13 254.796 222.91 255.597C214.871 256.302 206.851 254.046 200.368 249.256C199.682 248.737 198.996 249.94 199.682 250.433Z" fill="#9AC4A8"/>
<path d="M262.125 224.647C259.202 227.301 257.72 230.919 256.341 234.524C256.025 235.351 257.356 235.707 257.665 234.893C258.962 231.473 260.341 228.108 263.093 225.619C263.779 225.024 262.777 224.059 262.125 224.647Z" fill="#9AC4A8"/>
<path d="M242.226 233.094C238.85 238.915 238.109 244.982 236.736 251.438C236.551 252.3 237.876 252.669 238.054 251.808C239.426 245.406 240.051 239.571 243.406 233.785C243.488 233.629 243.507 233.447 243.457 233.278C243.408 233.108 243.295 232.964 243.142 232.876C242.988 232.788 242.807 232.762 242.635 232.804C242.463 232.846 242.314 232.952 242.219 233.101L242.226 233.094Z" fill="#9AC4A8"/>
<path d="M256.547 236.015C261.141 237.892 266.168 238.461 271.067 237.656C271.931 237.513 271.568 236.199 270.696 236.336C266.037 237.076 261.263 236.508 256.91 234.695C256.094 234.36 255.737 235.68 256.547 236.015Z" fill="#9AC4A8"/>
<path d="M236.887 252.327C243.44 255.912 251.06 257.052 258.379 255.542C259.244 255.371 258.88 254.051 258.015 254.222C251.054 255.648 243.811 254.56 237.581 251.151C236.805 250.727 236.105 251.91 236.894 252.327H236.887Z" fill="#9AC4A8"/>
<path d="M218.703 256.219C219.458 258.271 221.324 259.543 223.067 260.754C225.373 262.324 227.871 263.595 230.499 264.536C231.329 264.837 231.686 263.517 230.863 263.216C228.839 262.485 226.897 261.55 225.064 260.425C223.301 259.331 220.782 257.922 220.028 255.857C219.726 255.036 218.401 255.392 218.703 256.219Z" fill="#9AC4A8"/>
<path d="M220.035 256.582C221.591 253.384 223.915 250.619 226.8 248.531C227.487 248.018 226.8 246.828 226.114 247.348C223.027 249.558 220.534 252.492 218.854 255.891C218.47 256.677 219.65 257.368 220.041 256.575L220.035 256.582Z" fill="#9AC4A8"/>
<path d="M253.425 186.304C247.195 187.472 241.11 189.306 235.275 191.776C229.408 194.291 224.1 197.941 219.657 202.514C215.032 207.384 212.534 213.225 210.222 219.388C207.635 226.275 208.211 234.708 213.166 240.16C216.082 243.367 220.158 243.402 223.116 246.213C224.654 247.635 226.466 248.732 228.441 249.437C230.416 250.142 232.515 250.442 234.609 250.317C239.481 250.07 244.086 247.847 247.894 244.845C255.442 238.846 261.618 229.421 265.049 220.496C267.485 214.155 268.603 207.439 270.353 200.907C271.176 197.836 272.02 194.751 272.864 191.742C273.708 188.733 276 186.462 277.16 183.644C278.32 180.826 274.23 182.625 273.235 183.015C271.128 183.829 268.658 183.952 266.428 184.294C262.997 184.813 259.504 185.196 256.087 185.839C255.209 185.949 254.317 186.127 253.425 186.304Z" fill="#00B1A4"/>
<path d="M256.3 199.457C246.947 207.931 237.663 216.611 230.224 226.816C223.596 235.892 215.986 247.485 216 259.126C216 259.307 216.072 259.481 216.201 259.61C216.329 259.738 216.504 259.81 216.686 259.81C216.868 259.81 217.042 259.738 217.171 259.61C217.3 259.481 217.372 259.307 217.372 259.126C217.372 247.423 225.359 235.584 232.139 226.521C239.371 216.816 248.312 208.54 257.274 200.401C257.926 199.806 256.952 198.841 256.3 199.437V199.457Z" fill="#009DA3"/>
<path d="M255.12 208.807C252.504 208.206 249.83 207.897 247.146 207.883C246.268 207.883 246.261 209.251 247.146 209.251C249.707 209.262 252.259 209.556 254.756 210.127C255.62 210.298 255.984 208.978 255.12 208.807Z" fill="#009DA3"/>
<path d="M247.949 208.718C248.662 206.411 248.882 203.981 248.594 201.584C248.491 200.722 247.118 200.709 247.221 201.584C247.502 203.856 247.298 206.161 246.624 208.349C246.6 208.435 246.593 208.526 246.604 208.615C246.615 208.705 246.643 208.791 246.687 208.869C246.777 209.028 246.926 209.144 247.101 209.193C247.277 209.242 247.465 209.22 247.624 209.131C247.783 209.041 247.9 208.893 247.949 208.718Z" fill="#009DA3"/>
<path d="M239.317 237.841C233.964 239.305 228.468 238.881 223.013 238.327C222.134 238.238 222.141 239.606 223.013 239.695C228.591 240.262 234.218 240.652 239.687 239.161C239.863 239.112 240.012 238.996 240.101 238.837C240.191 238.679 240.213 238.491 240.164 238.316C240.115 238.141 239.998 237.993 239.839 237.904C239.68 237.815 239.492 237.792 239.317 237.841Z" fill="#009DA3"/>
<path d="M248.58 224.032C243.159 225.94 237.56 225.673 231.919 225.277C231.041 225.215 231.041 226.583 231.919 226.645C237.697 227.048 243.406 227.329 248.944 225.352C249.774 225.058 249.417 223.738 248.58 224.032Z" fill="#009DA3"/>
<path d="M234.129 222.972C230.231 218.006 230.465 210.763 231.199 204.812C231.302 203.937 229.929 203.944 229.826 204.812C229.037 211.187 229.01 218.649 233.154 223.963C233.697 224.647 234.664 223.683 234.129 222.999V222.972Z" fill="#009DA3"/>
<path d="M224.11 237.335C220.24 232.903 220.933 224.784 221.077 219.34C221.077 219.158 221.005 218.984 220.877 218.856C220.748 218.728 220.573 218.656 220.391 218.656C220.209 218.656 220.035 218.728 219.906 218.856C219.777 218.984 219.705 219.158 219.705 219.34C219.554 225.195 218.971 233.532 223.136 238.299C223.719 238.983 224.687 237.991 224.104 237.335H224.11Z" fill="#009DA3"/>
<path d="M121.641 270.801C124.482 271.3 127.453 271.793 130.205 270.924C132.957 270.056 135.352 267.361 134.844 264.536C134.432 262.252 132.38 260.685 130.555 259.249C126.041 255.7 122.001 251.591 118.533 247.02C116.124 243.846 113.819 240.515 110.82 237.875C109.758 236.877 108.415 236.225 106.971 236.008C106.099 235.912 105.221 236.008 104.349 236.008C102.073 235.866 99.8275 235.405 97.6796 234.64C95.3259 233.771 93.4114 232.041 91.2293 230.817C88.3885 229.216 84.834 228.498 81.8285 229.784C79.914 230.605 78.5485 232.192 76.5242 232.718C74.572 233.196 72.5475 233.307 70.5544 233.046C68.2213 232.787 65.9157 232.26 63.5689 232.123C62.1142 232.034 60.5291 232.123 59.4518 233.122C58.9376 233.64 58.5757 234.289 58.4051 234.998C58.2346 235.707 58.262 236.449 58.4842 237.143C59.4243 240.392 63.4385 242.615 65.8814 244.667C67.0891 245.679 68.7908 246.945 69.4908 248.395C70.0397 249.53 69.8544 250.939 70.177 252.17C70.4757 253.168 70.9855 254.09 71.6721 254.874C72.3586 255.659 73.2059 256.288 74.1569 256.718C77.0183 257.991 80.7237 257.443 82.9607 259.632C84.0861 260.74 84.5733 262.32 85.2526 263.736C88.5395 270.623 95.0926 271.745 102.003 271.3L112.645 270.617C115.5 270.411 118.883 269.714 121.641 270.801Z" fill="#00A79B"/>
<path d="M130.926 264.693C108.508 255.583 86.5838 245.31 64.0492 236.494C63.2258 236.172 62.869 237.492 63.6787 237.807C86.2201 246.63 108.144 256.903 130.562 266.013C131.378 266.342 131.735 265.022 130.926 264.693Z" fill="#43BB9F"/>
<path d="M83.2626 234.271C85.8495 237.937 87.8875 242.232 86.9132 246.808C86.7347 247.67 88.0591 248.032 88.2375 247.17C89.2874 242.232 87.2631 237.595 84.4497 233.58C83.9488 232.896 82.7548 233.58 83.2626 234.264V234.271Z" fill="#43BB9F"/>
<path d="M105.749 239.866C108.645 245.789 108.206 252.409 111.753 258.148C112.22 258.9 113.407 258.209 112.94 257.464C109.4 251.739 109.832 245.105 106.936 239.182C106.552 238.388 105.365 239.086 105.749 239.866Z" fill="#43BB9F"/>
<path d="M87.0778 246.521C83.2644 249.93 78.6883 252.38 73.7313 253.668C73.5557 253.717 73.4068 253.833 73.3174 253.992C73.2279 254.15 73.2053 254.338 73.2544 254.513C73.3036 254.688 73.4205 254.836 73.5794 254.925C73.7383 255.014 73.9263 255.037 74.1019 254.988C79.2853 253.62 84.0673 251.041 88.0522 247.464C88.7384 246.876 87.7365 245.912 87.0778 246.493V246.521Z" fill="#43BB9F"/>
<path d="M112.192 257.013C105.578 257.471 101.934 264.577 95.3258 264.728C95.1439 264.728 94.9693 264.8 94.8406 264.928C94.7119 265.056 94.6396 265.23 94.6396 265.412C94.6396 265.593 94.7119 265.767 94.8406 265.895C94.9693 266.023 95.1439 266.096 95.3258 266.096C102.078 265.945 105.619 258.832 112.192 258.38C113.071 258.326 113.078 256.951 112.192 257.013Z" fill="#43BB9F"/>
<path d="M117.243 202.528C114.896 196.174 113.654 189.41 110.724 183.302C107.326 176.519 102.195 170.749 95.8474 166.572C90.0216 162.831 83.4342 161.422 76.9977 159.09C76.0576 158.755 74.8156 158.495 74.2529 159.295C73.8206 159.883 74.0265 160.704 74.2529 161.395C75.6253 165.745 77.2653 170.074 77.7594 174.643C78.2809 179.431 78.1573 184.218 78.521 189.006C79.667 204.053 88.9031 218.594 102.764 224.572C108.707 227.151 115.212 228.142 121.655 228.813C127.014 229.367 132.634 229.681 137.609 227.677C139.263 226.993 141.04 225.714 140.889 223.943C140.491 219.272 130.884 218.588 127.549 216.782C122.376 214.026 119.178 207.774 117.243 202.528Z" fill="#43BB9F"/>
<path d="M136.388 223.854C128.536 224.478 120.718 222.296 114.333 217.698C107.149 212.452 103.505 205.346 101.296 196.92C99.498 189.888 97.8511 183.302 93.8232 177.146C92.1284 174.363 90.1184 171.784 87.8327 169.458C85.232 166.976 82.3432 164.89 79.8729 162.229C79.2759 161.579 78.3084 162.55 78.9053 163.2C81.4648 165.984 84.5527 168.152 87.2494 170.799C90.255 173.761 92.739 177.604 94.7495 181.291C98.8186 188.739 99.3127 197.378 102.524 205.141C108.014 218.396 122.328 226.207 136.408 225.222C137.287 225.16 137.293 223.792 136.408 223.854H136.388Z" fill="#9AC4A8"/>
<path d="M95.6964 170.806C96.6845 174.39 96.0807 177.946 95.3876 181.524C95.2161 182.385 96.5404 182.755 96.7051 181.893C97.4462 178.07 98.0775 174.267 97.0208 170.443C96.9969 170.357 96.9561 170.276 96.9008 170.205C96.8454 170.134 96.7766 170.074 96.6982 170.03C96.6198 169.985 96.5335 169.957 96.444 169.946C96.3545 169.934 96.2637 169.941 96.1767 169.965C96.0898 169.988 96.0084 170.029 95.9372 170.084C95.866 170.139 95.8064 170.208 95.7618 170.286C95.7172 170.364 95.6884 170.45 95.6772 170.54C95.666 170.629 95.6725 170.719 95.6964 170.806Z" fill="#9AC4A8"/>
<path d="M108.062 188.09C107.828 194.751 105.317 200.073 103.052 206.194C102.75 207.022 104.075 207.384 104.377 206.563C106.655 200.346 109.18 194.82 109.434 188.096C109.434 187.214 108.062 187.214 108.062 188.096V188.09Z" fill="#9AC4A8"/>
<path d="M96.067 181.722C91.4019 180.98 87.0407 178.944 83.4822 175.847C82.796 175.265 81.8422 176.23 82.5078 176.811C86.235 180.077 90.8067 182.236 95.7033 183.042C96.5679 183.186 96.9385 181.866 96.067 181.722Z" fill="#9AC4A8"/>
<path d="M103.787 205.873C96.6862 205.481 89.9566 202.587 84.7996 197.706C84.1546 197.104 83.1871 198.069 83.8321 198.671C89.2505 203.8 96.3247 206.838 103.787 207.241C104.665 207.288 104.665 205.921 103.787 205.873Z" fill="#9AC4A8"/>
<path d="M116.337 219.018C113.119 221.412 106.73 220.386 103.107 219.654C102.243 219.477 101.872 220.797 102.737 220.975C106.854 221.809 113.393 222.897 117.03 220.202C117.716 219.682 117.03 218.492 116.344 219.018H116.337Z" fill="#9AC4A8"/>
<path d="M117.195 219.743C117.563 216.022 117.022 212.267 115.617 208.8C115.294 207.993 113.963 208.342 114.292 209.163C115.65 212.506 116.175 216.127 115.822 219.716C115.747 220.592 117.119 220.585 117.195 219.716V219.743Z" fill="#9AC4A8"/>
<path d="M62.3337 186.209C68.3862 185.021 74.5493 184.484 80.7168 184.608C86.9313 184.781 93.0504 186.175 98.7225 188.712C104.672 191.448 109.015 195.825 113.373 200.565C118.21 205.859 120.742 213.683 118.245 220.4C116.769 224.353 113.098 225.872 111.445 229.456C110.566 231.294 109.322 232.935 107.789 234.28C106.256 235.624 104.465 236.645 102.524 237.28C98.0363 238.812 93.0614 238.463 88.5257 237.096C79.5365 234.36 70.5268 228.108 64.1864 221.275C59.6987 216.399 56.2678 210.729 52.3016 205.455C50.442 202.979 48.5618 200.51 46.7091 198.082C44.8564 195.654 41.9538 194.437 39.8815 192.31C37.8092 190.183 42.1665 190.333 43.2095 190.326C45.4053 190.326 47.6835 189.526 49.8176 189.033C53.1181 188.261 56.405 187.351 59.7262 186.701C60.5976 186.53 61.4622 186.366 62.3337 186.209Z" fill="#00B1A4"/>
<path d="M51.4644 194.929C65.3598 200.093 79.2895 205.503 91.9497 213.328C98.0881 217.117 103.898 221.411 109.317 226.166C114.676 230.865 119.782 236.029 122.43 242.759C122.746 243.573 124.077 243.217 123.755 242.396C118.814 229.757 105.742 220.516 94.6945 213.396C81.403 204.84 66.6018 199.033 51.8418 193.561C51.0115 193.254 50.6547 194.574 51.4781 194.881L51.4644 194.929Z" fill="#009DA3"/>
<path d="M58.3607 204.662C60.8994 202.891 63.632 201.413 66.5058 200.257C67.3292 199.956 66.9724 198.636 66.1421 198.937C63.1444 200.127 60.2921 201.653 57.6402 203.486C56.9059 203.958 57.5921 205.148 58.3264 204.662H58.3607Z" fill="#009DA3"/>
<path d="M66.6362 199.136C64.9258 197.021 63.6861 194.569 62.9994 191.94C62.9755 191.854 62.9347 191.773 62.8794 191.702C62.824 191.631 62.7552 191.571 62.6769 191.527C62.5985 191.482 62.5121 191.454 62.4226 191.442C62.3331 191.431 62.2423 191.438 62.1554 191.462C62.0684 191.485 61.987 191.526 61.9158 191.581C61.8446 191.636 61.785 191.705 61.7404 191.783C61.6958 191.861 61.6671 191.947 61.6558 192.036C61.6446 192.126 61.6511 192.216 61.675 192.303C62.4353 195.154 63.7942 197.811 65.6618 200.1C66.2176 200.784 67.1852 199.813 66.6362 199.136Z" fill="#009DA3"/>
<path d="M88.3062 230.338C95.1681 229.586 101.296 226.603 107.314 223.498C108.096 223.088 107.403 221.905 106.628 222.315C100.843 225.338 94.8868 228.279 88.313 229.004C87.4416 229.1 87.4347 230.468 88.313 230.372L88.3062 230.338Z" fill="#009DA3"/>
<path d="M71.7552 219.025C78.8504 218.772 85.2114 215.879 91.4969 212.87C92.2929 212.487 91.5999 211.303 90.8107 211.686C84.7311 214.627 78.624 217.438 71.762 217.685C70.8768 217.685 70.8768 219.053 71.762 219.053L71.7552 219.025Z" fill="#009DA3"/>
<path d="M88.7522 210.359C91.0441 202.706 87.5239 194.252 83.8116 187.59C83.3862 186.824 82.199 187.508 82.6313 188.274C86.1446 194.58 89.6031 202.733 87.4347 209.99C87.3865 210.165 87.41 210.352 87.5001 210.51C87.5901 210.668 87.7394 210.783 87.915 210.831C88.0906 210.879 88.2782 210.856 88.4365 210.766C88.5948 210.676 88.7108 210.528 88.759 210.353L88.7522 210.359Z" fill="#009DA3"/>
<path d="M106.36 222.158C107.856 219.422 106.895 215.099 106.271 212.179C105.317 207.733 103.485 203.527 101.687 199.368C101.337 198.561 100.157 199.259 100.507 200.052C102.008 203.345 103.294 206.73 104.356 210.188C105.186 213.136 106.778 218.519 105.173 221.46C104.747 222.233 105.934 222.924 106.36 222.144V222.158Z" fill="#009DA3"/>
<path d="M216.473 42.2552H118.485C112.8 42.2552 108.192 46.8485 108.192 52.5146V255.631C108.192 261.297 112.8 265.89 118.485 265.89H216.473C222.158 265.89 226.766 261.297 226.766 255.631V52.5146C226.766 46.8485 222.158 42.2552 216.473 42.2552Z" fill="#212938"/>
<path d="M211.821 42.2552H113.833C108.148 42.2552 103.54 46.8485 103.54 52.5146V255.631C103.54 261.297 108.148 265.89 113.833 265.89H211.821C217.505 265.89 222.114 261.297 222.114 255.631V52.5146C222.114 46.8485 217.505 42.2552 211.821 42.2552Z" fill="#2E3749"/>
<path d="M204.664 55.7634H120.996C115.312 55.7634 110.703 60.3567 110.703 66.0229V227.924C110.703 233.59 115.312 238.183 120.996 238.183H204.664C210.348 238.183 214.957 233.59 214.957 227.924V66.0229C214.957 60.3567 210.348 55.7634 204.664 55.7634Z" fill="#9DDAEB"/>
<g style="mix-blend-mode:multiply" opacity="0.5">
<path d="M177.724 50.0592H147.916C147.504 50.0574 147.109 49.893 146.819 49.602C146.528 49.3111 146.365 48.9172 146.365 48.5066C146.365 48.0966 146.528 47.7035 146.819 47.4136C147.11 47.1237 147.504 46.9608 147.916 46.9608H177.724C178.136 46.9608 178.531 47.1235 178.823 47.4132C179.115 47.7029 179.28 48.096 179.281 48.5066C179.281 48.9184 179.117 49.3133 178.825 49.6044C178.533 49.8956 178.137 50.0592 177.724 50.0592Z" fill="#2E3749"/>
</g>
<path d="M98.6608 139.063C99.4205 139.53 100.204 139.956 101.008 140.342C101.836 140.699 102.642 141.103 103.423 141.553C104.525 142.346 105.581 143.2 106.586 144.111C106.622 144.155 106.668 144.191 106.72 144.215C106.771 144.24 106.828 144.253 106.885 144.253C106.942 144.253 106.999 144.24 107.05 144.215C107.102 144.191 107.147 144.155 107.183 144.111C108.118 143.421 108.854 142.499 109.317 141.437C109.391 141.29 109.428 141.128 109.427 140.965C109.393 140.774 109.311 140.595 109.187 140.445C108.014 138.66 107.773 136.238 107.087 134.228C106.559 132.701 106.216 131.116 106.065 129.508C105.976 128.619 105.921 127.648 105.31 126.998C105.236 126.902 105.138 126.826 105.027 126.777C104.915 126.728 104.793 126.707 104.672 126.718C104.563 126.743 104.461 126.795 104.377 126.868C103.169 127.744 103.08 130.021 103.004 131.403C101.829 129.082 100.403 126.896 98.75 124.885C98.1874 124.139 97.3777 123.305 96.4787 123.517C96.0739 124.31 96.4787 125.261 96.8561 126.061C97.4943 127.367 98.1256 128.681 98.7638 129.987C97.7736 128.006 96.4482 126.211 94.8456 124.679C94.7249 124.527 94.5702 124.406 94.3939 124.324C94.2176 124.242 94.0245 124.202 93.83 124.208C93.6334 124.267 93.4639 124.393 93.351 124.565C93.2382 124.736 93.1892 124.941 93.2125 125.145C93.2721 125.549 93.4273 125.933 93.6654 126.266C94.5505 127.73 95.4426 129.194 96.3278 130.664C95.477 129.506 94.4729 128.469 93.3428 127.579C93.0203 127.326 92.6086 127.073 92.2312 127.231C92.0764 127.314 91.9527 127.445 91.8785 127.604C91.8043 127.763 91.7836 127.941 91.8195 128.113C91.8994 128.453 92.0541 128.77 92.2724 129.043C93.1685 130.318 94.1497 131.531 95.2093 132.675C94.5736 131.642 93.5638 130.893 92.389 130.582C92.1418 130.5 91.8746 130.5 91.6274 130.582C91.4394 130.685 91.2922 130.849 91.2099 131.047C91.1276 131.244 91.1151 131.464 91.1745 131.67C91.3735 132.484 92.341 133.489 92.8831 134.118C93.6199 134.975 94.4131 135.781 95.2573 136.533C96.3175 137.471 97.4562 138.318 98.6608 139.063Z" fill="#FFC398"/>
<path d="M137.767 129.542C137.582 130.103 137.396 130.671 137.225 131.232C136.23 134.433 135.166 137.723 133.458 140.636C132.291 142.606 130.631 144.692 128.462 145.588C127.226 146.069 125.896 146.262 124.573 146.152C123.25 146.042 121.971 145.631 120.832 144.952C118.249 143.348 116.029 141.226 114.313 138.721C110.8 133.865 106.243 138.331 103.382 141.779C102.73 142.467 102.271 143.313 102.051 144.234C101.474 147.654 105.825 151.997 107.972 154.322C113.236 160.027 121.401 165.211 129.491 164.37C138.35 163.453 144.251 153.426 147.072 145.903C150.009 138.266 150.878 129.994 149.59 121.916C149.165 119.461 147.236 118.955 145.02 119.687C144.099 120.023 143.262 120.553 142.563 121.239C140.141 123.489 138.803 126.485 137.767 129.542Z" fill="#E7F2F6"/>
<path d="M164.501 265.008C164.865 265.008 165.455 213.205 165.722 207.049C160.896 206.899 156.077 206.659 151.264 206.331C146.461 206.003 141.918 203.903 141.095 209.86C140.711 212.596 142.152 214.586 142.756 217.151C143.689 221.111 143.593 225.448 143.929 229.462C145.452 247.752 147.282 246.858 149.418 265.083L164.501 265.008Z" fill="#2E3749"/>
<path d="M142.303 83.1425C142.001 90.2899 144.265 98.046 150.866 101.746C152.463 102.6 154.153 103.268 155.903 103.737C159.388 104.836 163.053 105.252 166.697 104.961C170.365 104.65 173.804 103.056 176.406 100.46C177.814 98.8522 178.97 97.0423 179.837 95.0913C181.513 91.6655 182.89 88.1026 183.955 84.442C184.497 82.5816 184.799 80.2083 183.268 79.025C182.845 78.7825 182.445 78.5009 182.074 78.1837C181.814 77.8554 181.626 77.4753 181.525 77.0689C181.004 75.3795 180.681 73.5875 179.728 72.1033C178.355 69.9557 175.885 68.7929 173.552 67.7601C171.363 66.7958 169.764 66.105 167.376 66.4743C165.287 66.8037 163.234 67.3351 161.248 68.0611C158.854 68.9366 156.617 70.325 154.133 70.9064C151.388 71.5356 147.216 70.7969 145.445 73.3276C143.506 76.2461 142.418 79.6439 142.303 83.1425Z" fill="#2E3749"/>
<path d="M189.012 264.693C189.375 264.693 186.734 193.766 186.727 187.611C181.901 187.679 177.077 187.656 172.255 187.542C167.452 187.426 162.806 185.538 162.25 191.523C161.996 194.293 163.52 196.201 164.24 198.739C165.359 202.644 165.462 206.988 165.976 211.009C168.323 229.212 170.976 247.369 173.936 265.48L189.012 264.693Z" fill="#2E3749"/>
<path d="M169.147 103.285H155.718V119.502H169.147V103.285Z" fill="#FF9D6C"/>
<path d="M139.983 133.427C140.461 130.292 141.385 127.24 142.728 124.365C144.567 120.589 147.758 117.717 152.067 117.375C155.738 117.088 159.416 116.944 163.087 116.814C166.47 116.691 169.949 116.321 173.319 116.739C176.85 117.136 180.206 118.484 183.028 120.637C185.91 122.915 186.404 126.259 186.644 129.741C188.072 146.806 189.122 163.884 191.07 180.915C191.839 187.638 195.942 224.688 195.983 229.661C186.24 233.813 175.315 234.079 164.727 233.799C155.56 233.559 146.235 232.93 137.678 229.633C137.678 213.656 138.549 197.72 138.542 181.756C138.542 173.494 138.494 165.238 138.618 156.976C138.741 149.145 138.721 141.184 139.983 133.427Z" fill="white"/>
<path d="M160.226 162.243L150.578 111.39H172.289L160.226 162.243Z" fill="#99D4EA"/>
<path d="M175.742 91.4922C176.405 80.4696 170.034 71.1209 161.51 70.6112C152.987 70.1015 145.54 78.6238 144.877 89.6463C144.213 100.669 150.585 110.018 159.108 110.527C167.631 111.037 175.078 102.515 175.742 91.4922Z" fill="#FFC398"/>
<path d="M189.842 178.35C189.43 177.878 186.898 174.704 186.157 175.033C185.978 175.142 185.835 175.301 185.746 175.491C184.373 177.632 181.834 178.603 179.611 179.827C179.494 179.878 179.396 179.964 179.33 180.074C179.282 180.202 179.282 180.342 179.33 180.47C179.616 181.254 180.087 181.957 180.702 182.522C182.177 184.159 183.784 185.673 185.505 187.05C185.749 187.28 186.05 187.441 186.377 187.515C187.248 187.638 187.784 186.619 188.051 185.792C188.724 183.712 189.391 181.633 190.055 179.554C190.17 179.303 190.199 179.022 190.137 178.754C190.067 178.601 189.966 178.464 189.842 178.35Z" fill="#FFC398"/>
<path d="M176.551 95.1528C178.849 88.1012 178.575 81.4736 177.923 74.2031C177.738 72.1991 176.667 71.0842 175.254 69.6274C174.248 68.4567 173.036 67.4786 171.679 66.7411C167.692 64.8807 162.882 67.425 158.641 66.3238C156.932 65.8724 155.443 64.8465 153.783 64.272C151.888 63.6166 149.845 63.5131 147.893 63.9734C145.941 64.4337 144.162 65.4388 142.762 66.871C142.306 67.3287 141.938 67.8667 141.678 68.4578C141.464 69.1108 141.386 69.8004 141.447 70.4846C141.508 71.1689 141.708 71.8336 142.035 72.4385C143.593 75.7146 146.228 76.3986 149.261 77.6366C151.703 78.6283 154.592 78.7925 157.193 78.8198C160.123 78.8609 162.875 78.2521 165.633 79.6679C166.621 80.1672 167.486 80.8786 168.44 81.4394C169.461 81.9156 170.411 82.5327 171.26 83.2724C172.324 84.3941 172.632 86.0083 172.9 87.5267C173.394 90.1804 174.007 92.8069 174.739 95.4059C174.835 95.7616 174.979 96.1651 175.322 96.2882C175.878 96.4866 176.352 95.7547 176.551 95.1528Z" fill="#2E3749"/>
<path d="M187.88 154.398C187.241 147.784 183.165 143.311 180.798 137.367C178.568 131.759 176.846 125.295 178.142 119.256C178.166 119.002 178.269 118.763 178.438 118.572C178.781 118.25 179.336 118.408 179.776 118.572C189.863 123.191 197.734 131.566 201.699 141.902C203.023 145.737 203.781 149.743 203.95 153.796C204.268 157.722 203.997 161.673 203.147 165.519C201.514 172.276 197.239 177.584 191.667 181.558C191.468 181.748 191.228 181.89 190.965 181.973C190.702 182.056 190.424 182.078 190.151 182.037C189.886 181.935 189.651 181.771 189.465 181.558C187.484 179.62 185.581 177.604 183.756 175.512C183.46 175.203 183.227 174.841 183.069 174.445C182.747 173.487 183.323 172.488 183.838 171.613C186.962 166.438 188.375 160.416 187.88 154.398Z" fill="#E7F2F6"/>
<path d="M178.877 92.2187C179.333 92.5176 179.719 92.9122 180.007 93.375C180.294 93.8378 180.477 94.3577 180.543 94.8982C180.608 95.4388 180.554 95.9871 180.385 96.5048C180.216 97.0224 179.935 97.4971 179.563 97.8955C179.023 98.6896 178.327 99.3659 177.516 99.8833C176.706 100.401 175.798 100.748 174.849 100.905C173.435 101.117 171.384 101.001 171.082 99.2498C170.807 97.6835 172.083 95.4606 172.989 94.2569C174.362 92.458 176.66 90.6387 178.877 92.2187Z" fill="#FFC398"/>
<path d="M155.505 116.212L159.876 122.074L169.133 115.521L155.505 116.212Z" fill="#FF9D6C"/>
<path d="M160.439 161.518L168.371 143.482L166.086 139.576L169.86 139.549L178.383 117.655L170.965 115.09L160.439 161.518Z" fill="#E7F2F6"/>
<path d="M159.876 122.074L169.153 114.092L174.19 115.966L164.034 127.128L159.876 122.074Z" fill="#B8E8FF"/>
<path d="M160.226 162.243L152.458 143.482L154.75 139.576L150.969 139.549L143.167 119.495L152.033 116.807L160.226 162.243Z" fill="#E7F2F6"/>
<path d="M155.718 115.09L159.876 122.074L154.977 127.128L149.899 117.45L155.718 115.09Z" fill="#B8E8FF"/>
<path d="M163.204 86.3366C163.553 85.9556 164.019 85.7006 164.528 85.6116C165.017 85.509 165.522 85.509 166.011 85.6116C166.504 85.715 166.971 85.9175 167.383 86.2066C167.804 86.4936 168.131 86.8981 168.323 87.3694C167.795 87.3283 167.369 87.2599 166.951 87.1915C166.532 87.1231 166.141 87.0342 165.743 86.9453L164.563 86.658L163.204 86.3366Z" fill="#2E3749"/>
<path d="M169.702 95.83C169.654 96.808 168.289 97.5399 166.642 97.4646C164.995 97.3894 163.698 96.5344 163.746 95.5564C163.794 94.5783 165.16 93.8465 166.807 93.9217C168.453 93.9969 169.75 94.8519 169.702 95.83Z" fill="#FF8B7C"/>
<path d="M163.376 90.6045C163.328 91.7125 163.863 92.6564 164.556 92.6564C165.249 92.6564 165.86 91.8219 165.928 90.7139C165.997 89.6059 165.448 88.662 164.748 88.662C164.048 88.662 163.424 89.4965 163.376 90.6045Z" fill="#431C0F"/>
<path d="M151.161 85.68L149.789 85.9057L148.581 86.0835C148.183 86.1382 147.779 86.1861 147.36 86.2203C146.941 86.2545 146.502 86.2819 145.988 86.275C146.222 85.8206 146.588 85.4466 147.037 85.2012C147.466 84.9512 147.941 84.7901 148.434 84.7278C148.927 84.6655 149.428 84.7033 149.906 84.8387C150.406 84.9728 150.848 85.2687 151.161 85.68Z" fill="#2E3749"/>
<path d="M144.732 94.5783C144.691 95.5564 145.782 96.4045 147.168 96.4661C148.554 96.5276 149.727 95.7821 149.768 94.8109C149.81 93.8396 148.725 92.9847 147.332 92.9231C145.939 92.8616 144.787 93.6003 144.732 94.5783Z" fill="#FF8B7C"/>
<path d="M150.578 89.8316C150.53 90.9396 149.926 91.8083 149.206 91.7741C148.485 91.7399 147.977 90.8097 148.025 89.7222C148.074 88.6347 148.677 87.7455 149.398 87.7797C150.118 87.8139 150.626 88.7236 150.578 89.8316Z" fill="#431C0F"/>
<path d="M158.414 96.6781C158.414 97.1227 157.591 97.4304 156.637 97.3621C155.683 97.2937 154.929 96.8901 154.956 96.4455C154.983 96.001 155.786 95.6863 156.74 95.7616C157.694 95.8368 158.449 96.2335 158.414 96.6781Z" fill="#FB9A7F"/>
<path d="M157.234 105.091C155.77 105.177 154.326 104.721 153.179 103.811C152.031 102.901 151.262 101.601 151.017 100.159V99.9884C151.014 99.9269 151.014 99.8653 151.017 99.8038C151.017 99.8038 152.945 100.809 157.015 100.994C161.084 101.179 162.847 100.351 162.854 100.351C162.807 100.48 162.772 100.612 162.751 100.748C162.496 101.816 161.947 102.791 161.166 103.566C160.091 104.544 158.689 105.087 157.234 105.091Z" fill="white"/>
<path d="M159.835 144.405L162.223 233.724" stroke="#99D4EA" stroke-width="0.75" stroke-miterlimit="10"/>
<path d="M179.014 176.599L189.931 188.247L185.293 191.975L176.626 180.409L179.014 176.599Z" fill="#E7F2F6"/>
<path d="M143.95 178.562L139.132 188.507L142.721 191.195L148.101 180.012L143.95 178.562Z" fill="#E7F2F6"/>
<path d="M165.722 169.349C165.722 169.538 165.666 169.724 165.56 169.881C165.455 170.039 165.305 170.161 165.129 170.234C164.954 170.306 164.761 170.325 164.574 170.288C164.388 170.251 164.217 170.16 164.082 170.026C163.948 169.892 163.857 169.722 163.819 169.536C163.782 169.35 163.801 169.158 163.874 168.983C163.947 168.808 164.07 168.658 164.228 168.553C164.386 168.448 164.572 168.392 164.762 168.392C164.888 168.392 165.013 168.416 165.129 168.464C165.246 168.513 165.352 168.583 165.441 168.672C165.53 168.761 165.601 168.866 165.649 168.983C165.698 169.099 165.722 169.223 165.722 169.349Z" fill="#E7F2F6"/>
<path d="M165.722 185.833C165.722 186.022 165.666 186.207 165.56 186.365C165.455 186.522 165.305 186.645 165.129 186.717C164.954 186.79 164.761 186.809 164.574 186.772C164.388 186.735 164.217 186.644 164.082 186.51C163.948 186.376 163.857 186.205 163.819 186.019C163.782 185.834 163.801 185.641 163.874 185.466C163.947 185.291 164.07 185.142 164.228 185.036C164.386 184.931 164.572 184.875 164.762 184.875C164.888 184.875 165.013 184.9 165.129 184.948C165.246 184.996 165.352 185.067 165.441 185.155C165.53 185.244 165.601 185.35 165.649 185.466C165.698 185.582 165.722 185.707 165.722 185.833Z" fill="#E7F2F6"/>
<path opacity="0.3" d="M215.464 205.189H110.477V227.759C110.477 233.803 115.393 238.703 121.456 238.703H203.799C210.242 238.703 215.464 233.497 215.464 227.076V205.189Z" fill="#1F191A"/>
<path d="M162.834 232.862C169.28 232.862 174.506 227.653 174.506 221.228C174.506 214.802 169.28 209.593 162.834 209.593C156.387 209.593 151.161 214.802 151.161 221.228C151.161 227.653 156.387 232.862 162.834 232.862Z" fill="#F7545F"/>
<path d="M165.016 222.486C165.016 222.486 165.372 220.236 166.745 219.696C169.256 218.745 170.807 221.269 169.709 223.799C168.036 223.949 166.366 223.482 165.016 222.486Z" fill="white"/>
<path d="M160.658 222.37C160.658 222.37 160.171 220.106 158.805 219.634C156.26 218.8 154.819 221.392 156.026 223.84C157.698 223.926 159.344 223.404 160.658 222.37Z" fill="white"/>
<path d="M158.593 221.125L156.692 219.962C157.296 218.895 158.18 218.012 159.251 217.409C160.321 216.807 161.536 216.507 162.765 216.542C165.269 216.542 167.273 217.11 168.941 219.901L167.019 221.029C165.887 219.114 164.707 218.765 162.785 218.765C161.935 218.725 161.09 218.925 160.348 219.343C159.606 219.76 158.998 220.378 158.593 221.125Z" fill="white"/>
<path d="M195.462 217.801H191.235C190.477 217.801 189.863 218.413 189.863 219.169V223.389C189.863 224.144 190.477 224.757 191.235 224.757H195.462C196.22 224.757 196.834 224.144 196.834 223.389V219.169C196.834 218.413 196.22 217.801 195.462 217.801Z" fill="white"/>
<path d="M199.593 223.594L196.759 223.02V219.538L199.593 218.964V223.594Z" fill="white"/>
<path d="M130.644 222.623C129.88 222.623 129.147 222.32 128.606 221.781C128.066 221.243 127.762 220.512 127.762 219.75V216.33C127.762 215.569 128.066 214.838 128.606 214.299C129.147 213.76 129.88 213.458 130.644 213.458C131.409 213.458 132.142 213.76 132.682 214.299C133.223 214.838 133.526 215.569 133.526 216.33V219.75C133.526 220.512 133.223 221.243 132.682 221.781C132.142 222.32 131.409 222.623 130.644 222.623Z" fill="white"/>
<path d="M134.034 220.188C133.801 224.531 127.488 224.545 127.254 220.188C127.2 219.203 125.656 219.196 125.711 220.188C125.711 221.492 126.23 222.743 127.156 223.665C128.081 224.588 129.336 225.106 130.644 225.106C131.953 225.106 133.208 224.588 134.133 223.665C135.058 222.743 135.578 221.492 135.578 220.188C135.633 219.196 134.089 219.203 134.034 220.188Z" fill="white"/>
<path d="M129.869 224.34V227C129.887 227.192 129.976 227.37 130.119 227.499C130.262 227.629 130.448 227.7 130.641 227.7C130.834 227.7 131.02 227.629 131.163 227.499C131.305 227.37 131.395 227.192 131.413 227V224.34C131.395 224.148 131.305 223.97 131.163 223.841C131.02 223.711 130.834 223.639 130.641 223.639C130.448 223.639 130.262 223.711 130.119 223.841C129.976 223.97 129.887 224.148 129.869 224.34Z" fill="white"/>
<path d="M270.477 57.9932H202.825C199.035 57.9932 195.963 61.0554 195.963 64.8328V97.5057C195.963 101.283 199.035 104.345 202.825 104.345H270.477C274.266 104.345 277.338 101.283 277.338 97.5057V64.8328C277.338 61.0554 274.266 57.9932 270.477 57.9932Z" fill="#00BDD8"/>
<path d="M263.621 71.1321H211.052C209.515 71.1321 208.307 70.1335 208.307 68.9024C208.307 67.6713 209.543 66.6727 211.052 66.6727H263.621C265.152 66.6727 266.366 67.6713 266.366 68.9024C266.394 70.1198 265.152 71.1321 263.621 71.1321Z" fill="#E7F2F6"/>
<path d="M264.184 82.8005H210.51C210.217 82.8005 209.926 82.7428 209.655 82.6306C209.384 82.5185 209.138 82.3541 208.931 82.147C208.724 81.9399 208.559 81.694 208.448 81.4235C208.336 81.153 208.279 80.8633 208.28 80.5708C208.279 80.2783 208.336 79.9885 208.448 79.718C208.559 79.4475 208.724 79.2017 208.931 78.9945C209.138 78.7874 209.384 78.623 209.655 78.5109C209.926 78.3988 210.217 78.341 210.51 78.341H264.184C264.776 78.3428 265.343 78.5786 265.762 78.9965C266.18 79.4145 266.414 79.9806 266.414 80.5708C266.414 81.1609 266.18 81.727 265.762 82.145C265.343 82.563 264.776 82.7987 264.184 82.8005Z" fill="#E7F2F6"/>
<path d="M246.988 94.4826H211.052C209.515 94.4826 208.307 93.484 208.307 92.2528C208.307 91.0217 209.543 90.03 211.052 90.03H246.988C248.525 90.03 249.733 91.0217 249.733 92.2528C249.774 93.484 248.525 94.4826 246.988 94.4826Z" fill="#E7F2F6"/>
<path d="M203.71 102.41V116.123L222.896 103.572L203.71 102.41Z" fill="#00BDD8"/>
<g style="mix-blend-mode:multiply" opacity="0.5">
<path d="M162.854 260.412C167.466 260.412 171.205 256.685 171.205 252.088C171.205 247.491 167.466 243.764 162.854 243.764C158.242 243.764 154.503 247.491 154.503 252.088C154.503 256.685 158.242 260.412 162.854 260.412Z" fill="#2E3749"/>
</g>
<g opacity="0.75">
<path opacity="0.75" d="M48.3286 46.9472L90.7422 46.9472C94.5319 46.9472 97.6041 43.885 97.6041 40.1076V21.8116C97.6041 18.0341 94.5319 14.9719 90.7422 14.9719L48.3286 14.9719C44.5389 14.9719 41.4667 18.0341 41.4667 21.8116V40.1076C41.4667 43.885 44.5389 46.9472 48.3286 46.9472Z" fill="#6AD4D6"/>
<path opacity="0.75" d="M92.2586 45.6203V55.0795L79.022 46.4137L92.2586 45.6203Z" fill="#6AD4D6"/>
<path opacity="0.75" d="M55.417 33.5757C57.3232 33.5757 58.8686 32.0354 58.8686 30.1354C58.8686 28.2354 57.3232 26.6951 55.417 26.6951C53.5108 26.6951 51.9655 28.2354 51.9655 30.1354C51.9655 32.0354 53.5108 33.5757 55.417 33.5757Z" fill="#E7F2F6"/>
<path opacity="0.75" d="M68.5918 33.5757C70.498 33.5757 72.0434 32.0354 72.0434 30.1354C72.0434 28.2354 70.498 26.6951 68.5918 26.6951C66.6856 26.6951 65.1403 28.2354 65.1403 30.1354C65.1403 32.0354 66.6856 33.5757 68.5918 33.5757Z" fill="#E7F2F6"/>
<path opacity="0.75" d="M85.2252 30.1354C85.2252 30.8118 85.024 31.4729 84.647 32.0353C84.27 32.5977 83.7342 33.036 83.1072 33.2949C82.4803 33.5537 81.7904 33.6214 81.1249 33.4895C80.4594 33.3575 79.848 33.0318 79.3682 32.5536C78.8884 32.0753 78.5616 31.4659 78.4292 30.8026C78.2968 30.1392 78.3648 29.4516 78.6245 28.8267C78.8841 28.2018 79.3239 27.6677 79.8881 27.2919C80.4523 26.9161 81.1157 26.7156 81.7942 26.7156C82.7042 26.7156 83.5769 27.0759 84.2203 27.7172C84.8637 28.3586 85.2252 29.2284 85.2252 30.1354Z" fill="#E7F2F6"/>
<path opacity="0.75" d="M78.4571 94.9675C80.4402 86.5926 75.2365 78.2011 66.8343 76.2244C58.4322 74.2478 50.0132 79.4346 48.0302 87.8094C46.0471 96.1843 51.2508 104.576 59.6529 106.552C68.0551 108.529 76.474 103.342 78.4571 94.9675Z" fill="#6AD4D6"/>
<path opacity="0.75" d="M61.3594 93.7849V93.0599C61.3474 92.4846 61.487 91.9163 61.7643 91.4116C62.1534 90.8227 62.6575 90.3179 63.2464 89.9274C63.7597 89.5968 64.222 89.1936 64.6188 88.7304C64.8363 88.43 64.9517 88.0681 64.9482 87.6977C64.9583 87.509 64.9201 87.321 64.8373 87.1511C64.7545 86.9812 64.6297 86.8351 64.4747 86.7264C64.0792 86.4798 63.6161 86.3626 63.1504 86.3913C61.9672 86.4463 60.8134 86.7766 59.7812 87.3557L58.7039 85.2012C60.125 84.3924 61.7335 83.968 63.37 83.9701C64.5279 83.9085 65.6711 84.252 66.6019 84.9413C66.9906 85.252 67.3015 85.6485 67.5099 86.0996C67.7184 86.5507 67.8186 87.044 67.8028 87.5403C67.8195 88.1969 67.6481 88.8446 67.3087 89.4076C66.7993 90.1082 66.1642 90.7088 65.4354 91.179C64.988 91.4755 64.5839 91.8323 64.2346 92.2392C64.0526 92.5245 63.9639 92.859 63.9807 93.1967V93.7849H61.3594ZM61.0712 97.1226C61.0548 96.8946 61.086 96.6657 61.1627 96.4503C61.2395 96.2348 61.3602 96.0376 61.5172 95.871C61.8754 95.5676 62.3383 95.4154 62.8073 95.4469C63.0375 95.4318 63.2684 95.4627 63.4864 95.5379C63.7044 95.6131 63.9051 95.731 64.0767 95.8847C64.2297 96.0505 64.3465 96.2461 64.4198 96.4592C64.493 96.6723 64.5211 96.8982 64.5022 97.1226C64.5143 97.3467 64.4803 97.5708 64.4025 97.7814C64.3246 97.9919 64.2044 98.1843 64.0493 98.3469C63.8791 98.501 63.6797 98.6196 63.4629 98.696C63.2461 98.7723 63.0162 98.8048 62.7867 98.7915C62.5544 98.8066 62.3214 98.7756 62.1012 98.7005C61.881 98.6254 61.6778 98.5075 61.5035 98.3538C61.3505 98.1891 61.2332 97.9949 61.1588 97.783C61.0845 97.5712 61.0546 97.3464 61.0712 97.1226Z" fill="#E7F2F6"/>
<path opacity="0.75" d="M228.832 31.8316C237.465 31.8316 244.463 24.8559 244.463 16.2509C244.463 7.64599 237.465 0.670288 228.832 0.670288C220.199 0.670288 213.2 7.64599 213.2 16.2509C213.2 24.8559 220.199 31.8316 228.832 31.8316Z" fill="#6AD4D6"/>
<path opacity="0.75" d="M229.861 8.82312H227.802V23.6719H229.861V8.82312Z" fill="#E7F2F6"/>
<path opacity="0.75" d="M236.277 15.225H221.38V17.2769H236.277V15.225Z" fill="#E7F2F6"/>
<path opacity="0.75" d="M60.7006 152.681C65.9418 152.681 70.1907 148.446 70.1907 143.222C70.1907 137.998 65.9418 133.763 60.7006 133.763C55.4594 133.763 51.2106 137.998 51.2106 143.222C51.2106 148.446 55.4594 152.681 60.7006 152.681Z" fill="#6AD4D6"/>
<path opacity="0.75" d="M61.325 138.714H60.0762V147.729H61.325V138.714Z" fill="#E7F2F6"/>
<path opacity="0.75" d="M65.2227 142.599H56.1787V143.844H65.2227V142.599Z" fill="#E7F2F6"/>
<path opacity="0.75" d="M269.159 143.222C274.4 143.222 278.649 138.987 278.649 133.763C278.649 128.538 274.4 124.303 269.159 124.303C263.918 124.303 259.669 128.538 259.669 133.763C259.669 138.987 263.918 143.222 269.159 143.222Z" fill="#6AD4D6"/>
<path opacity="0.75" d="M268.013 135.213V134.775C268.004 134.426 268.09 134.081 268.26 133.776C268.497 133.419 268.803 133.112 269.159 132.873C269.468 132.671 269.747 132.427 269.989 132.148C270.119 131.964 270.189 131.744 270.188 131.519C270.195 131.404 270.172 131.289 270.121 131.185C270.071 131.081 269.995 130.991 269.9 130.924C269.658 130.78 269.379 130.711 269.097 130.726C268.375 130.755 267.669 130.954 267.039 131.307L266.353 130.001C267.216 129.51 268.193 129.253 269.187 129.255C269.889 129.218 270.583 129.426 271.149 129.843C271.385 130.032 271.574 130.273 271.701 130.547C271.827 130.822 271.887 131.122 271.876 131.423C271.887 131.822 271.785 132.216 271.581 132.559C271.27 132.982 270.884 133.346 270.442 133.633C270.172 133.813 269.927 134.029 269.715 134.275C269.604 134.449 269.549 134.652 269.557 134.857V135.213H268.013ZM267.821 137.264C267.811 137.126 267.829 136.988 267.875 136.857C267.921 136.726 267.994 136.607 268.089 136.505C268.308 136.321 268.591 136.228 268.878 136.245C269.017 136.237 269.157 136.256 269.289 136.302C269.421 136.348 269.542 136.419 269.646 136.512C269.741 136.612 269.815 136.73 269.862 136.86C269.909 136.989 269.929 137.127 269.921 137.264C269.927 137.401 269.905 137.537 269.858 137.664C269.811 137.792 269.739 137.91 269.646 138.01C269.542 138.103 269.421 138.174 269.289 138.22C269.157 138.266 269.017 138.285 268.878 138.277C268.592 138.294 268.311 138.198 268.095 138.01C268 137.91 267.927 137.792 267.879 137.662C267.832 137.533 267.812 137.395 267.821 137.258V137.264Z" fill="#E7F2F6"/>
<path opacity="0.75" d="M165.613 32.8507C170.854 32.8507 175.103 28.6157 175.103 23.3915C175.103 18.1673 170.854 13.9323 165.613 13.9323C160.371 13.9323 156.123 18.1673 156.123 23.3915C156.123 28.6157 160.371 32.8507 165.613 32.8507Z" fill="#6AD4D6"/>
<path opacity="0.75" d="M164.474 24.8484V24.4038C164.467 24.056 164.55 23.7124 164.714 23.4052C164.953 23.0496 165.258 22.7431 165.613 22.5024C165.926 22.3059 166.206 22.0612 166.443 21.7774C166.579 21.5958 166.651 21.3747 166.649 21.1481C166.654 21.0339 166.63 20.9202 166.58 20.8174C166.53 20.7147 166.454 20.6261 166.361 20.5599C166.121 20.4107 165.84 20.339 165.558 20.3547C164.835 20.3873 164.13 20.5888 163.499 20.9429L162.847 19.6297C163.712 19.1417 164.688 18.8849 165.681 18.8842C166.385 18.847 167.08 19.0576 167.644 19.4793C167.88 19.6661 168.07 19.9058 168.196 20.1792C168.322 20.4525 168.382 20.7516 168.371 21.0524C168.381 21.4517 168.276 21.8456 168.069 22.1877C167.763 22.612 167.379 22.9741 166.937 23.2547C166.667 23.4387 166.423 23.6571 166.21 23.9045C166.1 24.0756 166.048 24.2765 166.059 24.479V24.8415L164.474 24.8484ZM164.281 26.9002C164.271 26.7622 164.29 26.6234 164.336 26.4928C164.382 26.3622 164.454 26.2424 164.549 26.141C164.775 25.975 165.048 25.8854 165.328 25.8854C165.608 25.8854 165.881 25.975 166.107 26.141C166.2 26.2421 166.271 26.3607 166.317 26.49C166.363 26.6193 166.383 26.7565 166.374 26.8934C166.382 27.0298 166.362 27.1663 166.315 27.2945C166.267 27.4228 166.194 27.54 166.1 27.6389C165.996 27.7327 165.875 27.8052 165.743 27.8521C165.611 27.8991 165.471 27.9196 165.331 27.9125C165.048 27.929 164.769 27.8331 164.556 27.6458C164.46 27.5452 164.386 27.4258 164.338 27.295C164.291 27.1643 164.272 27.0252 164.281 26.8866V26.9002Z" fill="#E7F2F6"/>
</g>
</svg>
